<?xml version="1.0" encoding="utf-8"?>
<!-- Generator: Adobe Illustrator 16.0.0, SVG Export Plug-In . SVG Version: 6.00 Build 0)  -->
<!DOCTYPE svg PUBLIC "-//W3C//DTD SVG 1.1//EN" "http://www.w3.org/Graphics/SVG/1.1/DTD/svg11.dtd">
<svg version="1.1" id="Layer_1" xmlns="http://www.w3.org/2000/svg" xmlns:xlink="http://www.w3.org/1999/xlink" x="0px" y="0px"
	 width="595.279px" height="544.352px" viewBox="0 0 595.279 544.352" enable-background="new 0 0 595.279 544.352"
	 xml:space="preserve">
<g>
	<g>
		<path fill="#FFFFFF" d="M297.639,182.619c-10.535,0-17.561,7.024-17.561,17.561v126.43c0,10.535,7.023,17.561,17.561,17.561
			c10.535,0,17.561-7.023,17.561-17.561V200.18C315.199,189.643,308.174,182.619,297.639,182.619z"/>
		<path fill="#FFFFFF" d="M308.174,403.874c-7.023-7.023-17.561-7.023-24.584,0c-3.512,3.512-3.512,10.535-3.512,14.047
			c0,7.023,0,10.535,3.512,14.048c3.512,3.512,10.535,3.512,14.047,3.512s10.535,0,7.023-3.512
			c3.512-3.513,7.023-10.536,7.023-14.048C311.688,410.897,311.688,407.386,308.174,403.874z"/>
		<path fill="#FFFFFF" d="M582.109,407.386L374.903,45.654C360.856,17.558,329.248,0,297.639,0
			c-31.607,0-59.703,17.561-77.264,45.654L13.169,407.386c-17.561,28.097-17.561,63.216,0,91.312
			c14.047,28.096,45.654,45.654,77.264,45.654h414.412c35.119,0,63.215-17.561,77.264-45.654
			C599.67,470.602,599.67,435.482,582.109,407.386L582.109,407.386z M554.013,484.65c-7.023,17.561-24.584,28.096-45.654,28.096
			H90.433c-17.561,0-35.119-10.535-45.654-28.096s-10.535-38.631,0-56.191L251.985,66.725c7.023-17.561,24.584-28.096,45.654-28.096
			c21.072,0,38.631,10.535,49.168,28.096l207.206,361.731C564.55,446.018,564.55,467.09,554.013,484.65z"/>
	</g>
</g>
<circle fill="#FFFFFF" cx="297.639" cy="419.137" r="21.864"/>
</svg>
