<?xml version="1.0" encoding="utf-8"?>
<!-- Generator: Adobe Illustrator 16.0.0, SVG Export Plug-In . SVG Version: 6.00 Build 0)  -->
<!DOCTYPE svg PUBLIC "-//W3C//DTD SVG 1.1//EN" "http://www.w3.org/Graphics/SVG/1.1/DTD/svg11.dtd">
<svg version="1.1" id="Layer_1" xmlns="http://www.w3.org/2000/svg" xmlns:xlink="http://www.w3.org/1999/xlink" x="0px" y="0px"
	 width="595.279px" height="531.622px" viewBox="0 0 595.279 531.622" enable-background="new 0 0 595.279 531.622"
	 xml:space="preserve">
<g>
	<g>
		<path fill="#FFFFFF" d="M322.704,139.363H172.318c-5.191,0-9.399,4.208-9.399,9.398c0,5.191,4.209,9.399,9.399,9.399h150.386
			c5.191,0,9.398-4.209,9.398-9.399C332.104,143.571,327.896,139.363,322.704,139.363z"/>
	</g>
</g>
<g>
	<g>
		<path fill="#FFFFFF" d="M422.961,139.363h-50.129c-5.191,0-9.398,4.208-9.398,9.398c0,5.191,4.208,9.399,9.398,9.399h50.129
			c5.191,0,9.399-4.209,9.399-9.399C432.362,143.571,428.153,139.363,422.961,139.363z"/>
	</g>
</g>
<g>
	<g>
		<path fill="#FFFFFF" d="M247.511,189.491h-75.193c-5.191,0-9.399,4.208-9.399,9.398c0,5.191,4.209,9.399,9.399,9.399h75.193
			c5.191,0,9.399-4.209,9.399-9.399C256.91,193.7,252.702,189.491,247.511,189.491z"/>
	</g>
</g>
<g>
	<g>
		<path fill="#FFFFFF" d="M322.704,189.491H297.64c-5.191,0-9.398,4.208-9.398,9.398c0,5.191,4.209,9.399,9.398,9.399h25.064
			c5.191,0,9.399-4.209,9.399-9.399C332.104,193.7,327.896,189.491,322.704,189.491z"/>
	</g>
</g>
<g>
	<g>
		<path fill="#FFFFFF" d="M422.961,189.491h-50.129c-5.191,0-9.398,4.208-9.398,9.398c0,5.191,4.208,9.399,9.398,9.399h50.129
			c5.191,0,9.399-4.209,9.399-9.399C432.362,193.7,428.153,189.491,422.961,189.491z"/>
	</g>
</g>
<g>
	<g>
		<path fill="#FFFFFF" d="M422.961,239.62H297.64c-5.191,0-9.398,4.209-9.398,9.398c0,5.191,4.209,9.399,9.398,9.399h125.323
			c5.19,0,9.398-4.209,9.398-9.399C432.362,243.829,428.153,239.62,422.961,239.62z"/>
	</g>
</g>
<g>
	<g>
		<path fill="#FFFFFF" d="M247.511,239.62h-75.193c-5.191,0-9.399,4.209-9.399,9.398c0,5.191,4.209,9.399,9.399,9.399h75.193
			c5.191,0,9.399-4.206,9.399-9.399C256.91,243.829,252.702,239.62,247.511,239.62z"/>
	</g>
</g>
<g>
	<g>
		<path fill="#FFFFFF" d="M591.374,201.875l0.003-0.003l-83.823-60.427v-19.512c0-33.233-26.705-60.27-59.528-60.27h-34.75
			L340.145,12.91c-25.82-17.213-59.188-17.213-85.008,0l-73.133,48.754h-34.751c-32.823,0-59.528,27.037-59.528,60.27v19.512
			L3.903,201.872l0.003,0.003C1.478,203.625,0,206.448,0,209.497v262.69c0,32.772,26.705,59.435,59.527,59.435h476.225
			c32.822,0,59.527-26.662,59.527-59.435v-262.69C595.28,206.448,593.802,203.625,591.374,201.875z M507.554,164.618l62.121,44.783
			l-62.121,43.682V164.618z M106.524,121.934c0-22.48,18.651-41.472,40.73-41.472h37.518c0.024,0,0.048,0,0.071,0h119.599
			c5.191,0,9.398-4.209,9.398-9.399c0-5.191-4.209-9.399-9.398-9.399h-88.548l49.67-33.114c19.485-12.989,44.667-12.99,64.151,0
			l49.67,33.114h-33.503c-5.191,0-9.399,4.208-9.399,9.399c0,5.191,4.209,9.399,9.399,9.399h64.521c0.006,0,0.012,0.001,0.018,0.001
			s0.014-0.001,0.02-0.001h37.585c22.078,0,40.73,18.991,40.73,41.472v144.367l-119.354,83.925l-45.952-23.645
			c-15.949-9.419-35.67-9.419-51.618,0l-45.951,23.645l-119.355-83.925V121.934z M87.726,164.618v88.465l-62.121-43.682
			L87.726,164.618z M18.798,227.596l188.207,132.341L18.798,456.78V227.596z M535.752,512.822H59.528
			c-20.575,0-37.627-15.305-40.342-35.102l261.502-134.557c0.179-0.093,0.355-0.19,0.528-0.293c10.132-6.068,22.719-6.068,32.85,0
			c0.174,0.104,0.351,0.202,0.529,0.293l261.501,134.557C573.379,497.519,556.327,512.822,535.752,512.822z M576.483,456.78
			l-188.208-96.843l188.208-132.342V456.78L576.483,456.78z"/>
	</g>
</g>
</svg>
