<?xml version="1.0" encoding="utf-8"?>
<!-- Generator: Adobe Illustrator 16.0.0, SVG Export Plug-In . SVG Version: 6.00 Build 0)  -->
<!DOCTYPE svg PUBLIC "-//W3C//DTD SVG 1.1//EN" "http://www.w3.org/Graphics/SVG/1.1/DTD/svg11.dtd">
<svg version="1.1" id="Capa_1" xmlns="http://www.w3.org/2000/svg" xmlns:xlink="http://www.w3.org/1999/xlink" x="0px" y="0px"
	 width="106.047px" height="106.047px" viewBox="0 0 106.047 106.047" enable-background="new 0 0 106.047 106.047"
	 xml:space="preserve">
<g>
	<path fill="#FFFFFF" d="M102.716,106.067h-8.174V90.596H11.313v15.471H3.208V49.439c0-2.235,1.814-4.072,4.047-4.072
		c2.266,0,4.052,1.839,4.052,4.072v33.483h91.41V106.067L102.716,106.067z M20.238,76.835c-2.014,0-3.632-1.612-3.632-3.613
		c0-1.989,1.616-3.627,3.632-3.627h15.095V58.698c0-1.976,1.623-3.602,3.607-3.602c0.109,0,0.198,0.056,0.328,0.084l57.695,5.739
		c3.126,0.397,5.824,2.601,5.853,5.809l0.027,10.106L20.238,76.835L20.238,76.835z M16.443,58.403c0-4.045,3.28-7.321,7.354-7.321
		c4.049,0,7.328,3.276,7.328,7.321c0,4.073-3.28,7.354-7.328,7.354C19.724,65.757,16.443,62.476,16.443,58.403z M101.958,35.483
		L53.023,11.158L4.089,35.483l-4.441-8.941L52.955,0.049l0.02-0.074l0.049,0.035l0.05-0.028l0.021,0.074l53.305,26.497
		L101.958,35.483z"/>
</g>
</svg>
