<?xml version="1.0" encoding="utf-8"?>
<!-- Generator: Adobe Illustrator 16.0.0, SVG Export Plug-In . SVG Version: 6.00 Build 0)  -->
<!DOCTYPE svg PUBLIC "-//W3C//DTD SVG 1.1//EN" "http://www.w3.org/Graphics/SVG/1.1/DTD/svg11.dtd">
<svg version="1.1" id="Capa_1" xmlns="http://www.w3.org/2000/svg" xmlns:xlink="http://www.w3.org/1999/xlink" x="0px" y="0px"
	 width="595.279px" height="595.281px" viewBox="0 0 595.279 595.281" enable-background="new 0 0 595.279 595.281"
	 xml:space="preserve">
<g>
	<path fill="#FC2B27" d="M54.647,123.262c4.979-2.271,7.173-8.155,4.892-13.146c-2.282-4.979-8.155-7.193-13.146-4.892
		c-6.875,3.136-13.274,7.253-18.999,12.214c-4.139,3.591-4.584,9.86-1.002,13.999c1.964,2.262,4.731,3.423,7.5,3.423
		c2.302,0,4.624-0.794,6.499-2.421C44.686,128.71,49.478,125.624,54.647,123.262z"/>
	<path fill="#FC2B27" d="M89.292,117.905h19.843c5.486,0,9.922-4.435,9.922-9.921s-4.436-9.922-9.922-9.922H89.292
		c-5.485,0-9.922,4.436-9.922,9.922S83.806,117.905,89.292,117.905z"/>
	<path fill="#FC2B27" d="M148.82,117.905h19.843c5.487,0,9.922-4.435,9.922-9.921s-4.435-9.922-9.922-9.922H148.82
		c-5.486,0-9.921,4.436-9.921,9.922S143.333,117.905,148.82,117.905z"/>
	<path fill="#FC2B27" d="M109.135,236.962H89.292c-5.485,0-9.922,4.436-9.922,9.921c0,5.486,4.437,9.922,9.922,9.922h19.843
		c5.486,0,9.922-4.436,9.922-9.922C119.056,241.397,114.621,236.962,109.135,236.962z"/>
	<path fill="#FC2B27" d="M228.191,236.962h-19.843c-5.486,0-9.922,4.436-9.922,9.921c0,5.486,4.436,9.922,9.922,9.922h19.843
		c5.486,0,9.922-4.436,9.922-9.922C238.113,241.397,233.677,236.962,228.191,236.962z"/>
	<path fill="#FC2B27" d="M168.662,236.962H148.82c-5.486,0-9.921,4.436-9.921,9.921c0,5.486,4.435,9.922,9.921,9.922h19.843
		c5.487,0,9.922-4.436,9.922-9.922C178.585,241.397,174.15,236.962,168.662,236.962z"/>
	<path fill="#FC2B27" d="M54.647,231.603c-5.159-2.36-9.951-5.446-14.247-9.178c-4.137-3.581-10.397-3.135-13.999,1.003
		c-3.582,4.138-3.135,10.406,1.002,13.999c5.725,4.961,12.114,9.067,18.989,12.213c1.34,0.614,2.737,0.902,4.117,0.902
		c3.771,0,7.361-2.152,9.028-5.794C61.81,239.769,59.627,233.876,54.647,231.603z"/>
	<path fill="#FC2B27" d="M287.719,236.962h-19.844c-5.485,0-9.922,4.436-9.922,9.921c0,5.486,4.437,9.922,9.922,9.922h19.844
		c5.485,0,9.921-4.436,9.921-9.922C297.64,241.397,293.205,236.962,287.719,236.962z"/>
	<path fill="#FC2B27" d="M466.303,236.962h-19.843c-5.486,0-9.923,4.436-9.923,9.921c0,5.486,4.437,9.922,9.923,9.922h19.843
		c5.485,0,9.921-4.436,9.921-9.922C476.224,241.397,471.789,236.962,466.303,236.962z"/>
	<path fill="#FC2B27" d="M525.83,236.962h-19.843c-5.485,0-9.921,4.436-9.921,9.921c0,5.486,4.436,9.922,9.921,9.922h19.843
		c5.487,0,9.923-4.436,9.923-9.922C535.753,241.397,531.318,236.962,525.83,236.962z"/>
	<path fill="#FC2B27" d="M347.246,236.962h-19.843c-5.485,0-9.921,4.436-9.921,9.921c0,5.486,4.436,9.922,9.921,9.922h19.843
		c5.486,0,9.923-4.436,9.923-9.922C357.169,241.397,352.733,236.962,347.246,236.962z"/>
	<path fill="#FC2B27" d="M406.775,236.962h-19.843c-5.486,0-9.921,4.436-9.921,9.921c0,5.486,4.435,9.922,9.921,9.922h19.843
		c5.486,0,9.921-4.436,9.921-9.922C416.696,241.397,412.261,236.962,406.775,236.962z"/>
	<path fill="#FC2B27" d="M54.647,529.244c-5.159-2.36-9.951-5.445-14.247-9.177c-4.137-3.582-10.397-3.136-13.999,1.002
		c-3.582,4.138-3.135,10.407,1.002,13.999c5.725,4.961,12.114,9.068,18.989,12.213c1.34,0.615,2.737,0.903,4.117,0.903
		c3.771,0,7.361-2.153,9.028-5.794C61.81,537.409,59.627,531.516,54.647,529.244z"/>
	<path fill="#FC2B27" d="M168.662,534.601H148.82c-5.486,0-9.921,4.436-9.921,9.922s4.435,9.921,9.921,9.921h19.843
		c5.487,0,9.922-4.435,9.922-9.921S174.15,534.601,168.662,534.601z"/>
	<path fill="#FC2B27" d="M109.135,534.601H89.292c-5.485,0-9.922,4.436-9.922,9.922s4.437,9.921,9.922,9.921h19.843
		c5.486,0,9.922-4.435,9.922-9.921S114.621,534.601,109.135,534.601z"/>
	<path fill="#FC2B27" d="M347.246,534.601h-19.843c-5.485,0-9.921,4.436-9.921,9.922s4.436,9.921,9.921,9.921h19.843
		c5.486,0,9.923-4.435,9.923-9.921S352.733,534.601,347.246,534.601z"/>
	<path fill="#FC2B27" d="M377.011,544.523c0,5.486,4.435,9.921,9.921,9.921h19.843c5.486,0,9.921-4.435,9.921-9.921
		s-4.435-9.922-9.921-9.922h-19.843C381.446,534.601,377.011,539.037,377.011,544.523z"/>
	<path fill="#FC2B27" d="M446.461,554.444h19.843c5.485,0,9.921-4.435,9.921-9.921s-4.436-9.922-9.921-9.922h-19.843
		c-5.486,0-9.923,4.436-9.923,9.922S440.974,554.444,446.461,554.444z"/>
	<path fill="#FC2B27" d="M287.719,534.601h-19.844c-5.485,0-9.922,4.436-9.922,9.922s4.437,9.921,9.922,9.921h19.844
		c5.485,0,9.921-4.435,9.921-9.921S293.205,534.601,287.719,534.601z"/>
	<path fill="#FC2B27" d="M505.988,554.444h19.843c5.487,0,9.923-4.435,9.923-9.921s-4.436-9.922-9.923-9.922h-19.843
		c-5.485,0-9.921,4.436-9.921,9.922S500.502,554.444,505.988,554.444z"/>
	<path fill="#FC2B27" d="M228.191,534.601h-19.843c-5.486,0-9.922,4.436-9.922,9.922s4.436,9.921,9.922,9.921h19.843
		c5.486,0,9.922-4.435,9.922-9.921S233.677,534.601,228.191,534.601z"/>
	<path fill="#FC2B27" d="M436.538,385.781c0,21.888,17.8,39.687,39.687,39.687s39.686-17.799,39.686-39.687
		c0-21.886-17.799-39.685-39.686-39.685S436.538,363.895,436.538,385.781z M476.224,365.938c10.942,0,19.843,8.898,19.843,19.843
		s-8.898,19.843-19.843,19.843s-19.843-8.898-19.843-19.843S465.281,365.938,476.224,365.938z"/>
	<path fill="#FC2B27" d="M426.042,58.377L372.11,4.445c-4.396-4.396-11.568-4.396-15.964,0l-20.299,20.299L315.549,4.445
		c-4.396-4.396-11.568-4.396-15.965,0l-53.932,53.932H79.37C35.608,58.377,0,93.985,0,137.748v385.426
		c0,39.119,31.837,70.957,70.957,70.957H595.28V455.231V316.332v-99.213v-19.843V58.377H426.042z M364.134,24.525l33.852,33.852
		l138.898,138.899h-53.486L371.614,85.482c-4.196-4.077-10.773-4.067-15.069,0.108L244.868,197.276h-53.485L349.886,38.783l0,0
		L364.134,24.525z M455.35,197.276H272.926l91.208-91.207L455.35,197.276z M307.561,24.525l14.258,14.258L163.325,197.276H134.81
		L273.71,58.377L307.561,24.525z M79.37,78.219h146.44l-20.448,20.447c-3.006,0.974-5.308,3.265-6.28,6.28l-92.328,92.328H79.37
		c-32.829,0-59.527-26.698-59.527-59.528S46.541,78.219,79.37,78.219z M575.438,435.388H466.303
		c-27.354,0-49.607-22.254-49.607-49.607c0-27.353,22.254-49.606,49.607-49.606h109.135V435.388z M575.438,236.962h-9.922
		c-5.486,0-9.921,4.436-9.921,9.921c0,5.486,4.435,9.922,9.921,9.922h9.922v59.527H466.303c-38.287,0-69.449,31.163-69.449,69.449
		c0,38.287,31.162,69.45,69.449,69.45h109.135v79.37h-9.922c-5.486,0-9.921,4.436-9.921,9.922s4.435,9.921,9.921,9.921h9.922v19.843
		H70.957c-28.177,0-51.114-22.928-51.114-51.113v-21.867c2.312-2.48,3.424-5.982,2.392-9.465
		c-1.587-5.417-2.392-11.062-2.392-16.768V203.665c2.312-2.479,3.424-5.981,2.392-9.465c-0.188-0.645-0.258-1.31-0.427-1.954
		c0.894,0.942,1.796,1.865,2.729,2.758c0.854,0.823,1.736,1.607,2.629,2.393c1.111,0.972,2.242,1.914,3.403,2.827
		c0.933,0.733,1.885,1.438,2.848,2.133c1.2,0.863,2.44,1.677,3.69,2.471c1.002,0.635,2.004,1.25,3.036,1.846
		c1.31,0.744,2.647,1.438,3.998,2.113c1.042,0.525,2.084,1.052,3.154,1.527c1.419,0.625,2.867,1.181,4.315,1.727
		c1.071,0.407,2.133,0.823,3.225,1.182c1.559,0.506,3.146,0.912,4.732,1.328c1.052,0.27,2.084,0.587,3.155,0.813
		c1.796,0.388,3.62,0.646,5.456,0.903c0.912,0.129,1.806,0.316,2.729,0.417c2.778,0.297,5.596,0.466,8.443,0.466h37.858h28.059
		h28.515h28.058h49.17h226.257h49.141h28.058h20.975L575.438,236.962L575.438,236.962z M564.941,197.276l-79.371-79.371h0.576
		c5.486,0,9.921-4.435,9.921-9.921s-4.435-9.922-9.921-9.922h-19.843c-0.169,0-0.309,0.09-0.478,0.1l-19.94-19.941h129.553v119.057
		L564.941,197.276L564.941,197.276z"/>
	<path fill="#FC2B27" d="M545.674,98.062H525.83c-5.485,0-9.921,4.436-9.921,9.922s4.436,9.921,9.921,9.921h19.844
		c5.485,0,9.922-4.435,9.922-9.921S551.159,98.062,545.674,98.062z"/>
</g>
</svg>
