<?xml version="1.0" encoding="utf-8"?>
<!-- Generator: Adobe Illustrator 16.0.0, SVG Export Plug-In . SVG Version: 6.00 Build 0)  -->
<!DOCTYPE svg PUBLIC "-//W3C//DTD SVG 1.1//EN" "http://www.w3.org/Graphics/SVG/1.1/DTD/svg11.dtd">
<svg version="1.1" id="Layer_1" xmlns="http://www.w3.org/2000/svg" xmlns:xlink="http://www.w3.org/1999/xlink" x="0px" y="0px"
	 width="98.25px" height="121.5px" viewBox="0 0 98.25 121.5" enable-background="new 0 0 98.25 121.5" xml:space="preserve">
<path fill="#FFFFFF" d="M66.253,22.603c0.152-1.648,0.277-3.303,0.465-4.951c0.458-4.057,0.915-8.116,1.84-12.102
	c0.332-1.426,0.525-2.845,0.258-4.319c-0.173-0.949,0.125-1.066,1.158-1.176c3.736-0.406,6.647,1.522,9.601,3.316
	c2.847,1.729,5.421,3.845,8.032,5.901c0.713,0.563,1.43,1.069,2.284,1.404c0.76,0.296,1.282,0.864,1.154,1.759
	c-0.044,0.311-0.183,0.735-0.417,0.869c-0.475,0.272-0.693,0.599-0.755,1.129c-0.065,0.561,0.175,0.924,0.567,1.251
	c0.157,0.133,0.322,0.289,0.401,0.471c0.073,0.169,0.111,0.433,0.023,0.567c-0.081,0.125-0.371,0.224-0.521,0.177
	c-0.322-0.098-0.637-0.268-0.921-0.461c-1.71-1.176-3.415-2.359-5.106-3.562c-0.732-0.52-1.417-1.113-2.149-1.636
	c-0.778-0.556-1.59-1.067-2.389-1.599c-0.495,1.163,0.512,1.903,0.856,2.799c1.605,4.181,2.535,8.501,2.721,12.957
	c0.102,2.414,0.329,4.831,0.142,7.263c-0.156,2.007-0.338,3.999-0.796,5.963c-0.487,2.09-0.752,4.216-1.399,6.281
	c-1.477,4.693-3.074,9.324-5.471,13.646c-0.842,1.513-1.611,3.065-2.47,4.567c-0.479,0.838-1.077,1.604-1.615,2.412
	c-0.462,0.688-0.836,1.451-1.382,2.059c-2.448,2.723-4.643,5.703-7.808,7.701c-0.699,0.439-1.324,0.994-1.997,1.477
	c-0.661,0.473-1.354,0.174-1.554-0.627c-0.243-0.961-0.351-1-1.204-0.867c-0.132,0.021-0.285,0.178-0.379,0.143
	c-0.299-0.117-0.646-0.238-0.826-0.469c-0.118-0.152-0.07-0.66,0.062-0.74c0.832-0.492,0.795-1.164,0.589-1.961
	c-0.101-0.395-0.079-0.836-0.013-1.238c0.037-0.238,0.218-0.553,0.421-0.645c3.408-1.611,5.754-4.512,8.458-6.971
	c0.666-0.604,1.591-1.232,1.041-2.453c-0.072-0.161,0.149-0.517,0.309-0.722c2.148-2.747,3.861-5.749,5.259-8.933
	c1.256-2.86,2.325-5.788,2.847-8.873c0.555-3.271,0.999-6.562,1.489-9.844c0.261-1.728,0.188-3.458,0.023-5.184
	c-0.276-2.898-0.557-5.793-0.876-8.685c-0.091-0.821-0.254-1.651-0.511-2.433c-0.451-1.379-0.999-2.729-1.518-4.084
	c-0.099-0.257-0.238-0.502-0.389-0.73c-0.069-0.105-0.256-0.248-0.313-0.221c-0.148,0.073-0.35,0.218-0.368,0.355
	c-0.271,1.85-0.572,3.699-0.74,5.559c-0.12,1.306-0.042,2.628-0.072,3.944c-0.021,0.97-0.059,1.886-1.019,2.557
	c-0.598,0.418-0.947,1.17-1.456,1.729c-0.319,0.345-0.891,0.171-0.935-0.307c-0.07-0.743-0.261-1.286-1.05-1.582
	c-0.665-0.25-0.646-0.326-0.736,0.362c-0.028,0.204,0.014,0.438-0.072,0.607c-0.07,0.142-0.276,0.236-0.439,0.304
	c-0.035,0.014-0.218-0.176-0.224-0.276c-0.032-0.623-0.035-1.245-0.046-1.869C66.296,22.612,66.276,22.606,66.253,22.603z
	 M78.409,49.003c-0.099,0.073-0.234,0.127-0.281,0.227c-0.028,0.058,0.082,0.182,0.131,0.275c0.029-0.056,0.08-0.108,0.086-0.168
	c0.014-0.126,0.006-0.254,0.007-0.381c0.579-0.483,0.587-1.205,0.757-1.853c0.024-0.1-0.096-0.235-0.147-0.354
	c-0.099,0.082-0.273,0.152-0.29,0.249C78.565,47.662,78.492,48.334,78.409,49.003z M79.937,43.939
	c-0.094,0.169-0.215,0.328-0.267,0.51c-0.023,0.086,0.083,0.21,0.131,0.316c0.055-0.099,0.152-0.193,0.155-0.292
	c0.004-0.192-0.05-0.387-0.079-0.579c0.581-0.552,0.621-1.312,0.778-2.022c0.026-0.115-0.065-0.254-0.103-0.381
	c-0.082,0.089-0.217,0.169-0.236,0.271C80.178,42.482,80.06,43.212,79.937,43.939z M82.159,29.073
	c-0.066-0.226-0.172-0.589-0.278-0.954c-0.666,0.22-0.312,0.781-0.382,1.188c-0.045,0.254-0.002,0.535,0.048,0.792
	c0.013,0.077,0.192,0.186,0.273,0.171c0.098-0.021,0.228-0.145,0.251-0.245C82.123,29.766,82.125,29.496,82.159,29.073z
	 M79.536,24.271c-0.068-0.212-0.129-0.402-0.189-0.596c-0.049,0.189-0.137,0.377-0.134,0.564c0.002,0.196,0.096,0.388,0.151,0.583
	C79.419,24.64,79.479,24.457,79.536,24.271z"/>
<text transform="matrix(0.9272 0.3746 -0.3746 0.9272 -4.882812e-04 80.4932)" fill="#FFFFFF" font-family="'LoveYaLikeASister'" font-size="24">Search</text>
</svg>
