<?xml version="1.0" encoding="utf-8"?>
<!-- Generator: Adobe Illustrator 16.0.0, SVG Export Plug-In . SVG Version: 6.00 Build 0)  -->
<!DOCTYPE svg PUBLIC "-//W3C//DTD SVG 1.1//EN" "http://www.w3.org/Graphics/SVG/1.1/DTD/svg11.dtd">
<svg version="1.1" id="Layer_1" xmlns="http://www.w3.org/2000/svg" xmlns:xlink="http://www.w3.org/1999/xlink" x="0px" y="0px"
	 width="144.333px" height="158.333px" viewBox="0 0 144.333 158.333" enable-background="new 0 0 144.333 158.333"
	 xml:space="preserve">
<text transform="matrix(0.8192 -0.5736 0.5736 0.8192 36.3257 108.8979)" fill="#C0BFBF" font-family="'LoveYaLikeASister'" font-size="24.0026">Y</text>
<text transform="matrix(0.8192 -0.5736 0.5736 0.8192 48.2192 100.5688)" fill="#C0BFBF" font-family="'LoveYaLikeASister'" font-size="24.0026">our</text>
<text transform="matrix(0.8192 -0.5736 0.5736 0.8192 20.3384 160.3755)" fill="#C0BFBF" font-family="'LoveYaLikeASister'" font-size="24.0026">d</text>
<text transform="matrix(0.8192 -0.5736 0.5736 0.8192 34.1816 150.6821)" fill="#C0BFBF" font-family="'LoveYaLikeASister'" font-size="24.0026">a</text>
<text transform="matrix(0.8192 -0.5736 0.5736 0.8192 47.603 141.2876)" fill="#C0BFBF" font-family="'LoveYaLikeASister'" font-size="24.0026">shboard</text>
<path fill="#C0BFBF" d="M7.139,24.721c-0.911,2.274-1.027,4.658-1.21,7.037C5.902,32.095,5.79,32.432,5.7,32.766
	c-0.01,0.042-0.136,0.104-0.186,0.088c-0.07-0.025-0.161-0.107-0.167-0.175c-0.037-0.346-0.03-0.701-0.087-1.042
	c-0.016-0.097-0.197-0.172-0.319-0.219c-0.038-0.014-0.169,0.092-0.184,0.158c-0.111,0.507-0.188,1.024-0.315,1.529
	c-0.035,0.135-0.217,0.234-0.33,0.35c-0.068-0.153-0.21-0.313-0.193-0.458c0.74-5.898,1.478-11.797,2.251-17.692
	c0.452-3.431,0.96-6.859,1.453-10.288c0.065-0.44,0.134-0.888,0.285-1.302c0.119-0.321,0.313-0.754,0.57-0.857
	c1.182-0.48,2.259-1.218,3.612-1.251c2.401-0.057,4.733,0.243,6.977,0.937c5.37,1.66,10.709,3.414,16.051,5.157
	c0.373,0.123,0.674,0.459,0.998,0.711c0.049,0.038,0.06,0.156,0.049,0.234c-0.01,0.051-0.092,0.132-0.134,0.13
	c-0.167-0.011-0.331-0.044-0.494-0.079c-1.975-0.4-3.947-0.807-5.923-1.198c-0.14-0.026-0.303,0.04-0.458,0.064
	c0.123,0.109,0.229,0.268,0.374,0.324c1.64,0.62,3.293,1.22,4.93,1.849c0.064,0.024,0.058,0.275,0.05,0.419
	c-0.003,0.039-0.128,0.093-0.202,0.111c-0.08,0.02-0.171,0.026-0.246,0.004c-1.927-0.562-3.85-1.139-5.78-1.683
	c-0.262-0.072-0.712-0.367-0.803,0.18c-0.035,0.211,0.314,0.61,0.572,0.703c1.96,0.714,3.944,1.37,5.92,2.049
	c0.229,0.078,0.455,0.17,0.672,0.278c0.039,0.019,0.044,0.148,0.03,0.224c-0.01,0.078-0.064,0.211-0.104,0.214
	c-0.412,0.044-0.831,0.033-1.235,0.114c-0.177,0.035-0.329,0.252-0.492,0.388c1.265,1.139-0.065,2.468,0.067,3.694
	c0.011,0.099-0.347,0.311-0.554,0.364c-0.126,0.032-0.288-0.146-0.44-0.217c-2.519-1.141-5.042-2.284-7.565-3.416
	c-0.137-0.061-0.321-0.013-0.483-0.016c0.076,0.208,0.145,0.423,0.239,0.623c0.033,0.068,0.126,0.108,0.198,0.153
	c2.208,1.379,4.418,2.75,6.625,4.135c0.71,0.444,1.402,0.919,2.097,1.391c0.176,0.118,0.322,0.285,0.481,0.429
	c-0.241-0.072-0.495-0.111-0.717-0.218c-1.284-0.617-2.585-1.203-3.833-1.887c-2.059-1.124-4.078-2.326-6.127-3.474
	c-0.36-0.201-0.772-0.302-1.166-0.434c-0.068-0.023-0.209,0.009-0.237,0.061c-0.079,0.138-0.182,0.321-0.151,0.449
	c0.056,0.249,0.17,0.493,0.31,0.702c1.941,2.907,3.903,5.804,5.842,8.712c3.221,4.824,6.531,9.585,9.618,14.503
	c2.495,3.979,4.699,8.168,7.073,12.235c2.282,3.909,4.635,7.774,6.918,11.686c0.42,0.717,0.655,1.561,0.978,2.344l0.079-0.032
	c-0.452-0.569-0.895-1.15-1.362-1.705c-0.364-0.435-0.746-0.855-1.15-1.249c-0.068-0.068-0.289,0.005-0.426,0.052
	c-0.056,0.018-0.123,0.159-0.109,0.222c0.168,0.734,0.351,1.464,0.529,2.195l0.079-0.037c-0.966-0.345-1.264-1.316-1.744-2.101
	c-0.937-1.53-1.799-3.109-2.749-4.631c-0.771-1.233-1.636-2.395-2.857-3.194c-0.078-0.717-0.296-1.331-1.009-1.592
	c0.162-0.86-0.246-1.317-0.971-1.551c0.01-0.064,0.034-0.133,0.027-0.195c-0.003-0.033-0.057-0.061-0.086-0.091
	c0.046,0.082,0.095,0.166,0.142,0.25c-0.155,0.846,0.169,1.361,0.952,1.556c-0.059,0.823,0.432,1.244,1.035,1.581
	c0.324,0.778,0.582,1.597,0.983,2.326c1.238,2.236,2.559,4.42,3.788,6.663c0.481,0.877,1.148,1.705,1.022,2.857l0.079-0.041
	c-0.923-1.202-1.836-2.412-2.785-3.592c-0.109-0.138-0.424-0.118-0.646-0.111c-0.04,0-0.163,0.344-0.112,0.454
	c0.407,0.841,0.825,1.676,1.279,2.486c0.331,0.585,0.872,1.068,0.656,1.877l0.085-0.04c-1.232-0.566-1.468-2.063-2.438-2.87
	c-0.1-0.084-0.291-0.053-0.437-0.073c-0.012,0.088-0.059,0.192-0.031,0.263c0.126,0.318,0.265,0.631,0.414,0.937
	c0.792,1.622,1.586,3.242,2.378,4.862c0.339,0.69,0.161,1.323-0.553,1.753c-0.168,0.1-0.578,0.077-0.654-0.046
	c-0.358-0.577-0.658-1.198-0.942-1.822c-1.035-2.269-2.042-4.551-3.083-6.82c-0.718-1.564-1.506-3.091-2.208-4.667
	c-2.108-4.737-4.77-9.121-7.451-13.492c-1.476-2.402-2.956-4.81-4.589-7.088c-3.125-4.354-6.322-8.65-9.574-12.898
	c-1.182-1.547-2.607-2.885-3.914-4.329c-0.574-0.637-1.097-1.244-0.731-2.323c0.12-0.345-0.324-0.916-0.591-1.323
	c-0.098-0.149-0.432-0.17-0.655-0.153c-0.087,0.007-0.239,0.274-0.244,0.423c-0.052,1.41-0.119,2.822-0.109,4.229
	c0.016,2.115,0.011,4.238,0.156,6.339c0.137,1.986-0.327,3.666-1.858,5.001l0.081-0.042c-0.102-1.478-0.215-2.956-0.304-4.432
	c-0.094-1.579-0.079-3.175-0.279-4.732c-0.097-0.763,0.582-1.741-0.39-2.301c-0.166,0.845-0.416,1.688-0.482,2.536
	c-0.164,2.11-0.243,4.223-0.369,6.339c-0.01,0.16-0.128,0.318-0.196,0.476c-0.087-0.151-0.25-0.297-0.254-0.456
	c-0.027-1.144,0.018-2.293-0.043-3.432c-0.034-0.682-0.219-1.348-0.338-2.021c0.055-0.144,0.136-0.289,0.153-0.436
	c0.005-0.072-0.115-0.152-0.178-0.226c-0.021,0.072-0.071,0.157-0.056,0.22C7.006,24.451,7.081,24.584,7.139,24.721z M43.106,62.501
	c0.027,0.045,0.05,0.086,0.075,0.13c-0.053-0.031-0.104-0.061-0.157-0.091l0.008-0.208L43.106,62.501z M39.432,49.283
	c-0.018,0.074-0.048,0.148-0.045,0.219c0.002,0.04,0.064,0.073,0.101,0.109c-0.05-0.097-0.097-0.193-0.146-0.288l-0.014-0.131
	L39.432,49.283z M36.964,45.939l0.042,0.149l-0.12-0.115l-0.019-0.19L36.964,45.939z M18.751,19.101
	c0.023,0.043,0.048,0.089,0.071,0.133c-0.051-0.031-0.101-0.063-0.154-0.096c-0.065-0.241-0.132-0.482-0.199-0.723
	c-0.271-0.276-0.541-0.553-0.811-0.827c-0.052-0.412,0.01-0.897-0.172-1.222c-0.879-1.564-1.793-3.106-2.762-4.609
	c-0.552-0.857-1.21-1.639-1.864-2.417c-0.12-0.143-0.433-0.11-0.658-0.158c0.005,0.253,0.001,0.505,0.018,0.757
	c0.004,0.081,0.052,0.167,0.1,0.234c1.763,2.496,3.217,5.246,5.423,7.375c0.269,0.277,0.537,0.553,0.808,0.828
	C18.618,18.619,18.686,18.86,18.751,19.101z M33.801,40.54c0.027,0.054,0.056,0.108,0.083,0.16
	c-0.053-0.041-0.107-0.083-0.162-0.124c0.566-0.852,0.111-1.477-0.319-2.131c-1.767-2.689-3.456-5.441-5.309-8.064
	c-1.058-1.497-1.872-3.273-3.596-4.154c-0.05-0.195-0.098-0.391-0.147-0.586c-0.096,0.056-0.191,0.114-0.287,0.171
	c0.171,0.123,0.343,0.25,0.514,0.374c0.266,0.707,0.427,1.495,0.819,2.115c2.395,3.789,4.83,7.547,7.283,11.292
	C32.94,39.992,33.423,40.229,33.801,40.54z M12.472,13.541c-0.268,0.088-0.419,0.119-0.552,0.196
	c-0.05,0.028-0.094,0.193-0.062,0.241c0.224,0.339,0.433,0.703,0.72,0.976c0.116,0.109,0.418,0.002,0.637-0.006
	c-0.006-0.16,0.048-0.364-0.026-0.477C12.968,14.13,12.694,13.822,12.472,13.541z M25.419,8.35c0.077-0.004,0.156-0.011,0.234-0.018
	c-0.037-0.068-0.055-0.168-0.111-0.198c-0.058-0.03-0.15,0.007-0.228,0.014C25.351,8.216,25.384,8.283,25.419,8.35z M31.757,12.099
	c-0.031-0.058-0.048-0.141-0.099-0.169c-0.052-0.029-0.131-0.006-0.199-0.007c0.031,0.057,0.049,0.141,0.098,0.167
	C31.609,12.122,31.69,12.099,31.757,12.099z M23.222,24.093l-0.074,0.15l0.213,0.028L23.222,24.093z M43.902,60.752l-0.183-0.008
	l0.133,0.126L43.902,60.752z M48.444,69.351c-0.595-0.799-1.193-1.6-1.791-2.396l0.085-0.04c0.102,1.202,0.623,2.06,1.775,2.397
	L48.444,69.351z M48.261,65.84c0.078,0.729,0.402,1.259,1.079,1.51l-0.082,0.041c-0.213-0.618-0.374-1.282-1.076-1.51L48.261,65.84z
	 M52.267,65.329c0.141,0.068,0.279,0.138,0.419,0.209c-0.116-0.082-0.232-0.164-0.345-0.247L52.267,65.329z M9.624,32.819
	c0.069,0.025,0.138,0.047,0.206,0.073c-0.041-0.039-0.083-0.078-0.125-0.114L9.624,32.819z M52.008,64.56
	c0.087,0.255,0.173,0.512,0.259,0.769l0.074-0.038c-0.083-0.254-0.169-0.509-0.254-0.763L52.008,64.56z M49.569,64.042l0.023,0.148
	l0.056-0.186L49.569,64.042z M49.259,67.391l0.022,0.176l0.06-0.218L49.259,67.391z M50.148,69.024l-0.036-0.19l-0.027,0.169
	L50.148,69.024z M50.085,69.002l0.157,0.094l-0.095-0.071L50.085,69.002z M48.718,70.028c-0.067-0.239-0.136-0.478-0.203-0.714
	l-0.072,0.039c0.075,0.236,0.148,0.472,0.223,0.711L48.718,70.028z M48.666,70.063l0.042,0.102l0.01-0.138L48.666,70.063z
	 M49.622,71.65l-0.051-0.104l0.008,0.097L49.622,71.65z M49.581,71.645l0.107,0.135l-0.064-0.128L49.581,71.645z"/>
</svg>
