<?xml version="1.0" encoding="utf-8"?>
<!-- Generator: Adobe Illustrator 16.0.0, SVG Export Plug-In . SVG Version: 6.00 Build 0)  -->
<!DOCTYPE svg PUBLIC "-//W3C//DTD SVG 1.1//EN" "http://www.w3.org/Graphics/SVG/1.1/DTD/svg11.dtd">
<svg version="1.1" id="Layer_1" xmlns="http://www.w3.org/2000/svg" xmlns:xlink="http://www.w3.org/1999/xlink" x="0px" y="0px"
	 width="198.425px" height="56.693px" viewBox="-4.878 1.211 198.425 56.693" enable-background="new -4.878 1.211 198.425 56.693"
	 xml:space="preserve">
<rect x="-4.878" y="1.211" fill="#009BEF" width="198.426" height="56.693"/>
<rect x="81.309" y="16.164" display="none" fill="#FFFFFF" width="6.366" height="21.238"/>
<g>
	<rect x="86.82" y="19.733" fill="#FFFFFF" width="6.865" height="21.738"/>
	<rect x="123.431" y="19.733" fill="#FFFFFF" width="6.865" height="21.738"/>
	<path fill="#FFFFFF" d="M168.134,34.668c0,2.705,1.396,3.245,4.469,3.245c3.904,0,4.465-1.354,4.465-2.164
		c0-1.354-1.396-1.896-4.186-2.436l-3.352-0.54c-3.627-0.812-7.531-1.894-7.531-5.947c0-5.136,5.023-7.031,10.045-7.031
		c8.09,0,10.322,2.434,10.604,6.76h-6.141c-0.279-2.164-1.951-2.434-3.9-2.434c-2.789,0-3.906,0.812-3.906,2.167
		c0,1.351,1.951,1.889,4.463,2.43l3.072,0.541c3.896,0.812,7.246,2.164,7.246,6.219c0,5.948-6.139,7.033-11.16,7.033
		c-8.928,0-10.322-3.786-10.322-7.574L168.134,34.668z"/>
	<path fill="#FFFFFF" d="M158.14,31.629c0,7.291-4.184,10.265-11.994,10.265c-7.812,0-11.998-2.699-11.998-9.454V20.013h6.42v11.886
		c0,3.781,1.949,5.674,5.578,5.674c4.186,0,5.58-2.701,5.58-6.212V20.013h6.414V31.629z"/>
	<rect x="123.474" y="20.013" fill="#FFFFFF" width="6.453" height="21.238"/>
	<rect x="86.82" y="19.733" fill="#FFFFFF" width="6.865" height="21.738"/>
	<path fill="#FFFFFF" d="M97.821,20.013h13.467c5.33,0,8.42,1.882,8.42,5.648c0,2.688-2.25,4.568-5.611,5.104
		c1.961,0,3.646,0.538,4.488,1.882c1.123,1.885,1.123,6.452,2.244,8.604h-6.732c-0.846-2.151-0.561-5.107-1.121-6.721
		c-0.279-1.075-1.4-1.348-3.928-1.348h-4.77v8.066h-6.453V20.013H97.821z M104.274,29.153h5.047c3.088,0,3.928-0.808,3.928-2.418
		c0-2.151-1.682-2.417-4.766-2.417h-4.209V29.153z"/>
	<path fill="#FFFFFF" d="M68.466,34.668c0,2.705,1.4,3.245,4.48,3.245c3.92,0,4.481-1.354,4.481-2.164
		c0-1.354-1.401-1.896-4.202-2.436l-3.359-0.54c-3.641-0.812-7.562-1.894-7.562-5.947c0-5.136,5.042-7.031,10.081-7.031
		c8.122,0,10.36,2.434,10.642,6.76h-6.161c-0.279-2.164-1.959-2.434-3.92-2.434c-2.801,0-3.92,0.812-3.92,2.167
		c0,1.351,1.959,1.889,4.48,2.43l3.08,0.541c3.921,0.812,7.281,2.164,7.281,6.219c0,5.948-6.16,7.033-11.201,7.033
		c-8.961,0-10.361-3.786-10.361-7.574L68.466,34.668z"/>
	<polygon fill="#FFFFFF" points="23.954,25.632 17.908,25.471 12.513,14.459 23.864,19.694 	"/>
	<polygon opacity="0.88" fill="#FFFFFF" enable-background="new    " points="17.908,33.643 6.067,29.557 17.908,25.471 
		22.346,29.485 	"/>
	<polygon opacity="0.77" fill="#FFFFFF" enable-background="new    " points="23.864,39.422 12.513,44.657 17.908,33.643 
		24.043,33.322 	"/>
	<polygon opacity="0.66" fill="#FFFFFF" enable-background="new    " points="32.286,39.422 28.075,50.911 23.864,39.422 
		27.998,34.868 	"/>
	<polygon opacity="0.55" fill="#FFFFFF" enable-background="new    " points="38.241,33.643 43.638,44.657 32.286,39.422 
		31.935,33.253 	"/>
	<polygon opacity="0.44" fill="#FFFFFF" enable-background="new    " points="38.241,25.471 50.084,29.557 38.241,33.643 
		33.55,29.395 	"/>
	<polygon opacity="0.33" fill="#FFFFFF" enable-background="new    " points="32.286,19.694 43.638,14.459 38.241,25.471 
		31.877,25.575 	"/>
	<polygon opacity="0.22" fill="#FFFFFF" enable-background="new    " points="32.286,19.694 27.906,24.018 23.864,19.694 
		28.075,8.205 	"/>
</g>
</svg>
