<?xml version="1.0" encoding="utf-8"?>
<!-- Generator: Adobe Illustrator 16.0.0, SVG Export Plug-In . SVG Version: 6.00 Build 0)  -->
<!DOCTYPE svg PUBLIC "-//W3C//DTD SVG 1.1//EN" "http://www.w3.org/Graphics/SVG/1.1/DTD/svg11.dtd">
<svg version="1.1" id="Layer_1" xmlns="http://www.w3.org/2000/svg" xmlns:xlink="http://www.w3.org/1999/xlink" x="0px" y="0px"
	 width="48.461px" height="50.564px" viewBox="0 0 48.461 50.564" enable-background="new 0 0 48.461 50.564" xml:space="preserve">
<polygon opacity="0.88" fill="#FFFFFF" points="13.018,29.431 -0.042,24.927 13.018,20.42 17.912,24.845 "/>
<polygon opacity="0.77" fill="#FFFFFF" points="19.586,35.805 7.066,41.579 13.018,29.431 19.782,29.078 "/>
<polygon opacity="0.44" fill="#FFFFFF" points="35.439,20.42 48.502,24.927 35.439,29.431 30.268,24.748 "/>
<polygon opacity="0.55" fill="#FFFFFF" points="35.439,29.431 41.393,41.579 28.874,35.805 28.484,29.002 "/>
<polygon opacity="0.22" fill="#FFFFFF" points="28.874,14.048 24.044,18.818 19.586,14.048 24.23,1.377 "/>
<polygon opacity="0.66" fill="#FFFFFF" points="28.874,35.805 24.23,48.475 19.586,35.805 24.145,30.782 "/>
<polygon opacity="0.33" fill="#FFFFFF" points="28.874,14.048 41.393,8.274 35.439,20.42 28.421,20.534 "/>
<polygon opacity="0.99" fill="#FFFFFF" points="19.685,20.597 13.018,20.42 7.066,8.274 19.586,14.048 "/>
</svg>
