<?xml version="1.0" encoding="utf-8"?>
<!-- Generator: Adobe Illustrator 16.0.0, SVG Export Plug-In . SVG Version: 6.00 Build 0)  -->
<!DOCTYPE svg PUBLIC "-//W3C//DTD SVG 1.1//EN" "http://www.w3.org/Graphics/SVG/1.1/DTD/svg11.dtd">
<svg version="1.1" id="Capa_1" xmlns="http://www.w3.org/2000/svg" xmlns:xlink="http://www.w3.org/1999/xlink" x="0px" y="0px"
	 width="595.279px" height="595.28px" viewBox="0 0 595.279 595.28" enable-background="new 0 0 595.279 595.28"
	 xml:space="preserve">
<g>
	<path fill="#6D787E" d="M361.238,299.305c-6.427,12.468-4.864,28.166,4.93,38.684c3.917,4.206,8.858,7.356,14.289,9.111
		c6.612,2.137,11.835,7.359,13.972,13.972c1.756,5.43,4.906,10.371,9.111,14.287c6.314,5.882,14.497,8.797,22.729,8.797
		c8.858,0,17.772-3.377,24.466-10.07l95.401-95.4c12.912-12.912,13.485-34.083,1.275-47.192c-3.917-4.207-8.858-7.357-14.289-9.113
		c-6.612-2.136-11.836-7.36-13.972-13.972c-1.756-5.43-4.906-10.371-9.111-14.288c-10.517-9.794-26.215-11.355-38.682-4.93
		L367.016,84.85c6.427-12.467,4.864-28.166-4.93-38.682c-3.917-4.205-8.858-7.357-14.288-9.111
		c-6.611-2.137-11.835-7.36-13.972-13.972c-1.756-5.43-4.906-10.371-9.111-14.288c-13.109-12.209-34.28-11.638-47.193,1.275
		l-95.401,95.399c-12.912,12.912-13.485,34.083-1.275,47.192c3.918,4.207,8.859,7.359,14.289,9.113
		c6.611,2.137,11.835,7.361,13.973,13.972c1.755,5.431,4.906,10.371,9.113,14.289c6.312,5.88,14.498,8.796,22.728,8.796
		c5.479,0,10.976-1.295,15.957-3.863l29.349,29.349L13.93,496.643c-13.994,13.993-13.994,36.764,0,50.759
		c6.997,6.997,16.188,10.496,25.381,10.496c9.19,0,18.382-3.497,25.379-10.496l272.321-272.323L361.238,299.305z M534.992,243.055
		L534.992,243.055c6.057,6.502,5.673,17.104-0.855,23.631l-95.402,95.401c-6.526,6.526-17.129,6.912-23.631,0.855
		c-2.126-1.98-3.65-4.365-4.532-7.089c-1.007-3.118-2.409-6.057-4.132-8.771l112.691-112.691c2.715,1.721,5.652,3.123,8.77,4.131
		C530.627,239.404,533.013,240.929,534.992,243.055z M498.472,206.533c2.126,1.981,3.65,4.366,4.531,7.09
		c1.008,3.118,2.409,6.056,4.131,8.771L394.443,335.085c-2.715-1.722-5.652-3.123-8.77-4.131c-2.726-0.881-5.111-2.405-7.091-4.53
		c-6.055-6.501-5.673-17.098,0.85-23.626l47.707-47.707l47.7-47.7c3.425-3.425,7.971-5.16,12.457-5.16
		C491.364,202.231,495.381,203.655,498.472,206.533z M193.261,141.101c-6.056-6.502-5.673-17.103,0.856-23.631l95.4-95.4
		c3.426-3.426,7.971-5.159,12.457-5.159c4.066,0,8.083,1.424,11.175,4.302c2.126,1.981,3.65,4.366,4.532,7.091
		c1.007,3.118,2.409,6.055,4.131,8.77L209.121,149.764c-2.715-1.722-5.652-3.125-8.771-4.132
		C197.626,144.752,195.242,143.228,193.261,141.101z M229.781,177.621c-2.126-1.98-3.65-4.364-4.53-7.09
		c-1.007-3.118-2.41-6.055-4.132-8.769L333.81,49.071c2.715,1.722,5.652,3.124,8.77,4.131c2.725,0.881,5.11,2.405,7.089,4.53l0,0
		c6.057,6.502,5.673,17.103-0.855,23.631l-95.4,95.4C246.885,183.293,236.283,183.677,229.781,177.621z M356.172,98.002
		l102.031,102.03l-43.061,43.061l-43.061,43.061l-102.03-102.031L356.172,98.002z M52.693,535.403
		c-7.38,7.378-19.386,7.379-26.764,0c-7.379-7.38-7.379-19.386,0-26.764L298.25,236.317l26.764,26.764L52.693,535.403z"/>
	<path fill="#6D787E" d="M591.829,550.647c0-1.83-0.576-3.647-1.73-5.156l-34.52-45.101v-20.619c0-4.686-3.798-8.483-8.483-8.483
		H309.554c-4.686,0-8.483,3.798-8.483,8.483v20.619l-34.519,45.101c-1.155,1.509-1.731,3.326-1.731,5.156l-0.017,36.149
		c0,4.686,3.798,8.483,8.483,8.483H583.36c4.686,0,8.484-3.798,8.484-8.483L591.829,550.647z M318.037,488.256h220.574v6.526
		H318.037V488.256L318.037,488.256z M313.743,511.749h229.161l23.279,30.415H290.466L313.743,511.749z M281.773,578.313v-19.183
		h293.104v19.183H281.773z"/>
	<path fill="#6D787E" d="M421.578,204.411c1.656,1.656,3.828,2.485,5.999,2.485c2.17,0,4.342-0.829,5.998-2.485
		c3.314-3.314,3.314-8.685,0-11.997l-69.785-69.785c-3.312-3.312-8.685-3.312-11.997,0c-3.313,3.314-3.313,8.685,0,11.997
		L421.578,204.411z"/>
</g>
</svg>
