<?xml version="1.0" encoding="utf-8"?>
<!-- Generator: Adobe Illustrator 16.0.0, SVG Export Plug-In . SVG Version: 6.00 Build 0)  -->
<!DOCTYPE svg PUBLIC "-//W3C//DTD SVG 1.1//EN" "http://www.w3.org/Graphics/SVG/1.1/DTD/svg11.dtd">
<svg version="1.1" id="Layer_1" xmlns="http://www.w3.org/2000/svg" xmlns:xlink="http://www.w3.org/1999/xlink" x="0px" y="0px"
	 width="595.279px" height="524.315px" viewBox="0 162.001 595.279 524.315" enable-background="new 0 162.001 595.279 524.315"
	 xml:space="preserve">
<g id="Capa_1">
	<path fill="#FFFFFF" d="M439.699,233.156c21.416,1.839,52.157,13.052,54.399,62.089c0,0.236,0,0.471,0.078,0.628
		c0.079,0.55,5.578,53.969-19.402,82.091c-9.898,11.155-23.096,16.653-40.456,16.811c-0.157,0-0.236,0-0.393,0
		c-0.159,0-0.237,0-0.396,0c-1.792-0.017-3.527-0.104-5.233-0.236c-3.103,7.055-6.579,13.728-10.441,20
		c4.716,0.859,9.647,1.357,14.812,1.445c0.394,0,0.785,0,1.26,0c0.154,0,0.312,0,0.47,0c0.236,0,0.552,0,0.787,0
		c23.016-0.395,41.634-8.484,55.381-23.959c30.244-34.094,25.217-92.54,24.667-98.117c-1.964-41.871-21.761-61.902-38.1-71.25
		c-12.179-6.992-26.396-10.762-42.265-11.076h-0.55c-0.079,0-0.236,0-0.313,0h-0.473c-0.377,0-0.789,0.007-1.193,0.012
		C435.249,218.454,437.713,225.642,439.699,233.156z"/>
	<g>
		<path fill="#FFFFFF" d="M595.358,512.924c0-0.079,0-0.158,0-0.236c0-0.629-0.078-1.256-0.078-1.964
			c-0.472-15.555-1.492-51.925-35.586-63.551c-0.234-0.078-0.55-0.157-0.786-0.234c-35.429-9.033-64.887-29.46-65.201-29.694
			c-4.793-3.378-11.391-2.199-14.768,2.593c-3.378,4.792-2.201,11.391,2.591,14.771c1.336,0.939,32.604,22.7,71.725,32.757
			c18.303,6.521,20.346,26.08,20.895,43.988c0,0.707,0,1.337,0.079,1.967c0.079,7.067-0.394,17.987-1.649,24.272
			c-3.438,1.952-9.598,5.203-18.241,8.906c1.221,8.434,1.694,16.054,1.938,22.145c19.396-7.72,30.227-14.626,31.229-15.261
			c1.807-1.179,3.3-2.907,4.085-4.949C595.516,537.983,595.437,517.008,595.358,512.924z"/>
	</g>
	<path fill="#FFFFFF" d="M168.223,394.393c-2.241,0.227-4.554,0.36-6.949,0.382c-0.157,0-0.236,0-0.394,0c-0.156,0-0.235,0-0.394,0
		c-17.283-0.158-30.558-5.656-40.377-16.811c-24.903-27.966-19.562-81.62-19.482-82.091c0-0.235,0.078-0.471,0.078-0.628
		c2.433-52.793,37.711-61.417,56.229-62.292c1.973-7.416,4.405-14.513,7.28-21.29c-0.794-0.034-1.588-0.064-2.391-0.08h-0.55
		c-0.078,0-0.236,0-0.315,0h-0.471c-8.72,0-25.844,1.414-42.263,10.762c-16.497,9.348-36.607,29.38-38.571,71.565
		c-0.55,5.577-5.578,64.023,24.666,98.117c13.669,15.475,32.287,23.566,55.304,23.959c0.394,0,0.786,0,1.258,0
		c0.156,0,0.314,0,0.472,0c0.233,0,0.551,0,0.786,0c5.748-0.1,11.221-0.679,16.411-1.729
		C174.733,408.023,171.292,401.396,168.223,394.393z"/>
	<g>
		<g>
			<g>
				<path fill="#FFFFFF" d="M42.377,547.097c-9.511-3.982-16.246-7.516-19.912-9.584c-1.258-6.286-1.806-17.205-1.647-24.271
					c0-0.63,0.078-1.259,0.078-1.965c0.551-17.91,2.594-37.474,20.896-43.992c39.12-10.056,70.388-31.896,71.723-32.758
					c4.792-3.378,5.97-9.978,2.593-14.771c-3.378-4.792-9.979-5.97-14.771-2.592c-0.313,0.236-29.613,20.66-65.202,29.695
					c-0.312,0.076-0.55,0.155-0.783,0.234C1.256,458.799,0.234,495.169-0.238,510.646c0,0.704,0,1.335-0.079,1.964
					c0,0.077,0,0.154,0,0.233c-0.078,4.085-0.156,25.062,4.006,35.587c0.787,2.043,2.2,3.771,4.086,4.949
					c1.029,0.687,12.386,7.938,32.725,15.886C40.731,563.231,41.178,555.593,42.377,547.097z"/>
			</g>
		</g>
	</g>
</g>
<g id="Layer_2">
	<g>
		<g>
			<path fill="#FFFFFF" d="M295.62,444.515c0.543,0,1.085,0,1.737,0c0.217,0,0.435,0,0.649,0c0.326,0,0.763,0,1.089,0
				c31.812-0.542,57.545-11.726,76.545-33.113c41.803-47.125,34.854-127.904,34.094-135.612
				c-2.715-57.872-30.076-85.559-52.66-98.479c-16.829-9.663-36.479-14.875-58.413-15.309H297.9c-0.108,0-0.326,0-0.436,0h-0.649
				c-12.052,0-35.722,1.954-58.414,14.875c-22.802,12.92-50.597,40.607-53.312,98.913c-0.76,7.708-7.709,88.49,34.095,135.612
				C238.075,432.789,263.808,443.973,295.62,444.515z M214.08,278.501c0-0.325,0.108-0.651,0.108-0.868
				c3.583-77.85,58.849-86.21,82.519-86.21h0.436c0.217,0,0.543,0,0.868,0c29.314,0.652,79.151,12.595,82.519,86.21
				c0,0.326,0,0.651,0.108,0.868c0.108,0.761,7.71,74.593-26.817,113.463c-13.681,15.418-31.921,23.02-55.917,23.236
				c-0.217,0-0.326,0-0.543,0l0,0c-0.217,0-0.326,0-0.542,0c-23.887-0.218-42.237-7.818-55.811-23.236
				C206.588,353.311,213.971,279.153,214.08,278.501z"/>
			<path fill="#FFFFFF" d="M520.483,578.497c0-0.108,0-0.216,0-0.324c0-0.869-0.109-1.737-0.109-2.715
				c-0.648-21.499-2.062-71.769-49.185-87.838c-0.326-0.108-0.761-0.217-1.086-0.325c-48.969-12.487-89.684-40.718-90.118-41.043
				c-6.623-4.668-15.743-3.039-20.412,3.584s-3.041,15.743,3.582,20.413c1.848,1.302,45.062,31.378,99.131,45.276
				c25.3,9.01,28.121,36.047,28.883,60.802c0,0.977,0,1.846,0.106,2.714c0.109,9.771-0.542,24.863-2.28,33.551
				c-17.589,9.988-86.532,44.518-191.42,44.518c-104.45,0-173.831-34.638-191.528-44.624c-1.736-8.688-2.497-23.779-2.279-33.553
				c0-0.867,0.106-1.735,0.106-2.715c0.76-24.755,3.583-51.79,28.882-60.804c54.07-13.896,97.284-44.081,99.132-45.276
				c6.621-4.669,8.251-13.787,3.583-20.41c-4.671-6.624-13.79-8.253-20.413-3.584c-0.437,0.325-40.936,28.557-90.119,41.042
				c-0.436,0.109-0.76,0.22-1.085,0.326c-47.123,16.178-48.534,66.447-49.188,87.838c0,0.979,0,1.848-0.107,2.714
				c0,0.109,0,0.22,0,0.325c-0.108,5.646-0.218,34.64,5.538,49.188c1.085,2.821,3.04,5.212,5.646,6.841
				c3.257,2.17,81.323,51.898,211.941,51.898c130.617,0,208.683-49.838,211.939-51.898c2.497-1.629,4.562-4.02,5.646-6.841
				C520.699,613.134,520.593,584.144,520.483,578.497z"/>
		</g>
	</g>
</g>
</svg>
