<?xml version="1.0" encoding="utf-8"?>
<!-- Generator: Adobe Illustrator 16.0.0, SVG Export Plug-In . SVG Version: 6.00 Build 0)  -->
<!DOCTYPE svg PUBLIC "-//W3C//DTD SVG 1.1//EN" "http://www.w3.org/Graphics/SVG/1.1/DTD/svg11.dtd">
<svg version="1.1" id="Capa_1" xmlns="http://www.w3.org/2000/svg" xmlns:xlink="http://www.w3.org/1999/xlink" x="0px" y="0px"
	 width="595.279px" height="595.28px" viewBox="0 123.305 595.279 595.28" enable-background="new 0 123.305 595.279 595.28"
	 xml:space="preserve">
<g>
	<g>
		<path fill="#FFFFFF" d="M297.14,123.305C133.025,123.305-0.5,256.822-0.5,420.945s133.525,297.64,297.641,297.64
			c164.114,0,297.64-133.517,297.64-297.64S461.255,123.305,297.14,123.305z M297.14,681.952
			c-143.92,0-261.008-117.087-261.008-261.007c0-143.921,117.088-261.008,261.008-261.008
			c143.921,0,261.008,117.087,261.008,261.008C558.148,564.865,441.061,681.952,297.14,681.952z"/>
		<circle fill="#FFFFFF" cx="297.14" cy="302.264" r="30.634"/>
		<path fill="#FFFFFF" d="M297.14,382.865c-10.111,0-18.317,8.206-18.317,18.315V556.87c0,10.111,8.206,18.315,18.317,18.315
			c10.11,0,18.315-8.205,18.315-18.315V401.182C315.456,391.062,307.251,382.865,297.14,382.865z"/>
	</g>
</g>
</svg>
