<?xml version="1.0" encoding="utf-8"?>
<!-- Generator: Adobe Illustrator 16.0.0, SVG Export Plug-In . SVG Version: 6.00 Build 0)  -->
<!DOCTYPE svg PUBLIC "-//W3C//DTD SVG 1.1//EN" "http://www.w3.org/Graphics/SVG/1.1/DTD/svg11.dtd">
<svg version="1.1" id="Layer_1" xmlns="http://www.w3.org/2000/svg" xmlns:xlink="http://www.w3.org/1999/xlink" x="0px" y="0px"
	 width="475.327px" height="475.513px" viewBox="-213.584 -213.833 475.327 475.513"
	 enable-background="new -213.584 -213.833 475.327 475.513" xml:space="preserve">
<path fill="#2F3140" d="M24-213.833c-131.342,0-237.833,106.481-237.833,237.833c0,131.343,106.481,237.833,237.833,237.833
	c131.352,0,237.833-106.49,237.833-237.833C261.833-107.352,155.361-213.833,24-213.833z M143.903,17.768l-49.122,36.02
	c-2.188,1.606-3.088,4.433-2.265,7.025l18.542,58.026c2.961,9.232-0.193,18.871-8.052,24.571c-7.839,5.71-17.972,5.729-25.858,0.067
	l-49.433-35.584c-2.211-1.577-5.182-1.577-7.394,0l-49.446,35.604c-3.925,2.797-8.405,4.22-12.896,4.22
	c-4.52,0-9.039-1.442-12.973-4.307c-7.849-5.681-11.008-15.349-8.047-24.571l18.552-58.026c0.832-2.593-0.087-5.399-2.289-7.025
	l-49.093-36.02c-7.829-5.729-10.94-15.401-7.936-24.614c2.99-9.228,11.197-15.213,20.889-15.261l60.905-0.281
	c0.01,0,0.029,0,0.039,0c4.331,0,7.849,3.508,7.868,7.839c0.024,4.35-3.484,7.892-7.838,7.911l-60.891,0.286
	c-4.253,0.019-5.662,3.348-5.986,4.369c-0.338,1.021-1.152,4.548,2.27,7.055l49.089,36.019c7.66,5.613,10.863,15.484,7.979,24.533
	l-18.562,58.016c-1.287,4.064,1.447,6.426,2.309,7.046c0.861,0.639,3.963,2.497,7.422,0.019l49.442-35.574
	c7.718-5.555,18.078-5.555,25.8,0l49.423,35.556c3.455,2.497,6.542,0.619,7.413,0c0.871-0.63,3.591-3,2.294-7.046L77.517,65.613
	c-2.903-9.039,0.29-18.91,7.954-24.523l49.104-36.028c3.426-2.516,2.613-6.034,2.284-7.055c-0.349-1.021-1.771-4.35-6-4.369
	L69.968-6.648c-9.503-0.043-17.894-6.135-20.864-15.155L30.02-79.636c-1.331-4.036-4.94-4.34-6.01-4.34s-4.688,0.305-6.015,4.34
	L9.392-53.584c-1.364,4.132-5.816,6.373-9.938,5.003c-4.123-1.365-6.373-5.816-5.003-9.939l8.603-26.052
	c3.039-9.203,11.264-15.15,20.957-15.15c9.706,0,17.932,5.947,20.971,15.15l19.084,57.823c0.852,2.589,3.252,4.34,5.98,4.35
	l60.9,0.281c9.707,0.039,17.913,6.024,20.875,15.247C154.82,2.356,151.703,12.029,143.903,17.768z"/>
</svg>
