<?xml version="1.0" encoding="utf-8"?>
<!-- Generator: Adobe Illustrator 16.0.0, SVG Export Plug-In . SVG Version: 6.00 Build 0)  -->
<!DOCTYPE svg PUBLIC "-//W3C//DTD SVG 1.1//EN" "http://www.w3.org/Graphics/SVG/1.1/DTD/svg11.dtd">
<svg version="1.1" id="Layer_1" xmlns="http://www.w3.org/2000/svg" xmlns:xlink="http://www.w3.org/1999/xlink" x="0px" y="0px"
	 width="48px" height="48px" viewBox="0 0 48 48" enable-background="new 0 0 48 48" xml:space="preserve">
<g>
	<defs>
		<circle id="SVGID_1_" cx="24" cy="24" r="24"/>
	</defs>
	<clipPath id="SVGID_2_">
		<use xlink:href="#SVGID_1_"  overflow="visible"/>
	</clipPath>
	<g clip-path="url(#SVGID_2_)">
		<defs>
			<rect id="SVGID_3_" x="-279" y="-1542" width="1440" height="1911"/>
		</defs>
		<clipPath id="SVGID_4_">
			<use xlink:href="#SVGID_3_"  overflow="visible"/>
		</clipPath>
		<rect x="-5" y="-5" clip-path="url(#SVGID_4_)" fill="#303240" width="58" height="58"/>
	</g>
</g>
<g>
	<defs>
		<path id="SVGID_5_" d="M36.956,23.219l-3.94-3.967V14.67c0-0.828-0.667-1.5-1.492-1.5c-0.822,0-1.489,0.672-1.489,1.5v1.582
			L27.1,13.299c-1.451-1.459-3.973-1.457-5.42,0.002l-9.854,9.918c-0.582,0.586-0.582,1.535,0,2.121
			c0.582,0.586,1.527,0.586,2.108,0l9.853-9.918c0.321-0.32,0.887-0.32,1.206,0l9.854,9.918c0.292,0.293,0.673,0.439,1.054,0.439
			c0.381,0,0.763-0.146,1.054-0.439C37.538,24.754,37.538,23.805,36.956,23.219z"/>
	</defs>
	<clipPath id="SVGID_6_">
		<use xlink:href="#SVGID_5_"  overflow="visible"/>
	</clipPath>
	<g clip-path="url(#SVGID_6_)">
		<defs>
			<rect id="SVGID_7_" x="-279" y="-1542" width="1440" height="1911"/>
		</defs>
		<clipPath id="SVGID_8_">
			<use xlink:href="#SVGID_7_"  overflow="visible"/>
		</clipPath>
		<rect x="6.39" y="7.205" clip-path="url(#SVGID_8_)" fill="#FFFFFF" width="36.002" height="23.574"/>
	</g>
</g>
<g>
	<defs>
		<path id="SVGID_9_" d="M24.909,18.27c-0.286-0.287-0.75-0.287-1.035,0l-8.667,8.721c-0.137,0.139-0.215,0.326-0.215,0.521v6.361
			c0,1.492,1.203,2.703,2.686,2.703h4.291h4.845h4.291c1.483,0,2.685-1.211,2.685-2.703v-6.361c0-0.195-0.077-0.383-0.214-0.521
			L24.909,18.27z"/>
	</defs>
	<clipPath id="SVGID_10_">
		<use xlink:href="#SVGID_9_"  overflow="visible"/>
	</clipPath>
	<g clip-path="url(#SVGID_10_)">
		<defs>
			<rect id="SVGID_11_" x="-279" y="-1542" width="1440" height="1911"/>
		</defs>
		<clipPath id="SVGID_12_">
			<use xlink:href="#SVGID_11_"  overflow="visible"/>
		</clipPath>
		<rect x="9.992" y="13.053" clip-path="url(#SVGID_12_)" fill="#FFFFFF" width="28.797" height="28.523"/>
	</g>
</g>
<g>
	<defs>
		<path id="SVGID_13_" d="M28.654,30.893c-0.049-0.051-0.112-0.078-0.189-0.078h-1.333c-0.077,0-0.14,0.027-0.189,0.078
			c-0.049,0.053-0.074,0.115-0.074,0.186v1.488h-3.405v-3.117h2.508c0.071,0,0.133-0.025,0.185-0.078
			c0.052-0.051,0.079-0.113,0.079-0.186v-1.076c0-0.078-0.026-0.141-0.079-0.189c-0.052-0.049-0.114-0.074-0.185-0.074h-2.508
			v-1.768c0-0.418,0.143-0.754,0.428-1.012s0.661-0.387,1.126-0.387c0.247,0,0.502,0.049,0.765,0.148
			c0.263,0.098,0.453,0.186,0.567,0.262c0.115,0.078,0.187,0.129,0.214,0.156c0.055,0.051,0.118,0.068,0.189,0.059
			c0.071-0.006,0.131-0.039,0.181-0.1l0.847-1.045c0.044-0.055,0.063-0.115,0.058-0.184s-0.033-0.125-0.082-0.17
			c-0.822-0.686-1.741-1.027-2.755-1.027c-1.047,0-1.91,0.305-2.587,0.912c-0.677,0.609-1.016,1.383-1.016,2.32v1.834h-0.781
			c-0.077,0-0.14,0.025-0.189,0.074s-0.074,0.111-0.074,0.189v1.076c0,0.072,0.024,0.133,0.074,0.186s0.113,0.078,0.189,0.078H21.4
			v3.15h-0.798c-0.071,0-0.133,0.025-0.185,0.078c-0.052,0.053-0.078,0.113-0.078,0.186v1.232c0,0.078,0.025,0.141,0.074,0.189
			s0.112,0.074,0.189,0.074h7.863c0.077,0,0.14-0.025,0.189-0.074s0.074-0.111,0.074-0.189v-3.018
			C28.728,31.006,28.704,30.945,28.654,30.893z"/>
	</defs>
	<clipPath id="SVGID_14_">
		<use xlink:href="#SVGID_13_"  overflow="visible"/>
	</clipPath>
	<g clip-path="url(#SVGID_14_)">
		<defs>
			<rect id="SVGID_15_" x="-279" y="-1542" width="1440" height="1911"/>
		</defs>
		<clipPath id="SVGID_16_">
			<use xlink:href="#SVGID_15_"  overflow="visible"/>
		</clipPath>
		<rect x="15.339" y="17.779" clip-path="url(#SVGID_16_)" fill="#303240" width="18.389" height="21.58"/>
	</g>
</g>
</svg>
