<?xml version="1.0" encoding="utf-8"?>
<!-- Generator: Adobe Illustrator 16.0.0, SVG Export Plug-In . SVG Version: 6.00 Build 0)  -->
<!DOCTYPE svg PUBLIC "-//W3C//DTD SVG 1.1//EN" "http://www.w3.org/Graphics/SVG/1.1/DTD/svg11.dtd">
<svg version="1.1" id="Capa_1" xmlns="http://www.w3.org/2000/svg" xmlns:xlink="http://www.w3.org/1999/xlink" x="0px" y="0px"
	 width="595.279px" height="595.28px" viewBox="0 0 595.279 595.28" enable-background="new 0 0 595.279 595.28"
	 xml:space="preserve">
<g>
	<g>
		<path fill="#FFFFFF" d="M297.64,0C133.526,0,0,133.517,0,297.641c0,164.123,133.525,297.64,297.64,297.64
			s297.64-133.517,297.64-297.64C595.28,133.517,461.754,0,297.64,0z M297.64,558.647c-143.92,0-261.007-117.087-261.007-261.007
			c0-143.921,117.087-261.008,261.007-261.008c143.921,0,261.008,117.087,261.008,261.008
			C558.648,441.561,441.561,558.647,297.64,558.647z"/>
		<circle fill="#FFFFFF" cx="295.85" cy="178.96" r="30.634"/>
		<path fill="#FFFFFF" d="M295.85,259.561c-10.11,0-18.316,8.206-18.316,18.316v155.688c0,10.111,8.206,18.316,18.316,18.316
			s18.316-8.205,18.316-18.316V277.877C314.166,267.757,305.96,259.561,295.85,259.561z"/>
	</g>
</g>
</svg>
