<?xml version="1.0" encoding="utf-8"?>
<!-- Generator: Adobe Illustrator 16.0.0, SVG Export Plug-In . SVG Version: 6.00 Build 0)  -->
<!DOCTYPE svg PUBLIC "-//W3C//DTD SVG 1.1//EN" "http://www.w3.org/Graphics/SVG/1.1/DTD/svg11.dtd">
<svg version="1.1" id="Layer_1" xmlns="http://www.w3.org/2000/svg" xmlns:xlink="http://www.w3.org/1999/xlink" x="0px" y="0px"
	 width="595.279px" height="841.891px" viewBox="0 0 595.279 841.891" enable-background="new 0 0 595.279 841.891"
	 xml:space="preserve">
<g id="Capa_1">
	<g>
		<g>
			<path fill="#FFFFFF" d="M261.749,444.059c0.616,0,1.23,0,1.973,0c0.246,0,0.493,0,0.739,0c0.37,0,0.863,0,1.233,0
				c36.118-0.614,65.334-13.312,86.906-37.598c47.46-53.5,39.568-145.215,38.707-153.967
				c-3.082-65.704-34.146-97.139-59.787-111.808c-19.106-10.972-41.419-16.889-66.319-17.382h-0.863c-0.123,0-0.37,0-0.493,0h-0.739
				c-13.684,0-40.557,2.219-66.318,16.889c-25.89,14.669-57.445,46.104-60.526,112.301c-0.863,8.752-8.753,100.466,38.707,153.967
				C196.415,430.745,225.631,443.442,261.749,444.059z M169.172,255.576c0-0.37,0.123-0.74,0.123-0.986
				c4.068-88.386,66.812-97.878,93.688-97.878h0.492c0.247,0,0.617,0,0.986,0c33.283,0.74,89.865,14.3,93.688,97.878
				c0,0.37,0,0.739,0.123,0.986c0.124,0.863,8.753,84.688-30.447,128.819c-15.533,17.504-36.242,26.133-63.485,26.38
				c-0.246,0-0.37,0-0.616,0l0,0c-0.247,0-0.37,0-0.616,0c-27.118-0.247-47.951-8.876-63.36-26.38
				C160.666,340.51,169.048,256.315,169.172,255.576z"/>
			<g>
				<path fill="#FFFFFF" d="M314.244,683.046c-15.823,1.509-32.597,2.378-50.276,2.378c-118.587,0-197.357-39.323-217.451-50.664
					c-1.973-9.86-2.835-26.997-2.589-38.092c0-0.985,0.123-1.972,0.123-3.081c0.863-28.104,4.068-58.801,32.791-69.033
					c61.389-15.776,110.451-50.048,112.547-51.402c7.521-5.303,9.368-15.655,4.068-23.177c-5.301-7.52-15.656-9.366-23.176-4.066
					c-0.493,0.37-46.476,32.421-102.315,46.598c-0.493,0.123-0.863,0.246-1.232,0.369c-53.5,18.368-55.103,75.442-55.843,99.729
					c0,1.108,0,2.097-0.123,3.08c0,0.124,0,0.247,0,0.37c-0.123,6.41-0.246,39.324,6.287,55.845c1.232,3.205,3.451,5.917,6.41,7.766
					c3.698,2.466,92.33,58.924,240.627,58.924c21.868,0,42.429-1.237,61.62-3.343C320.644,705.016,316.795,694.224,314.244,683.046z
					"/>
				<path fill="#FFFFFF" d="M338.424,473.274c1.599,1.127,30.478,21.227,71.299,37.711c15.188-5.208,31.296-7.928,47.822-7.928
					c9.084,0,18.039,0.829,26.787,2.432c-6.39-5.069-14.054-9.354-23.252-12.491c-0.37-0.124-0.863-0.247-1.233-0.37
					c-55.596-14.177-101.82-46.228-102.313-46.597c-7.521-5.301-17.874-3.452-23.175,4.065
					C329.055,457.617,330.905,467.973,338.424,473.274z"/>
			</g>
		</g>
	</g>
	<g>
		<path fill="#FFFFFF" d="M457.545,523.059c-70.144,0-127,56.856-127,127c0,70.145,56.856,127,127,127c70.145,0,127-56.863,127-127
			C584.545,579.924,527.689,523.059,457.545,523.059z M510.027,663.806h-38.735v38.735c0,7.589-6.158,13.747-13.747,13.747
			s-13.747-6.158-13.747-13.747v-38.735h-38.734c-7.59,0-13.747-6.157-13.747-13.747c0-7.589,6.157-13.746,13.747-13.746h38.734
			v-38.735c0-7.589,6.158-13.747,13.747-13.747s13.747,6.158,13.747,13.747v38.735h38.735c7.589,0,13.747,6.157,13.747,13.746
			C523.774,657.648,517.616,663.806,510.027,663.806z"/>
	</g>
</g>
<g id="Layer_2">
</g>
</svg>
