<?xml version="1.0" encoding="utf-8"?>
<!-- Generator: Adobe Illustrator 16.0.0, SVG Export Plug-In . SVG Version: 6.00 Build 0)  -->
<!DOCTYPE svg PUBLIC "-//W3C//DTD SVG 1.1//EN" "http://www.w3.org/Graphics/SVG/1.1/DTD/svg11.dtd">
<svg version="1.1" id="Layer_1" xmlns="http://www.w3.org/2000/svg" xmlns:xlink="http://www.w3.org/1999/xlink" x="0px" y="0px"
	 width="34.766px" height="48px" viewBox="0 0 34.766 48" enable-background="new 0 0 34.766 48" xml:space="preserve">
<g>
	<path fill="#FFFFFF" d="M33.673,33.327H28.15c-0.321,0-0.58,0.109-0.783,0.322c-0.201,0.219-0.302,0.474-0.302,0.774v6.162H12.954
		V27.674h10.4c0.288,0,0.55-0.105,0.765-0.324c0.214-0.214,0.328-0.47,0.328-0.773v-4.459c0-0.325-0.109-0.583-0.328-0.781
		c-0.215-0.203-0.474-0.303-0.765-0.303h-10.4v-7.329c0-1.731,0.593-3.124,1.774-4.196c1.182-1.069,2.742-1.603,4.66-1.603
		c1.028,0,2.08,0.203,3.176,0.611c1.09,0.405,1.875,0.773,2.344,1.084c0.478,0.324,0.781,0.539,0.89,0.647
		c0.231,0.21,0.485,0.279,0.782,0.247c0.295-0.028,0.54-0.162,0.748-0.417l3.518-4.331C31.027,5.52,31.1,5.27,31.083,4.985
		c-0.017-0.287-0.129-0.518-0.34-0.704c-3.399-2.843-7.211-4.257-11.416-4.257c-4.338,0-7.916,1.265-10.72,3.78
		c-2.807,2.522-4.211,5.728-4.211,9.613v7.607H1.162c-0.32,0-0.581,0.097-0.783,0.3c-0.204,0.204-0.308,0.462-0.308,0.777v4.459
		c0,0.299,0.099,0.551,0.308,0.776c0.207,0.219,0.467,0.324,0.783,0.324h3.235v13.047H1.091c-0.295,0-0.55,0.104-0.768,0.323
		C0.109,41.25,0,41.502,0,41.8v5.107c0,0.324,0.103,0.583,0.308,0.785C0.51,47.891,0.771,48,1.091,48h32.582
		c0.319,0,0.583-0.106,0.784-0.308c0.199-0.202,0.309-0.461,0.309-0.785V34.403c0-0.292-0.103-0.543-0.309-0.762
		C34.256,33.44,33.992,33.327,33.673,33.327z"/>
</g>
</svg>
