<?xml version="1.0" encoding="utf-8"?>
<!-- Generator: Adobe Illustrator 16.0.0, SVG Export Plug-In . SVG Version: 6.00 Build 0)  -->
<!DOCTYPE svg PUBLIC "-//W3C//DTD SVG 1.1//EN" "http://www.w3.org/Graphics/SVG/1.1/DTD/svg11.dtd">
<svg version="1.1" id="Capa_1" xmlns="http://www.w3.org/2000/svg" xmlns:xlink="http://www.w3.org/1999/xlink" x="0px" y="0px"
	 width="595.279px" height="595.28px" viewBox="0 0 595.279 595.28" enable-background="new 0 0 595.279 595.28"
	 xml:space="preserve">
<g>
	<path fill="#FFFFFF" d="M496.067,317.483c27.354,0,49.606-22.254,49.606-49.607s-22.253-49.607-49.606-49.607
		s-49.606,22.254-49.606,49.607S468.713,317.483,496.067,317.483z M496.067,238.112c16.41,0,29.764,13.354,29.764,29.764
		c0,16.41-13.354,29.764-29.764,29.764s-29.764-13.354-29.764-29.764C466.303,251.466,479.656,238.112,496.067,238.112z"/>
	<path fill="#FFFFFF" d="M416.696,426.618H178.584c-5.486,0-9.922,4.435-9.922,9.921s4.436,9.922,9.922,9.922h238.111
		c5.487,0,9.922-4.436,9.922-9.922S422.183,426.618,416.696,426.618z"/>
	<path fill="#FFFFFF" d="M416.696,476.225H178.584c-5.486,0-9.922,4.435-9.922,9.921c0,5.487,4.436,9.922,9.922,9.922h238.111
		c5.487,0,9.922-4.435,9.922-9.922C426.617,480.659,422.183,476.225,416.696,476.225z"/>
	<path fill="#FFFFFF" d="M505.988,168.663V0H89.292v168.663H0v337.325h59.527v29.765h29.765v59.527h416.695v-59.527h29.765v-29.765
		h59.527V168.663H505.988z M109.135,19.843h377.011v148.82H109.135V19.843z M89.292,188.506h416.695h69.45v158.741H19.843V188.506
		H89.292z M79.37,515.91v-19.843v-9.922v-39.685c0-5.487-4.435-9.922-9.921-9.922s-9.922,4.435-9.922,9.922v39.685H19.843V367.09
		h69.449v148.82H79.37z M486.146,575.438H109.135v-39.685V367.09h377.011v168.663V575.438z M535.752,486.146v-39.685
		c0-5.487-4.435-9.922-9.922-9.922c-5.486,0-9.921,4.435-9.921,9.922v39.685v9.922v19.843h-9.922V367.09h69.45v119.056H535.752z"/>
</g>
</svg>
