<?xml version="1.0" encoding="utf-8"?>
<!-- Generator: Adobe Illustrator 16.0.0, SVG Export Plug-In . SVG Version: 6.00 Build 0)  -->
<!DOCTYPE svg PUBLIC "-//W3C//DTD SVG 1.1//EN" "http://www.w3.org/Graphics/SVG/1.1/DTD/svg11.dtd">
<svg version="1.1" id="Layer_1" xmlns="http://www.w3.org/2000/svg" xmlns:xlink="http://www.w3.org/1999/xlink" x="0px" y="0px"
	 width="31.718px" height="30px" viewBox="0 0 31.718 30" enable-background="new 0 0 31.718 30" xml:space="preserve">
<g id="Layer_1_1_">
	<g id="Layer_2">
	</g>
</g>
<g id="Layer_2_1_">
	<g>
		<path fill="#FFFFFF" d="M0.613,13.516L13.507,0.624c0.82-0.822,2.15-0.822,2.972,0c0.819,0.819,0.819,2.149,0,2.969L5.07,15
			l11.408,11.407c0.818,0.819,0.818,2.149,0,2.971c-0.82,0.82-2.15,0.82-2.971,0L0.613,16.484C0.204,16.075,0,15.539,0,15.002
			S0.205,13.926,0.613,13.516z"/>
	</g>
</g>
<g id="Layer_2_2_">
	<g>
		<path fill="#FFFFFF" d="M15.238,13.516L28.132,0.624c0.82-0.822,2.15-0.822,2.972,0c0.819,0.819,0.819,2.149,0,2.969L19.695,15
			l11.408,11.407c0.818,0.819,0.818,2.149,0,2.971c-0.82,0.82-2.15,0.82-2.971,0L15.238,16.484
			c-0.408-0.409-0.613-0.945-0.613-1.482S14.83,13.926,15.238,13.516z"/>
	</g>
</g>
</svg>
