<?xml version="1.0" encoding="utf-8"?>
<!-- Generator: Adobe Illustrator 16.0.0, SVG Export Plug-In . SVG Version: 6.00 Build 0)  -->
<!DOCTYPE svg PUBLIC "-//W3C//DTD SVG 1.1//EN" "http://www.w3.org/Graphics/SVG/1.1/DTD/svg11.dtd">
<svg version="1.1" id="Capa_1" xmlns="http://www.w3.org/2000/svg" xmlns:xlink="http://www.w3.org/1999/xlink" x="0px" y="0px"
	 width="292.362px" height="401.998px" viewBox="0 0 292.362 401.998" enable-background="new 0 0 292.362 401.998"
	 xml:space="preserve">
<g>
	<g>
		<path fill="#009BEF" d="M18.273,164.452h255.813c4.949,0,9.233-1.807,12.849-5.424c3.612-3.616,5.427-7.898,5.427-12.847
			c0-4.949-1.813-9.229-5.427-12.85L159.028,5.424C155.414,1.812,151.133,0,146.18,0s-9.232,1.812-12.85,5.424L5.424,133.331
			C1.806,136.948,0,141.232,0,146.181c0,4.948,1.807,9.231,5.424,12.847C9.045,162.645,13.326,164.452,18.273,164.452z"/>
		<path fill="#009BEF" d="M274.087,237.549H18.273c-4.951,0-9.232,1.808-12.85,5.421C1.806,246.587,0,250.868,0,255.817
			s1.807,9.232,5.424,12.848l127.907,127.904c3.621,3.618,7.901,5.429,12.85,5.429s9.233-1.811,12.848-5.429l127.907-127.905
			c3.612-3.614,5.427-7.897,5.427-12.849c0-4.947-1.813-9.229-5.427-12.847C283.321,239.353,279.036,237.549,274.087,237.549z"/>
	</g>
</g>
</svg>
