<?xml version="1.0" encoding="utf-8"?>
<!-- Generator: Adobe Illustrator 16.0.0, SVG Export Plug-In . SVG Version: 6.00 Build 0)  -->
<!DOCTYPE svg PUBLIC "-//W3C//DTD SVG 1.1//EN" "http://www.w3.org/Graphics/SVG/1.1/DTD/svg11.dtd">
<svg version="1.1" xmlns="http://www.w3.org/2000/svg" xmlns:xlink="http://www.w3.org/1999/xlink" x="0px" y="0px" width="48px"
	 height="48px" viewBox="0 0 48 48" enable-background="new 0 0 48 48" xml:space="preserve">
<g id="Layer_3">
	<g>
		<path fill="#303240" d="M16.06,23.712l-6.426-6.426h1.162l5.414,5.412l1.294-1.294c1.092-1.491,2.405-2.805,3.896-3.897
			l1.002-1.002c1.604-1.602,1.604-4.209,0-5.811c-0.776-0.777-1.808-1.205-2.905-1.205c-1.002,0-1.939,0.372-2.687,1.024
			l-0.601,0.562l-0.6-0.562c-0.748-0.652-1.684-1.023-2.687-1.023c-1.098,0-2.13,0.427-2.906,1.205
			C8.9,11.809,8.58,13.407,9.018,14.819H8.164c-0.417-1.631-0.005-3.43,1.271-4.707c0.962-0.962,2.225-1.444,3.487-1.444
			c1.181,0,2.352,0.438,3.287,1.281c0.936-0.843,2.108-1.281,3.288-1.281c1.261,0,2.523,0.481,3.486,1.444
			c1.607,1.608,1.854,4.042,0.776,5.925c2.424-1.253,5.162-1.975,8.068-1.996C30.87,6.132,24.146,0,15.979,0
			C7.153,0,0,7.153,0,15.979c0,8.169,6.131,14.892,14.041,15.85C14.062,28.903,14.792,26.146,16.06,23.712z M7.99,16.052
			c0-0.226,0.183-0.41,0.411-0.41h3.009l1.54-3.852c0.067-0.167,0.235-0.268,0.416-0.256c0.18,0.014,0.328,0.143,0.368,0.32
			l1.293,5.815l1.199-4.197c0.048-0.173,0.206-0.293,0.386-0.297c0.176-0.025,0.342,0.109,0.398,0.28l0.729,2.185h2.991
			c0.228,0,0.411,0.185,0.412,0.411c0,0.229-0.183,0.413-0.411,0.413h-3.288c-0.177,0-0.334-0.114-0.39-0.282l-0.402-1.205
			l-1.28,4.476c-0.05,0.177-0.212,0.298-0.395,0.298h-0.012c-0.187-0.004-0.348-0.138-0.39-0.322l-1.354-6.097l-1.151,2.873
			c-0.061,0.158-0.213,0.26-0.381,0.26H8.4C8.173,16.464,7.99,16.28,7.99,16.052z"/>
	</g>
</g>
<g id="Layer_2">
	<g>
		<path fill="#303240" d="M34.93,36.495h-0.888c-0.052,0-0.094,0.019-0.124,0.05c-0.034,0.038-0.051,0.078-0.051,0.125v0.992H31.6
			v-2.075h1.672c0.046,0,0.087-0.017,0.121-0.054c0.035-0.033,0.054-0.075,0.054-0.124v-0.716c0-0.051-0.019-0.094-0.054-0.125
			c-0.034-0.032-0.075-0.048-0.121-0.048H31.6v-1.179c0-0.278,0.097-0.502,0.285-0.674c0.189-0.172,0.439-0.259,0.749-0.259
			c0.166,0,0.335,0.033,0.511,0.1c0.174,0.063,0.302,0.124,0.376,0.174c0.079,0.053,0.125,0.087,0.144,0.104
			c0.037,0.032,0.077,0.046,0.126,0.038c0.047-0.005,0.087-0.025,0.121-0.065l0.562-0.695c0.03-0.039,0.043-0.077,0.04-0.123
			c-0.005-0.046-0.022-0.084-0.056-0.113c-0.547-0.457-1.159-0.684-1.834-0.684c-0.696,0-1.272,0.202-1.723,0.606
			c-0.45,0.406-0.678,0.923-0.678,1.546v1.222h-0.518c-0.053,0-0.092,0.016-0.127,0.048c-0.031,0.033-0.048,0.074-0.048,0.126v0.716
			c0,0.049,0.017,0.09,0.048,0.124c0.035,0.036,0.076,0.053,0.127,0.053h0.519v2.097h-0.53c-0.047,0-0.087,0.017-0.122,0.053
			c-0.034,0.033-0.054,0.075-0.054,0.124v0.819c0,0.053,0.019,0.093,0.05,0.127c0.033,0.031,0.074,0.049,0.126,0.049h5.235
			c0.05,0,0.094-0.018,0.126-0.049c0.033-0.034,0.049-0.074,0.049-0.127v-2.01c0-0.047-0.015-0.085-0.049-0.123
			C35.023,36.514,34.979,36.495,34.93,36.495z"/>
		<path fill="#303240" d="M31.957,15.979c-8.825,0-15.979,7.154-15.979,15.978c0,8.825,7.153,15.979,15.979,15.979
			c8.824,0,15.979-7.153,15.979-15.979C47.936,23.133,40.781,15.979,31.957,15.979z M38.476,38.53c0,0.995-0.802,1.8-1.788,1.8
			H33.83h-3.225h-2.857c-0.986,0-1.789-0.805-1.789-1.8v-4.235c0-0.13,0.052-0.255,0.145-0.347l5.77-5.806
			c0.19-0.19,0.499-0.19,0.69,0l5.771,5.806c0.09,0.092,0.142,0.217,0.142,0.347V38.53z M40.583,32.85
			c-0.194,0.196-0.448,0.293-0.702,0.293s-0.507-0.097-0.7-0.293l-6.562-6.604c-0.213-0.212-0.591-0.212-0.805,0l-6.561,6.604
			c-0.385,0.39-1.014,0.39-1.403,0c-0.387-0.391-0.387-1.021,0-1.413l6.562-6.603c0.963-0.972,2.643-0.974,3.608-0.002l1.954,1.966
			v-1.052c0-0.552,0.444-0.999,0.99-0.999c0.551,0,0.995,0.447,0.995,0.999v3.05l2.623,2.641
			C40.972,31.828,40.972,32.459,40.583,32.85z"/>
	</g>
</g>
</svg>
