<?xml version="1.0" encoding="utf-8"?>
<!-- Generator: Adobe Illustrator 16.0.0, SVG Export Plug-In . SVG Version: 6.00 Build 0)  -->
<!DOCTYPE svg PUBLIC "-//W3C//DTD SVG 1.1//EN" "http://www.w3.org/Graphics/SVG/1.1/DTD/svg11.dtd">
<svg version="1.1" id="Layer_1" xmlns="http://www.w3.org/2000/svg" xmlns:xlink="http://www.w3.org/1999/xlink" x="0px" y="0px"
	 width="64px" height="57.623px" viewBox="0 0 64 57.623" enable-background="new 0 0 64 57.623" xml:space="preserve">
<g>
	<g>
		<path fill="#FFFFFF" d="M34.688,0C18.801,0,5.876,12.924,5.878,28.729c-0.012,0.251-0.157,4.435,1.034,8.941l-3.881-2.262
			c-0.964-0.561-2.192-0.234-2.758,0.727C-0.285,37.096,0.039,38.33,1,38.891l9.095,5.301c0.019,0.012,0.038,0.014,0.056,0.023
			c0.097,0.051,0.196,0.09,0.301,0.125c0.071,0.025,0.14,0.051,0.211,0.068c0.087,0.02,0.173,0.025,0.262,0.033
			c0.062,0.006,0.124,0.025,0.186,0.025c0.035,0,0.068-0.012,0.104-0.014c0.034-0.002,0.063,0.006,0.097,0.004
			c0.05-0.006,0.095-0.027,0.144-0.035c0.097-0.016,0.189-0.037,0.282-0.068c0.078-0.025,0.155-0.057,0.23-0.092
			c0.084-0.041,0.163-0.084,0.241-0.137c0.071-0.045,0.139-0.096,0.203-0.15c0.071-0.059,0.134-0.125,0.197-0.193
			c0.059-0.066,0.11-0.135,0.159-0.205c0.027-0.041,0.063-0.07,0.087-0.111c0.018-0.031,0.018-0.066,0.033-0.098
			c0.027-0.055,0.069-0.104,0.093-0.162l3.618-8.957c0.417-1.033-0.081-2.208-1.112-2.625c-1.033-0.414-2.207,0.082-2.624,1.114
			l-1.858,4.602c-1.24-4.148-1.099-8.409-1.095-8.526c0-13.664,11.117-24.78,24.779-24.78c13.662,0,24.778,11.116,24.778,24.78
			c0,13.663-11.116,24.778-24.778,24.778c-1.114,0-2.017,0.904-2.017,2.016c0,1.113,0.901,2.018,2.017,2.018
			c15.888,0,28.812-12.924,28.812-28.811C63.499,12.924,50.575,0,34.688,0z"/>
		<path fill="#FFFFFF" d="M33.916,32.688c0.203,0.084,0.417,0.113,0.634,0.129c0.046,0.002,0.089,0.027,0.134,0.027
			c0.236,0,0.465-0.055,0.685-0.135c0.062-0.021,0.118-0.055,0.177-0.082c0.167-0.08,0.321-0.183,0.463-0.308
			c0.031-0.026,0.072-0.036,0.104-0.067l12.586-12.587c0.789-0.788,0.789-2.063,0-2.851c-0.786-0.788-2.061-0.788-2.85,0
			L34.215,28.444l-10.439-4.372c-1.033-0.431-2.209,0.053-2.64,1.081c-0.43,1.027,0.055,2.208,1.08,2.638l11.688,4.895
			C33.908,32.686,33.912,32.686,33.916,32.688z"/>
	</g>
</g>
</svg>
