<?xml version="1.0" encoding="utf-8"?>
<!-- Generator: Adobe Illustrator 16.0.0, SVG Export Plug-In . SVG Version: 6.00 Build 0)  -->
<!DOCTYPE svg PUBLIC "-//W3C//DTD SVG 1.1//EN" "http://www.w3.org/Graphics/SVG/1.1/DTD/svg11.dtd">
<svg version="1.1" id="Layer_1" xmlns="http://www.w3.org/2000/svg" xmlns:xlink="http://www.w3.org/1999/xlink" x="0px" y="0px"
	 width="48px" height="48px" viewBox="0 0 48 48" enable-background="new 0 0 48 48" xml:space="preserve">
<path fill="#2F3140" d="M24,0C10.746,0,0,10.745,0,24c0,13.254,10.745,24,24,24c13.255,0,24-10.746,24-24C48,10.745,37.256,0,24,0z
	 M36.1,23.371l-4.957,3.635c-0.221,0.162-0.312,0.447-0.229,0.709l1.871,5.855c0.299,0.932-0.02,1.904-0.812,2.48
	c-0.791,0.576-1.814,0.578-2.609,0.006l-4.989-3.59c-0.223-0.16-0.523-0.16-0.746,0l-4.99,3.592
	c-0.396,0.283-0.848,0.426-1.301,0.426c-0.456,0-0.912-0.145-1.309-0.434c-0.792-0.574-1.111-1.549-0.812-2.48l1.872-5.855
	c0.084-0.262-0.009-0.545-0.231-0.709l-4.954-3.635c-0.79-0.578-1.104-1.554-0.801-2.484c0.302-0.931,1.13-1.535,2.108-1.54
	l6.146-0.028c0.001,0,0.003,0,0.004,0c0.437,0,0.792,0.354,0.794,0.791c0.002,0.439-0.352,0.796-0.791,0.798l-6.145,0.029
	c-0.429,0.002-0.571,0.338-0.604,0.441c-0.034,0.103-0.116,0.459,0.229,0.712l4.954,3.635c0.773,0.566,1.096,1.562,0.805,2.475
	l-1.873,5.855c-0.13,0.41,0.146,0.648,0.233,0.711c0.087,0.064,0.4,0.252,0.749,0.002l4.989-3.59c0.779-0.561,1.825-0.561,2.603,0
	l4.988,3.588c0.348,0.252,0.66,0.062,0.748,0c0.088-0.064,0.363-0.303,0.232-0.711L29.4,28.199
	c-0.293-0.912,0.029-1.908,0.803-2.475l4.955-3.635c0.346-0.254,0.264-0.609,0.23-0.712c-0.035-0.103-0.178-0.439-0.605-0.441
	l-6.145-0.029c-0.959-0.004-1.805-0.619-2.105-1.529l-1.926-5.836c-0.134-0.407-0.498-0.438-0.606-0.438
	c-0.108,0-0.473,0.031-0.607,0.438l-0.868,2.629c-0.138,0.417-0.587,0.643-1.003,0.505s-0.643-0.587-0.505-1.003l0.868-2.629
	c0.307-0.929,1.137-1.529,2.115-1.529c0.979,0,1.809,0.6,2.116,1.529l1.926,5.835c0.086,0.261,0.328,0.438,0.604,0.439l6.145,0.028
	c0.979,0.004,1.807,0.608,2.107,1.539C37.201,21.816,36.887,22.792,36.1,23.371z"/>
</svg>
