<?xml version="1.0" encoding="utf-8"?>
<!-- Generator: Adobe Illustrator 16.0.0, SVG Export Plug-In . SVG Version: 6.00 Build 0)  -->
<!DOCTYPE svg PUBLIC "-//W3C//DTD SVG 1.1//EN" "http://www.w3.org/Graphics/SVG/1.1/DTD/svg11.dtd">
<svg version="1.1" xmlns="http://www.w3.org/2000/svg" xmlns:xlink="http://www.w3.org/1999/xlink" x="0px" y="0px" width="30px"
	 height="30px" viewBox="0 0 30 30" enable-background="new 0 0 30 30" xml:space="preserve">
<g id="Layer_2">
</g>
<g id="Layer_1">
	<g>
		<path fill-rule="evenodd" clip-rule="evenodd" fill="#FFFFFF" d="M14.979,14.74c0.006,0,0.01,0,0.017,0c0.006,0,0.01,0,0.017,0
			c0.747-0.007,1.314-0.244,1.74-0.723c1.075-1.21,0.838-3.507,0.835-3.531c-0.003-0.007-0.003-0.017-0.003-0.027
			c-0.105-2.291-1.656-2.663-2.568-2.683c-0.01,0-0.02,0-0.027,0h-0.013c-0.737,0-2.457,0.26-2.568,2.683
			c0,0.006-0.003,0.017-0.003,0.027c-0.003,0.02-0.233,2.328,0.838,3.531C13.664,14.496,14.235,14.733,14.979,14.74z"/>
		<path fill-rule="evenodd" clip-rule="evenodd" fill="#FFFFFF" d="M15,0.018c-8.284,0-15,6.716-15,15c0,8.284,6.716,15,15,15
			s15-6.717,15-15C30,6.734,23.284,0.018,15,0.018z M11.502,10.401c0.084-1.814,0.949-2.676,1.659-3.078
			c0.706-0.402,1.442-0.463,1.818-0.463h0.02c0.003,0,0.01,0,0.014,0h0.024c0.682,0.013,1.293,0.176,1.817,0.476
			c0.703,0.402,1.554,1.264,1.638,3.065c0.024,0.24,0.24,2.753-1.06,4.22c-0.591,0.666-1.393,1.013-2.382,1.03
			c-0.01,0-0.024,0-0.034,0c-0.007,0-0.014,0-0.02,0c-0.021,0-0.037,0-0.055,0c-0.99-0.017-1.791-0.365-2.378-1.03
			C11.262,13.155,11.478,10.641,11.502,10.401z M21.776,21.348c-0.034,0.088-0.098,0.163-0.175,0.213
			c-0.102,0.064-2.531,1.615-6.596,1.615s-6.494-1.547-6.595-1.615c-0.081-0.05-0.142-0.125-0.176-0.213
			c-0.179-0.453-0.176-1.354-0.172-1.53c0-0.003,0-0.007,0-0.01c0.003-0.027,0.003-0.054,0.003-0.084
			c0.021-0.666,0.064-2.23,1.531-2.733c0.01-0.003,0.02-0.006,0.034-0.01c1.53-0.389,2.791-1.267,2.804-1.278
			c0.206-0.145,0.49-0.094,0.635,0.112c0.145,0.206,0.095,0.489-0.111,0.634c-0.058,0.038-1.402,0.977-3.084,1.409
			c-0.788,0.28-0.875,1.122-0.899,1.893c0,0.03-0.003,0.058-0.003,0.084c-0.007,0.304,0.017,0.774,0.071,1.044
			c0.551,0.311,2.71,1.388,5.96,1.388c3.264,0,5.409-1.074,5.957-1.385c0.054-0.271,0.075-0.74,0.071-1.044
			c-0.003-0.027-0.003-0.054-0.003-0.084c-0.023-0.771-0.111-1.612-0.898-1.892c-1.683-0.433-3.027-1.369-3.084-1.409
			c-0.206-0.145-0.257-0.429-0.112-0.635c0.145-0.206,0.429-0.257,0.635-0.112c0.014,0.011,1.281,0.889,2.805,1.278
			c0.01,0.003,0.023,0.006,0.034,0.01c1.466,0.5,1.51,2.064,1.53,2.733c0,0.03,0.003,0.058,0.003,0.084c0,0.003,0,0.007,0,0.01
			C21.942,19.997,21.945,20.899,21.776,21.348z"/>
	</g>
</g>
</svg>
