<?xml version="1.0" encoding="utf-8"?>
<!-- Generator: Adobe Illustrator 16.0.0, SVG Export Plug-In . SVG Version: 6.00 Build 0)  -->
<!DOCTYPE svg PUBLIC "-//W3C//DTD SVG 1.1//EN" "http://www.w3.org/Graphics/SVG/1.1/DTD/svg11.dtd">
<svg version="1.1" id="Layer_1" xmlns="http://www.w3.org/2000/svg" xmlns:xlink="http://www.w3.org/1999/xlink" x="0px" y="0px"
	 width="418.279px" height="595.28px" viewBox="0 0 418.279 595.28" enable-background="new 0 0 418.279 595.28"
	 xml:space="preserve">
<g>
	<g>
		<g>
			<path fill="#FFFFFF" d="M406.654,43.372H296.996V11.627C296.996,5.207,291.79,0,285.369,0H132.91
				c-6.421,0-11.627,5.207-11.627,11.627v31.745H11.627C5.206,43.372,0,48.579,0,54.999v528.655c0,6.42,5.206,11.626,11.627,11.626
				h395.026c6.42,0,11.626-5.206,11.626-11.626V54.999C418.28,48.577,413.073,43.372,406.654,43.372z M144.536,23.253h129.207
				v67.004H144.536V23.253z M395.027,572.027H23.253V66.625h98.03v35.26c0,6.42,5.206,11.626,11.627,11.626h152.459
				c6.421,0,11.627-5.206,11.627-11.626v-35.26h98.03V572.027z"/>
			<path fill="#FFFFFF" d="M72.58,173.292h179.344c6.421,0,11.627-5.207,11.627-11.626c0-6.42-5.206-11.627-11.627-11.627H72.58
				c-6.42,0-11.626,5.207-11.626,11.627C60.954,168.086,66.16,173.292,72.58,173.292z"/>
			<path fill="#FFFFFF" d="M349.217,209.821H72.58c-6.42,0-11.626,5.206-11.626,11.626s5.206,11.626,11.626,11.626h276.637
				c6.42,0,11.626-5.206,11.626-11.626S355.637,209.821,349.217,209.821z"/>
			<path fill="#FFFFFF" d="M349.217,269.603H72.58c-6.42,0-11.626,5.207-11.626,11.626c0,6.421,5.206,11.627,11.626,11.627h276.637
				c6.42,0,11.626-5.206,11.626-11.627C360.843,274.81,355.637,269.603,349.217,269.603z"/>
			<path fill="#FFFFFF" d="M349.217,325.867H72.58c-6.42,0-11.626,5.206-11.626,11.627c0,6.42,5.206,11.626,11.626,11.626h276.637
				c6.42,0,11.626-5.206,11.626-11.626C360.843,331.073,355.637,325.867,349.217,325.867z"/>
			<path fill="#FFFFFF" d="M310.534,173.292h38.683c6.42,0,11.626-5.207,11.626-11.626c0-6.42-5.206-11.627-11.626-11.627h-38.683
				c-6.42,0-11.626,5.207-11.626,11.627C298.908,168.086,304.115,173.292,310.534,173.292z"/>
			<path fill="#FFFFFF" d="M231.697,457.5c0-3.104-1.242-6.08-3.448-8.264l-44.337-43.884c-4.391-4.347-11.419-4.5-15.994-0.344
				c-15.354,13.943-24.161,33.769-24.161,54.393c0,19.724,7.753,38.259,21.831,52.193c2.266,2.242,5.222,3.363,8.179,3.363
				s5.914-1.12,8.179-3.363l46.305-45.832C230.455,463.578,231.697,460.604,231.697,457.5z M174.693,486.056
				c-5.005-7.922-7.683-17.086-7.683-26.654c0-10.396,3.286-20.502,9.235-28.921l27.3,27.02L174.693,486.056z"/>
			<path fill="#FFFFFF" d="M329.634,407.21L329.634,407.21l-0.001-0.002c-14.047-13.903-32.711-21.56-52.56-21.56
				c-18.645,0-36.484,6.876-50.231,19.36c-2.363,2.146-3.739,5.167-3.809,8.357s1.177,6.269,3.446,8.514l35.987,35.62
				l-37.955,37.568c-2.207,2.183-3.448,5.159-3.448,8.264c0,3.104,1.241,6.078,3.448,8.263c14.046,13.903,32.713,21.56,52.562,21.56
				c41.02,0,74.393-33.086,74.393-73.753C351.465,439.679,343.712,421.146,329.634,407.21L329.634,407.21z M252.624,415.042
				c7.438-4.005,15.814-6.139,24.448-6.139c9.649,0,18.893,2.621,26.892,7.522l-24.971,24.716L252.624,415.042z M277.073,509.901
				c-9.653,0-18.895-2.622-26.892-7.523l46.029-45.562l24.318-24.069c5.006,7.924,7.684,17.086,7.684,26.654
				C328.212,487.248,305.271,509.901,277.073,509.901z"/>
			<path fill="#FFFFFF" d="M214.953,41.856h-39.53c-6.42,0-11.627,5.206-11.627,11.626s5.207,11.626,11.627,11.626h39.53
				c6.42,0,11.626-5.206,11.626-11.626S221.373,41.856,214.953,41.856z"/>
		</g>
	</g>
</g>
</svg>
