<?xml version="1.0" encoding="utf-8"?>
<!-- Generator: Adobe Illustrator 16.0.0, SVG Export Plug-In . SVG Version: 6.00 Build 0)  -->
<!DOCTYPE svg PUBLIC "-//W3C//DTD SVG 1.1//EN" "http://www.w3.org/Graphics/SVG/1.1/DTD/svg11.dtd">
<svg version="1.1" id="Layer_1" xmlns="http://www.w3.org/2000/svg" xmlns:xlink="http://www.w3.org/1999/xlink" x="0px" y="0px"
	 width="48px" height="48px" viewBox="0 0 48 48" enable-background="new 0 0 48 48" xml:space="preserve">
<g>
	<g>
		<defs>
			<path id="SVGID_1_" d="M3.276,46.439V13.587h41.449v32.853H3.276z M3.276,4.774h4.781v2.405c0,0.443,0.357,0.8,0.795,0.8h5.581
				c0.441,0,0.799-0.357,0.799-0.8V4.774h17.536v2.405c0,0.443,0.355,0.8,0.799,0.8h5.576c0.443,0,0.799-0.357,0.799-0.8V4.774
				h4.783v7.211H3.276V4.774z M9.65,1.569h3.985v2.404v2.404H9.65V3.974V1.569z M34.361,1.569h3.986v2.404v2.404h-3.986V3.974V1.569
				z M45.521,3.173h-5.582V0.768c0-0.443-0.354-0.801-0.797-0.801h-5.576c-0.444,0-0.799,0.358-0.799,0.801v2.405H15.232V0.768
				c0-0.443-0.358-0.801-0.799-0.801H8.852c-0.438,0-0.795,0.358-0.795,0.801v2.405h-5.58c-0.443,0-0.798,0.357-0.798,0.801v8.812
				V47.24c0,0.443,0.354,0.801,0.798,0.801h43.044c0.44,0,0.797-0.357,0.797-0.801V12.786V3.974
				C46.32,3.53,45.963,3.173,45.521,3.173z"/>
		</defs>
		<use xlink:href="#SVGID_1_"  overflow="visible" fill="#757575"/>
		<clipPath id="SVGID_2_">
			<use xlink:href="#SVGID_1_"  overflow="visible"/>
		</clipPath>
	</g>
	<g>
		<g>
			<defs>
				<path id="SVGID_3_" d="M37.552,19.998v5.607h-5.581v-5.607H37.552z M37.552,32.816h-5.581v-5.608h5.581V32.816z M37.552,40.027
					h-5.581v-5.606h5.581V40.027z M30.376,40.027h-5.579v-5.606h5.579V40.027z M23.202,40.027H17.62v-5.606h5.582V40.027z
					 M16.029,40.027h-5.582v-5.606h5.582V40.027z M10.448,27.208h5.582v5.608h-5.582V27.208z M10.448,19.998h5.582v5.607h-5.582
					V19.998z M17.62,19.998h5.582v5.607H17.62V19.998z M17.62,27.208h5.582v5.608H17.62V27.208z M30.376,32.816h-5.579v-5.608h5.579
					V32.816z M24.798,19.998h5.579v5.607h-5.579V19.998z M30.376,18.396h-5.579h-1.596H17.62h-1.591H8.852v7.209v1.603v5.608v1.604
					v7.208h7.177h1.591h5.582h1.596h5.579h1.594h7.172V34.42v-1.604v-5.608v-1.603v-7.209h-7.172H30.376z"/>
			</defs>
			<use xlink:href="#SVGID_3_"  overflow="visible" fill="#757575"/>
			<clipPath id="SVGID_4_">
				<use xlink:href="#SVGID_3_"  overflow="visible"/>
			</clipPath>
		</g>
	</g>
</g>
</svg>
