<?xml version="1.0" encoding="utf-8"?>
<!-- Generator: Adobe Illustrator 16.0.0, SVG Export Plug-In . SVG Version: 6.00 Build 0)  -->
<!DOCTYPE svg PUBLIC "-//W3C//DTD SVG 1.1//EN" "http://www.w3.org/Graphics/SVG/1.1/DTD/svg11.dtd">
<svg version="1.1" id="Capa_1" xmlns="http://www.w3.org/2000/svg" xmlns:xlink="http://www.w3.org/1999/xlink" x="0px" y="0px"
	 width="595.279px" height="370.936px" viewBox="0 0 595.279 370.936" enable-background="new 0 0 595.279 370.936"
	 xml:space="preserve">
<g>
	<g>
		<path fill="#009BEF" d="M297.248,370.935c-161.113,0-288.506-167.357-293.501-174.852c-4.997-6.246-4.997-16.236,0-22.481
			C8.742,166.109,136.135,0,297.248,0C458.363,0,585.754,167.358,590.75,173.603s4.996,16.235,0,22.481
			C585.754,203.578,459.612,370.935,297.248,370.935z M42.465,184.844c31.224,36.22,134.886,148.625,254.784,148.625
			c119.899,0,224.81-111.157,254.786-147.375C520.809,149.872,417.147,38.717,297.248,38.717
			C177.35,37.469,73.687,148.624,42.465,184.844z"/>
		<path fill="#009BEF" d="M297.248,307.24c-67.441,0-122.396-54.953-122.396-122.396c0-67.443,54.954-122.396,122.396-122.396
			s122.397,54.953,122.397,122.396C419.645,252.287,364.691,307.24,297.248,307.24z M297.248,99.916
			c-46.21,0-84.927,37.467-84.927,84.929c0,47.462,37.467,84.93,84.927,84.93c46.211,0,84.929-38.718,84.929-84.93
			C382.177,138.632,344.709,99.916,297.248,99.916z"/>
	</g>
</g>
</svg>
