<?xml version="1.0" encoding="utf-8"?>
<!-- Generator: Adobe Illustrator 16.0.0, SVG Export Plug-In . SVG Version: 6.00 Build 0)  -->
<!DOCTYPE svg PUBLIC "-//W3C//DTD SVG 1.1//EN" "http://www.w3.org/Graphics/SVG/1.1/DTD/svg11.dtd">
<svg version="1.1" id="Capa_1" xmlns="http://www.w3.org/2000/svg" xmlns:xlink="http://www.w3.org/1999/xlink" x="0px" y="0px"
	 width="595.279px" height="595.281px" viewBox="0 0 595.279 595.281" enable-background="new 0 0 595.279 595.281"
	 xml:space="preserve">
<g>
	<g>
		<path fill="#8E8E8E" d="M296.871,595.281c164.114,0,297.642-133.518,297.642-297.641C594.512,133.516,460.989,0,296.871,0
			S-0.77,133.517-0.77,297.64S132.757,595.281,296.871,595.281z M296.871,36.633c143.921,0,261.01,117.087,261.01,261.008
			c0,143.92-117.087,261.007-261.01,261.007c-143.92,0-261.009-117.087-261.009-261.007
			C35.863,153.719,152.951,36.633,296.871,36.633z"/>
	</g>
</g>
<g>
	<path fill="#8E8E8E" d="M403.582,357.819c-1.274-1.354-2.908-2.023-4.896-2.023h-34.507c-1.99,0-3.625,0.672-4.901,2.023
		c-1.274,1.353-1.914,2.945-1.914,4.79v38.552h-88.178v-80.727h64.96c1.847,0,3.444-0.675,4.793-2.021
		c1.35-1.348,2.023-2.945,2.023-4.792v-27.902c0-1.989-0.676-3.62-2.023-4.899c-1.349-1.274-2.946-1.916-4.793-1.916h-64.96v-45.794
		c0-10.789,3.689-19.521,11.074-26.196c7.386-6.674,17.109-10.012,29.18-10.012c6.39,0,12.994,1.28,19.809,3.837
		c6.816,2.555,11.717,4.824,14.697,6.814c2.981,1.986,4.83,3.339,5.537,4.047c1.42,1.276,3.051,1.773,4.899,1.491
		c1.847-0.144,3.403-0.994,4.684-2.558l21.938-27.054c1.141-1.419,1.633-3.017,1.488-4.792c-0.143-1.774-0.853-3.229-2.13-4.365
		c-21.292-17.75-45.079-26.628-71.35-26.628c-27.119,0-49.45,7.884-66.986,23.645c-17.537,15.763-26.305,35.783-26.305,60.064
		v47.496h-20.234c-1.987,0-3.621,0.642-4.899,1.916c-1.277,1.277-1.917,2.908-1.917,4.899v27.901c0,1.845,0.64,3.438,1.917,4.79
		c1.278,1.351,2.912,2.022,4.899,2.022h20.234v81.574h-20.66c-1.847,0-3.444,0.676-4.792,2.022
		c-1.351,1.354-2.023,2.947-2.023,4.791v31.948c0,1.989,0.638,3.622,1.916,4.901c1.278,1.271,2.911,1.914,4.899,1.914h203.623
		c1.988,0,3.622-0.643,4.896-1.914c1.275-1.281,1.911-2.912,1.911-4.901V362.6C405.496,360.76,404.857,359.16,403.582,357.819z"/>
</g>
</svg>
