<?xml version="1.0" encoding="utf-8"?>
<!-- Generator: Adobe Illustrator 16.0.0, SVG Export Plug-In . SVG Version: 6.00 Build 0)  -->
<!DOCTYPE svg PUBLIC "-//W3C//DTD SVG 1.1//EN" "http://www.w3.org/Graphics/SVG/1.1/DTD/svg11.dtd">
<svg version="1.1" id="Layer_1" xmlns="http://www.w3.org/2000/svg" xmlns:xlink="http://www.w3.org/1999/xlink" x="0px" y="0px"
	 width="534.367px" height="534.367px" viewBox="0 0 534.367 534.367" enable-background="new 0 0 534.367 534.367"
	 xml:space="preserve">
<g>
	<g>
		<path fill="#ACC1CC" d="M267.184,534.367c147.666,0,267.184-119.979,267.184-267.185C534.367,119.517,414.389,0,267.184,0
			S0,119.517,0,267.183C0,414.388,119.518,534.367,267.184,534.367z M267.184,37.378c126.9,0,229.806,102.904,229.806,229.807
			c0,126.901-102.903,229.806-229.806,229.806S37.378,393.623,37.378,267.183C37.378,140.283,140.283,37.378,267.184,37.378z"/>
		<path fill="#ACC1CC" d="M254.725,298.562h89.061c10.614,0,18.92-8.307,18.92-18.919c0-10.614-8.306-18.92-18.92-18.92h-70.141
			V150.896c0-10.613-8.309-18.92-18.92-18.92c-10.613,0-18.92,8.308-18.92,18.92v128.747
			C235.805,290.257,244.112,298.562,254.725,298.562L254.725,298.562z"/>
	</g>
</g>
</svg>
