<?xml version="1.0" encoding="utf-8"?>
<!-- Generator: Adobe Illustrator 16.0.0, SVG Export Plug-In . SVG Version: 6.00 Build 0)  -->
<!DOCTYPE svg PUBLIC "-//W3C//DTD SVG 1.1//EN" "http://www.w3.org/Graphics/SVG/1.1/DTD/svg11.dtd">
<svg version="1.1" id="Layer_1" xmlns="http://www.w3.org/2000/svg" xmlns:xlink="http://www.w3.org/1999/xlink" x="0px" y="0px"
	 width="48px" height="48px" viewBox="0 0 48 48" enable-background="new 0 0 48 48" xml:space="preserve">
<g>
	<defs>
		<path id="SVGID_1_" d="M8.695,44.942h2.417h25.775h2.417v1.612H8.695V44.942z M12.722,35.1c0-1.637,0.813-3.155,2.174-4.062
			L24,24.968l9.104,6.07c1.361,0.907,2.174,2.425,2.174,4.062v8.233H12.722V35.1z M14.896,16.962
			c-1.361-0.907-2.174-2.425-2.174-4.062V4.667h22.556V12.9c0,1.637-0.813,3.155-2.174,4.062L24,23.032L14.896,16.962z M8.695,3.058
			V1.445h30.609v1.612h-2.417H11.112H8.695z M43.333,46.555h-2.418v-3.222h-4.027V35.1c0-2.177-1.081-4.196-2.893-5.402L25.453,24
			l8.542-5.698c1.812-1.206,2.893-3.225,2.893-5.402V4.667h4.027V1.445h2.418c0.443,0,0.805-0.359,0.805-0.805
			s-0.362-0.805-0.805-0.805h-2.418H40.11H7.89H7.085H4.667c-0.443,0-0.805,0.359-0.805,0.805s0.362,0.805,0.805,0.805h2.418v3.222
			h4.027V12.9c0,2.177,1.081,4.196,2.893,5.402L22.547,24l-8.542,5.698c-1.812,1.206-2.893,3.225-2.893,5.402v8.233H7.085v3.222
			H4.667c-0.443,0-0.805,0.36-0.805,0.805c0,0.446,0.362,0.805,0.805,0.805h2.418H7.89h32.22h0.805h2.418
			c0.443,0,0.805-0.359,0.805-0.805C44.138,46.915,43.775,46.555,43.333,46.555z"/>
	</defs>
	<clipPath id="SVGID_2_">
		<use xlink:href="#SVGID_1_"  overflow="visible"/>
	</clipPath>
	<g clip-path="url(#SVGID_2_)">
		<defs>
			<rect id="SVGID_3_" x="-2850.277" y="-2690.521" width="3866.379" height="5131.008"/>
		</defs>
		<clipPath id="SVGID_4_">
			<use xlink:href="#SVGID_3_"  overflow="visible"/>
		</clipPath>
		<rect x="-9.562" y="-13.59" clip-path="url(#SVGID_4_)" fill="#303240" width="67.125" height="75.18"/>
	</g>
</g>
<g>
	<defs>
		<path id="SVGID_5_" d="M16.684,14.283c-0.461-0.31-0.739-0.826-0.739-1.382v-1.788c0-0.445-0.362-0.805-0.805-0.805
			c-0.446,0-0.805,0.359-0.805,0.805V12.9c0,1.096,0.545,2.114,1.455,2.722l3.736,2.491c0.136,0.092,0.294,0.137,0.445,0.137
			c0.26,0,0.514-0.126,0.671-0.359c0.247-0.37,0.147-0.871-0.223-1.117L16.684,14.283z"/>
	</defs>
	<clipPath id="SVGID_6_">
		<use xlink:href="#SVGID_5_"  overflow="visible"/>
	</clipPath>
	<g clip-path="url(#SVGID_6_)">
		<defs>
			<rect id="SVGID_7_" x="-2850.277" y="-2690.521" width="3866.379" height="5131.008"/>
		</defs>
		<clipPath id="SVGID_8_">
			<use xlink:href="#SVGID_7_"  overflow="visible"/>
		</clipPath>
		<rect x="0.91" y="-3.117" clip-path="url(#SVGID_8_)" fill="#303240" width="33.295" height="34.792"/>
	</g>
</g>
<g>
	<defs>
		<path id="SVGID_9_" d="M32.209,33.07l-3.736-2.491c-0.37-0.247-0.87-0.146-1.117,0.223c-0.247,0.373-0.147,0.871,0.223,1.117
			l3.737,2.491c0.461,0.309,0.739,0.826,0.739,1.382v1.788c0,0.446,0.362,0.808,0.805,0.808c0.446,0,0.805-0.362,0.805-0.808v-1.788
			C33.665,34.693,33.12,33.678,32.209,33.07z"/>
	</defs>
	<clipPath id="SVGID_10_">
		<use xlink:href="#SVGID_9_"  overflow="visible"/>
	</clipPath>
	<g clip-path="url(#SVGID_10_)">
		<defs>
			<rect id="SVGID_11_" x="-2850.277" y="-2690.521" width="3866.379" height="5131.008"/>
		</defs>
		<clipPath id="SVGID_12_">
			<use xlink:href="#SVGID_11_"  overflow="visible"/>
		</clipPath>
		<rect x="13.795" y="17.018" clip-path="url(#SVGID_12_)" fill="#303240" width="33.295" height="34.794"/>
	</g>
</g>
</svg>
