<?xml version="1.0" encoding="utf-8"?>
<!-- Generator: Adobe Illustrator 16.0.0, SVG Export Plug-In . SVG Version: 6.00 Build 0)  -->
<!DOCTYPE svg PUBLIC "-//W3C//DTD SVG 1.1//EN" "http://www.w3.org/Graphics/SVG/1.1/DTD/svg11.dtd">
<svg version="1.1" id="Layer_1" xmlns="http://www.w3.org/2000/svg" xmlns:xlink="http://www.w3.org/1999/xlink" x="0px" y="0px"
	 width="595.279px" height="116.996px" viewBox="0 0 595.279 116.996" enable-background="new 0 0 595.279 116.996"
	 xml:space="preserve">
<g id="Layer_2">
	<g>
		<path fill="#FFFFFF" d="M61.438,93.366c12.405,0,22.547-4.908,30.425-14.726l16.182,16.671
			c-12.842,14.458-27.973,21.684-45.389,21.684c-17.424,0-31.772-5.502-43.045-16.506C8.336,89.486,2.7,75.597,2.7,58.822
			c0-16.774,5.745-30.772,17.234-41.994C31.428,5.612,45.475,0,62.089,0c18.555,0,34.089,7.069,46.604,21.2L92.999,38.997
			c-7.986-9.924-17.91-14.888-29.78-14.888c-9.49,0-17.613,3.105-24.354,9.308C32.123,39.621,28.752,47.98,28.752,58.5
			c0,10.518,3.186,18.962,9.55,25.323C44.662,90.181,52.373,93.366,61.438,93.366z"/>
		<path fill="#FFFFFF" d="M176.654,115.698H151.41V71.035L112.253,2.584H139.6l24.435,42.074l24.435-42.074h27.348l-39.16,68.451
			L176.654,115.698L176.654,115.698z"/>
		<path fill="#FFFFFF" d="M329.254,44.495l-30.587,61.815h-15.05l-30.422-61.815v71.201H227.95V2.582h34.145l29.128,62.145
			l29.289-62.145h33.978v113.113h-25.243V44.495H329.254z"/>
		<path fill="#FFFFFF" d="M474.082,40.127c0,18.124-7.175,29.829-21.525,35.116l28.647,40.455h-31.071l-25.082-36.087h-17.476
			v36.087H382.33V2.584h42.883c17.583,0,30.123,2.969,37.626,8.9C470.333,17.418,474.082,26.966,474.082,40.127z M443.66,53.557
			c3.125-2.806,4.689-7.254,4.689-13.352c0-6.093-1.615-10.275-4.854-12.541c-3.236-2.266-8.897-3.398-16.989-3.398h-18.933v33.495
			h18.447C434.648,57.764,440.527,56.365,443.66,53.557z"/>
		<path fill="#FFFFFF" d="M529.907,86.487c4.207,5.234,9.87,7.849,16.99,7.849s12.757-2.614,16.907-7.849
			c4.154-5.23,6.234-12.379,6.234-21.44V2.582h25.24v63.271c0,16.4-4.53,28.994-13.593,37.787
			c-9.062,8.793-20.661,13.188-34.792,13.188c-14.133,0-25.758-4.421-34.875-13.27c-9.118-8.845-13.672-21.415-13.672-37.705V2.582
			h25.245v62.464C523.599,74.11,525.703,81.256,529.907,86.487z"/>
	</g>
</g>
</svg>
