<?xml version="1.0" encoding="utf-8"?>
<!-- Generator: Adobe Illustrator 16.0.0, SVG Export Plug-In . SVG Version: 6.00 Build 0)  -->
<!DOCTYPE svg PUBLIC "-//W3C//DTD SVG 1.1//EN" "http://www.w3.org/Graphics/SVG/1.1/DTD/svg11.dtd">
<svg version="1.1" xmlns="http://www.w3.org/2000/svg" xmlns:xlink="http://www.w3.org/1999/xlink" x="0px" y="0px" width="30px"
	 height="30px" viewBox="0 0 30 30" enable-background="new 0 0 30 30" xml:space="preserve">
<g id="Layer_1">
	<g id="Layer_2">
	</g>
</g>
<g id="Layer_2_1_">
	<g>
		<g>
			<g>
				<path d="M11.451,26.4c0,0.01-0.002,0.016-0.002,0.023c0,1.961,1.59,3.551,3.553,3.551c1.959,0,3.549-1.59,3.549-3.551
					c0-0.008,0-0.014,0-0.023H11.451z"/>
				<path d="M26.338,21.961l-3.197-4.695c0-1.438,0-4.947,0-5.856c0-3.949-2.812-7.242-6.545-7.984V1.623
					c0-0.882-0.715-1.597-1.596-1.597c-0.881,0-1.596,0.715-1.596,1.597v1.803C9.672,4.168,6.859,7.46,6.859,11.41
					c0,1.546,0,4.961,0,5.856l-3.195,4.695c-0.338,0.494-0.373,1.135-0.094,1.664c0.281,0.529,0.83,0.859,1.428,0.859h20.006
					c0.598,0,1.145-0.33,1.428-0.859C26.709,23.096,26.674,22.455,26.338,21.961z"/>
			</g>
		</g>
	</g>
</g>
</svg>
