<?xml version="1.0" encoding="utf-8"?>
<!-- Generator: Adobe Illustrator 16.0.0, SVG Export Plug-In . SVG Version: 6.00 Build 0)  -->
<!DOCTYPE svg PUBLIC "-//W3C//DTD SVG 1.1//EN" "http://www.w3.org/Graphics/SVG/1.1/DTD/svg11.dtd">
<svg version="1.1" xmlns="http://www.w3.org/2000/svg" xmlns:xlink="http://www.w3.org/1999/xlink" x="0px" y="0px"
	 width="595.279px" height="841.891px" viewBox="0 0 595.279 841.891" enable-background="new 0 0 595.279 841.891"
	 xml:space="preserve">
<g id="Capa_1">
	<path d="M439.699,233.156c21.416,1.839,52.157,13.052,54.399,62.089c0,0.236,0,0.471,0.078,0.628
		c0.079,0.55,5.578,53.969-19.402,82.091c-9.899,11.155-23.096,16.653-40.456,16.811c-0.157,0-0.236,0-0.393,0
		c-0.159,0-0.237,0-0.394,0c-1.792-0.017-3.529-0.104-5.235-0.236c-3.101,7.055-6.579,13.728-10.441,20
		c4.716,0.859,9.647,1.357,14.812,1.445c0.392,0,0.785,0,1.258,0c0.156,0,0.313,0,0.47,0c0.236,0,0.552,0,0.787,0
		c23.016-0.393,41.634-8.484,55.381-23.959c30.244-34.094,25.217-92.54,24.667-98.117c-1.964-41.871-21.761-61.902-38.1-71.25
		c-12.177-6.992-26.395-10.762-42.263-11.076h-0.55c-0.079,0-0.236,0-0.315,0h-0.471c-0.377,0-0.789,0.007-1.195,0.012
		C435.249,218.454,437.711,225.642,439.699,233.156z"/>
	<g>
		<path d="M595.358,512.924c0-0.079,0-0.158,0-0.236c0-0.629-0.078-1.256-0.078-1.964c-0.472-15.555-1.492-51.925-35.586-63.551
			c-0.235-0.078-0.55-0.157-0.786-0.236c-35.429-9.033-64.887-29.459-65.201-29.694c-4.793-3.378-11.391-2.199-14.768,2.593
			c-3.378,4.792-2.201,11.391,2.591,14.769c1.336,0.941,32.602,22.702,71.723,32.757c18.303,6.521,20.346,26.08,20.895,43.99
			c0,0.707,0,1.336,0.079,1.965c0.079,7.069-0.393,17.989-1.649,24.274c-3.439,1.952-9.598,5.203-18.243,8.906
			c1.221,8.434,1.696,16.054,1.94,22.145c19.396-7.72,30.225-14.626,31.229-15.261c1.807-1.179,3.3-2.907,4.085-4.949
			C595.516,537.983,595.437,517.008,595.358,512.924z"/>
	</g>
	<path fill="#FFFFFF" d="M224.328,408.245c-0.001,0-0.001,0-0.001,0c-10.32,0-20.239,3.147-28.686,9.101l-0.064,0.045
		c-1.609,1.106-36.818,25.079-78.412,35.643c-1.691,0.428-2.953,0.847-3.567,1.053l-0.152,0.051l-0.151,0.052
		c-30.258,10.388-52.247,32.167-63.592,62.981c-8.317,22.591-8.999,44.937-9.364,56.94l-0.004,0.166l-0.017,0.536v0.193
		l-0.108,0.867v2.189c-0.221,12.412,0.155,42.495,7.957,62.345C52,650.263,58.737,658.45,67.67,664.114
		c3.973,2.561,26.836,16.76,65.512,30.313c22.649,7.937,46.637,14.242,71.297,18.741c30.462,5.56,62.118,8.377,94.086,8.377
		c31.839,0,63.374-2.802,93.73-8.326c24.588-4.476,48.523-10.752,71.139-18.653c37.163-12.984,59.823-26.522,65.882-30.362
		l0.196-0.125l0.233-0.149c8.753-5.707,15.604-14.126,19.289-23.708l0.047-0.124l0.048-0.124
		c7.364-19.586,7.688-49.476,7.465-61.804c0-1.419-0.065-2.577-0.109-3.303l-0.015-0.477l-0.004-0.151
		c-0.365-12.034-1.043-34.432-9.359-57.026c-11.35-30.842-33.365-52.606-63.666-62.939l-0.09-0.031l-0.091-0.03
		c-0.683-0.228-1.272-0.405-1.693-0.527l-0.653-0.217l-1.225-0.313c-41.482-10.578-76.917-34.598-78.527-35.701
		c-8.446-5.953-18.365-9.1-28.685-9.1c-16.211,0-31.47,7.918-40.82,21.182c-7.702,10.928-10.665,24.195-8.342,37.36
		c2.307,13.073,9.559,24.491,20.423,32.148c1.981,1.397,48.913,34.205,108.399,50.012c0.079,0.045,0.114,0.07,0.115,0.07
		c0.003,0.005,1.261,1.384,2.427,6.335c1.465,6.22,1.909,14.283,2.138,21.437c0.002,0.98,0.02,2.265,0.119,3.763
		c0.01,2.954-0.057,6.118-0.183,9.206c-26.564,12.097-81.901,32.01-158.298,32.01c-76.109,0-131.741-20.04-158.454-32.178
		c-0.144-3.486-0.198-6.981-0.132-9.977c0.039-0.632,0.095-1.594,0.112-2.787c0.227-7.191,0.668-15.322,2.143-21.586
		c1.163-4.938,2.417-6.32,2.436-6.339l0,0c0,0,0.032-0.022,0.105-0.062c52.362-13.916,95.27-41.154,107.301-49.264l0.137-0.093
		l0.394-0.255l0.57-0.401c22.497-15.858,27.917-47.038,12.082-69.506C255.797,416.164,240.537,408.246,224.328,408.245
		L224.328,408.245L224.328,408.245z"/>
	<path d="M168.223,394.393c-2.241,0.227-4.552,0.36-6.949,0.382c-0.157,0-0.236,0-0.392,0c-0.158,0-0.237,0-0.394,0
		c-17.283-0.158-30.558-5.656-40.377-16.811c-24.903-27.966-19.561-81.62-19.482-82.091c0-0.235,0.078-0.471,0.078-0.628
		c2.431-52.793,37.711-61.417,56.227-62.292c1.973-7.416,4.407-14.513,7.282-21.29c-0.794-0.034-1.588-0.064-2.391-0.08h-0.55
		c-0.078,0-0.236,0-0.315,0h-0.471c-8.72,0-25.844,1.414-42.263,10.762c-16.497,9.348-36.607,29.38-38.571,71.565
		c-0.55,5.577-5.578,64.023,24.666,98.117c13.669,15.475,32.287,23.566,55.304,23.959c0.392,0,0.786,0,1.258,0
		c0.156,0,0.314,0,0.47,0c0.235,0,0.551,0,0.786,0c5.748-0.098,11.221-0.677,16.413-1.729
		C174.733,408.023,171.292,401.396,168.223,394.393z"/>
	<g>
		<g>
			<g>
				<path d="M42.377,547.097c-9.511-3.984-16.246-7.516-19.912-9.584c-1.258-6.286-1.806-17.205-1.649-24.273
					c0-0.63,0.078-1.259,0.078-1.965c0.551-17.91,2.594-37.472,20.897-43.992c39.12-10.055,70.386-31.894,71.721-32.758
					c4.792-3.378,5.97-9.976,2.593-14.769c-3.378-4.792-9.977-5.97-14.769-2.592c-0.315,0.236-29.615,20.66-65.202,29.695
					c-0.314,0.078-0.55,0.157-0.785,0.236C1.256,458.799,0.234,495.169-0.238,510.646c0,0.706,0,1.335-0.079,1.964
					c0,0.078,0,0.156,0,0.235c-0.078,4.085-0.156,25.061,4.006,35.587c0.787,2.043,2.2,3.771,4.086,4.949
					c1.029,0.686,12.386,7.937,32.725,15.886C40.731,563.231,41.178,555.593,42.377,547.097z"/>
			</g>
		</g>
	</g>
</g>
<g id="Layer_2">
	<g>
		<g>
			<path d="M295.62,444.515c0.543,0,1.085,0,1.737,0c0.217,0,0.435,0,0.651,0c0.326,0,0.761,0,1.087,0
				c31.812-0.542,57.545-11.726,76.545-33.115c41.803-47.123,34.854-127.904,34.094-135.612
				c-2.715-57.872-30.076-85.559-52.66-98.479c-16.829-9.663-36.481-14.875-58.413-15.309h-0.761c-0.108,0-0.326,0-0.434,0h-0.651
				c-12.052,0-35.722,1.954-58.414,14.875c-22.802,12.92-50.597,40.607-53.311,98.913c-0.76,7.708-7.709,88.49,34.093,135.612
				C238.075,432.789,263.808,443.973,295.62,444.515z M214.08,278.501c0-0.325,0.108-0.651,0.108-0.868
				c3.583-77.85,58.849-86.21,82.519-86.21h0.434c0.217,0,0.543,0,0.869,0c29.315,0.652,79.152,12.595,82.518,86.21
				c0,0.326,0,0.651,0.108,0.868c0.11,0.761,7.71,74.593-26.817,113.463c-13.681,15.418-31.921,23.018-55.917,23.236
				c-0.217,0-0.326,0-0.543,0l0,0c-0.217,0-0.326,0-0.542,0c-23.887-0.218-42.237-7.818-55.809-23.236
				C206.588,353.311,213.971,279.153,214.08,278.501z"/>
			<path d="M520.483,578.497c0-0.108,0-0.216,0-0.324c0-0.869-0.109-1.738-0.109-2.715c-0.65-21.499-2.062-71.769-49.185-87.838
				c-0.326-0.108-0.761-0.217-1.086-0.325c-48.969-12.487-89.684-40.718-90.118-41.043c-6.623-4.668-15.743-3.039-20.412,3.584
				s-3.041,15.743,3.582,20.413c1.846,1.302,45.061,31.378,99.131,45.276c25.298,9.01,28.121,36.047,28.881,60.802
				c0,0.977,0,1.846,0.108,2.714c0.109,9.771-0.542,24.863-2.28,33.551c-17.589,9.988-86.534,44.516-191.42,44.516
				c-104.45,0-173.831-34.636-191.528-44.624c-1.738-8.688-2.497-23.779-2.281-33.551c0-0.869,0.108-1.737,0.108-2.715
				c0.76-24.755,3.583-51.79,28.882-60.804c54.07-13.896,97.284-44.081,99.13-45.276c6.623-4.669,8.251-13.787,3.583-20.41
				c-4.669-6.624-13.79-8.253-20.413-3.584c-0.435,0.325-40.934,28.555-90.119,41.042c-0.434,0.109-0.76,0.218-1.085,0.326
				c-47.123,16.178-48.534,66.447-49.186,87.838c0,0.978,0,1.846-0.109,2.714c0,0.109,0,0.218,0,0.325
				c-0.108,5.646-0.216,34.638,5.538,49.187c1.085,2.823,3.04,5.212,5.646,6.841c3.257,2.17,81.323,51.899,211.941,51.899
				c130.617,0,208.683-49.837,211.941-51.899c2.497-1.629,4.56-4.019,5.646-6.841C520.699,613.134,520.591,584.144,520.483,578.497z
				"/>
		</g>
	</g>
</g>
</svg>
