<?xml version="1.0" encoding="utf-8"?>
<!-- Generator: Adobe Illustrator 16.0.0, SVG Export Plug-In . SVG Version: 6.00 Build 0)  -->
<!DOCTYPE svg PUBLIC "-//W3C//DTD SVG 1.1//EN" "http://www.w3.org/Graphics/SVG/1.1/DTD/svg11.dtd">
<svg version="1.1" id="Capa_1" xmlns="http://www.w3.org/2000/svg" xmlns:xlink="http://www.w3.org/1999/xlink" x="0px" y="0px"
	 width="595.279px" height="841.891px" viewBox="0 0 595.279 841.891" enable-background="new 0 0 595.279 841.891"
	 xml:space="preserve">
<g>
	<path fill="#2F3140" d="M403.582,472.548c-1.274-1.353-2.908-2.022-4.896-2.022h-34.507c-1.99,0-3.625,0.672-4.901,2.022
		c-1.274,1.354-1.914,2.946-1.914,4.79v38.552h-88.178v-80.726h64.96c1.847,0,3.444-0.675,4.793-2.022
		c1.35-1.348,2.023-2.944,2.023-4.792v-27.901c0-1.99-0.676-3.62-2.023-4.899c-1.349-1.275-2.946-1.916-4.793-1.916h-64.96v-45.794
		c0-10.789,3.689-19.521,11.074-26.197c7.386-6.674,17.109-10.011,29.18-10.011c6.39,0,12.994,1.28,19.809,3.836
		c6.816,2.555,11.717,4.825,14.697,6.815c2.981,1.986,4.83,3.339,5.537,4.047c1.42,1.276,3.051,1.773,4.899,1.491
		c1.847-0.144,3.403-0.994,4.684-2.558l21.938-27.053c1.141-1.419,1.633-3.017,1.488-4.792c-0.143-1.775-0.853-3.229-2.13-4.366
		c-21.292-17.75-45.079-26.627-71.35-26.627c-27.119,0-49.45,7.883-66.986,23.644c-17.537,15.763-26.305,35.783-26.305,60.065
		v47.496h-20.234c-1.987,0-3.621,0.641-4.899,1.916c-1.277,1.277-1.917,2.908-1.917,4.899v27.9c0,1.846,0.64,3.438,1.917,4.79
		c1.278,1.352,2.912,2.023,4.899,2.023h20.234v81.574h-20.66c-1.847,0-3.444,0.676-4.792,2.021
		c-1.351,1.354-2.023,2.948-2.023,4.791v31.949c0,1.989,0.638,3.622,1.916,4.9c1.278,1.272,2.911,1.914,4.899,1.914h203.623
		c1.988,0,3.622-0.642,4.896-1.914c1.275-1.28,1.911-2.911,1.911-4.9V477.33C405.496,475.489,404.857,473.889,403.582,472.548z"/>
</g>
</svg>
