<?xml version="1.0" encoding="utf-8"?>
<!-- Generator: Adobe Illustrator 16.0.0, SVG Export Plug-In . SVG Version: 6.00 Build 0)  -->
<!DOCTYPE svg PUBLIC "-//W3C//DTD SVG 1.1//EN" "http://www.w3.org/Graphics/SVG/1.1/DTD/svg11.dtd">
<svg version="1.1" id="Capa_1" xmlns="http://www.w3.org/2000/svg" xmlns:xlink="http://www.w3.org/1999/xlink" x="0px" y="0px"
	 width="595.279px" height="841.891px" viewBox="0 0 595.279 841.891" enable-background="new 0 0 595.279 841.891"
	 xml:space="preserve">
<g>
	<g>
		<path fill="#FFFFFF" d="M297.64,123.305C133.522,123.305,0,256.827,0,420.945c0,164.118,133.521,297.64,297.64,297.64
			s297.64-133.521,297.64-297.64C595.27,256.827,461.758,123.305,297.64,123.305z M297.64,670.611
			c-137.668,0-249.667-111.998-249.667-249.677c0-137.668,111.999-249.667,249.667-249.667s249.667,112.009,249.667,249.678
			C547.307,558.613,435.308,670.611,297.64,670.611z"/>
		<path fill="#FFFFFF" d="M392.518,326.035L253.589,464.975l-50.838-50.837c-9.361-9.372-24.548-9.372-33.909,0
			c-9.372,9.361-9.372,24.548,0,33.909l67.798,67.798c4.681,4.681,10.825,7.032,16.96,7.032c6.134,0,12.269-2.341,16.949-7.032
			l155.889-155.89c9.362-9.373,9.362-24.548,0-33.92C417.066,316.673,401.89,316.673,392.518,326.035z"/>
	</g>
</g>
</svg>
