<?xml version="1.0" encoding="utf-8"?>
<!-- Generator: Adobe Illustrator 16.0.0, SVG Export Plug-In . SVG Version: 6.00 Build 0)  -->
<!DOCTYPE svg PUBLIC "-//W3C//DTD SVG 1.1//EN" "http://www.w3.org/Graphics/SVG/1.1/DTD/svg11.dtd">
<svg version="1.1" id="Capa_1" xmlns="http://www.w3.org/2000/svg" xmlns:xlink="http://www.w3.org/1999/xlink" x="0px" y="0px"
	 width="595.279px" height="841.891px" viewBox="0 0 595.279 841.891" enable-background="new 0 0 595.279 841.891"
	 xml:space="preserve">
<g>
	<g>
		<path fill="#FC2B27" d="M297.64,718.585c164.114,0,297.64-133.517,297.64-297.64c0-164.124-133.525-297.641-297.64-297.641
			S0,256.822,0,420.945C0,585.068,133.526,718.585,297.64,718.585z M297.64,159.938c143.921,0,261.008,117.087,261.008,261.008
			c0,143.92-117.087,261.007-261.008,261.007c-143.92,0-261.007-117.087-261.007-261.007
			C36.633,277.024,153.72,159.938,297.64,159.938z"/>
		<circle fill="#FC2B27" cx="302.384" cy="523.104" r="30.634"/>
		<path fill="#FC2B27" d="M296.102,446.973c10.11,0,18.315-8.206,18.315-18.316V272.968c0-10.111-8.205-18.316-18.315-18.316
			c-10.111,0-18.316,8.206-18.316,18.316v155.688C277.785,438.767,285.99,446.973,296.102,446.973z"/>
	</g>
</g>
</svg>
