<?xml version="1.0" encoding="utf-8"?>
<!-- Generator: Adobe Illustrator 16.0.0, SVG Export Plug-In . SVG Version: 6.00 Build 0)  -->
<!DOCTYPE svg PUBLIC "-//W3C//DTD SVG 1.1//EN" "http://www.w3.org/Graphics/SVG/1.1/DTD/svg11.dtd">
<svg version="1.1" id="Capa_1" xmlns="http://www.w3.org/2000/svg" xmlns:xlink="http://www.w3.org/1999/xlink" x="0px" y="0px"
	 width="574.02px" height="595.281px" viewBox="0 0 574.02 595.281" enable-background="new 0 0 574.02 595.281"
	 xml:space="preserve">
<g>
	<path fill="#FFFFFF" d="M74.41,148.82c37.407,0,68.372-27.787,73.56-63.78h415.42c5.879,0,10.63-4.751,10.63-10.63
		c0-5.878-4.751-10.63-10.63-10.63H147.97C142.782,27.787,111.818,0,74.41,0C33.378,0,0,33.388,0,74.41S33.378,148.82,74.41,148.82z
		 M74.41,21.26c29.307,0,53.149,23.843,53.149,53.149s-23.843,53.15-53.149,53.15c-29.308,0-53.15-23.844-53.15-53.15
		S45.103,21.26,74.41,21.26z"/>
	<path fill="#FFFFFF" d="M499.611,446.461c-37.407,0-68.373,27.786-73.561,63.779H10.63C4.762,510.24,0,514.992,0,520.871
		c0,5.878,4.762,10.63,10.63,10.63h415.42c5.188,35.993,36.153,63.78,73.561,63.78c41.021,0,74.409-33.39,74.409-74.41
		C574.02,479.849,540.631,446.461,499.611,446.461z M499.611,574.02c-29.308,0-53.15-23.843-53.15-53.149
		c0-29.308,23.843-53.15,53.15-53.15c29.307,0,53.149,23.843,53.149,53.15C552.76,550.177,528.917,574.02,499.611,574.02z"/>
	<path fill="#FFFFFF" d="M563.39,287.01H365.332c-4.21-38.29-36.728-68.182-76.122-68.182s-71.911,29.902-76.121,68.182H10.63
		C4.762,287.01,0,291.761,0,297.64c0,5.878,4.762,10.63,10.63,10.63h203.129c6.134,36.142,37.588,63.78,75.451,63.78
		c37.864,0,69.308-27.639,75.441-63.78H563.39c5.879,0,10.63-4.752,10.63-10.63C574.02,291.761,569.269,287.01,563.39,287.01z
		 M289.21,350.79c-30.519,0-55.35-24.831-55.35-55.35c0-30.52,24.831-55.351,55.35-55.351s55.351,24.831,55.351,55.351
		C344.561,325.959,319.729,350.79,289.21,350.79z"/>
</g>
</svg>
