<?xml version="1.0" encoding="utf-8"?>
<!-- Generator: Adobe Illustrator 16.0.0, SVG Export Plug-In . SVG Version: 6.00 Build 0)  -->
<!DOCTYPE svg PUBLIC "-//W3C//DTD SVG 1.1//EN" "http://www.w3.org/Graphics/SVG/1.1/DTD/svg11.dtd">
<svg version="1.1" id="Layer_1" xmlns="http://www.w3.org/2000/svg" xmlns:xlink="http://www.w3.org/1999/xlink" x="0px" y="0px"
	 width="496.066px" height="595.281px" viewBox="0 0 496.066 595.281" enable-background="new 0 0 496.066 595.281"
	 xml:space="preserve">
<g>
	<g>
		<path d="M475.502,256.511c12.692-6.347,20.564-19.101,20.564-33.281v-93.363c0-14.183-7.872-26.923-20.564-33.27L446.46,82.076
			V49.607C446.46,22.248,424.199,0,396.854,0H49.607C22.26,0,0,22.248,0,49.607v496.067c0,27.357,22.261,49.606,49.606,49.606
			h347.246c27.347,0,49.606-22.248,49.606-49.606v-23.991l29.041-14.521c12.693-6.346,20.565-19.1,20.565-33.28v-56.147
			c0-4.299-2.229-8.283-5.887-10.549c-3.657-2.276-8.212-2.481-12.062-0.545l-27.419,13.71c-1.368,0.685-2.823,1.036-4.239,1.543
			v-23.911l29.042-14.521c12.693-6.346,20.565-19.1,20.565-33.28v-56.147c0-4.299-2.229-8.283-5.887-10.549
			c-3.657-2.266-8.212-2.482-12.062-0.545l-27.419,13.71c-1.372,0.686-2.823,1.038-4.239,1.545v-27.16L475.502,256.511z
			 M372.05,394.092c0,15.201-12.377,27.564-27.563,27.564C195.57,421.656,74.41,300.498,74.41,151.58
			c0-15.199,12.378-27.562,27.563-27.562h53.046c15.188,0,27.564,12.363,27.564,27.562c0,17.224,2.688,34.117,7.993,50.236
			c3.173,10.053,0.558,20.758-6.781,28.098l-21.729,28.935c18.677,34.31,40.571,56.207,75.138,75.125l30.229-22.829
			c6.079-6.237,17.149-8.854,26.982-5.462c15.938,5.256,32.846,7.957,50.067,7.957c15.188,0,27.563,12.363,27.563,27.563
			L372.05,394.092L372.05,394.092z"/>
	</g>
</g>
</svg>
