<?xml version="1.0" encoding="utf-8"?>
<!-- Generator: Adobe Illustrator 16.0.0, SVG Export Plug-In . SVG Version: 6.00 Build 0)  -->
<!DOCTYPE svg PUBLIC "-//W3C//DTD SVG 1.1//EN" "http://www.w3.org/Graphics/SVG/1.1/DTD/svg11.dtd">
<svg version="1.1" id="Capa_1" xmlns="http://www.w3.org/2000/svg" xmlns:xlink="http://www.w3.org/1999/xlink" x="0px" y="0px"
	 width="595.279px" height="595.28px" viewBox="0 0 595.279 595.28" enable-background="new 0 0 595.279 595.28"
	 xml:space="preserve">
<g>
	<path fill="#009BEF" d="M570.379,267.876h-34.625v-62.187c0-14.941-12.164-27.105-27.105-27.105h-32.423v-23.95l-4.911-4.911
		c-0.01,0-0.01-0.01-0.01-0.02l-72.388-72.386L321.592,0H79.37v109.135H27.105C12.163,109.134,0,121.298,0,136.24v433.434H0.06
		c-0.052,5.588,1.687,11.054,5.179,15.628c4.861,6.35,12.223,9.979,20.21,9.979h444.068c11.47,0,21.569-7.729,24.308-17.987
		L595.28,299.119v-1.757C595.28,280.278,584.803,267.876,570.379,267.876z M508.647,198.426c3.998,0,7.263,3.254,7.263,7.263v62.187
		h-39.686v-69.45H508.647L508.647,198.426z M327.404,33.882L442.353,148.82H327.404V33.882z M99.213,19.842h208.35v148.82h148.82
		v9.921v89.292H126.309c-1.419,0-2.818,0.119-4.188,0.347c-9.663,1.607-17.719,8.651-20.12,17.64l-2.788,7.66V109.134V19.842z
		 M19.843,136.24c0-4.008,3.266-7.263,7.264-7.263H79.37v218.617L19.843,509.947V136.24z M474.926,571.301
		c-0.654,2.431-2.877,4.137-5.407,4.137H25.448c-2.411,0-3.82-1.379-4.445-2.202c-0.625-0.813-1.587-2.54-1.22-4.048L79.37,405.763
		v0.05l41.273-113.145l0.258-0.812c0.654-2.431,2.887-4.138,5.407-4.138h330.072h19.843h59.527h34.625
		c3.771,0,4.731,5.417,4.979,8.126L474.926,571.301z"/>
	<path fill="#009BEF" d="M158.741,168.663h99.213c5.479,0,9.922-4.435,9.922-9.921c0-5.487-4.443-9.921-9.922-9.921h-99.213
		c-5.477,0-9.922,4.435-9.922,9.921C148.82,164.229,153.265,168.663,158.741,168.663z"/>
	<path fill="#009BEF" d="M158.741,99.214h99.213c5.479,0,9.922-4.435,9.922-9.921c0-5.487-4.443-9.921-9.922-9.921h-99.213
		c-5.477,0-9.922,4.435-9.922,9.921C148.82,94.778,153.265,99.214,158.741,99.214z"/>
	<path fill="#009BEF" d="M158.741,238.112h238.112c5.477,0,9.921-4.435,9.921-9.921c0-5.486-4.444-9.921-9.921-9.921H158.741
		c-5.477,0-9.922,4.435-9.922,9.921C148.82,233.677,153.265,238.112,158.741,238.112z"/>
</g>
</svg>
