<?xml version="1.0" encoding="utf-8"?>
<!-- Generator: Adobe Illustrator 16.0.0, SVG Export Plug-In . SVG Version: 6.00 Build 0)  -->
<!DOCTYPE svg PUBLIC "-//W3C//DTD SVG 1.1//EN" "http://www.w3.org/Graphics/SVG/1.1/DTD/svg11.dtd">
<svg version="1.1" id="Capa_1" xmlns="http://www.w3.org/2000/svg" xmlns:xlink="http://www.w3.org/1999/xlink" x="0px" y="0px"
	 width="595.279px" height="841.891px" viewBox="0 0 595.279 841.891" enable-background="new 0 0 595.279 841.891"
	 xml:space="preserve">
<g id="Layer_2">
</g>
<g>
	<path fill="#FFFFFF" d="M297.919,698.742H63.481V143.147h287.72v138.899h138.897v230.978c6.838,2.662,13.467,5.845,19.844,9.521
		V268.018L365.228,123.305H43.639v595.28h262.932C303.194,712.19,300.304,705.561,297.919,698.742z M371.044,157.176
		l105.027,105.028H371.044V157.176z"/>
</g>
<g id="Capa_1_1_">
	<g>
		<path fill="#FFFFFF" d="M436.696,523.06c-70.145,0-127,56.856-127,127c0,70.146,56.855,127,127,127s127-56.862,127-127
			C563.696,579.925,506.84,523.06,436.696,523.06z M489.177,663.807h-38.735v38.735c0,7.589-6.157,13.747-13.746,13.747
			c-7.59,0-13.747-6.158-13.747-13.747v-38.735h-38.734c-7.59,0-13.747-6.156-13.747-13.747c0-7.589,6.157-13.745,13.747-13.745
			h38.734v-38.735c0-7.589,6.157-13.747,13.747-13.747c7.589,0,13.746,6.158,13.746,13.747v38.735h38.735
			c7.589,0,13.747,6.156,13.747,13.745C502.925,657.649,496.766,663.807,489.177,663.807z"/>
	</g>
</g>
<g>
	<path fill="#FFFFFF" d="M142.852,291.968h89.292c5.478,0,9.921-4.435,9.921-9.921c0-5.487-4.443-9.921-9.921-9.921h-89.292
		c-5.477,0-9.922,4.435-9.922,9.921C132.931,287.533,137.377,291.968,142.852,291.968z"/>
	<path fill="#FFFFFF" d="M311.515,490.395H142.852c-5.477,0-9.922,4.436-9.922,9.922s4.445,9.922,9.922,9.922h168.662
		c5.478,0,9.922-4.436,9.922-9.922C321.436,494.829,316.992,490.395,311.515,490.395z"/>
	<path fill="#FFFFFF" d="M410.728,420.945h-69.449c-5.478,0-9.922,4.435-9.922,9.921c0,5.485,4.444,9.922,9.922,9.922h69.449
		c5.478,0,9.921-4.437,9.921-9.922C420.649,425.38,416.206,420.945,410.728,420.945z"/>
	<path fill="#FFFFFF" d="M142.852,371.338h49.606c5.477,0,9.921-4.436,9.921-9.921s-4.444-9.921-9.921-9.921h-49.606
		c-5.477,0-9.922,4.436-9.922,9.921S137.377,371.338,142.852,371.338z"/>
	<path fill="#FFFFFF" d="M291.673,371.338h69.449c5.477,0,9.922-4.436,9.922-9.921s-4.445-9.921-9.922-9.921h-69.449
		c-5.477,0-9.921,4.436-9.921,9.921S286.196,371.338,291.673,371.338z"/>
	<path fill="#FFFFFF" d="M232.144,361.417c0,2.58,1.091,5.159,2.877,7.044c1.885,1.786,4.465,2.877,7.044,2.877
		c2.58,0,5.159-1.091,7.044-2.877c1.786-1.885,2.878-4.464,2.878-7.044c0-2.589-1.092-5.169-2.878-7.044
		c-3.671-3.671-10.316-3.671-14.088,0C233.235,356.248,232.144,358.828,232.144,361.417z"/>
	<path fill="#FFFFFF" d="M192.46,420.945c-5.478,0-9.922,4.435-9.922,9.921c0,5.485,4.444,9.922,9.922,9.922h99.213
		c5.477,0,9.922-4.437,9.922-9.922c0-5.486-4.445-9.921-9.922-9.921H192.46z"/>
	<path fill="#FFFFFF" d="M142.852,440.788c2.579,0,5.159-1.092,7.044-2.878c1.786-1.885,2.877-4.464,2.877-7.044
		c0-2.589-1.091-5.169-2.877-7.044c-3.671-3.671-10.418-3.671-14.089,0c-1.785,1.875-2.877,4.354-2.877,7.044
		c0,2.58,1.092,5.159,2.877,7.044C137.693,439.696,140.272,440.788,142.852,440.788z"/>
	<path fill="#FFFFFF" d="M291.673,559.844H192.46c-5.478,0-9.922,4.436-9.922,9.922s4.444,9.922,9.922,9.922h99.213
		c5.477,0,9.922-4.436,9.922-9.922C301.594,564.278,297.148,559.844,291.673,559.844z"/>
	<path fill="#FFFFFF" d="M135.807,562.721c-1.785,1.786-2.877,4.355-2.877,7.045c0,2.68,0.992,5.158,2.877,7.044
		c1.886,1.785,4.465,2.878,7.045,2.878c2.679,0,5.159-1.093,7.044-2.878c1.786-1.886,2.877-4.465,2.877-7.044
		c0-2.688-1.091-5.17-2.877-6.944C146.225,559.05,139.579,559.05,135.807,562.721z"/>
	<path fill="#FFFFFF" d="M403.683,354.373c-1.785,1.875-2.877,4.455-2.877,7.044c0,2.58,1.092,5.159,2.877,7.044
		c1.887,1.786,4.465,2.877,7.045,2.877c2.579,0,5.158-1.091,7.044-2.877c1.886-1.885,2.877-4.464,2.877-7.044
		c0-2.589-0.991-5.169-2.877-7.044C414.003,350.702,407.455,350.702,403.683,354.373z"/>
	<path fill="#FFFFFF" d="M368.167,507.36c1.785-1.887,2.877-4.466,2.877-7.045c0-2.59-1.092-5.17-2.877-7.045
		c-3.771-3.671-10.418-3.671-14.089,0c-1.786,1.875-2.877,4.455-2.877,7.045c0,2.579,1.091,5.158,2.877,7.045
		c1.885,1.875,4.364,2.877,7.044,2.877C363.801,510.237,366.281,509.146,368.167,507.36z"/>
</g>
</svg>
