<?xml version="1.0" encoding="utf-8"?>
<!-- Generator: Adobe Illustrator 16.0.0, SVG Export Plug-In . SVG Version: 6.00 Build 0)  -->
<!DOCTYPE svg PUBLIC "-//W3C//DTD SVG 1.1//EN" "http://www.w3.org/Graphics/SVG/1.1/DTD/svg11.dtd">
<svg version="1.1" id="Layer_1" xmlns="http://www.w3.org/2000/svg" xmlns:xlink="http://www.w3.org/1999/xlink" x="0px" y="0px"
	 width="48px" height="48px" viewBox="0 0 48 48" enable-background="new 0 0 48 48" xml:space="preserve">
<path fill="#009BEF" d="M24,0C10.745,0,0,10.745,0,24s10.745,24,24,24s24-10.745,24-24S37.255,0,24,0z M12,24.11
	c0-0.341,0.275-0.617,0.617-0.617h4.52l2.314-5.784c0.1-0.252,0.353-0.404,0.623-0.386c0.27,0.021,0.494,0.216,0.553,0.481
	l1.941,8.735l1.801-6.303c0.074-0.26,0.309-0.441,0.58-0.447c0.265-0.037,0.514,0.165,0.6,0.422l1.094,3.281h4.492
	c0.342,0,0.617,0.277,0.619,0.618c0,0.342-0.275,0.619-0.617,0.619h-4.938c-0.266,0-0.502-0.17-0.586-0.421l-0.604-1.811
	l-1.922,6.723c-0.076,0.266-0.319,0.447-0.593,0.447h-0.019c-0.281-0.007-0.523-0.207-0.584-0.482l-2.035-9.16l-1.728,4.316
	c-0.093,0.236-0.321,0.391-0.573,0.391h-4.938C12.275,24.729,12,24.452,12,24.11z M34.521,25.662L24.345,35.838l-9.876-9.876h1.746
	l8.13,8.13l9.303-9.303c2.406-2.406,2.406-6.322,0-8.729c-1.166-1.165-2.717-1.808-4.364-1.808c-1.505,0-2.912,0.559-4.035,1.538
	l-0.903,0.844l-0.901-0.844c-1.124-0.979-2.531-1.537-4.037-1.537c-1.648,0-3.198,0.642-4.364,1.808
	c-1.676,1.676-2.157,4.077-1.499,6.197h-1.283c-0.626-2.45-0.008-5.152,1.91-7.07c1.445-1.447,3.341-2.17,5.236-2.17
	c1.774,0,3.533,0.659,4.938,1.925c1.405-1.266,3.166-1.925,4.938-1.925c1.894,0,3.791,0.723,5.237,2.17
	C37.413,18.081,37.413,22.771,34.521,25.662z"/>
</svg>
