<?xml version="1.0" encoding="utf-8"?>
<!-- Generator: Adobe Illustrator 16.0.0, SVG Export Plug-In . SVG Version: 6.00 Build 0)  -->
<!DOCTYPE svg PUBLIC "-//W3C//DTD SVG 1.1//EN" "http://www.w3.org/Graphics/SVG/1.1/DTD/svg11.dtd">
<svg version="1.1" xmlns="http://www.w3.org/2000/svg" xmlns:xlink="http://www.w3.org/1999/xlink" x="0px" y="0px" width="30px"
	 height="30px" viewBox="0 0 30 30" enable-background="new 0 0 30 30" xml:space="preserve">
<g id="Layer_1">
	<g id="Layer_2">
	</g>
</g>
<g id="Layer_2_1_">
	<g>
		<path d="M28.823,1.176H1.176c-0.637,0-1.152,0.516-1.152,1.152S0.539,3.48,1.176,3.48h27.647c0.637,0,1.152-0.517,1.152-1.152
			S29.46,1.176,28.823,1.176z"/>
		<path d="M28.823,13.849H1.176c-0.637,0-1.152,0.515-1.152,1.152c0,0.636,0.515,1.15,1.152,1.15h27.647
			c0.637,0,1.152-0.514,1.152-1.15C29.976,14.364,29.46,13.849,28.823,13.849z"/>
		<path d="M28.823,26.519H1.176c-0.637,0-1.152,0.518-1.152,1.153c0,0.637,0.515,1.151,1.152,1.151h27.647
			c0.637,0,1.152-0.515,1.152-1.151C29.976,27.036,29.46,26.519,28.823,26.519z"/>
	</g>
</g>
</svg>
