<?xml version="1.0" encoding="utf-8"?>
<!-- Generator: Adobe Illustrator 16.0.0, SVG Export Plug-In . SVG Version: 6.00 Build 0)  -->
<!DOCTYPE svg PUBLIC "-//W3C//DTD SVG 1.1//EN" "http://www.w3.org/Graphics/SVG/1.1/DTD/svg11.dtd">
<svg version="1.1" id="Layer_1" xmlns="http://www.w3.org/2000/svg" xmlns:xlink="http://www.w3.org/1999/xlink" x="0px" y="0px"
	 width="496.067px" height="595.281px" viewBox="0 0 496.067 595.281" enable-background="new 0 0 496.067 595.281"
	 xml:space="preserve">
<g>
	<g>
		<path fill="#FFFFFF" d="M475.502,256.511c12.693-6.346,20.565-19.1,20.565-33.281v-93.363c0-14.183-7.872-26.923-20.565-33.27
			L446.46,82.076V49.607C446.46,22.248,424.2,0,396.854,0H49.607C22.26,0,0,22.248,0,49.607v496.067
			c0,27.358,22.261,49.607,49.607,49.607h347.246c27.347,0,49.606-22.248,49.606-49.607v-23.991l29.042-14.521
			c12.693-6.346,20.565-19.1,20.565-33.281v-56.147c0-4.299-2.229-8.283-5.887-10.549c-3.657-2.276-8.212-2.481-12.062-0.545
			l-27.419,13.71c-1.368,0.685-2.823,1.036-4.239,1.543v-23.911l29.042-14.521c12.693-6.346,20.565-19.1,20.565-33.281v-56.147
			c0-4.299-2.229-8.283-5.887-10.549c-3.657-2.265-8.212-2.482-12.062-0.545l-27.419,13.71c-1.372,0.686-2.823,1.038-4.239,1.545
			v-27.16L475.502,256.511z M372.05,394.092c0,15.2-12.377,27.564-27.563,27.564C195.57,421.656,74.41,300.498,74.41,151.58
			c0-15.199,12.378-27.563,27.564-27.563h53.046c15.188,0,27.564,12.364,27.564,27.563c0,17.223,2.689,34.117,7.993,50.236
			c3.173,10.053,0.558,20.758-6.781,28.098l-21.728,28.934c18.676,34.31,40.571,56.207,75.137,75.125l30.229-22.829
			c6.079-6.237,17.149-8.854,26.982-5.462c15.938,5.256,32.846,7.957,50.068,7.957c15.188,0,27.563,12.364,27.563,27.564
			L372.05,394.092L372.05,394.092z"/>
	</g>
</g>
</svg>
