<?xml version="1.0" encoding="utf-8"?>
<!-- Generator: Adobe Illustrator 16.0.0, SVG Export Plug-In . SVG Version: 6.00 Build 0)  -->
<!DOCTYPE svg PUBLIC "-//W3C//DTD SVG 1.1//EN" "http://www.w3.org/Graphics/SVG/1.1/DTD/svg11.dtd">
<svg version="1.1" id="Capa_1" xmlns="http://www.w3.org/2000/svg" xmlns:xlink="http://www.w3.org/1999/xlink" x="0px" y="0px"
	 width="595.279px" height="841.891px" viewBox="0 0 595.279 841.891" enable-background="new 0 0 595.279 841.891"
	 xml:space="preserve">
<g>
	<g>
		<path fill="#009BEF" d="M545.836,208.975H421.983v-20.194c0-36.104-29.372-65.476-65.476-65.476H238.773
			c-36.104,0-65.476,29.373-65.476,65.476v20.194H49.444c-9.179,0-16.522,7.343-16.522,16.521c0,9.179,7.344,16.522,16.522,16.522
			h29.862v388.205c0,48.709,39.652,88.361,88.361,88.361h259.945c48.709,0,88.362-39.652,88.362-88.361V242.019h29.861
			c9.18,0,16.522-7.343,16.522-16.522C562.359,216.317,555.016,208.975,545.836,208.975z M206.341,188.781
			c0-17.868,14.563-32.432,32.432-32.432h117.734c17.868,0,32.432,14.564,32.432,32.432v20.194H206.341V188.781z M482.931,630.224
			c0,30.474-24.845,55.317-55.318,55.317H167.667c-30.474,0-55.317-24.844-55.317-55.317V242.019h370.703v388.205H482.931z"/>
		<path fill="#009BEF" d="M297.64,626.307c9.179,0,16.522-7.343,16.522-16.521V317.774c0-9.179-7.344-16.522-16.522-16.522
			s-16.521,7.343-16.521,16.522v291.889C281.118,618.842,288.461,626.307,297.64,626.307z"/>
		<path fill="#009BEF" d="M189.819,608.071c9.18,0,16.522-7.343,16.522-16.521V335.888c0-9.179-7.343-16.522-16.522-16.522
			c-9.179,0-16.521,7.343-16.521,16.522V591.55C173.297,600.729,180.763,608.071,189.819,608.071z"/>
		<path fill="#009BEF" d="M405.461,608.071c9.179,0,16.521-7.343,16.521-16.521V335.888c0-9.179-7.343-16.522-16.521-16.522
			s-16.522,7.343-16.522,16.522V591.55C388.939,600.729,396.282,608.071,405.461,608.071z"/>
	</g>
</g>
</svg>
