<?xml version="1.0" encoding="utf-8"?>
<!-- Generator: Adobe Illustrator 16.0.0, SVG Export Plug-In . SVG Version: 6.00 Build 0)  -->
<!DOCTYPE svg PUBLIC "-//W3C//DTD SVG 1.1//EN" "http://www.w3.org/Graphics/SVG/1.1/DTD/svg11.dtd">
<svg version="1.1" id="Capa_1" xmlns="http://www.w3.org/2000/svg" xmlns:xlink="http://www.w3.org/1999/xlink" x="0px" y="0px"
	 width="595.279px" height="535.978px" viewBox="0 152.956 595.279 535.978" enable-background="new 0 152.956 595.279 535.978"
	 xml:space="preserve">
<g>
	<g>
		<path fill="#FFFFFF" d="M61.218,688.934c-5.211,0-10.421-1.303-14.327-5.21c-7.815-7.815-7.815-19.537,0-27.353l497.552-497.554
			c7.815-7.815,19.537-7.815,27.353,0s7.815,19.537,0,27.353L74.242,683.724C71.637,687.631,66.427,688.934,61.218,688.934z"/>
		<path fill="#FFFFFF" d="M233.147,517.005c-5.21,0-10.421-1.303-14.327-5.211c-23.444-24.747-36.471-56.007-36.471-91.174
			c0-70.334,57.311-127.644,127.645-127.644c33.865,0,66.427,13.024,89.873,37.773c3.907,3.908,5.21,9.118,5.21,14.327
			c0,5.21-2.605,10.42-5.21,14.327L247.474,511.794C243.567,515.702,238.357,517.005,233.147,517.005z M309.993,332.05
			c-48.191,0-88.57,40.376-88.57,88.57c0,16.933,5.211,33.865,13.024,46.89l122.435-122.434
			C342.556,337.26,326.925,332.05,309.993,332.05z"/>
		<path fill="#FFFFFF" d="M309.993,614.691h-3.907c-10.421,0-19.537-9.118-19.537-19.537c0-10.42,9.118-19.537,19.537-19.537h2.604
			c6.513,0,14.327,0,20.84-1.303c10.421-1.303,20.84,6.513,20.84,16.933c1.303,10.42-6.513,20.839-16.932,20.839
			C325.623,613.389,317.809,614.691,309.993,614.691z M204.491,591.247c-2.605,0-5.21,0-7.815-1.303
			c-7.815-3.908-16.932-7.815-24.747-11.724c-9.118-5.21-13.024-16.932-7.815-26.05c5.209-9.117,16.932-13.025,26.05-7.815
			c7.815,3.908,14.327,7.815,22.143,10.421c10.42,3.907,14.326,15.629,10.42,26.05C220.121,587.339,212.307,591.247,204.491,591.247
			z M431.125,583.432c-6.513,0-14.327-3.908-16.933-10.421c-5.21-9.118-1.302-20.84,9.118-26.05
			c7.815-3.907,14.327-7.815,22.143-11.723c9.118-5.211,20.84-2.605,27.353,6.513c5.21,9.117,2.604,20.84-6.513,27.353
			c-7.815,5.21-15.63,9.117-23.445,13.025C437.638,582.129,433.73,583.432,431.125,583.432z M537.93,507.887
			c-5.21,0-10.421-2.605-14.327-6.513c-7.815-7.815-6.513-20.84,1.303-27.353c6.513-6.513,13.024-11.723,18.234-16.932
			c7.815-7.815,19.537-7.815,27.353,0s7.815,19.537,0,27.353c-6.513,6.513-13.025,11.723-19.537,18.234
			C547.048,506.584,541.837,507.887,537.93,507.887z M242.265,507.887c-5.211,0-10.421-1.303-14.327-5.21
			c-7.815-7.815-7.815-19.537,0-27.353l18.234-18.234c7.815-7.815,19.537-7.815,27.353,0s7.815,19.537,0,27.353l-18.234,18.234
			C252.684,506.584,247.474,507.887,242.265,507.887z M334.74,415.41c-5.21,0-10.42-1.303-14.326-5.21
			c-7.815-7.815-7.815-19.538,0-27.353l18.234-18.235c7.815-7.815,19.537-7.815,27.353,0s7.815,19.537,0,27.353L347.767,410.2
			C343.859,414.107,339.951,415.41,334.74,415.41z M575.702,411.503c-5.21,0-10.42-2.605-14.326-6.514
			c-5.211-5.21-10.421-11.723-16.933-18.234c-7.815-7.815-7.815-19.537,0-27.352c7.815-7.815,19.537-7.815,27.353,0
			c6.513,6.513,13.025,13.024,18.234,19.537c7.815,7.815,6.513,20.839-1.302,27.352C584.82,410.2,580.913,411.503,575.702,411.503z
			 M478.016,325.538c-3.907,0-7.815-1.303-10.421-3.908c-6.513-3.908-13.023-7.815-19.537-11.723l-7.814,7.815
			c-7.815,7.815-19.537,7.815-27.353,0s-7.815-19.537,0-27.353l18.234-18.234c7.815-7.815,19.537-7.815,27.353,0l1.303,1.302
			c2.604,0,3.907,1.303,6.513,2.605c7.815,5.21,15.629,9.118,23.444,14.327c9.118,6.513,11.723,18.234,5.21,27.353
			C491.04,322.932,484.528,325.538,478.016,325.538z"/>
		<path fill="#FFFFFF" d="M174.534,575.616c-2.605,0-6.514-1.303-9.118-2.605C70.334,520.912,6.513,436.25,3.907,432.342
			c-5.21-6.513-5.21-16.932,0-23.444c5.21-7.815,138.065-181.047,306.086-181.047c46.89,0,95.082,14.327,144.576,40.377
			c5.211,2.605,9.118,7.815,10.421,14.327c1.303,6.513-1.303,11.723-5.21,16.932L187.56,570.405
			C184.954,574.313,179.744,575.616,174.534,575.616z M44.284,420.619c19.537,22.143,66.427,74.242,127.645,110.712L412.891,290.37
			c-35.168-15.629-69.032-24.748-102.897-24.748C184.954,266.925,75.544,382.848,44.284,420.619z"/>
	</g>
</g>
</svg>
