<?xml version="1.0" encoding="utf-8"?>
<!-- Generator: Adobe Illustrator 16.0.0, SVG Export Plug-In . SVG Version: 6.00 Build 0)  -->
<!DOCTYPE svg PUBLIC "-//W3C//DTD SVG 1.1//EN" "http://www.w3.org/Graphics/SVG/1.1/DTD/svg11.dtd">
<svg version="1.1" id="Layer_1" xmlns="http://www.w3.org/2000/svg" xmlns:xlink="http://www.w3.org/1999/xlink" x="0px" y="0px"
	 width="48px" height="48px" viewBox="0 0 48 48" enable-background="new 0 0 48 48" xml:space="preserve">
<g id="Layer_3">
	<g>
		<path fill="#FFBF47" d="M16.06,23.712l-6.426-6.426h1.162l5.414,5.412l1.294-1.294c1.092-1.491,2.405-2.805,3.896-3.897
			l1.002-1.002c1.604-1.602,1.604-4.209,0-5.811c-0.776-0.777-1.808-1.205-2.905-1.205c-1.002,0-1.939,0.372-2.687,1.024
			l-0.601,0.562l-0.6-0.562c-0.748-0.652-1.684-1.023-2.687-1.023c-1.098,0-2.13,0.427-2.906,1.205
			C8.9,11.809,8.58,13.407,9.018,14.819H8.164c-0.417-1.631-0.005-3.43,1.271-4.707c0.962-0.962,2.225-1.444,3.487-1.444
			c1.181,0,2.352,0.438,3.287,1.281c0.936-0.843,2.108-1.281,3.288-1.281c1.261,0,2.523,0.481,3.486,1.444
			c1.607,1.608,1.854,4.042,0.776,5.925c2.425-1.253,5.162-1.975,8.068-1.996C30.87,6.132,24.146,0,15.979,0
			C7.153,0,0,7.153,0,15.979c0,8.169,6.131,14.892,14.041,15.85C14.062,28.902,14.792,26.146,16.06,23.712z M7.99,16.052
			c0-0.226,0.183-0.41,0.411-0.41h3.009l1.54-3.852c0.067-0.167,0.235-0.268,0.416-0.256c0.18,0.014,0.328,0.143,0.368,0.32
			l1.293,5.815l1.199-4.197c0.048-0.173,0.206-0.293,0.386-0.297c0.176-0.025,0.342,0.109,0.398,0.28l0.729,2.185h2.991
			c0.228,0,0.411,0.185,0.412,0.411c0,0.229-0.183,0.413-0.411,0.413h-3.288c-0.177,0-0.334-0.114-0.39-0.282l-0.402-1.205
			l-1.28,4.476c-0.05,0.177-0.212,0.298-0.395,0.298h-0.012c-0.187-0.004-0.348-0.138-0.39-0.322l-1.354-6.097l-1.151,2.873
			c-0.061,0.158-0.213,0.26-0.381,0.26H8.4C8.173,16.464,7.99,16.28,7.99,16.052z"/>
	</g>
</g>
<g id="Layer_2">
	<g>
		<path fill="#FFBF47" d="M34.93,36.495h-0.888c-0.052,0-0.095,0.019-0.124,0.05c-0.034,0.038-0.051,0.078-0.051,0.125v0.992H31.6
			v-2.075h1.672c0.047,0,0.088-0.017,0.121-0.054c0.035-0.033,0.055-0.075,0.055-0.124v-0.716c0-0.051-0.02-0.094-0.055-0.125
			c-0.033-0.032-0.074-0.049-0.121-0.049H31.6v-1.18c0-0.277,0.099-0.502,0.285-0.674c0.189-0.172,0.439-0.26,0.749-0.26
			c0.166,0,0.335,0.033,0.511,0.101c0.174,0.062,0.304,0.124,0.377,0.175c0.078,0.053,0.125,0.088,0.145,0.104
			c0.037,0.031,0.077,0.046,0.126,0.037c0.047-0.006,0.087-0.024,0.121-0.064l0.562-0.693c0.029-0.039,0.043-0.078,0.039-0.123
			c-0.005-0.047-0.021-0.084-0.056-0.113c-0.547-0.457-1.159-0.684-1.834-0.684c-0.696,0-1.272,0.201-1.724,0.604
			c-0.449,0.405-0.678,0.923-0.678,1.546v1.223h-0.519c-0.054,0-0.093,0.017-0.127,0.049c-0.031,0.033-0.05,0.074-0.05,0.125v0.717
			c0,0.049,0.019,0.09,0.05,0.123c0.034,0.037,0.075,0.054,0.127,0.054h0.521v2.097h-0.531c-0.047,0-0.086,0.019-0.121,0.053
			c-0.034,0.033-0.055,0.076-0.055,0.125v0.818c0,0.053,0.02,0.094,0.051,0.127c0.033,0.031,0.074,0.049,0.125,0.049h5.236
			c0.049,0,0.094-0.018,0.125-0.049c0.032-0.033,0.049-0.074,0.049-0.127v-2.01c0-0.047-0.016-0.085-0.049-0.123
			C35.023,36.514,34.979,36.495,34.93,36.495z"/>
		<path fill="#FFBF47" d="M31.957,15.979c-8.825,0-15.979,7.154-15.979,15.978s7.153,15.979,15.979,15.979
			c8.824,0,15.979-7.151,15.979-15.979C47.936,23.133,40.781,15.979,31.957,15.979z M38.477,38.529c0,0.996-0.803,1.801-1.789,1.801
			H33.83h-3.225h-2.857c-0.986,0-1.789-0.805-1.789-1.801v-4.234c0-0.13,0.053-0.255,0.145-0.348l5.771-5.805
			c0.189-0.19,0.499-0.19,0.689,0l5.771,5.805c0.09,0.093,0.143,0.218,0.143,0.348v4.234H38.477z M40.583,32.85
			c-0.194,0.196-0.448,0.293-0.702,0.293s-0.507-0.097-0.699-0.293l-6.562-6.604c-0.213-0.212-0.593-0.212-0.806,0l-6.562,6.604
			c-0.385,0.391-1.014,0.391-1.403,0c-0.387-0.391-0.387-1.021,0-1.412l6.562-6.604c0.963-0.972,2.643-0.974,3.607-0.002
			l1.955,1.966v-1.052c0-0.553,0.442-0.999,0.988-0.999c0.553,0,0.995,0.446,0.995,0.999v3.05l2.623,2.642
			C40.973,31.828,40.973,32.459,40.583,32.85z"/>
	</g>
</g>
</svg>
