<?xml version="1.0" encoding="utf-8"?>
<!-- Generator: Adobe Illustrator 16.0.0, SVG Export Plug-In . SVG Version: 6.00 Build 0)  -->
<!DOCTYPE svg PUBLIC "-//W3C//DTD SVG 1.1//EN" "http://www.w3.org/Graphics/SVG/1.1/DTD/svg11.dtd">
<svg version="1.1" id="Capa_1" xmlns="http://www.w3.org/2000/svg" xmlns:xlink="http://www.w3.org/1999/xlink" x="0px" y="0px"
	 width="548.176px" height="475.082px" viewBox="0 0 548.176 475.082" enable-background="new 0 0 548.176 475.082"
	 xml:space="preserve">
<g>
	<path fill="#009BEF" d="M534.75,13.418C525.805,4.472,515.056,0,502.489,0H45.681C33.119,0,22.368,4.473,13.417,13.418
		C4.471,22.369,0,33.12,0,45.682v383.72c0,12.562,4.471,23.315,13.417,32.266c8.951,8.944,19.702,13.415,32.264,13.415h456.814
		c12.561,0,23.312-4.471,32.259-13.415c8.944-8.949,13.422-19.702,13.422-32.266V45.682C548.176,33.12,543.698,22.369,534.75,13.418
		z M109.634,420.268c0,4.948-1.804,9.233-5.421,12.847c-3.616,3.617-7.898,5.429-12.851,5.429H54.821
		c-4.947,0-9.233-1.812-12.85-5.429c-3.614-3.612-5.426-7.897-5.426-12.847v-36.545c0-4.948,1.812-9.233,5.426-12.851
		c3.616-3.613,7.902-5.425,12.85-5.425H91.36c4.952,0,9.234,1.812,12.851,5.425c3.617,3.616,5.424,7.901,5.424,12.851V420.268z
		 M109.634,310.63c0,4.948-1.804,9.236-5.421,12.847c-3.616,3.613-7.898,5.429-12.851,5.429H54.821
		c-4.947,0-9.233-1.814-12.85-5.429c-3.614-3.609-5.426-7.897-5.426-12.847v-36.549c0-4.948,1.812-9.229,5.426-12.848
		c3.616-3.613,7.902-5.424,12.85-5.424H91.36c4.952,0,9.234,1.811,12.851,5.424c3.617,3.617,5.424,7.898,5.424,12.848V310.63z
		 M109.634,200.995c0,4.952-1.804,9.234-5.421,12.85c-3.616,3.617-7.898,5.426-12.851,5.426H54.821
		c-4.947,0-9.233-1.809-12.85-5.426c-3.614-3.615-5.426-7.897-5.426-12.85v-36.542c0-4.952,1.812-9.235,5.426-12.851
		c3.616-3.616,7.902-5.426,12.85-5.426H91.36c4.952,0,9.234,1.81,12.851,5.426c3.617,3.619,5.424,7.902,5.424,12.851V200.995z
		 M109.634,91.365c0,4.947-1.804,9.231-5.421,12.85c-3.616,3.615-7.898,5.424-12.851,5.424H54.821c-4.947,0-9.233-1.809-12.85-5.424
		c-3.614-3.621-5.426-7.898-5.426-12.85V54.822c0-4.952,1.812-9.233,5.426-12.851c3.616-3.616,7.902-5.424,12.85-5.424H91.36
		c4.952,0,9.234,1.809,12.851,5.424c3.617,3.621,5.424,7.902,5.424,12.851V91.365z M401.993,420.268
		c0,4.948-1.807,9.233-5.424,12.847c-3.617,3.617-7.901,5.429-12.851,5.429H164.452c-4.949,0-9.229-1.812-12.848-5.429
		c-3.615-3.612-5.424-7.897-5.424-12.847v-146.18c0-4.941,1.81-9.229,5.424-12.847c3.618-3.614,7.898-5.426,12.848-5.426H383.72
		c4.948,0,9.232,1.812,12.851,5.426c3.617,3.616,5.424,7.904,5.424,12.847L401.993,420.268L401.993,420.268z M401.993,200.995
		c0,4.952-1.807,9.234-5.424,12.85c-3.617,3.617-7.901,5.426-12.851,5.426H164.452c-4.949,0-9.229-1.809-12.848-5.426
		c-3.615-3.615-5.424-7.897-5.424-12.85V54.818c0-4.951,1.81-9.232,5.424-12.85c3.618-3.615,7.898-5.424,12.848-5.424H383.72
		c4.948,0,9.232,1.809,12.851,5.424c3.617,3.621,5.424,7.902,5.424,12.85L401.993,200.995L401.993,200.995z M511.627,420.268
		c0,4.948-1.808,9.233-5.422,12.847c-3.62,3.617-7.904,5.429-12.854,5.429H456.81c-4.948,0-9.236-1.812-12.847-5.429
		c-3.621-3.612-5.429-7.897-5.429-12.847v-36.545c0-4.948,1.808-9.233,5.429-12.851c3.609-3.613,7.897-5.425,12.847-5.425h36.542
		c4.948,0,9.232,1.812,12.854,5.425c3.614,3.616,5.422,7.901,5.422,12.851V420.268L511.627,420.268z M511.627,310.63
		c0,4.948-1.808,9.236-5.422,12.847c-3.62,3.613-7.904,5.429-12.854,5.429H456.81c-4.948,0-9.236-1.814-12.847-5.429
		c-3.621-3.609-5.429-7.897-5.429-12.847v-36.549c0-4.948,1.808-9.229,5.429-12.848c3.609-3.613,7.897-5.424,12.847-5.424h36.542
		c4.948,0,9.232,1.811,12.854,5.424c3.614,3.617,5.422,7.898,5.422,12.848V310.63L511.627,310.63z M511.627,200.995
		c0,4.952-1.808,9.234-5.422,12.85c-3.62,3.617-7.904,5.426-12.854,5.426H456.81c-4.948,0-9.236-1.809-12.847-5.426
		c-3.621-3.615-5.429-7.897-5.429-12.85v-36.542c0-4.952,1.808-9.235,5.429-12.851c3.609-3.616,7.897-5.426,12.847-5.426h36.542
		c4.948,0,9.232,1.81,12.854,5.426c3.614,3.619,5.422,7.902,5.422,12.851V200.995L511.627,200.995z M511.627,91.365
		c0,4.947-1.808,9.229-5.422,12.85c-3.62,3.615-7.904,5.424-12.854,5.424H456.81c-4.948,0-9.236-1.805-12.847-5.424
		c-3.621-3.621-5.429-7.898-5.429-12.85V54.822c0-4.952,1.808-9.233,5.429-12.851c3.609-3.616,7.897-5.424,12.847-5.424h36.542
		c4.948,0,9.232,1.809,12.854,5.424c3.614,3.621,5.422,7.902,5.422,12.851V91.365L511.627,91.365z"/>
</g>
</svg>
