<?xml version="1.0" encoding="utf-8"?>
<!-- Generator: Adobe Illustrator 16.0.0, SVG Export Plug-In . SVG Version: 6.00 Build 0)  -->
<!DOCTYPE svg PUBLIC "-//W3C//DTD SVG 1.1//EN" "http://www.w3.org/Graphics/SVG/1.1/DTD/svg11.dtd">
<svg version="1.1" id="Capa_1" xmlns="http://www.w3.org/2000/svg" xmlns:xlink="http://www.w3.org/1999/xlink" x="0px" y="0px"
	 width="595.279px" height="841.891px" viewBox="0 0 595.279 841.891" enable-background="new 0 0 595.279 841.891"
	 xml:space="preserve">
<path fill="#009BEF" d="M118.939,311.983c0-5.16,4.162-9.336,9.344-9.336h68.424l35.029-87.561c1.507-3.814,5.344-6.113,9.432-5.848
	c4.087,0.325,7.473,3.274,8.368,7.288l29.381,132.229l27.269-95.419c1.116-3.934,4.672-6.674,8.782-6.764
	c4.006-0.562,7.773,2.498,9.075,6.387l16.559,49.671h68.003c5.173,0,9.342,4.189,9.372,9.351c0,5.182-4.168,9.365-9.344,9.365
	h-74.744c-4.021,0-7.599-2.572-8.869-6.363l-9.15-27.416l-29.093,101.783c-1.146,4.021-4.827,6.756-8.975,6.756h-0.288
	c-4.258-0.104-7.917-3.136-8.841-7.29l-30.809-138.673l-26.158,65.334c-1.403,3.578-4.856,5.929-8.671,5.929h-74.75
	C123.101,321.348,118.939,317.164,118.939,311.983z M459.87,335.481l-154.049,154.04L156.319,340.02h26.425l123.078,123.07
	l140.833-140.826c29.231-29.232,35.005-73.183,17.32-108.232c-3.515-6.964-45.352,6.735-33.336-9.586
	c-11.197,7.687-8.085-32.258-16.387-35.462c-10.6-4.091-21.971-6.23-33.662-6.23c-22.782,0-44.084,8.463-61.085,23.283
	l-13.668,12.779l-13.646-12.779c-17.016-14.82-38.312-23.27-61.106-23.27c-24.954,0-48.415,9.72-66.065,27.372
	c-25.368,25.367-32.648,61.72-22.692,93.807H122.91c-9.476-37.084-0.125-77.988,28.909-107.022
	c21.879-21.902,50.582-32.849,79.268-32.849c26.854,0,53.479,9.979,74.752,29.138c21.266-19.159,47.921-29.138,74.753-29.138
	c14.432,0,28.879,2.775,42.463,8.327c5.457,2.23,2.964,46.417,8.085,49.544c7.448,4.547,50.488,4.974,53.418,12.236
	C500.885,254.643,492.657,302.701,459.87,335.481z"/>
<g>
	<path fill="#009BEF" d="M585.745,200.266l-10.119-10.12L443.122,57.644l-10.116-10.12c-4.581-4.581-10.936-7.219-17.434-7.219
		H34.644c-15.567,0-32.329,12.023-32.329,38.406V552.2v217.059v6.077c0,10.983,11.053,21.693,24.125,25.066
		c0.657,0.171,1.287,0.421,1.97,0.553c2.047,0.406,4.134,0.631,6.234,0.631h525.992c2.1,0,4.188-0.225,6.232-0.631
		c0.685-0.132,1.312-0.382,1.971-0.553c13.071-3.373,24.125-14.083,24.125-25.066v-6.077v-217.06V223.773
		C592.967,213.707,591.759,206.277,585.745,200.266z M546.175,197.811H435.458V87.097L546.175,197.811z M34.644,775.335
		c-0.935,0-1.772-0.345-2.602-0.646c-2.048-0.973-3.478-3.021-3.478-5.435V578.449h538.146v190.809c0,2.414-1.433,4.446-3.479,5.435
		c-0.827,0.301-1.666,0.646-2.599,0.646L34.644,775.335L34.644,775.335z M28.567,552.199V78.71c0-2.851,0.434-12.154,6.077-12.154
		h375.325c-0.437,1.654-0.766,3.36-0.766,5.132v152.374H561.58c1.771,0,3.468-0.328,5.119-0.761c0,0.197,0.015,0.275,0.015,0.473
		v328.428L28.567,552.199L28.567,552.199z"/>
	<path fill="#009BEF" d="M206.313,627.594c-4.371-3.584-9.309-6.288-14.809-8.072c-5.499-1.799-11.062-2.689-16.683-2.689h-38.038
		v132.253h21.539v-47.736H174.3c6.933,0,13.283-1.011,19.021-3.045c5.735-2.034,10.644-4.909,14.713-8.61
		c4.069-3.7,7.232-8.281,9.516-13.729c2.271-5.446,3.412-11.514,3.412-18.22c0-6.341-1.351-12.049-4.042-17.144
		C214.228,635.508,210.684,631.189,206.313,627.594z M198.149,671.287c-1.325,3.646-3.045,6.482-5.198,8.521
		c-2.152,2.034-4.515,3.505-7.087,4.396c-2.573,0.896-5.185,1.354-7.81,1.354h-19.741v-52.398h16.145
		c5.5,0,9.922,0.865,13.283,2.601c3.347,1.73,5.946,3.885,7.809,6.458c1.854,2.569,3.071,5.264,3.678,8.069
		c0.591,2.811,0.893,5.289,0.893,7.442C200.118,663.124,199.461,667.64,198.149,671.287z"/>
	<path fill="#009BEF" d="M336.413,636.201c-5.562-5.854-12.562-10.563-21.002-14.083c-8.438-3.52-18.217-5.289-29.335-5.289H246.24
		v132.254h50.061c1.667,0,4.24-0.212,7.721-0.632c3.466-0.421,7.298-1.362,11.485-2.874c4.187-1.497,8.519-3.739,13.007-6.732
		c4.485-2.992,8.519-7.088,12.111-12.298c3.6-5.212,6.554-11.668,8.89-19.389c2.336-7.718,3.505-17.021,3.505-27.903
		c0-7.901-1.379-15.595-4.121-23.062C346.128,648.738,341.978,642.071,336.413,636.201z M320.717,719.286
		c-6.458,9.332-16.983,13.991-31.58,13.991H267.78V633.146h12.561c10.291,0,18.665,1.354,25.123,4.041
		c6.461,2.691,11.576,6.224,15.347,10.595c3.767,4.369,6.299,9.239,7.626,14.62c1.312,5.382,1.968,10.828,1.968,16.328
		C330.401,696.438,327.175,709.969,320.717,719.286z"/>
	<polygon fill="#009BEF" points="384.241,749.083 406.136,749.083 406.136,689.506 461.406,689.506 461.406,674.793 
		406.136,674.793 406.136,633.157 466.962,633.157 466.962,616.829 384.241,616.829 	"/>
</g>
</svg>
