<?xml version="1.0" encoding="utf-8"?>
<!-- Generator: Adobe Illustrator 16.0.0, SVG Export Plug-In . SVG Version: 6.00 Build 0)  -->
<!DOCTYPE svg PUBLIC "-//W3C//DTD SVG 1.1//EN" "http://www.w3.org/Graphics/SVG/1.1/DTD/svg11.dtd">
<svg version="1.1" id="Layer_1" xmlns="http://www.w3.org/2000/svg" xmlns:xlink="http://www.w3.org/1999/xlink" x="0px" y="0px"
	 width="595.279px" height="595.281px" viewBox="0 0 595.279 595.281" enable-background="new 0 0 595.279 595.281"
	 xml:space="preserve">
<g>
	<ellipse fill="#009BEF" cx="296.64" cy="299.64" rx="200.5" ry="193.5"/>
	<g>
		<path fill="#FFFFFF" d="M297.64,0C133.521,0,0,133.52,0,297.64C0,461.76,133.521,595.281,297.64,595.281
			S595.28,461.76,595.28,297.64C595.28,133.52,461.759,0,297.64,0z M467.052,312.244c0,8.066-6.539,14.604-14.604,14.604h-84.289
			l59.603,59.603c5.703,5.703,5.703,14.951,0,20.653l-20.654,20.653c-5.703,5.703-14.951,5.703-20.653,0l-59.603-59.603v84.292
			c0,8.066-6.539,14.604-14.604,14.604h-29.209c-8.066,0-14.604-6.539-14.604-14.604v-84.292l-59.603,59.603
			c-5.702,5.703-14.95,5.703-20.653,0l-20.653-20.653c-5.703-5.702-5.703-14.95,0-20.653l59.603-59.603h-84.292
			c-8.066,0-14.604-6.539-14.604-14.604v-29.209c0-8.066,6.539-14.604,14.604-14.604h84.292l-59.603-59.603
			c-5.703-5.702-5.703-14.95,0-20.653l20.653-20.653c5.703-5.703,14.951-5.703,20.653,0l59.603,59.603v-84.291
			c0-8.066,6.539-14.604,14.604-14.604h29.209c8.066,0,14.604,6.539,14.604,14.604v84.291l59.603-59.603
			c5.702-5.703,14.95-5.703,20.653,0l20.654,20.653c5.703,5.703,5.703,14.951,0,20.653l-59.603,59.603h84.289
			c8.066,0,14.604,6.539,14.604,14.604V312.244z"/>
	</g>
</g>
</svg>
