<?xml version="1.0" encoding="utf-8"?>
<!-- Generator: Adobe Illustrator 16.0.0, SVG Export Plug-In . SVG Version: 6.00 Build 0)  -->
<!DOCTYPE svg PUBLIC "-//W3C//DTD SVG 1.1//EN" "http://www.w3.org/Graphics/SVG/1.1/DTD/svg11.dtd">
<svg version="1.1" id="Layer_1" xmlns="http://www.w3.org/2000/svg" xmlns:xlink="http://www.w3.org/1999/xlink" x="0px" y="0px"
	 width="595.279px" height="595.281px" viewBox="0 0 595.279 595.281" enable-background="new 0 0 595.279 595.281"
	 xml:space="preserve">
<g id="Capa_1">
</g>
<g id="Layer_2">
	<g>
		<g>
			<path fill="#FFFFFF" d="M297.639,595.281c164.114,0,297.64-133.518,297.64-297.641S461.757,0,297.639,0
				C133.524-0.001-0.001,133.519-0.001,297.641C-0.001,461.764,133.526,595.281,297.639,595.281z M297.639,36.633
				c143.921,0,261.008,117.088,261.008,261.008S441.56,558.649,297.639,558.649c-143.919,0-261.009-117.087-261.009-261.008
				C36.632,153.72,153.72,36.633,297.639,36.633z"/>
		</g>
	</g>
	<g id="c186_exit_1_">
		<path fill="#FFFFFF" d="M365.43,415.781H206.592V179.69H365.43v28.708c10.776,0,21.098,0,30.599,0v-61.1H177.267v300.685h218.762
			v-60.82c-9.538,0-19.836,0-30.599,0V415.781z"/>
		<path fill="#FFFFFF" d="M415.721,290.994c-7.57-7.521-79.582-77.261-79.582-77.261s-9.592-9.653-9.592,3.117
			c0,12.833,0,33.211,0,33.211s-5.552,0-14.043,0c-26.222,0-57.185,0-76.729,0c0,0-4.568-0.165-4.568,5.766
			c0,5.933,0,73.222,0,81.514c0,8.328,5.451,6.864,5.451,6.864c20.101,0,49.387,0,76.516,0c9.488,0,15.659,0,15.659,0
			s0,25.412,0,35.948c0,10.499,9.136,0.833,9.136,0.833l77.11-79.279C415.079,301.707,421.224,296.496,415.721,290.994z"/>
	</g>
</g>
</svg>
