<?xml version="1.0" encoding="utf-8"?>
<!-- Generator: Adobe Illustrator 16.0.0, SVG Export Plug-In . SVG Version: 6.00 Build 0)  -->
<!DOCTYPE svg PUBLIC "-//W3C//DTD SVG 1.1//EN" "http://www.w3.org/Graphics/SVG/1.1/DTD/svg11.dtd">
<svg version="1.1" id="Layer_1" xmlns="http://www.w3.org/2000/svg" xmlns:xlink="http://www.w3.org/1999/xlink" x="0px" y="0px"
	 width="178.338px" height="50.565px" viewBox="0 0 178.338 50.565" enable-background="new 0 0 178.338 50.565"
	 xml:space="preserve">
<g>
	<defs>
		<path id="SVGID_1_" d="M64.246,30.395c0,2.764,1.385,3.316,4.431,3.316c3.877,0,4.431-1.382,4.431-2.211
			c0-1.382-1.385-1.935-4.154-2.487l-3.323-0.552c-3.6-0.829-7.477-1.935-7.477-6.079c0-5.247,4.985-7.185,9.969-7.185
			c8.031,0,10.246,2.487,10.523,6.908h-6.092c-0.277-2.211-1.938-2.487-3.877-2.487c-2.769,0-3.877,0.832-3.877,2.214
			c0,1.381,1.938,1.931,4.431,2.483l3.046,0.553c3.877,0.829,7.2,2.211,7.2,6.355c0,6.079-6.092,7.188-11.077,7.188
			c-8.861,0-10.246-3.869-10.246-7.74L64.246,30.395z"/>
	</defs>
	<clipPath id="SVGID_2_">
		<use xlink:href="#SVGID_1_"  overflow="visible"/>
	</clipPath>
	<g clip-path="url(#SVGID_2_)">
		<defs>
			<rect id="SVGID_3_" x="-628" y="-359.435" width="1440" height="1023.999"/>
		</defs>
		<clipPath id="SVGID_4_">
			<use xlink:href="#SVGID_3_"  overflow="visible"/>
		</clipPath>
		<rect x="53.154" y="10.197" clip-path="url(#SVGID_4_)" fill="#303240" width="31.323" height="33.214"/>
	</g>
</g>
<g>
	<defs>
		<rect id="SVGID_5_" x="82.523" y="15.474" width="6.369" height="21.829"/>
	</defs>
	<clipPath id="SVGID_6_">
		<use xlink:href="#SVGID_5_"  overflow="visible"/>
	</clipPath>
	<g clip-path="url(#SVGID_6_)">
		<defs>
			<rect id="SVGID_7_" x="-628" y="-359.435" width="1440" height="1023.999"/>
		</defs>
		<clipPath id="SVGID_8_">
			<use xlink:href="#SVGID_7_"  overflow="visible"/>
		</clipPath>
		<rect x="77.523" y="10.474" clip-path="url(#SVGID_8_)" fill="#303240" width="16.37" height="31.829"/>
	</g>
</g>
<g>
	<defs>
		<path id="SVGID_9_" d="M99.692,24.868h4.981c3.049,0,3.877-0.829,3.877-2.486c0-2.211-1.661-2.484-4.705-2.484h-4.153V24.868z
			 M93.323,15.474h13.292c5.259,0,8.309,1.935,8.309,5.806c0,2.763-2.219,4.697-5.539,5.247c1.936,0,3.598,0.553,4.431,1.935
			c1.108,1.934,1.108,6.631,2.216,8.842h-6.646c-0.834-2.211-0.557-5.25-1.107-6.908c-0.277-1.105-1.385-1.382-3.877-1.382h-4.708
			v8.29h-6.369V15.474z"/>
	</defs>
	<clipPath id="SVGID_10_">
		<use xlink:href="#SVGID_9_"  overflow="visible"/>
	</clipPath>
	<g clip-path="url(#SVGID_10_)">
		<defs>
			<rect id="SVGID_11_" x="-628" y="-359.435" width="1440" height="1023.999"/>
		</defs>
		<clipPath id="SVGID_12_">
			<use xlink:href="#SVGID_11_"  overflow="visible"/>
		</clipPath>
		<rect x="88.323" y="10.474" clip-path="url(#SVGID_12_)" fill="#303240" width="32.708" height="31.829"/>
	</g>
</g>
<g>
	<defs>
		<rect id="SVGID_13_" x="118.8" y="15.474" width="6.37" height="21.829"/>
	</defs>
	<clipPath id="SVGID_14_">
		<use xlink:href="#SVGID_13_"  overflow="visible"/>
	</clipPath>
	<g clip-path="url(#SVGID_14_)">
		<defs>
			<rect id="SVGID_15_" x="-628" y="-359.435" width="1440" height="1023.999"/>
		</defs>
		<clipPath id="SVGID_16_">
			<use xlink:href="#SVGID_15_"  overflow="visible"/>
		</clipPath>
		<rect x="113.8" y="10.474" clip-path="url(#SVGID_16_)" fill="#303240" width="16.37" height="31.829"/>
	</g>
</g>
<g>
	<defs>
		<path id="SVGID_17_" d="M153.136,27.355c0,7.458-4.153,10.5-11.905,10.5c-7.756,0-11.91-2.764-11.91-9.671V15.474h6.372v12.158
			c0,3.868,1.936,5.803,5.538,5.803c4.154,0,5.539-2.764,5.539-6.355V15.474h6.366V27.355z"/>
	</defs>
	<clipPath id="SVGID_18_">
		<use xlink:href="#SVGID_17_"  overflow="visible"/>
	</clipPath>
	<g clip-path="url(#SVGID_18_)">
		<defs>
			<rect id="SVGID_19_" x="-628" y="-359.435" width="1440" height="1023.999"/>
		</defs>
		<clipPath id="SVGID_20_">
			<use xlink:href="#SVGID_19_"  overflow="visible"/>
		</clipPath>
		<rect x="124.32" y="10.474" clip-path="url(#SVGID_20_)" fill="#303240" width="33.815" height="32.382"/>
	</g>
</g>
<g>
	<defs>
		<path id="SVGID_21_" d="M163.107,30.395c0,2.764,1.385,3.316,4.434,3.316c3.875,0,4.432-1.382,4.432-2.211
			c0-1.382-1.385-1.935-4.154-2.487l-3.326-0.552c-3.6-0.829-7.477-1.935-7.477-6.079c0-5.247,4.987-7.185,9.969-7.185
			c8.031,0,10.249,2.487,10.526,6.908h-6.093c-0.279-2.211-1.938-2.487-3.874-2.487c-2.769,0-3.877,0.832-3.877,2.214
			c0,1.381,1.937,1.931,4.431,2.483l3.047,0.553c3.871,0.829,7.193,2.211,7.193,6.355c0,6.079-6.092,7.188-11.076,7.188
			c-8.861,0-10.246-3.869-10.246-7.74L163.107,30.395z"/>
	</defs>
	<clipPath id="SVGID_22_">
		<use xlink:href="#SVGID_21_"  overflow="visible"/>
	</clipPath>
	<g clip-path="url(#SVGID_22_)">
		<defs>
			<rect id="SVGID_23_" x="-628" y="-359.435" width="1440" height="1023.999"/>
		</defs>
		<clipPath id="SVGID_24_">
			<use xlink:href="#SVGID_23_"  overflow="visible"/>
		</clipPath>
		<rect x="152.016" y="10.197" clip-path="url(#SVGID_24_)" fill="#303240" width="31.322" height="33.214"/>
	</g>
</g>
<g>
	<defs>
		<polygon id="SVGID_25_" points="14.123,25.421 0,33.435 16.062,31.5 9.416,45.868 21.046,35.092 24.369,50.565 27.416,35.092 
			39.323,45.868 32.4,31.224 48.461,33.158 34.338,25.421 48.185,17.408 32.4,19.342 38.769,4.697 27.139,15.75 24.092,0 
			21.046,15.75 9.139,4.974 15.785,19.618 0,17.685 		"/>
	</defs>
	<clipPath id="SVGID_26_">
		<use xlink:href="#SVGID_25_"  overflow="visible"/>
	</clipPath>
	<g clip-path="url(#SVGID_26_)">
		<defs>
			<rect id="SVGID_27_" x="-628" y="-359.435" width="1440" height="1023.999"/>
		</defs>
		<clipPath id="SVGID_28_">
			<use xlink:href="#SVGID_27_"  overflow="visible"/>
		</clipPath>
		<rect x="-5" y="-5" clip-path="url(#SVGID_28_)" fill="#303240" width="58.461" height="60.565"/>
	</g>
</g>
</svg>
