<?xml version="1.0" encoding="utf-8"?>
<!-- Generator: Adobe Illustrator 16.0.0, SVG Export Plug-In . SVG Version: 6.00 Build 0)  -->
<!DOCTYPE svg PUBLIC "-//W3C//DTD SVG 1.1//EN" "http://www.w3.org/Graphics/SVG/1.1/DTD/svg11.dtd">
<svg version="1.1" id="Capa_1" xmlns="http://www.w3.org/2000/svg" xmlns:xlink="http://www.w3.org/1999/xlink" x="0px" y="0px"
	 width="595.279px" height="637.451px" viewBox="0 0 595.279 637.451" enable-background="new 0 0 595.279 637.451"
	 xml:space="preserve">
<g id="Capa_1_1_">
	<g>
		<g>
			
				<rect x="481.825" y="467.96" transform="matrix(-0.7071 -0.7071 0.7071 -0.7071 519.2663 1155.9246)" fill="#FFFFFF" width="34.416" height="4.917"/>
			<path fill="#FFFFFF" d="M420.829,551.099L420.829,551.099h-0.004h-0.003h-0.002c-0.091,0-0.181-0.006-0.27-0.016
				c-0.097-0.012-0.171-0.063-0.267-0.085c-0.177-0.042-0.347-0.087-0.507-0.162c-0.123-0.059-0.229-0.132-0.34-0.206
				c-0.141-0.1-0.267-0.204-0.386-0.329c-0.094-0.099-0.17-0.198-0.246-0.312c-0.092-0.141-0.169-0.285-0.232-0.446
				c-0.052-0.132-0.094-0.264-0.123-0.404c-0.019-0.08-0.059-0.146-0.067-0.227c-0.011-0.094,0.022-0.177,0.022-0.271
				c0-0.093-0.033-0.177-0.022-0.271l1.398-12.591l-10.871,1.207l-6.277,26.37l1.859-1.86c0.962-0.961,2.516-0.961,3.478,0
				c0.959,0.961,0.959,2.52,0,3.477l-1.862,1.861l26.376-6.279l1.206-10.87l-12.592,1.398
				C421.01,551.094,420.92,551.099,420.829,551.099z"/>
			<path fill="#FFFFFF" d="M413.611,531.516l7.825-0.869l55.017-55.011c0.961-0.962,2.516-0.962,3.477,0s0.961,2.517,0,3.477
				l-55.016,55.011l-1.305,11.731l11.733-1.302l55.011-55.015c0.962-0.96,2.515-0.96,3.478,0c0.961,0.964,0.961,2.517,0,3.478
				l-55.013,55.015l-0.869,7.824l68.054-68.054l-24.339-24.336L413.611,531.516z"/>
			
				<rect x="488.778" y="461.007" transform="matrix(-0.7071 -0.7071 0.7071 -0.7071 536.0382 1148.9736)" fill="#FFFFFF" width="34.416" height="4.919"/>
			<path fill="#FFFFFF" d="M499.184,446.224l24.059,24.06c5.039-6.736,4.519-16.345-1.598-22.461
				C515.53,441.706,505.924,441.184,499.184,446.224z"/>
			<path fill="#FFFFFF" d="M463.681,374.127c-72.72,0-131.662,58.94-131.662,131.662c0,72.719,58.942,131.662,131.662,131.662
				S595.344,578.5,595.344,505.789C595.344,433.079,536.4,374.127,463.681,374.127z M525.119,475.636l-88.652,88.653
				c-0.021,0.019-0.044,0.027-0.064,0.048c-0.057,0.052-0.116,0.087-0.178,0.134c-0.151,0.119-0.316,0.222-0.494,0.301
				c-0.08,0.038-0.158,0.07-0.241,0.098c-0.062,0.021-0.125,0.06-0.188,0.072l-36.507,8.69c-0.188,0.045-0.379,0.065-0.568,0.065
				c-0.316,0-0.633-0.062-0.931-0.185s-0.573-0.305-0.807-0.536c-0.21-0.213-0.361-0.465-0.48-0.728
				c-0.026-0.061-0.054-0.112-0.072-0.175c-0.098-0.265-0.157-0.536-0.16-0.816c0-0.033,0.009-0.062,0.009-0.095
				c0.007-0.164,0.016-0.331,0.056-0.497l8.688-36.506c0.01-0.022,0.022-0.049,0.029-0.072c0.019-0.063,0.05-0.119,0.072-0.184
				c0.075-0.212,0.176-0.407,0.307-0.589c0.047-0.063,0.092-0.126,0.143-0.186c0.037-0.046,0.062-0.098,0.105-0.14l88.648-88.649
				c8.629-8.622,22.662-8.622,31.292,0C533.748,452.971,533.748,467.009,525.119,475.636z"/>
		</g>
	</g>
</g>
<g id="Layer_2">
</g>
<path fill="#FFFFFF" d="M327.187,575.435H25.448c-2.411,0-3.82-1.379-4.445-2.202c-0.625-0.812-1.587-2.539-1.22-4.048
	L79.37,405.761v0.05l41.273-113.143l0.258-0.813c0.654-2.431,2.887-4.138,5.407-4.138h330.072h19.843h59.527h34.625
	c3.771,0,4.731,5.417,4.979,8.126l-29.536,81.01c5.825,3.723,11.376,7.831,16.629,12.284l32.831-90.019v-1.757
	c0-17.084-10.477-29.486-24.901-29.486h-34.625v-62.188c0-14.94-12.164-27.104-27.105-27.104h-32.423v-23.95l-4.911-4.911
	c-0.01,0-0.01-0.01-0.01-0.02l-72.388-72.387L321.591,0H79.37v109.135H27.105C12.163,109.134,0,121.298,0,136.239v433.435H0.06
	c-0.052,5.586,1.687,11.052,5.179,15.626c4.861,6.35,12.223,9.98,20.21,9.98h313.869
	C334.797,589.004,330.732,582.376,327.187,575.435z M476.224,198.426h32.423c3.998,0,7.263,3.254,7.263,7.264v62.188h-39.686
	V198.426L476.224,198.426z M327.404,33.882l114.949,114.938H327.404V33.882z M99.213,109.134V19.842h208.35v148.819h148.82v9.922
	v89.292H126.309c-1.419,0-2.818,0.118-4.188,0.347c-9.663,1.606-17.719,8.651-20.12,17.641l-2.788,7.659V109.134z M19.843,136.239
	c0-4.008,3.266-7.263,7.264-7.263H79.37v218.616L19.843,509.947V136.239z"/>
<path fill="#FFFFFF" d="M157.741,168.663h99.213c5.478,0,9.922-4.435,9.922-9.921c0-5.487-4.444-9.921-9.922-9.921h-99.213
	c-5.477,0-9.922,4.435-9.922,9.921C147.82,164.228,152.265,168.663,157.741,168.663z"/>
<path fill="#FFFFFF" d="M157.741,99.214h99.213c5.478,0,9.922-4.435,9.922-9.921c0-5.487-4.444-9.921-9.922-9.921h-99.213
	c-5.477,0-9.922,4.435-9.922,9.921C147.82,94.778,152.265,99.214,157.741,99.214z"/>
<path fill="#FFFFFF" d="M157.741,238.112h238.112c5.477,0,9.921-4.436,9.921-9.921c0-5.486-4.444-9.921-9.921-9.921H157.741
	c-5.477,0-9.922,4.435-9.922,9.921C147.82,233.677,152.265,238.112,157.741,238.112z"/>
</svg>
