<?xml version="1.0" encoding="utf-8"?>
<!-- Generator: Adobe Illustrator 16.0.0, SVG Export Plug-In . SVG Version: 6.00 Build 0)  -->
<!DOCTYPE svg PUBLIC "-//W3C//DTD SVG 1.1//EN" "http://www.w3.org/Graphics/SVG/1.1/DTD/svg11.dtd">
<svg version="1.1" id="Capa_1" xmlns="http://www.w3.org/2000/svg" xmlns:xlink="http://www.w3.org/1999/xlink" x="0px" y="0px"
	 width="595.279px" height="491.967px" viewBox="0 174.961 595.279 491.967" enable-background="new 0 174.961 595.279 491.967"
	 xml:space="preserve">
<g>
	<path fill="#FFFFFF" d="M595.28,295.443h-93.272v-40.161H247.921l-30.12-80.321H0v491.967h502.007v-8.765L595.28,295.443z
		 M569.376,315.523l-67.369,262.008V315.523H569.376z M20.08,195.042h183.805l30.121,80.321h247.921v20.081v351.405H20.08V195.042z"
		/>
	<path fill="#FFFFFF" d="M60.24,606.688h240.964V456.086H60.24V606.688z M80.322,476.166h200.803v110.441H80.322V476.166z"/>
	<path fill="#FFFFFF" d="M200.803,546.447h-90.361c-5.552,0-10.04,4.487-10.04,10.04c0,5.552,4.487,10.04,10.04,10.04h90.361
		c5.552,0,10.04-4.488,10.04-10.04C210.843,550.935,206.355,546.447,200.803,546.447z"/>
	<path fill="#FFFFFF" d="M110.442,516.326h40.16c5.553,0,10.04-4.487,10.04-10.04c0-5.552-4.487-10.04-10.04-10.04h-40.16
		c-5.552,0-10.04,4.488-10.04,10.04C100.402,511.839,104.889,516.326,110.442,516.326z"/>
	<path fill="#FFFFFF" d="M251.003,496.246h-20.08c-5.552,0-10.04,4.488-10.04,10.04c0,5.553,4.488,10.04,10.04,10.04h20.08
		c5.553,0,10.041-4.487,10.041-10.04C261.044,500.734,256.556,496.246,251.003,496.246z"/>
	<path fill="#FFFFFF" d="M233.835,549.358c-1.817,1.897-2.912,4.408-2.912,7.129c0,2.711,1.095,5.221,2.912,7.028
		c1.897,1.897,4.407,3.012,7.128,3.012c2.61,0,5.222-1.104,7.129-2.912c1.808-1.907,2.911-4.518,2.911-7.128
		s-1.104-5.231-2.911-7.129C244.377,545.644,237.55,545.644,233.835,549.358z"/>
	<path fill="#FFFFFF" d="M190.763,516.326c2.61,0,5.221-1.104,7.128-2.911c1.808-1.908,2.912-4.519,2.912-7.129
		c0-2.721-1.104-5.23-2.912-7.128c-3.715-3.715-10.652-3.715-14.257,0c-1.817,1.897-2.911,4.518-2.911,7.128
		s1.094,5.221,2.911,7.129C185.531,515.222,188.153,516.326,190.763,516.326z"/>
</g>
</svg>
