<?xml version="1.0" encoding="utf-8"?>
<!-- Generator: Adobe Illustrator 16.0.0, SVG Export Plug-In . SVG Version: 6.00 Build 0)  -->
<!DOCTYPE svg PUBLIC "-//W3C//DTD SVG 1.1//EN" "http://www.w3.org/Graphics/SVG/1.1/DTD/svg11.dtd">
<svg version="1.1" id="Capa_1" xmlns="http://www.w3.org/2000/svg" xmlns:xlink="http://www.w3.org/1999/xlink" x="0px" y="0px"
	 width="595.279px" height="841.891px" viewBox="0 0 595.279 841.891" enable-background="new 0 0 595.279 841.891"
	 xml:space="preserve">
<path fill="#FFFFFF" d="M566.922,151.652c-37.818-37.796-99.328-37.796-137.146,0L41.234,540.195
	c-0.184,0.183-0.291,0.409-0.453,0.604c-0.226,0.258-0.42,0.538-0.625,0.818c-0.57,0.798-1.013,1.648-1.347,2.575
	c-0.097,0.28-0.237,0.528-0.312,0.808c-0.032,0.108-0.097,0.216-0.129,0.323L0.281,705.322c-0.173,0.722-0.216,1.454-0.237,2.176
	c0,0.141-0.043,0.27-0.043,0.41c0.011,1.228,0.28,2.424,0.7,3.577c0.097,0.269,0.205,0.506,0.323,0.765
	c0.527,1.152,1.185,2.263,2.111,3.189c1.023,1.023,2.23,1.81,3.534,2.349c1.304,0.538,2.693,0.808,4.084,0.808
	c0.829,0,1.67-0.097,2.488-0.291l159.999-38.087c0.29-0.064,0.549-0.227,0.829-0.323c0.366-0.118,0.711-0.259,1.066-0.42
	c0.776-0.355,1.498-0.798,2.166-1.325c0.259-0.205,0.528-0.355,0.775-0.582c0.087-0.086,0.194-0.129,0.28-0.216l388.554-388.553
	C604.729,250.98,604.729,189.459,566.922,151.652z M551.687,166.887c26.807,26.817,29.091,68.923,7.004,98.445L453.242,159.884
	C482.775,137.796,524.881,140.081,551.687,166.887z M498.355,326.885L391.689,220.22l15.235-15.235L513.589,311.65L498.355,326.885z
	 M53.451,665.123c-4.213-4.213-11.022-4.213-15.235,0l-8.155,8.156l27.517-115.587l47.645-5.29l-6.131,55.186
	c-0.043,0.41,0.108,0.787,0.108,1.186c0,0.409-0.151,0.775-0.108,1.186c0.043,0.355,0.227,0.646,0.302,0.991
	c0.13,0.625,0.312,1.195,0.539,1.777c0.28,0.7,0.614,1.336,1.023,1.95c0.334,0.496,0.668,0.938,1.077,1.368
	c0.518,0.55,1.077,1.013,1.691,1.444c0.485,0.334,0.948,0.646,1.487,0.904c0.711,0.334,1.454,0.528,2.23,0.712
	c0.409,0.097,0.743,0.323,1.163,0.377c0.388,0.043,0.776,0.064,1.175,0.064h0.011h0.011h0.011h0.011
	c0.388,0,0.786-0.021,1.175-0.064l55.186-6.131l-5.29,47.644L45.295,688.514l8.156-8.155
	C57.654,676.156,57.654,669.336,53.451,665.123z M188.669,606.091l241.106-241.118c4.213-4.213,4.213-11.022,0-15.235
	c-4.213-4.213-11.021-4.213-15.234,0L173.434,590.855l-51.426,5.711l5.711-51.426l241.128-241.107
	c4.213-4.213,4.213-11.022,0-15.235c-4.212-4.213-11.021-4.213-15.234,0L112.484,529.905l-34.295,3.814l298.266-298.265
	L483.119,342.12L184.855,640.386L188.669,606.091z M528.824,296.416L422.158,189.75l15.246-15.246L544.07,281.17L528.824,296.416z"
	/>
</svg>
