<?xml version="1.0" encoding="utf-8"?>
<!-- Generator: Adobe Illustrator 16.0.0, SVG Export Plug-In . SVG Version: 6.00 Build 0)  -->
<!DOCTYPE svg PUBLIC "-//W3C//DTD SVG 1.1//EN" "http://www.w3.org/Graphics/SVG/1.1/DTD/svg11.dtd">
<svg version="1.1" id="Layer_1" xmlns="http://www.w3.org/2000/svg" xmlns:xlink="http://www.w3.org/1999/xlink" x="0px" y="0px"
	 width="595.279px" height="841.891px" viewBox="0 0 595.279 841.891" enable-background="new 0 0 595.279 841.891"
	 xml:space="preserve">
<g>
	<path fill="#009BEF" d="M343.428,649.898h228.953c13.738,0,22.896-9.158,22.896-22.896v-45.791
		c0-13.737-9.158-22.896-22.896-22.896H343.428c-13.735,0-22.896,9.158-22.896,22.896v45.791
		C320.534,640.74,329.692,649.898,343.428,649.898z"/>
	<path fill="#009BEF" d="M343.428,466.736h228.953c13.738,0,22.896-9.158,22.896-22.896v-45.791
		c0-13.737-9.158-22.896-22.896-22.896H343.428c-13.735,0-22.896,9.158-22.896,22.896v45.791
		C320.534,457.578,329.692,466.736,343.428,466.736z"/>
	<path fill="#009BEF" d="M343.428,283.572h228.953c13.738,0,22.896-9.158,22.896-22.896v-45.791
		c0-13.737-9.158-22.896-22.896-22.896H343.428c-13.735,0-22.896,9.158-22.896,22.896v45.791
		C320.534,274.414,329.692,283.572,343.428,283.572z"/>
	<path fill="#009BEF" d="M6.867,368.286l32.054,32.054c4.579,4.579,11.447,6.868,16.026,6.868c6.867,0,11.446-2.289,16.025-6.868
		l45.79-45.791c6.869-6.868,20.606-2.289,20.606,9.158v309.087c0,11.448,11.445,22.896,22.896,22.896h45.79
		c11.448,0,22.896-11.447,22.896-22.896V169.095c0-6.868-2.289-11.447-6.868-16.026s-11.448-6.868-16.027-6.868
		c-6.868,0-11.447,2.289-16.024,6.868L6.868,336.231C2.289,340.811,0,345.39,0,352.259C-0.002,359.127,2.288,363.706,6.867,368.286z
		"/>
</g>
</svg>
