<?xml version="1.0" encoding="utf-8"?>
<!-- Generator: Adobe Illustrator 16.0.0, SVG Export Plug-In . SVG Version: 6.00 Build 0)  -->
<!DOCTYPE svg PUBLIC "-//W3C//DTD SVG 1.1//EN" "http://www.w3.org/Graphics/SVG/1.1/DTD/svg11.dtd">
<svg version="1.1" id="Capa_1" xmlns="http://www.w3.org/2000/svg" xmlns:xlink="http://www.w3.org/1999/xlink" x="0px" y="0px"
	 width="477.473px" height="595.279px" viewBox="0 0 477.473 595.279" enable-background="new 0 0 477.473 595.279"
	 xml:space="preserve">
<g>
	<g>
		<path fill="#009BEF" d="M238.612,0C107.076,0,0,107.076,0,238.611c0,14.977,1.373,30.076,4.243,44.803
			c0.125,0.874,0.624,3.495,1.623,7.986c3.618,16.1,8.984,31.948,15.974,47.05c25.708,60.525,82.241,153.499,206.289,253.087
			c3.12,2.495,6.863,3.743,10.606,3.743c3.744,0,7.488-1.248,10.607-3.743c123.924-99.588,180.581-192.562,206.289-253.088
			c6.988-15.101,12.354-30.824,15.974-47.049c0.999-4.492,1.498-7.112,1.623-7.985c2.745-14.728,4.243-29.827,4.243-44.804
			C477.223,107.076,370.148,0,238.612,0z M439.783,277.548c0,0.25-0.125,0.499-0.125,0.749c-0.125,0.624-0.499,2.496-1.123,5.366
			c0,0.125,0,0.125,0,0.25c-3.119,13.977-7.736,27.58-13.853,40.684c-0.125,0.125-0.125,0.374-0.25,0.499
			c-23.337,55.285-74.504,139.646-185.822,231.623C127.293,464.742,76.126,380.381,52.789,325.096
			c-0.124-0.125-0.124-0.374-0.249-0.499c-5.99-12.979-10.607-26.707-13.854-40.684c0-0.125,0-0.125,0-0.25
			c-0.749-2.87-0.998-4.742-1.123-5.366c0-0.25-0.125-0.499-0.125-0.874c-2.496-12.854-3.744-25.833-3.744-38.937
			c0-112.94,91.977-204.917,204.916-204.917c112.941,0,204.916,91.977,204.916,204.917
			C443.528,251.715,442.28,264.819,439.783,277.548z"/>
		<path fill="#009BEF" d="M238.612,89.729c-83.487,0-151.503,68.015-151.503,151.503c0,83.489,68.016,151.503,151.503,151.503
			c83.489,0,151.503-68.014,151.503-151.503C390.115,157.743,322.101,89.729,238.612,89.729z M238.612,359.04
			c-65.019,0-117.808-52.913-117.808-117.809c0-64.895,52.914-117.808,117.808-117.808c64.896,0,117.81,52.914,117.81,117.808
			C356.421,306.126,303.631,359.04,238.612,359.04z"/>
	</g>
</g>
</svg>
