<?xml version="1.0" encoding="utf-8"?>
<!-- Generator: Adobe Illustrator 16.0.0, SVG Export Plug-In . SVG Version: 6.00 Build 0)  -->
<!DOCTYPE svg PUBLIC "-//W3C//DTD SVG 1.1//EN" "http://www.w3.org/Graphics/SVG/1.1/DTD/svg11.dtd">
<svg version="1.1" xmlns="http://www.w3.org/2000/svg" xmlns:xlink="http://www.w3.org/1999/xlink" x="0px" y="0px"
	 width="595.279px" height="841.891px" viewBox="0 0 595.279 841.891" enable-background="new 0 0 595.279 841.891"
	 xml:space="preserve">
<g id="Capa_1">
</g>
<g id="Layer_2">
	<g>
		<g>
			<path fill="#FFFFFF" d="M297.639,710.763c164.114,0,297.64-133.517,297.64-297.64c0-164.124-133.523-297.641-297.64-297.641
				C133.524,115.481-0.001,249-0.001,413.123C-0.001,577.246,133.526,710.763,297.639,710.763z M297.639,152.115
				c143.921,0,261.008,117.087,261.008,261.008c0,143.92-117.087,261.007-261.008,261.007
				c-143.919,0-261.008-117.087-261.008-261.007C36.632,269.201,153.72,152.115,297.639,152.115z"/>
		</g>
	</g>
	<g id="c186_exit_1_">
		<path fill="#FFFFFF" d="M365.43,531.263H206.592V295.171H365.43v28.708c10.777,0,21.098,0,30.599,0V262.78H177.267v300.684
			h218.762v-60.82c-9.538,0-19.836,0-30.599,0V531.263z"/>
		<path fill="#FFFFFF" d="M415.721,406.476c-7.57-7.521-79.582-77.261-79.582-77.261s-9.592-9.653-9.592,3.117
			c0,12.833,0,33.211,0,33.211s-5.551,0-14.043,0c-26.221,0-57.184,0-76.729,0c0,0-4.568-0.165-4.568,5.766
			c0,5.932,0,73.222,0,81.514c0,8.328,5.451,6.864,5.451,6.864c20.101,0,49.387,0,76.515,0c9.489,0,15.66,0,15.66,0
			s0,25.412,0,35.948c0,10.499,9.135,0.833,9.135,0.833l77.111-79.279C415.079,417.189,421.224,411.978,415.721,406.476z"/>
	</g>
</g>
</svg>
