<?xml version="1.0" encoding="utf-8"?>
<!-- Generator: Adobe Illustrator 16.0.0, SVG Export Plug-In . SVG Version: 6.00 Build 0)  -->
<!DOCTYPE svg PUBLIC "-//W3C//DTD SVG 1.1//EN" "http://www.w3.org/Graphics/SVG/1.1/DTD/svg11.dtd">
<svg version="1.1" id="Layer_1" xmlns="http://www.w3.org/2000/svg" xmlns:xlink="http://www.w3.org/1999/xlink" x="0px" y="0px"
	 width="595.279px" height="595.281px" viewBox="0 125.814 595.279 595.281" enable-background="new 0 125.814 595.279 595.281"
	 xml:space="preserve">
<g id="Layer_2">
	<g>
		<path fill="#FFFFFF" d="M164.801,442.85c6.899,0,12.54-2.729,16.921-8.189l9,9.271c-7.142,8.041-15.557,12.06-25.244,12.06
			c-9.69,0-17.671-3.06-23.94-9.18c-6.271-6.12-9.405-13.845-9.405-23.175c0-9.329,3.195-17.114,9.585-23.355
			c6.392-6.238,14.205-9.359,23.445-9.359c10.319,0,18.959,3.931,25.92,11.79l-8.729,9.899c-4.441-5.52-9.961-8.28-16.562-8.28
			c-5.279,0-9.796,1.727-13.545,5.176c-3.75,3.45-5.625,8.1-5.625,13.95s1.771,10.546,5.311,14.084
			C155.47,441.079,159.76,442.85,164.801,442.85z"/>
		<path fill="#FFFFFF" d="M228.881,455.27h-14.04v-24.84l-21.779-38.07h15.21l13.59,23.4l13.59-23.4h15.21l-21.779,38.07
			L228.881,455.27L228.881,455.27z"/>
		<path fill="#FFFFFF" d="M313.751,415.669l-17.011,34.38h-8.37l-16.92-34.38v39.6h-14.04v-62.91h18.99l16.2,34.562l16.29-34.562
			h18.898v62.91h-14.04v-39.6H313.751z"/>
		<path fill="#FFFFFF" d="M394.3,413.24c0,10.08-3.99,16.59-11.971,19.53l15.932,22.5h-17.28l-13.95-20.07h-9.72v20.07h-14.04
			v-62.91h23.85c9.779,0,16.754,1.651,20.926,4.95C392.215,400.61,394.3,405.92,394.3,413.24z M377.38,420.709
			c1.739-1.56,2.609-4.034,2.609-7.425c0-3.389-0.899-5.715-2.7-6.975c-1.8-1.26-4.949-1.89-9.449-1.89H357.31v18.629h10.26
			C372.369,423.049,375.638,422.271,377.38,420.709z"/>
		<path fill="#FFFFFF" d="M425.348,439.024c2.341,2.911,5.49,4.365,9.45,4.365s7.095-1.454,9.404-4.365
			c2.31-2.909,3.466-6.885,3.466-11.925v-34.74h14.039v35.189c0,9.121-2.52,16.126-7.56,21.016
			c-5.04,4.891-11.491,7.335-19.351,7.335c-7.86,0-14.325-2.459-19.396-7.38c-5.071-4.919-7.604-11.91-7.604-20.971v-35.189h14.04
			v34.74C421.84,432.14,423.01,436.115,425.348,439.024z"/>
	</g>
</g>
<g id="Capa_1">
	<g>
		<g>
			<path fill="#FFFFFF" d="M296.921,721.095c164.114,0,297.641-133.518,297.641-297.641S461.038,125.814,296.921,125.814
				C132.804,125.814-0.72,259.332-0.72,423.454C-0.72,587.577,132.806,721.095,296.921,721.095z M296.921,162.448
				c143.922,0,261.009,117.088,261.009,261.008c0,143.921-117.087,261.008-261.009,261.008
				c-143.92,0-261.009-117.087-261.009-261.008C35.913,279.534,153.001,162.448,296.921,162.448z"/>
		</g>
	</g>
</g>
</svg>
