<?xml version="1.0" encoding="utf-8"?>
<!-- Generator: Adobe Illustrator 16.0.0, SVG Export Plug-In . SVG Version: 6.00 Build 0)  -->
<!DOCTYPE svg PUBLIC "-//W3C//DTD SVG 1.1//EN" "http://www.w3.org/Graphics/SVG/1.1/DTD/svg11.dtd">
<svg version="1.1" xmlns="http://www.w3.org/2000/svg" xmlns:xlink="http://www.w3.org/1999/xlink" x="0px" y="0px"
	 width="595.279px" height="841.891px" viewBox="0 0 595.279 841.891" enable-background="new 0 0 595.279 841.891"
	 xml:space="preserve">
<g id="Layer_2">
	<g>
		<path fill="#FFFFFF" d="M164.801,442.85c6.899,0,12.54-2.729,16.92-8.189l9,9.27c-7.141,8.041-15.556,12.06-25.244,12.06
			c-9.69,0-17.671-3.06-23.94-9.18c-6.271-6.12-9.405-13.845-9.405-23.175c0-9.329,3.195-17.114,9.585-23.355
			c6.391-6.239,14.205-9.36,23.445-9.36c10.319,0,18.959,3.931,25.92,11.79l-8.729,9.9c-4.441-5.52-9.961-8.28-16.561-8.28
			c-5.28,0-9.796,1.726-13.545,5.175c-3.75,3.451-5.625,8.1-5.625,13.951c0,5.85,1.77,10.545,5.31,14.084
			C155.47,441.08,159.76,442.85,164.801,442.85z"/>
		<path fill="#FFFFFF" d="M228.881,455.27h-14.04v-24.84l-21.78-38.07h15.21l13.59,23.4l13.59-23.4h15.21l-21.779,38.07V455.27z"/>
		<path fill="#FFFFFF" d="M313.75,415.669l-17.01,34.38h-8.37l-16.92-34.38v39.6h-14.04v-62.91h18.99l16.2,34.561l16.29-34.561
			h18.899v62.91h-14.04V415.669z"/>
		<path fill="#FFFFFF" d="M394.299,413.24c0,10.08-3.99,16.59-11.97,19.53l15.931,22.5h-17.28l-13.95-20.07h-9.72v20.07h-14.04
			v-62.91h23.85c9.779,0,16.754,1.651,20.925,4.95C392.214,400.61,394.299,405.92,394.299,413.24z M377.379,420.709
			c1.74-1.559,2.61-4.034,2.61-7.424c0-3.389-0.9-5.715-2.7-6.975c-1.8-1.26-4.95-1.89-9.45-1.89h-10.529v18.629h10.26
			C372.369,423.049,375.638,422.271,377.379,420.709z"/>
		<path fill="#FFFFFF" d="M425.348,439.024c2.341,2.911,5.49,4.365,9.45,4.365s7.095-1.454,9.405-4.365
			c2.309-2.909,3.465-6.885,3.465-11.925v-34.74h14.04v35.189c0,9.121-2.52,16.126-7.56,21.016
			c-5.04,4.891-11.491,7.335-19.351,7.335c-7.86,0-14.325-2.459-19.395-7.38c-5.071-4.919-7.605-11.91-7.605-20.971v-35.189h14.04
			v34.74C421.839,432.14,423.009,436.115,425.348,439.024z"/>
	</g>
</g>
<g id="Capa_1">
	<g>
		<g>
			<path fill="#FFFFFF" d="M296.921,721.095c164.114,0,297.64-133.517,297.64-297.64c0-164.124-133.523-297.641-297.64-297.641
				S-0.72,259.332-0.72,423.455S132.806,721.095,296.921,721.095z M296.921,162.448c143.921,0,261.008,117.087,261.008,261.008
				c0,143.92-117.087,261.007-261.008,261.007c-143.92,0-261.009-117.087-261.009-261.007
				C35.913,279.534,153.001,162.448,296.921,162.448z"/>
		</g>
	</g>
</g>
</svg>
