<?xml version="1.0" encoding="utf-8"?>
<!-- Generator: Adobe Illustrator 16.0.0, SVG Export Plug-In . SVG Version: 6.00 Build 0)  -->
<!DOCTYPE svg PUBLIC "-//W3C//DTD SVG 1.1//EN" "http://www.w3.org/Graphics/SVG/1.1/DTD/svg11.dtd">
<svg version="1.1" id="Layer_1" xmlns="http://www.w3.org/2000/svg" xmlns:xlink="http://www.w3.org/1999/xlink" x="0px" y="0px"
	 width="573.812px" height="652.936px" viewBox="0 0 573.812 652.936" enable-background="new 0 0 573.812 652.936"
	 xml:space="preserve">
<g id="Capa_1">
	<g>
		<g>
			<path fill="#009BEF" d="M251.014,319.936c0.616,0,1.23,0,1.974,0c0.245,0,0.492,0,0.738,0c0.37,0,0.863,0,1.233,0
				c36.118-0.614,65.334-13.312,86.906-37.598c47.46-53.5,39.568-145.215,38.707-153.967c-3.082-65.704-34.146-97.14-59.787-111.809
				C301.679,5.592,279.367-0.325,254.467-0.819h-0.863c-0.123,0-0.369,0-0.492,0h-0.739c-13.685,0-40.558,2.219-66.318,16.889
				c-25.89,14.669-57.445,46.104-60.525,112.302c-0.863,8.752-8.754,100.466,38.707,153.967
				C185.68,306.622,214.896,319.319,251.014,319.936z M158.437,131.454c0-0.37,0.123-0.74,0.123-0.986
				c4.068-88.386,66.812-97.878,93.688-97.878h0.492c0.247,0,0.616,0,0.985,0c33.283,0.74,89.865,14.3,93.688,97.878
				c0,0.37,0,0.739,0.123,0.986c0.124,0.862,8.753,84.688-30.447,128.818c-15.533,17.504-36.242,26.133-63.485,26.38
				c-0.246,0-0.369,0-0.615,0l0,0c-0.247,0-0.37,0-0.616,0c-27.118-0.247-47.951-8.876-63.36-26.38
				C149.931,216.387,158.313,132.192,158.437,131.454z"/>
			<g>
				<path fill="#009BEF" d="M303.51,558.924c-15.823,1.508-32.597,2.377-50.276,2.377c-118.587,0-197.356-39.322-217.45-50.664
					c-1.974-9.859-2.835-26.996-2.589-38.092c0-0.984,0.122-1.973,0.122-3.08c0.863-28.105,4.068-58.802,32.791-69.034
					c61.39-15.776,110.451-50.048,112.548-51.402c7.521-5.303,9.367-15.655,4.067-23.177c-5.301-7.521-15.656-9.366-23.176-4.066
					c-0.493,0.37-46.476,32.421-102.315,46.599c-0.492,0.123-0.862,0.246-1.231,0.369C2.5,387.121,0.896,444.196,0.157,468.483
					c0,1.107,0,2.096-0.123,3.08c0,0.123,0,0.246,0,0.369c-0.123,6.41-0.246,39.324,6.287,55.846
					c1.231,3.205,3.45,5.916,6.409,7.766c3.698,2.467,92.33,58.924,240.627,58.924c21.868,0,42.43-1.236,61.621-3.344
					C309.91,580.893,306.061,570.102,303.51,558.924z"/>
				<path fill="#009BEF" d="M327.69,349.151c1.599,1.127,30.478,21.228,71.299,37.711c15.188-5.208,31.296-7.928,47.822-7.928
					c9.084,0,18.039,0.829,26.786,2.432c-6.39-5.068-14.054-9.354-23.252-12.491c-0.369-0.124-0.862-0.246-1.232-0.369
					c-55.597-14.178-101.82-46.229-102.313-46.598c-7.521-5.301-17.874-3.452-23.175,4.065
					C318.321,333.494,320.171,343.85,327.69,349.151z"/>
			</g>
		</g>
	</g>
	<g>
		<path fill="#009BEF" d="M446.811,398.936c-70.145,0-127,56.857-127,127c0,70.145,56.855,127,127,127s127-56.863,127-127
			C573.811,455.801,516.955,398.936,446.811,398.936z M499.293,539.684h-38.735v38.734c0,7.59-6.157,13.746-13.746,13.746
			c-7.59,0-13.747-6.156-13.747-13.746v-38.734H394.33c-7.59,0-13.747-6.158-13.747-13.748c0-7.588,6.157-13.746,13.747-13.746
			h38.734v-38.734c0-7.59,6.157-13.746,13.747-13.746c7.589,0,13.746,6.156,13.746,13.746v38.734h38.735
			c7.589,0,13.747,6.158,13.747,13.746C513.04,533.526,506.882,539.684,499.293,539.684z"/>
	</g>
</g>
<g id="Layer_2">
</g>
</svg>
