<?xml version="1.0" encoding="utf-8"?>
<!-- Generator: Adobe Illustrator 16.0.0, SVG Export Plug-In . SVG Version: 6.00 Build 0)  -->
<!DOCTYPE svg PUBLIC "-//W3C//DTD SVG 1.1//EN" "http://www.w3.org/Graphics/SVG/1.1/DTD/svg11.dtd">
<svg version="1.1" id="Capa_1" xmlns="http://www.w3.org/2000/svg" xmlns:xlink="http://www.w3.org/1999/xlink" x="0px" y="0px"
	 width="506.346px" height="595.279px" viewBox="0 0 506.346 595.279" enable-background="new 0 0 506.346 595.279"
	 xml:space="preserve">
<g>
	<g>
		<path fill="#757575" d="M251.015,320.754c0.616,0,1.232,0,1.973,0c0.246,0,0.493,0,0.739,0c0.37,0,0.863,0,1.233,0
			c36.118-0.616,65.333-13.313,86.905-37.599c47.461-53.5,39.57-145.215,38.707-153.967c-3.082-65.704-34.146-97.139-59.787-111.808
			C301.681,6.41,279.368,0.493,254.468,0h-0.863c-0.123,0-0.37,0-0.493,0h-0.738c-13.685,0-40.558,2.219-66.32,16.889
			c-25.888,14.669-57.445,46.104-60.526,112.301c-0.862,8.752-8.753,100.466,38.707,153.967
			C185.681,307.44,214.897,320.138,251.015,320.754z M158.438,132.271c0-0.37,0.123-0.74,0.123-0.985
			c4.068-88.387,66.813-97.879,93.688-97.879h0.492c0.246,0,0.616,0,0.985,0c33.283,0.74,89.866,14.301,93.686,97.879
			c0,0.369,0,0.738,0.123,0.985c0.125,0.863,8.754,84.688-30.446,128.819c-15.533,17.504-36.242,26.133-63.485,26.38
			c-0.246,0-0.37,0-0.616,0l0,0c-0.246,0-0.369,0-0.615,0c-27.12-0.247-47.953-8.876-63.362-26.38
			C149.932,217.206,158.315,133.011,158.438,132.271z"/>
		<path fill="#757575" d="M506.312,472.87c0-0.123,0-0.246,0-0.368c0-0.986-0.123-1.974-0.123-3.082
			c-0.74-24.408-2.342-81.482-55.842-99.728c-0.371-0.124-0.863-0.247-1.234-0.369c-55.596-14.178-101.821-46.229-102.313-46.598
			c-7.521-5.301-17.875-3.452-23.177,4.067c-5.301,7.519-3.45,17.875,4.068,23.176c2.096,1.479,51.158,35.625,112.547,51.403
			c28.724,10.231,31.929,40.927,32.791,69.032c0,1.109,0,2.097,0.123,3.082c0.123,11.094-0.617,28.229-2.59,38.091
			c-19.969,11.342-98.246,50.541-217.328,50.541c-118.587,0-197.357-39.322-217.45-50.664c-1.974-9.861-2.836-26.997-2.59-38.092
			c0-0.984,0.123-1.972,0.123-3.081c0.863-28.105,4.068-58.801,32.791-69.033c61.39-15.777,110.451-50.047,112.547-51.403
			c7.521-5.301,9.368-15.655,4.068-23.175c-5.301-7.521-15.656-9.368-23.176-4.068c-0.493,0.37-46.475,32.421-102.315,46.599
			c-0.493,0.122-0.862,0.245-1.231,0.368C2.5,387.938,0.897,445.012,0.157,469.297c0,1.108,0,2.096-0.123,3.081
			c0,0.124,0,0.246,0,0.369c-0.123,6.41-0.246,39.324,6.286,55.844c1.232,3.205,3.451,5.917,6.41,7.766
			c3.698,2.466,92.33,58.924,240.627,58.924c148.295,0,236.928-56.582,240.625-58.924c2.836-1.849,5.178-4.562,6.41-7.766
			C506.558,512.195,506.435,479.281,506.312,472.87z"/>
	</g>
</g>
</svg>
