<?xml version="1.0" encoding="utf-8"?>
<!-- Generator: Adobe Illustrator 16.0.0, SVG Export Plug-In . SVG Version: 6.00 Build 0)  -->
<!DOCTYPE svg PUBLIC "-//W3C//DTD SVG 1.1//EN" "http://www.w3.org/Graphics/SVG/1.1/DTD/svg11.dtd">
<svg version="1.1" id="Capa_1" xmlns="http://www.w3.org/2000/svg" xmlns:xlink="http://www.w3.org/1999/xlink" x="0px" y="0px"
	 width="595.279px" height="595.281px" viewBox="0 0 595.279 595.281" enable-background="new 0 0 595.279 595.281"
	 xml:space="preserve">
<path d="M566.923,28.347c-37.818-37.798-99.328-37.798-137.146,0L41.234,416.89c-0.185,0.184-0.291,0.409-0.453,0.604
	c-0.226,0.26-0.42,0.538-0.625,0.818c-0.57,0.798-1.013,1.648-1.347,2.575c-0.098,0.28-0.237,0.528-0.312,0.809
	c-0.032,0.107-0.097,0.215-0.129,0.323L0.281,582.017c-0.173,0.722-0.216,1.454-0.237,2.177c0,0.141-0.043,0.27-0.043,0.409
	c0.012,1.229,0.28,2.424,0.7,3.577c0.097,0.27,0.205,0.506,0.323,0.765c0.526,1.153,1.185,2.264,2.11,3.189
	c1.023,1.022,2.23,1.81,3.534,2.349c1.305,0.539,2.693,0.809,4.084,0.809c0.829,0,1.67-0.098,2.488-0.29l159.999-38.088
	c0.29-0.064,0.549-0.227,0.829-0.323c0.366-0.118,0.711-0.258,1.065-0.42c0.776-0.355,1.498-0.797,2.166-1.325
	c0.26-0.205,0.528-0.355,0.775-0.582c0.087-0.086,0.194-0.129,0.28-0.215L566.91,165.493
	C604.729,127.677,604.729,66.154,566.923,28.347z M551.687,43.582c26.807,26.817,29.091,68.924,7.004,98.445L453.242,36.579
	C482.775,14.492,524.882,16.775,551.687,43.582z M498.355,203.581L391.689,96.915l15.235-15.233L513.59,188.346L498.355,203.581z
	 M53.451,541.818c-4.213-4.213-11.021-4.213-15.235,0l-8.154,8.156l27.517-115.587l47.646-5.29l-6.132,55.187
	c-0.043,0.409,0.108,0.786,0.108,1.186c0,0.41-0.151,0.775-0.108,1.186c0.044,0.355,0.228,0.646,0.303,0.991
	c0.13,0.625,0.312,1.196,0.539,1.777c0.279,0.699,0.613,1.336,1.022,1.949c0.334,0.496,0.668,0.938,1.077,1.369
	c0.518,0.549,1.077,1.014,1.691,1.443c0.484,0.334,0.947,0.646,1.486,0.905c0.711,0.334,1.454,0.526,2.23,0.711
	c0.409,0.097,0.743,0.322,1.163,0.377c0.388,0.043,0.775,0.063,1.175,0.063h0.011h0.012h0.011h0.011
	c0.388,0,0.786-0.021,1.175-0.063l55.187-6.131l-5.29,47.645l-115.6,27.519l8.156-8.156
	C57.654,552.851,57.654,546.031,53.451,541.818z M188.669,482.786l241.106-241.118c4.213-4.213,4.213-11.021,0-15.234
	c-4.213-4.212-11.021-4.212-15.233,0L173.434,467.552l-51.427,5.71l5.712-51.426l241.128-241.107c4.213-4.213,4.213-11.022,0-15.235
	c-4.212-4.212-11.021-4.212-15.234,0L112.484,406.601l-34.295,3.812L376.454,112.15l106.665,106.665L184.855,517.081
	L188.669,482.786z M528.824,173.111L422.158,66.445L437.405,51.2L544.07,157.865L528.824,173.111z"/>
</svg>
