<?xml version="1.0" encoding="utf-8"?>
<!-- Generator: Adobe Illustrator 16.0.0, SVG Export Plug-In . SVG Version: 6.00 Build 0)  -->
<!DOCTYPE svg PUBLIC "-//W3C//DTD SVG 1.1//EN" "http://www.w3.org/Graphics/SVG/1.1/DTD/svg11.dtd">
<svg version="1.1" id="Capa_1" xmlns="http://www.w3.org/2000/svg" xmlns:xlink="http://www.w3.org/1999/xlink" x="0px" y="0px"
	 width="583.131px" height="595.281px" viewBox="0 0 583.131 595.281" enable-background="new 0 0 583.131 595.281"
	 xml:space="preserve">
<g>
	<path fill="#757575" d="M478.823,0h-29.326h-340.16H0v595.281h85.04h400.902h97.188V104.307L478.823,0z M425.2,24.298v170.08
		H133.634V24.298H425.2z M109.337,570.983V340.16h352.309v230.823H109.337z M558.834,570.983h-72.892v-255.12H85.04v255.12H24.297
		V24.298h85.04v194.377h340.16V24.298h19.268l90.069,90.069V570.983z"/>
	<path fill="#757575" d="M157.932,400.903h85.04c6.718,0,12.148-5.431,12.148-12.148c0-6.719-5.431-12.148-12.148-12.148h-85.04
		c-6.719,0-12.148,5.43-12.148,12.148C145.783,395.472,151.213,400.903,157.932,400.903z"/>
	<path fill="#757575" d="M279.417,425.201H157.932c-6.719,0-12.148,5.43-12.148,12.148c0,6.718,5.43,12.148,12.148,12.148h121.485
		c6.718,0,12.148-5.431,12.148-12.148C291.566,430.631,286.135,425.201,279.417,425.201z"/>
	<path fill="#757575" d="M307.238,428.723c-2.199,2.296-3.523,5.467-3.523,8.626c0,3.158,1.324,6.316,3.523,8.625
		c2.296,2.187,5.333,3.523,8.625,3.523c3.159,0,6.317-1.337,8.626-3.523c2.187-2.309,3.522-5.467,3.522-8.625
		c0-3.159-1.336-6.33-3.522-8.626C319.993,424.228,311.733,424.228,307.238,428.723z"/>
	<path fill="#757575" d="M400.903,48.594h-72.892V170.08h72.892V48.594z M376.606,145.783h-24.297V72.891h24.297V145.783z"/>
</g>
</svg>
