<?xml version="1.0" encoding="utf-8"?>
<!-- Generator: Adobe Illustrator 16.0.0, SVG Export Plug-In . SVG Version: 6.00 Build 0)  -->
<!DOCTYPE svg PUBLIC "-//W3C//DTD SVG 1.1//EN" "http://www.w3.org/Graphics/SVG/1.1/DTD/svg11.dtd">
<svg version="1.1" id="Layer_1" xmlns="http://www.w3.org/2000/svg" xmlns:xlink="http://www.w3.org/1999/xlink" x="0px" y="0px"
	 width="595.279px" height="595.281px" viewBox="0 0 595.279 595.281" enable-background="new 0 0 595.279 595.281"
	 xml:space="preserve">
<g>
	<g>
		<path fill="#FFFFFF" d="M589.177,0.769c-3.71-1.538-7.986-0.714-10.834,2.144l-32.671,32.671L513.001,2.913
			c-3.879-3.879-10.147-3.879-14.027,0l-32.671,32.671L433.632,2.913c-3.879-3.879-10.148-3.879-14.028,0l-32.671,32.671
			L354.26,2.913c-3.879-3.879-10.149-3.879-14.029,0L307.56,35.584L274.89,2.913c-2.85-2.837-7.113-3.701-10.814-2.151
			c-3.7,1.525-6.121,5.147-6.121,9.167c0,215.311-17.568,338.771-53.675,377.007H9.926c-2.865,0-5.597,1.238-7.479,3.401
			c-1.885,2.175-2.738,5.04-2.352,7.879c13.344,96.346,39.068,195.101,128.888,197.063h317.479c0.028,0,0.067,0,0.107,0
			c135.78-1.052,148.152-448.27,148.708-585.311C595.299,5.939,592.886,2.308,589.177,0.769z M129.198,575.437
			c-57.612-1.25-90.125-51.858-107.813-168.66h186.938c0.01-0.011,0.039-0.011,0.059,0h110.416
			c9.979,68.188,26.926,136.109,69.158,168.66H129.198z M446.678,575.437c-0.011,0-0.021,0-0.03,0
			c-59.409-1.309-92.129-55.132-109.411-179.941c-0.686-4.91-4.872-8.562-9.832-8.562h-98.358
			c31.856-50.589,47.483-164.523,48.685-353.138l22.816,22.829c3.879,3.879,10.148,3.879,14.028,0l32.671-32.671l32.673,32.671
			c3.879,3.879,10.147,3.879,14.027,0l32.671-32.671l32.671,32.671c3.878,3.879,10.148,3.879,14.028,0l32.671-32.671l32.671,32.671
			c3.879,3.879,10.148,3.879,14.028,0l22.552-22.551C571.943,306.979,531.444,574.813,446.678,575.437z"/>
	</g>
</g>
<g>
	<g>
		<path fill="#FFFFFF" d="M525.829,99.219H317.484c-5.477,0-9.921,4.442-9.921,9.921c0,5.476,4.444,9.921,9.921,9.921H525.83
			c5.479,0,9.923-4.445,9.923-9.921C535.751,103.663,531.306,99.219,525.829,99.219z"/>
	</g>
</g>
<g>
	<g>
		<path fill="#FFFFFF" d="M525.829,148.825H317.484c-5.477,0-9.921,4.444-9.921,9.921c0,5.478,4.444,9.921,9.921,9.921H525.83
			c5.479,0,9.923-4.443,9.923-9.921C535.751,153.269,531.306,148.825,525.829,148.825z"/>
	</g>
</g>
<g>
	<g>
		<path fill="#FFFFFF" d="M525.829,198.43H317.484c-5.477,0-9.921,4.443-9.921,9.921c0,5.477,4.444,9.921,9.921,9.921H525.83
			c5.479,0,9.923-4.444,9.923-9.921C535.751,202.876,531.306,198.43,525.829,198.43z"/>
	</g>
</g>
</svg>
