<?xml version="1.0" encoding="utf-8"?>
<!-- Generator: Adobe Illustrator 16.0.0, SVG Export Plug-In . SVG Version: 6.00 Build 0)  -->
<!DOCTYPE svg PUBLIC "-//W3C//DTD SVG 1.1//EN" "http://www.w3.org/Graphics/SVG/1.1/DTD/svg11.dtd">
<svg version="1.1" id="Capa_1" xmlns="http://www.w3.org/2000/svg" xmlns:xlink="http://www.w3.org/1999/xlink" x="0px" y="0px"
	 width="595.279px" height="841.891px" viewBox="0 0 595.279 841.891" enable-background="new 0 0 595.279 841.891"
	 xml:space="preserve">
<g>
	<path fill="#FFFFFF" d="M518.786,562.721c-1.796,1.875-2.877,4.465-2.877,7.045c0,2.579,0.992,5.158,2.877,7.044
		c1.875,1.785,4.465,2.877,7.044,2.877c2.58,0,5.159-1.092,7.045-2.877c1.785-1.886,2.877-4.465,2.877-7.044
		c0-2.58-1.092-5.17-2.877-7.045C529.204,559.149,522.557,559.05,518.786,562.721z"/>
	<path fill="#FFFFFF" d="M234.521,542.61l-36.094-18.434v-3.84c16.151-8.82,27.512-23.354,33.852-43.307
		c9.613-5.09,15.755-15.011,15.755-26.143v-9.921c0-9.197-4.276-17.72-11.42-23.315c-6.19-37.503-32.363-56.512-77.872-56.512
		c-2.153,0-4.256,0.089-6.31,0.248c-8.582,0.665-21.123-0.03-31.987-7.352c-4.067-2.738-7.133-5.397-9.098-7.897
		c-3.333-4.247-8.938-5.725-13.899-3.661c-4.971,2.044-7.897,7.024-7.272,12.382c0.417,3.691,1.042,8.017,1.984,12.749
		c1.915,9.673,1.915,9.673-0.774,15.458c-1.012,2.192-2.262,4.861-3.73,8.463c-3.283,8.036-5.615,16.837-6.954,26.252
		c-7.044,5.596-11.251,14.078-11.251,23.187v9.921c0,11.132,6.142,21.053,15.755,26.152c6.34,19.962,17.7,34.497,33.852,43.307v3.73
		l-37.403,18.424c-13.651,7.451-22.125,21.738-22.125,37.295v13.136c0,7.967,0,26.619,99.214,26.619
		c99.213,0,99.213-18.652,99.213-26.619V580.59C257.954,564.418,248.976,549.863,234.521,542.61z M238.113,590.689
		c-6.182,3.76-31.361,9.009-79.371,9.009s-73.189-5.249-79.371-9.009v-10.903c0-8.285,4.524-15.904,11.42-19.675l38.276-18.851
		c5.973-2.916,9.832-9.098,9.832-15.755v-17.897l-5.992-2.59c-15.051-6.469-24.833-18.841-29.913-37.84l-1.419-5.278l-5.219-1.627
		c-4.156-1.29-7.063-5.159-7.063-9.386v-9.921c0-3.602,2.054-6.936,5.367-8.701l4.653-2.48l0.546-5.238
		c0.981-9.316,3.056-17.898,6.171-25.498c1.319-3.225,2.44-5.635,3.354-7.61c3.363-7.232,4.583-10.963,3.74-18.612
		c11.657,6.667,25.666,9.515,40.896,8.354c1.538-0.129,3.115-0.198,4.732-0.198c37.146,0,55.282,13.453,58.823,43.644l0.615,5.188
		l4.624,2.431c3.313,1.757,5.377,5.09,5.377,8.722v9.921c0,4.236-2.907,8.096-7.063,9.386l-5.219,1.627l-1.419,5.278
		c-5.08,18.999-14.862,31.371-29.913,37.84l-5.992,2.59v17.978c0,6.607,3.661,12.6,9.564,15.626l37.383,19.088l0.069,0.04
		c7.72,3.859,12.512,11.628,12.512,20.249V590.689z"/>
	<path fill="#FFFFFF" d="M307.561,411.202h99.214c5.486,0,9.921-4.435,9.921-9.921c0-5.487-4.435-9.921-9.921-9.921h-99.214
		c-5.485,0-9.921,4.435-9.921,9.921C297.64,406.768,302.075,411.202,307.561,411.202z"/>
	<path fill="#FFFFFF" d="M317.483,560.022h-9.922c-5.485,0-9.921,4.435-9.921,9.921c0,5.487,4.436,9.922,9.921,9.922h9.922
		c5.486,0,9.921-4.435,9.921-9.922C327.404,564.457,322.969,560.022,317.483,560.022z"/>
	<path fill="#FFFFFF" d="M377.011,560.022h-19.843c-5.486,0-9.922,4.435-9.922,9.921c0,5.487,4.436,9.922,9.922,9.922h19.843
		c5.486,0,9.921-4.435,9.921-9.922C386.932,564.457,382.497,560.022,377.011,560.022z"/>
	<path fill="#FFFFFF" d="M426.617,560.022h-9.922c-5.486,0-9.921,4.435-9.921,9.921c0,5.487,4.435,9.922,9.921,9.922h9.922
		c5.486,0,9.921-4.435,9.921-9.922C436.538,564.457,432.104,560.022,426.617,560.022z"/>
	<path fill="#FFFFFF" d="M486.146,560.022h-19.843c-5.487,0-9.922,4.435-9.922,9.921c0,5.487,4.435,9.922,9.922,9.922h19.843
		c5.486,0,9.921-4.435,9.921-9.922C496.067,564.457,491.632,560.022,486.146,560.022z"/>
	<path fill="#FFFFFF" d="M525.83,450.888h-218.27c-5.485,0-9.921,4.435-9.921,9.921c0,5.487,4.436,9.922,9.921,9.922h218.27
		c5.487,0,9.922-4.435,9.922-9.922C535.752,455.322,531.318,450.888,525.83,450.888z"/>
	<path fill="#FFFFFF" d="M525.83,510.416h-218.27c-5.485,0-9.921,4.435-9.921,9.921s4.436,9.922,9.921,9.922h218.27
		c5.487,0,9.922-4.436,9.922-9.922S531.318,510.416,525.83,510.416z"/>
	<path fill="#FFFFFF" d="M548.868,262.204H367.089v-76.265c0-12.66-10.288-22.948-22.948-22.948h-93.012
		c-12.65,0-22.938,10.289-22.938,22.948v76.265H46.412C20.824,262.204,0,283.028,0,308.616v323.882
		c0,25.577,20.824,46.401,46.412,46.401h502.466c25.577,0,46.401-20.824,46.401-46.411V308.616
		C595.28,283.028,574.455,262.204,548.868,262.204z M248.033,185.938c0-1.707,1.398-3.105,3.096-3.105h93.012
		c1.707,0,3.105,1.399,3.105,3.105v76.265v56.433c0,1.697-1.398,3.095-3.105,3.095h-93.012c-1.697,0-3.096-1.398-3.096-3.095
		v-56.433V185.938z M575.438,632.488c0,14.653-11.916,26.569-26.569,26.569H46.412c-14.654,0-26.569-11.916-26.569-26.569V308.616
		c0-14.654,11.915-26.569,26.569-26.569h181.778v36.59c0,12.65,10.288,22.938,22.938,22.938h93.012
		c12.66,0,22.948-10.288,22.948-22.938v-36.59h181.779c14.653,0,26.569,11.916,26.569,26.569V632.488z"/>
	<path fill="#FFFFFF" d="M297.64,272.125c21.887,0,39.686-17.799,39.686-39.686c0-21.886-17.799-39.685-39.686-39.685
		s-39.686,17.799-39.686,39.685C257.954,254.326,275.753,272.125,297.64,272.125z M297.64,212.597
		c10.943,0,19.843,8.899,19.843,19.842c0,10.943-8.899,19.843-19.843,19.843s-19.843-8.899-19.843-19.843
		C277.797,221.497,286.697,212.597,297.64,212.597z"/>
</g>
</svg>
