<?xml version="1.0" encoding="utf-8"?>
<!-- Generator: Adobe Illustrator 16.0.0, SVG Export Plug-In . SVG Version: 6.00 Build 0)  -->
<!DOCTYPE svg PUBLIC "-//W3C//DTD SVG 1.1//EN" "http://www.w3.org/Graphics/SVG/1.1/DTD/svg11.dtd">
<svg version="1.1" id="Capa_1" xmlns="http://www.w3.org/2000/svg" xmlns:xlink="http://www.w3.org/1999/xlink" x="0px" y="0px"
	 width="595.279px" height="595.28px" viewBox="0 123.305 595.279 595.28" enable-background="new 0 123.305 595.279 595.28"
	 xml:space="preserve">
<g>
	<path fill="#FFFFFF" d="M570.378,391.181h-34.625v-62.187c0-14.941-12.164-27.105-27.105-27.105h-32.423v-23.95l-4.911-4.911
		c-0.01,0-0.01-0.01-0.01-0.02l-72.387-72.386l-77.326-77.317H79.37V232.44H27.105C12.163,232.439,0,244.603,0,259.545v433.434H0.06
		c-0.051,5.586,1.687,11.052,5.179,15.626c4.861,6.35,12.223,9.98,20.21,9.98h444.068c11.47,0,21.569-7.729,24.308-17.987
		L595.28,422.424v-1.757C595.28,403.583,584.803,391.181,570.378,391.181z M508.647,321.731c3.998,0,7.263,3.254,7.263,7.264v62.187
		h-39.686v-69.45H508.647L508.647,321.731z M327.404,157.187l114.949,114.938H327.404V157.187z M99.213,143.147h208.349v148.82
		h148.82v9.921v89.292H126.309c-1.419,0-2.818,0.119-4.188,0.347c-9.663,1.607-17.719,8.651-20.12,17.641l-2.788,7.659V232.439
		V143.147z M19.843,259.545c0-4.008,3.265-7.263,7.263-7.263H79.37v218.616L19.843,633.252V259.545z M474.925,694.605
		c-0.654,2.431-2.877,4.137-5.407,4.137H25.448c-2.411,0-3.82-1.379-4.445-2.202c-0.625-0.812-1.587-2.54-1.22-4.048L79.37,529.067
		v0.05l41.273-113.143l0.258-0.813c0.654-2.431,2.887-4.138,5.407-4.138h330.072h19.843h59.527h34.625
		c3.771,0,4.732,5.417,4.98,8.126L474.925,694.605z"/>
	<path fill="#FFFFFF" d="M158.741,291.968h99.213c5.478,0,9.922-4.435,9.922-9.921c0-5.487-4.444-9.921-9.922-9.921h-99.213
		c-5.477,0-9.922,4.435-9.922,9.921C148.82,287.533,153.265,291.968,158.741,291.968z"/>
	<path fill="#FFFFFF" d="M158.741,222.519h99.213c5.478,0,9.922-4.435,9.922-9.921c0-5.487-4.444-9.921-9.922-9.921h-99.213
		c-5.477,0-9.922,4.435-9.922,9.921C148.82,218.083,153.265,222.519,158.741,222.519z"/>
	<path fill="#FFFFFF" d="M158.741,361.417h238.112c5.477,0,9.921-4.436,9.921-9.921c0-5.486-4.444-9.921-9.921-9.921H158.741
		c-5.477,0-9.922,4.435-9.922,9.921C148.82,356.982,153.265,361.417,158.741,361.417z"/>
</g>
</svg>
