<?xml version="1.0" encoding="utf-8"?>
<!-- Generator: Adobe Illustrator 16.0.0, SVG Export Plug-In . SVG Version: 6.00 Build 0)  -->
<!DOCTYPE svg PUBLIC "-//W3C//DTD SVG 1.1//EN" "http://www.w3.org/Graphics/SVG/1.1/DTD/svg11.dtd">
<svg version="1.1" id="Capa_1" xmlns="http://www.w3.org/2000/svg" xmlns:xlink="http://www.w3.org/1999/xlink" x="0px" y="0px"
	 width="573.812px" height="653.957px" viewBox="0 0 573.812 653.957" enable-background="new 0 0 573.812 653.957"
	 xml:space="preserve">
<g id="Capa_1_1_">
	<g>
		<path fill="#FFFFFF" d="M446.812,399.957c-70.145,0-127,56.855-127,127s56.855,127,127,127s127-56.863,127-127
			C573.812,456.822,516.955,399.957,446.812,399.957z M499.293,540.703h-38.735v38.734c0,7.59-6.157,13.748-13.746,13.748
			c-7.59,0-13.747-6.158-13.747-13.748v-38.734H394.33c-7.59,0-13.747-6.156-13.747-13.746s6.157-13.746,13.747-13.746h38.734
			v-38.736c0-7.588,6.157-13.746,13.747-13.746c7.589,0,13.746,6.158,13.746,13.746v38.736h38.735
			c7.589,0,13.747,6.156,13.747,13.746C513.04,534.545,506.882,540.703,499.293,540.703z"/>
	</g>
</g>
<path fill="#FFFFFF" d="M304.656,561.767c-12.896,7.621-27.627,11.865-42.916,11.865c-27.404,0-53.012-13.615-69.453-35.877
	c24.19,2.488,46.768,3.744,69.334,3.744c13.047,0,26.104-0.432,39.464-1.266c-0.394-4.375-0.605-8.801-0.605-13.277
	c0-2.846,0.09-5.67,0.25-8.475c-5.186,0.328-10.328,0.602-15.438,0.797c-1.168,0.043-2.338,0.107-3.507,0.141
	c-13.464,0.455-26.744,0.455-40.197,0.012c-1.191-0.045-2.403-0.098-3.594-0.152c-5.606-0.217-11.256-0.51-16.96-0.887
	c-1.342-0.088-2.685-0.174-4.037-0.271c-6.494-0.465-13.063-1.018-19.785-1.678c-0.239-0.021-0.465-0.043-0.693-0.064
	c-7.49-0.748-15.142-1.623-23.011-2.619c-0.032,0-0.064,0-0.097,0c-18.054-2.283-37.156-5.217-58.024-8.811L32.47,490.621
	c43.109-49.291,64.939-108.645,64.939-176.746v-97.344c0.368-58.825,42.081-104.305,83.242-123.288
	c12.241-5.64,24.937-9.85,37.85-12.805c0.107-0.021,0.227-0.011,0.335-0.032c26.669-5.996,55.058-6.267,82.04-0.735
	c0.141,0.032,0.281-0.033,0.422-0.012c14.114,2.945,28.011,7.403,41.399,13.519c39.927,18.259,80.049,63.435,79.67,123.299v97.41
	c0,23.182,2.982,45.781,8.814,67.568c5.136-0.545,10.35-0.832,15.63-0.832c2.162,0,4.311,0.057,6.449,0.15
	c-6.143-21.344-9.236-43.664-9.236-66.898v-97.344c0.466-74.216-49.44-123.44-92.322-143.041
	c-12.284-5.617-24.947-9.946-37.816-13.161v-6.213C313.886,24.277,289.61,0,259.77,0s-54.116,24.277-54.116,54.116v7.154
	c-11.592,3.128-22.988,7.208-34.05,12.317c-47.396,21.841-95.407,74.486-95.841,142.878v97.41
	c0,69.139-24.417,128.463-72.569,176.322c-2.868,2.857-3.907,7.068-2.695,10.932c1.212,3.865,4.491,6.721,8.485,7.414
	l102.724,17.738c19.136,3.303,36.756,6.008,53.521,8.236c18.897,37.018,55.988,60.764,96.511,60.764
	c17.629,0,34.607-4.5,49.721-12.629C308.691,575.927,306.408,568.951,304.656,561.767z M227.289,54.116
	c0-17.901,14.568-32.47,32.47-32.47s32.47,14.568,32.47,32.47v1.97c-21.571-3.096-43.455-2.965-64.939,0.508V54.116z"/>
<path fill="#FFFFFF" d="M329.212,122.715c-41.94-19.168-93.297-19.189-134.956,0.021c-23.757,10.953-64.052,43.001-64.376,93.664
	c-0.033,5.975,4.772,10.846,10.758,10.889c0.021,0,0.043,0,0.065,0c5.941,0,10.79-4.795,10.823-10.758
	c0.249-39.798,32.675-65.319,51.789-74.139c36.053-16.636,80.59-16.593,116.88,0c5.434,2.489,11.862,0.097,14.353-5.336
	C337.037,131.611,334.645,125.193,329.212,122.715z"/>
</svg>
