<?xml version="1.0" encoding="utf-8"?>
<!-- Generator: Adobe Illustrator 16.0.0, SVG Export Plug-In . SVG Version: 6.00 Build 0)  -->
<!DOCTYPE svg PUBLIC "-//W3C//DTD SVG 1.1//EN" "http://www.w3.org/Graphics/SVG/1.1/DTD/svg11.dtd">
<svg version="1.1" id="Capa_1" xmlns="http://www.w3.org/2000/svg" xmlns:xlink="http://www.w3.org/1999/xlink" x="0px" y="0px"
	 width="506.346px" height="595.217px" viewBox="44.469 123.304 506.346 595.217"
	 enable-background="new 44.469 123.304 506.346 595.217" xml:space="preserve">
<g>
	<g>
		<path fill="#FFFFFF" d="M295.483,444.059c0.616,0,1.231,0,1.973,0c0.246,0,0.493,0,0.739,0c0.37,0,0.863,0,1.233,0
			c36.118-0.615,65.334-13.312,86.906-37.598c47.46-53.5,39.569-145.215,38.707-153.967c-3.082-65.704-34.146-97.139-59.787-111.808
			c-19.106-10.972-41.419-16.889-66.319-17.382h-0.863c-0.123,0-0.37,0-0.493,0h-0.739c-13.684,0-40.557,2.219-66.319,16.889
			c-25.889,14.669-57.445,46.104-60.526,112.301c-0.863,8.752-8.753,100.466,38.707,153.967
			C230.149,430.745,259.365,443.442,295.483,444.059z M202.906,255.576c0-0.37,0.123-0.74,0.123-0.986
			c4.068-88.386,66.812-97.878,93.688-97.878h0.492c0.247,0,0.617,0,0.986,0c33.283,0.74,89.865,14.3,93.688,97.878
			c0,0.37,0,0.739,0.123,0.986c0.124,0.863,8.753,84.688-30.447,128.819c-15.533,17.504-36.242,26.133-63.485,26.38
			c-0.246,0-0.37,0-0.616,0l0,0c-0.247,0-0.37,0-0.616,0c-27.119-0.247-47.952-8.876-63.361-26.38
			C194.4,340.51,202.782,256.315,202.906,255.576z"/>
		<path fill="#FFFFFF" d="M550.779,596.176c0-0.123,0-0.246,0-0.369c0-0.985-0.123-1.973-0.123-3.082
			c-0.739-24.407-2.342-81.481-55.842-99.727c-0.37-0.124-0.863-0.247-1.233-0.37c-55.596-14.177-101.821-46.228-102.314-46.597
			c-7.521-5.301-17.874-3.452-23.175,4.066c-5.302,7.52-3.452,17.875,4.066,23.177c2.097,1.479,51.158,35.625,112.548,51.403
			c28.723,10.231,31.928,40.927,32.79,69.032c0,1.109,0,2.096,0.123,3.082c0.124,11.094-0.616,28.229-2.589,38.091
			c-19.97,11.341-98.247,50.541-217.328,50.541c-118.587,0-197.358-39.323-217.451-50.664c-1.973-9.861-2.835-26.997-2.589-38.092
			c0-0.985,0.123-1.972,0.123-3.081c0.863-28.105,4.068-58.801,32.791-69.033c61.389-15.777,110.451-50.048,112.547-51.403
			c7.521-5.302,9.368-15.655,4.068-23.176c-5.301-7.52-15.656-9.367-23.176-4.067c-0.493,0.37-46.475,32.421-102.315,46.598
			c-0.493,0.123-0.863,0.246-1.232,0.369c-53.5,18.368-55.103,75.442-55.843,99.728c0,1.109,0,2.097-0.123,3.081
			c0,0.124,0,0.247,0,0.37c-0.123,6.41-0.246,39.324,6.287,55.844c1.232,3.205,3.451,5.917,6.41,7.766
			c3.698,2.466,92.33,58.924,240.627,58.924c148.296,0,236.929-56.582,240.626-58.924c2.836-1.849,5.179-4.562,6.41-7.766
			C551.026,635.5,550.903,602.586,550.779,596.176z"/>
	</g>
</g>
</svg>
