<?xml version="1.0" encoding="utf-8"?>
<!-- Generator: Adobe Illustrator 16.0.0, SVG Export Plug-In . SVG Version: 6.00 Build 0)  -->
<!DOCTYPE svg PUBLIC "-//W3C//DTD SVG 1.1//EN" "http://www.w3.org/Graphics/SVG/1.1/DTD/svg11.dtd">
<svg version="1.1" id="Capa_1" xmlns="http://www.w3.org/2000/svg" xmlns:xlink="http://www.w3.org/1999/xlink" x="0px" y="0px"
	 width="400px" height="400px" viewBox="0 0 400 400" enable-background="new 0 0 400 400" xml:space="preserve">
<g>
	<g>
		<path fill="#2F3140" d="M265.473,134.529c-5.123-5.123-13.422-5.123-18.545,0L200,181.454l-46.931-46.925
			c-5.12-5.123-13.424-5.123-18.547,0c-5.123,5.12-5.123,13.426,0,18.546L181.447,200l-46.928,46.926
			c-5.123,5.119-5.123,13.422,0,18.547c2.562,2.562,5.918,3.842,9.273,3.842c3.354,0,6.711-1.277,9.271-3.842L200,218.543
			l46.928,46.932c2.562,2.562,5.916,3.842,9.271,3.842c3.354,0,6.711-1.276,9.271-3.842c5.123-5.119,5.123-13.426,0-18.545
			L218.545,200l46.928-46.925C270.596,147.955,270.596,139.652,265.473,134.529z"/>
	</g>
</g>
</svg>
