<?xml version="1.0" encoding="utf-8"?>
<!-- Generator: Adobe Illustrator 16.0.0, SVG Export Plug-In . SVG Version: 6.00 Build 0)  -->
<!DOCTYPE svg PUBLIC "-//W3C//DTD SVG 1.1//EN" "http://www.w3.org/Graphics/SVG/1.1/DTD/svg11.dtd">
<svg version="1.1" xmlns="http://www.w3.org/2000/svg" xmlns:xlink="http://www.w3.org/1999/xlink" x="0px" y="0px" width="30px"
	 height="30px" viewBox="0 0 30 30" enable-background="new 0 0 30 30" xml:space="preserve">
<g id="Layer_2">
</g>
<g id="Layer_1">
	<g>
		<path fill-rule="evenodd" clip-rule="evenodd" fill="#FFFFFF" d="M19.814,9.774l-1.62-1.62v1.58c0,0.022,0.018,0.04,0.04,0.04
			H19.814z"/>
		<path fill-rule="evenodd" clip-rule="evenodd" fill="#FFFFFF" d="M15,0.008c-8.284,0-15,6.716-15,15c0,8.284,6.716,15,15,15
			s15-6.717,15-15C30,6.724,23.284,0.008,15,0.008z M21.119,22.364c0,0.443-0.361,0.804-0.805,0.804H9.686
			c-0.443,0-0.805-0.361-0.805-0.804V7.653c0-0.443,0.361-0.804,0.805-0.804h8.125c0.105,0,0.201,0.042,0.27,0.111c0,0,0,0,0,0
			l2.925,2.925c0.072,0.072,0.11,0.168,0.111,0.266c0,0.001,0.001,0.002,0.001,0.004V22.364z"/>
		<path fill-rule="evenodd" clip-rule="evenodd" fill="#FFFFFF" d="M17.43,9.734V7.613H9.686c-0.022,0-0.04,0.019-0.04,0.041v14.711
			c0,0.022,0.018,0.041,0.04,0.041h10.628c0.022,0,0.04-0.019,0.04-0.041V10.538h-2.12C17.791,10.538,17.43,10.177,17.43,9.734z
			 M15,19.758h-3.382c-0.21,0-0.382-0.171-0.382-0.382c0-0.211,0.171-0.382,0.382-0.382H15c0.211,0,0.382,0.171,0.382,0.382
			C15.382,19.587,15.211,19.758,15,19.758z M18.382,17.453h-6.764c-0.21,0-0.382-0.171-0.382-0.382c0-0.211,0.171-0.382,0.382-0.382
			h6.764c0.21,0,0.382,0.171,0.382,0.382C18.764,17.281,18.592,17.453,18.382,17.453z M18.382,15.146h-6.764
			c-0.21,0-0.382-0.171-0.382-0.382s0.171-0.382,0.382-0.382h6.764c0.21,0,0.382,0.171,0.382,0.382S18.592,15.146,18.382,15.146z
			 M18.764,12.459c0,0.211-0.171,0.382-0.382,0.382h-6.764c-0.21,0-0.382-0.171-0.382-0.382c0-0.211,0.171-0.382,0.382-0.382h6.764
			C18.592,12.077,18.764,12.248,18.764,12.459z"/>
	</g>
</g>
</svg>
