<?xml version="1.0" encoding="utf-8"?>
<!-- Generator: Adobe Illustrator 16.0.0, SVG Export Plug-In . SVG Version: 6.00 Build 0)  -->
<!DOCTYPE svg PUBLIC "-//W3C//DTD SVG 1.1//EN" "http://www.w3.org/Graphics/SVG/1.1/DTD/svg11.dtd">
<svg version="1.1" id="Capa_1" xmlns="http://www.w3.org/2000/svg" xmlns:xlink="http://www.w3.org/1999/xlink" x="0px" y="0px"
	 width="595.279px" height="578.754px" viewBox="0 0 595.279 578.754" enable-background="new 0 0 595.279 578.754"
	 xml:space="preserve">
<path fill="#009BEF" d="M450.77,302.848c6.337-6.336,6.337-16.312,0-22.648c-6.122-6.336-16.312-6.336-22.42,0L313.509,394.827
	V16.083C313.509,7.249,306.489,0,297.655,0s-16.084,7.249-16.084,16.083v378.744L166.959,280.2c-6.337-6.336-16.541-6.336-22.648,0
	c-6.337,6.337-6.337,16.312,0,22.648l142.026,142.027c6.122,6.122,16.312,6.122,22.648,0L450.77,302.848z M563.341,406.829
	c0-8.834,7.021-15.855,15.855-15.855s16.083,7.021,16.083,15.855V562.67c0,8.834-7.249,16.084-16.083,16.084H15.856
	C7.022,578.754,0,571.504,0,562.67V406.829c0-8.834,7.021-15.855,15.855-15.855c8.833,0,16.083,7.021,16.083,15.855v139.986h531.402
	V406.829z"/>
</svg>
