<?xml version="1.0" encoding="utf-8"?>
<!-- Generator: Adobe Illustrator 16.0.0, SVG Export Plug-In . SVG Version: 6.00 Build 0)  -->
<!DOCTYPE svg PUBLIC "-//W3C//DTD SVG 1.1//EN" "http://www.w3.org/Graphics/SVG/1.1/DTD/svg11.dtd">
<svg version="1.1" id="Layer_1" xmlns="http://www.w3.org/2000/svg" xmlns:xlink="http://www.w3.org/1999/xlink" x="0px" y="0px"
	 width="595.279px" height="841.891px" viewBox="0 0 595.279 841.891" enable-background="new 0 0 595.279 841.891"
	 xml:space="preserve">
<g>
	<path fill="#009BEF" d="M251.849,191.991H22.896C9.158,191.991,0,201.149,0,214.887v45.791c0,13.737,9.158,22.896,22.896,22.896
		h228.953c13.736,0,22.896-9.158,22.896-22.896v-45.791C274.744,201.149,265.586,191.991,251.849,191.991z"/>
	<path fill="#009BEF" d="M251.849,375.154H22.896C9.158,375.154,0,384.312,0,398.05v45.791c0,13.737,9.158,22.896,22.896,22.896
		h228.953c13.736,0,22.896-9.158,22.896-22.896V398.05C274.744,384.312,265.586,375.154,251.849,375.154z"/>
	<path fill="#009BEF" d="M251.849,558.317H22.896C9.158,558.317,0,567.476,0,581.213v45.791C0,640.741,9.158,649.9,22.896,649.9
		h228.953c13.736,0,22.896-9.158,22.896-22.896v-45.791C274.744,567.476,265.586,558.317,251.849,558.317z"/>
	<path fill="#009BEF" d="M588.411,473.604l-32.054-32.054c-4.579-4.579-11.447-6.868-16.026-6.868
		c-6.868,0-11.447,2.289-16.026,6.868l-45.79,45.791c-6.869,6.868-20.606,2.289-20.606-9.158V169.096
		c0-11.448-11.446-22.896-22.896-22.896h-45.79c-11.448,0-22.896,11.448-22.896,22.896v503.699c0,6.868,2.289,11.447,6.868,16.026
		s11.448,6.868,16.027,6.868c6.868,0,11.447-2.289,16.025-6.868L588.41,505.658c4.579-4.579,6.868-9.158,6.868-16.027
		C595.28,482.763,592.99,478.184,588.411,473.604z"/>
</g>
</svg>
