<?xml version="1.0" encoding="utf-8"?>
<!-- Generator: Adobe Illustrator 16.0.0, SVG Export Plug-In . SVG Version: 6.00 Build 0)  -->
<!DOCTYPE svg PUBLIC "-//W3C//DTD SVG 1.1//EN" "http://www.w3.org/Graphics/SVG/1.1/DTD/svg11.dtd">
<svg version="1.1" id="Capa_1" xmlns="http://www.w3.org/2000/svg" xmlns:xlink="http://www.w3.org/1999/xlink" x="0px" y="0px"
	 width="595.279px" height="595.28px" viewBox="0 0 595.279 595.28" enable-background="new 0 0 595.279 595.28"
	 xml:space="preserve">
<g>
	<g>
		<path fill="#009BEF" d="M297.63,595.28C133.511,595.28,0,461.75,0,297.631C0,133.511,133.511,0,297.63,0
			s297.631,133.511,297.631,297.631C595.28,461.75,461.749,595.28,297.63,595.28z M297.63,34.001
			C152.255,34.001,34,152.275,34,297.631c0,145.355,118.255,263.61,263.63,263.61c145.356,0,263.611-118.255,263.611-263.61
			C561.241,152.275,442.987,34.001,297.63,34.001z"/>
	</g>
	<g>
		<path fill="#009BEF" d="M414.985,314.631H180.277c-9.392,0-17.02-7.59-17.02-17c0-9.392,7.608-17.02,17.02-17.02h234.708
			c9.392,0,17,7.628,17,17.02C431.985,307.041,424.395,314.631,414.985,314.631z"/>
	</g>
	<g>
		<path fill="#009BEF" d="M297.63,431.985c-9.391,0-17.02-7.609-17.02-17V180.277c0-9.392,7.629-17.02,17.02-17.02
			c9.392,0,17.001,7.628,17.001,17.02v234.708C314.631,424.396,307.041,431.985,297.63,431.985z"/>
	</g>
</g>
</svg>
