<?xml version="1.0" encoding="utf-8"?>
<!-- Generator: Adobe Illustrator 16.0.0, SVG Export Plug-In . SVG Version: 6.00 Build 0)  -->
<!DOCTYPE svg PUBLIC "-//W3C//DTD SVG 1.1//EN" "http://www.w3.org/Graphics/SVG/1.1/DTD/svg11.dtd">
<svg version="1.1" id="Layer_1" xmlns="http://www.w3.org/2000/svg" xmlns:xlink="http://www.w3.org/1999/xlink" x="0px" y="0px"
	 width="44.639px" height="48px" viewBox="0 0 44.639 48" enable-background="new 0 0 44.639 48" xml:space="preserve">
<g>
	<g>
		<g>
			<path id="SVGID_1_" fill="#2F3140" d="M1.597,46.439V13.587h41.448v32.853H1.597L1.597,46.439z M1.597,4.774h4.781v2.405
				c0,0.443,0.357,0.8,0.795,0.8h5.581c0.441,0,0.799-0.357,0.799-0.8V4.774h17.535v2.405c0,0.443,0.355,0.8,0.799,0.8h5.576
				c0.443,0,0.799-0.357,0.799-0.8V4.774h4.783v7.211H1.597V4.774z M7.971,1.569h3.985v2.404v2.404H7.971V3.974V1.569z
				 M32.682,1.569h3.986v2.404v2.404h-3.986V3.974V1.569z M43.842,3.173H38.26V0.768c0-0.443-0.354-0.801-0.797-0.801h-5.576
				c-0.443,0-0.799,0.358-0.799,0.801v2.405H13.553V0.768c0-0.443-0.358-0.801-0.799-0.801H7.173c-0.438,0-0.795,0.358-0.795,0.801
				v2.405h-5.58C0.355,3.173,0,3.53,0,3.974v8.812V47.24c0,0.443,0.354,0.801,0.798,0.801h43.044c0.439,0,0.797-0.357,0.797-0.801
				V12.786V3.974C44.641,3.53,44.283,3.173,43.842,3.173z"/>
		</g>
	</g>
	<g>
		<g>
			<g>
				<path id="SVGID_3_" fill="#2F3140" d="M35.873,19.998v5.607h-5.582v-5.607H35.873z M35.873,32.816h-5.582v-5.608h5.582V32.816z
					 M35.873,40.027h-5.582v-5.606h5.582V40.027z M28.697,40.027h-5.58v-5.606h5.58V40.027z M21.523,40.027h-5.582v-5.606h5.582
					V40.027z M14.35,40.027H8.768v-5.606h5.582V40.027z M8.769,27.208h5.582v5.608H8.769V27.208z M8.769,19.998h5.582v5.607H8.769
					V19.998z M15.941,19.998h5.582v5.607h-5.582V19.998z M15.941,27.208h5.582v5.608h-5.582V27.208z M28.697,32.816h-5.58v-5.608
					h5.58V32.816z M23.119,19.998h5.579v5.607h-5.579V19.998z M28.697,18.396h-5.58h-1.596h-5.581H14.35H7.173v7.209v1.603v5.608
					v1.604v7.208h7.177h1.591h5.582h1.596h5.579h1.594h7.172V34.42v-1.604v-5.608v-1.603v-7.209h-7.172H28.697z"/>
			</g>
		</g>
	</g>
</g>
</svg>
