<?xml version="1.0" encoding="utf-8"?>
<!-- Generator: Adobe Illustrator 16.0.0, SVG Export Plug-In . SVG Version: 6.00 Build 0)  -->
<!DOCTYPE svg PUBLIC "-//W3C//DTD SVG 1.1//EN" "http://www.w3.org/Graphics/SVG/1.1/DTD/svg11.dtd">
<svg version="1.1" id="Capa_1" xmlns="http://www.w3.org/2000/svg" xmlns:xlink="http://www.w3.org/1999/xlink" x="0px" y="0px"
	 width="595.279px" height="841.891px" viewBox="0 0 595.279 841.891" enable-background="new 0 0 595.279 841.891"
	 xml:space="preserve">
<g>
	<path fill="#FFFFFF" d="M386.078,123.305H64.489v595.28h466.303V268.018L386.078,123.305z M391.893,157.176L496.92,262.204H391.893
		V157.176z M84.331,698.742V143.147H372.05v138.899h138.898v416.696H84.331z"/>
	<path fill="#FFFFFF" d="M163.702,291.968h89.292c5.477,0,9.921-4.435,9.921-9.921c0-5.487-4.444-9.921-9.921-9.921h-89.292
		c-5.477,0-9.922,4.435-9.922,9.921C153.781,287.533,158.226,291.968,163.702,291.968z"/>
	<path fill="#FFFFFF" d="M332.365,490.395H163.702c-5.477,0-9.922,4.435-9.922,9.921c0,5.487,4.445,9.922,9.922,9.922h168.662
		c5.477,0,9.922-4.435,9.922-9.922C342.286,494.829,337.841,490.395,332.365,490.395z"/>
	<path fill="#FFFFFF" d="M431.578,420.945h-69.45c-5.477,0-9.921,4.435-9.921,9.921s4.444,9.922,9.921,9.922h69.45
		c5.477,0,9.921-4.436,9.921-9.922S437.055,420.945,431.578,420.945z"/>
	<path fill="#FFFFFF" d="M163.702,371.338h49.606c5.477,0,9.921-4.435,9.921-9.921s-4.444-9.921-9.921-9.921h-49.606
		c-5.477,0-9.922,4.435-9.922,9.921S158.226,371.338,163.702,371.338z"/>
	<path fill="#FFFFFF" d="M312.522,371.338h69.449c5.477,0,9.922-4.435,9.922-9.921s-4.445-9.921-9.922-9.921h-69.449
		c-5.477,0-9.921,4.435-9.921,9.921S307.045,371.338,312.522,371.338z"/>
	<path fill="#FFFFFF" d="M252.994,361.417c0,2.58,1.091,5.159,2.877,7.044c1.885,1.786,4.465,2.877,7.044,2.877
		c2.58,0,5.159-1.091,7.044-2.877c1.786-1.885,2.878-4.464,2.878-7.044c0-2.589-1.092-5.169-2.878-7.044
		c-3.671-3.671-10.317-3.671-14.088,0C254.085,356.248,252.994,358.828,252.994,361.417z"/>
	<path fill="#FFFFFF" d="M213.309,420.945c-5.477,0-9.922,4.435-9.922,9.921s4.445,9.922,9.922,9.922h99.213
		c5.477,0,9.922-4.436,9.922-9.922s-4.445-9.921-9.922-9.921H213.309z"/>
	<path fill="#FFFFFF" d="M163.702,440.788c2.579,0,5.159-1.092,7.044-2.878c1.786-1.885,2.877-4.464,2.877-7.044
		c0-2.589-1.091-5.169-2.877-7.044c-3.671-3.671-10.418-3.671-14.089,0c-1.785,1.875-2.877,4.355-2.877,7.044
		c0,2.58,1.092,5.159,2.877,7.044C158.543,439.696,161.122,440.788,163.702,440.788z"/>
	<path fill="#FFFFFF" d="M431.578,559.844h-69.45c-5.477,0-9.921,4.435-9.921,9.922c0,5.486,4.444,9.921,9.921,9.921h69.45
		c5.477,0,9.921-4.435,9.921-9.921C441.499,564.278,437.055,559.844,431.578,559.844z"/>
	<path fill="#FFFFFF" d="M312.522,559.844h-99.213c-5.477,0-9.922,4.435-9.922,9.922c0,5.486,4.445,9.921,9.922,9.921h99.213
		c5.477,0,9.922-4.435,9.922-9.921C322.444,564.278,317.998,559.844,312.522,559.844z"/>
	<path fill="#FFFFFF" d="M156.657,562.721c-1.785,1.786-2.877,4.355-2.877,7.045c0,2.679,0.992,5.158,2.877,7.044
		c1.886,1.785,4.465,2.877,7.045,2.877c2.679,0,5.159-1.092,7.044-2.877c1.786-1.886,2.877-4.465,2.877-7.044
		c0-2.689-1.091-5.17-2.877-6.945C167.075,559.05,160.428,559.05,156.657,562.721z"/>
	<path fill="#FFFFFF" d="M424.533,354.373c-1.785,1.875-2.877,4.455-2.877,7.044c0,2.58,1.092,5.159,2.877,7.044
		c1.886,1.786,4.465,2.877,7.045,2.877c2.579,0,5.158-1.091,7.044-2.877c1.885-1.885,2.877-4.464,2.877-7.044
		c0-2.589-0.992-5.169-2.877-7.044C434.852,350.702,428.304,350.702,424.533,354.373z"/>
	<path fill="#FFFFFF" d="M389.016,507.36c1.785-1.886,2.877-4.465,2.877-7.045c0-2.589-1.092-5.169-2.877-7.044
		c-3.771-3.671-10.418-3.671-14.089,0c-1.786,1.875-2.877,4.455-2.877,7.044c0,2.58,1.091,5.159,2.877,7.045
		c1.885,1.875,4.365,2.877,7.044,2.877S387.13,509.146,389.016,507.36z"/>
	<path fill="#FFFFFF" d="M424.533,493.271c-1.785,1.875-2.877,4.455-2.877,7.044c0,2.58,1.092,5.159,2.877,7.045
		c1.886,1.785,4.366,2.877,7.045,2.877s5.158-1.092,7.044-2.877c1.786-1.886,2.877-4.465,2.877-7.045
		c0-2.589-1.091-5.169-2.877-7.044C434.951,489.601,428.204,489.601,424.533,493.271z"/>
</g>
</svg>
