<?xml version="1.0" encoding="utf-8"?>
<!-- Generator: Adobe Illustrator 16.0.0, SVG Export Plug-In . SVG Version: 6.00 Build 0)  -->
<!DOCTYPE svg PUBLIC "-//W3C//DTD SVG 1.1//EN" "http://www.w3.org/Graphics/SVG/1.1/DTD/svg11.dtd">
<svg version="1.1" id="Capa_1" xmlns="http://www.w3.org/2000/svg" xmlns:xlink="http://www.w3.org/1999/xlink" x="0px" y="0px"
	 width="595.279px" height="595.279px" viewBox="0 0 595.279 595.279" enable-background="new 0 0 595.279 595.279"
	 xml:space="preserve">
<g>
	<g>
		<path fill="#FFFFFF" d="M297.64,0C133.522,0,0,133.523,0,297.64C0,461.758,133.521,595.281,297.64,595.281
			S595.28,461.759,595.28,297.64C595.27,133.523,461.76,0,297.64,0z M297.64,547.306c-137.668,0-249.667-111.998-249.667-249.677
			c0-137.668,111.999-249.667,249.667-249.667S547.307,159.971,547.307,297.64C547.307,435.308,435.308,547.306,297.64,547.306z"/>
	</g>
</g>
<g>
	<g>
		<path fill="#FFFFFF" d="M427.797,166.483c-6.64-6.64-17.287-6.64-23.927,0l-107.23,107.23l-107.23-107.23
			c-6.64-6.64-17.287-6.64-23.927,0c-6.639,6.64-6.639,17.287,0,23.927l107.231,107.23L165.482,404.87
			c-6.639,6.641-6.639,17.287,0,23.928c3.258,3.256,7.642,5.01,11.901,5.01c4.259,0,8.644-1.629,11.9-5.01l107.23-107.232
			l107.23,107.232c3.257,3.256,7.642,5.01,11.9,5.01c4.385,0,8.644-1.629,11.9-5.01c6.64-6.641,6.64-17.287,0-23.928L320.566,297.64
			l107.23-107.23C434.435,183.77,434.435,173.123,427.797,166.483z"/>
	</g>
</g>
</svg>
