<?xml version="1.0" encoding="utf-8"?>
<!-- Generator: Adobe Illustrator 16.0.0, SVG Export Plug-In . SVG Version: 6.00 Build 0)  -->
<!DOCTYPE svg PUBLIC "-//W3C//DTD SVG 1.1//EN" "http://www.w3.org/Graphics/SVG/1.1/DTD/svg11.dtd">
<svg version="1.1" id="Layer_1" xmlns="http://www.w3.org/2000/svg" xmlns:xlink="http://www.w3.org/1999/xlink" x="0px" y="0px"
	 width="595.279px" height="524.314px" viewBox="0 0 595.279 524.314" enable-background="new 0 0 595.279 524.314"
	 xml:space="preserve">
<g id="Capa_1">
	<path fill="#FFFFFF" d="M439.699,71.154c21.416,1.84,52.157,13.053,54.399,62.09c0,0.235,0,0.471,0.078,0.628
		c0.079,0.55,5.578,53.969-19.402,82.091c-9.898,11.155-23.096,16.653-40.456,16.811c-0.157,0-0.236,0-0.393,0
		c-0.159,0-0.237,0-0.396,0c-1.792-0.017-3.526-0.104-5.232-0.235c-3.104,7.055-6.579,13.728-10.441,19.999
		c4.716,0.859,9.647,1.357,14.812,1.445c0.395,0,0.785,0,1.261,0c0.153,0,0.312,0,0.47,0c0.236,0,0.552,0,0.787,0
		c23.016-0.395,41.634-8.484,55.381-23.959c30.244-34.094,25.217-92.54,24.667-98.116c-1.964-41.871-21.761-61.902-38.1-71.25
		c-12.18-6.992-26.396-10.763-42.266-11.076h-0.55c-0.079,0-0.236,0-0.312,0h-0.474c-0.377,0-0.789,0.007-1.192,0.012
		C435.249,56.452,437.714,63.64,439.699,71.154z"/>
	<g>
		<path fill="#FFFFFF" d="M595.358,350.922c0-0.079,0-0.158,0-0.236c0-0.629-0.078-1.256-0.078-1.964
			c-0.472-15.555-1.492-51.925-35.586-63.551c-0.234-0.078-0.55-0.157-0.786-0.234c-35.429-9.033-64.887-29.46-65.201-29.694
			c-4.793-3.378-11.391-2.198-14.768,2.594c-3.378,4.792-2.201,11.391,2.591,14.771c1.336,0.939,32.604,22.7,71.726,32.757
			c18.303,6.521,20.346,26.08,20.895,43.988c0,0.707,0,1.337,0.079,1.967c0.079,7.067-0.395,17.987-1.649,24.272
			c-3.438,1.952-9.598,5.203-18.24,8.905c1.221,8.435,1.693,16.055,1.938,22.146c19.396-7.72,30.228-14.626,31.229-15.261
			c1.807-1.18,3.3-2.907,4.085-4.949C595.516,375.981,595.437,355.006,595.358,350.922z"/>
	</g>
	<path fill="#FFFFFF" d="M168.223,232.391c-2.241,0.228-4.555,0.36-6.949,0.382c-0.157,0-0.236,0-0.395,0c-0.155,0-0.234,0-0.394,0
		c-17.283-0.157-30.558-5.655-40.377-16.811c-24.903-27.966-19.562-81.62-19.482-82.091c0-0.235,0.078-0.472,0.078-0.628
		c2.434-52.793,37.711-61.417,56.229-62.292c1.973-7.416,4.404-14.514,7.279-21.29c-0.794-0.034-1.588-0.064-2.391-0.08h-0.55
		c-0.078,0-0.236,0-0.315,0h-0.471c-8.72,0-25.844,1.414-42.263,10.762c-16.497,9.348-36.607,29.38-38.571,71.565
		c-0.55,5.576-5.578,64.022,24.666,98.116c13.669,15.476,32.287,23.566,55.304,23.959c0.395,0,0.786,0,1.258,0
		c0.156,0,0.314,0,0.473,0c0.232,0,0.551,0,0.786,0c5.748-0.1,11.221-0.679,16.41-1.729
		C174.733,246.021,171.292,239.394,168.223,232.391z"/>
	<g>
		<g>
			<g>
				<path fill="#FFFFFF" d="M42.377,385.095c-9.511-3.982-16.246-7.517-19.912-9.584c-1.258-6.286-1.806-17.205-1.646-24.271
					c0-0.63,0.078-1.259,0.078-1.965c0.551-17.91,2.594-37.474,20.896-43.992c39.12-10.056,70.389-31.896,71.724-32.758
					c4.792-3.378,5.97-9.978,2.593-14.771c-3.378-4.792-9.979-5.971-14.771-2.593c-0.312,0.236-29.612,20.66-65.202,29.695
					c-0.312,0.076-0.55,0.155-0.782,0.234c-34.097,11.706-35.118,48.076-35.59,63.553c0,0.704,0,1.335-0.079,1.964
					c0,0.077,0,0.154,0,0.233c-0.078,4.085-0.156,25.062,4.006,35.587c0.787,2.043,2.2,3.771,4.086,4.948
					c1.029,0.688,12.386,7.938,32.725,15.887C40.731,401.229,41.178,393.591,42.377,385.095z"/>
			</g>
		</g>
	</g>
</g>
<g id="Layer_2">
	<g>
		<g>
			<path fill="#FFFFFF" d="M295.62,282.513c0.543,0,1.085,0,1.737,0c0.217,0,0.435,0,0.648,0c0.326,0,0.764,0,1.09,0
				c31.812-0.542,57.545-11.727,76.545-33.113c41.803-47.125,34.854-127.903,34.094-135.611
				c-2.715-57.872-30.076-85.56-52.66-98.479C340.245,5.646,320.595,0.434,298.661,0H297.9c-0.108,0-0.326,0-0.437,0h-0.648
				c-12.052,0-35.722,1.954-58.414,14.875c-22.802,12.92-50.597,40.606-53.312,98.913c-0.76,7.708-7.709,88.489,34.096,135.611
				C238.075,270.786,263.808,281.971,295.62,282.513z M214.08,116.499c0-0.325,0.108-0.651,0.108-0.868
				c3.583-77.85,58.849-86.21,82.519-86.21h0.437c0.217,0,0.543,0,0.868,0c29.313,0.652,79.15,12.595,82.519,86.21
				c0,0.326,0,0.651,0.108,0.868c0.107,0.761,7.71,74.593-26.817,113.463c-13.681,15.418-31.921,23.02-55.917,23.235
				c-0.217,0-0.326,0-0.543,0l0,0c-0.217,0-0.326,0-0.542,0c-23.887-0.218-42.237-7.817-55.811-23.235
				C206.588,191.309,213.971,117.151,214.08,116.499z"/>
			<path fill="#FFFFFF" d="M520.483,416.494c0-0.107,0-0.216,0-0.323c0-0.869-0.109-1.737-0.109-2.715
				c-0.647-21.5-2.062-71.77-49.185-87.839c-0.326-0.107-0.761-0.217-1.086-0.324c-48.969-12.487-89.684-40.719-90.118-41.043
				c-6.623-4.669-15.743-3.039-20.412,3.584s-3.041,15.742,3.582,20.412c1.849,1.303,45.062,31.379,99.131,45.276
				c25.301,9.01,28.121,36.047,28.884,60.802c0,0.978,0,1.847,0.105,2.714c0.109,9.771-0.542,24.863-2.28,33.552
				c-17.589,9.987-86.531,44.518-191.42,44.518c-104.45,0-173.831-34.638-191.528-44.624c-1.735-8.688-2.497-23.779-2.278-33.553
				c0-0.867,0.105-1.735,0.105-2.715c0.76-24.755,3.583-51.79,28.882-60.805c54.07-13.896,97.284-44.08,99.133-45.275
				c6.62-4.669,8.251-13.787,3.583-20.41c-4.672-6.624-13.79-8.253-20.413-3.584c-0.438,0.325-40.937,28.557-90.119,41.042
				c-0.437,0.109-0.76,0.22-1.085,0.326c-47.123,16.178-48.534,66.446-49.188,87.838c0,0.979,0,1.848-0.106,2.714
				c0,0.109,0,0.22,0,0.325c-0.108,5.646-0.219,34.64,5.538,49.188c1.085,2.821,3.04,5.212,5.646,6.841
				c3.257,2.171,81.323,51.898,211.941,51.898c130.617,0,208.683-49.838,211.938-51.898c2.497-1.629,4.562-4.02,5.646-6.841
				C520.699,451.132,520.594,422.142,520.483,416.494z"/>
		</g>
	</g>
</g>
</svg>
