<?xml version="1.0" encoding="utf-8"?>
<!-- Generator: Adobe Illustrator 16.0.0, SVG Export Plug-In . SVG Version: 6.00 Build 0)  -->
<!DOCTYPE svg PUBLIC "-//W3C//DTD SVG 1.1//EN" "http://www.w3.org/Graphics/SVG/1.1/DTD/svg11.dtd">
<svg version="1.1" id="Capa_1" xmlns="http://www.w3.org/2000/svg" xmlns:xlink="http://www.w3.org/1999/xlink" x="0px" y="0px"
	 width="465.33px" height="511.627px" viewBox="0 0 465.33 511.627" enable-background="new 0 0 465.33 511.627"
	 xml:space="preserve">
<g>
	<g>
		<path fill="#009BEF" d="M198.65,107.069c1.714-1.725,2.567-3.908,2.567-6.584c0-2.272-0.949-4.564-2.854-6.844L107.287,2.563
			c-1.903-1.708-4.093-2.562-6.566-2.562c-2.286,0-4.471,0.854-6.566,2.562L2.793,93.928c-2.853,3.046-3.521,6.375-1.997,9.996
			c1.523,3.806,4.378,5.708,8.562,5.708h54.82v392.854c0,2.662,0.858,4.851,2.567,6.567c1.711,1.713,3.903,2.566,6.566,2.566h54.819
			c2.667,0,4.854-0.857,6.567-2.567c1.713-1.711,2.567-3.904,2.567-6.567V109.632h54.817
			C194.752,109.632,196.937,108.775,198.65,107.069z"/>
		<path fill="#009BEF" d="M445.327,189.003L379.663-0.007h-46.25l-65.661,189.013h-19.979v30.265h81.935v-30.268h-21.411
			l13.418-41.108h69.381l13.415,41.108h-21.405v30.268h82.228v-30.268H445.327L445.327,189.003z M331.131,116.489l20.841-62.242
			c0.761-2.283,1.479-5.045,2.144-8.276c0.66-3.234,0.996-4.948,0.996-5.139l0.854-5.715h1.144c0,0.769,0.19,2.669,0.562,5.715
			l3.434,13.415l20.554,62.242H331.131z"/>
		<path fill="#009BEF" d="M439.907,445.102H405.37v33.975h-70.808c-4.001,0-6.853,0.097-8.557,0.288l-4.004,0.854v-0.854
			l3.142-2.858c2.852-3.422,4.854-5.896,5.996-7.421l105.345-151.318v-25.41H274.605v65.387h34.26v-32.835h66.231
			c3.427,0,6.283-0.288,8.561-0.859c0.571,0,1.286-0.048,2.143-0.144c0.854-0.094,1.477-0.146,1.854-0.146v0.855l-3.142,2.568
			c-1.708,1.713-3.71,4.281-5.996,7.71L273.171,485.923v25.697h166.735L439.907,445.102L439.907,445.102z"/>
	</g>
</g>
</svg>
