<?xml version="1.0" encoding="utf-8"?>
<!-- Generator: Adobe Illustrator 16.0.0, SVG Export Plug-In . SVG Version: 6.00 Build 0)  -->
<!DOCTYPE svg PUBLIC "-//W3C//DTD SVG 1.1//EN" "http://www.w3.org/Graphics/SVG/1.1/DTD/svg11.dtd">
<svg version="1.1" id="Layer_1" xmlns="http://www.w3.org/2000/svg" xmlns:xlink="http://www.w3.org/1999/xlink" x="0px" y="0px"
	 width="30px" height="30px" viewBox="0 0 30 30" enable-background="new 0 0 30 30" xml:space="preserve">
<g id="Layer_1_1_">
	<g id="Layer_2">
	</g>
</g>
<g id="Layer_2_1_">
	<path fill="#FFFFFF" d="M29.012,27.322l-7.125-7.41c1.832-2.178,2.836-4.918,2.836-7.771c0-6.665-5.422-12.086-12.086-12.086
		C5.971,0.055,0.55,5.477,0.55,12.141c0,6.664,5.422,12.085,12.086,12.085c2.502,0,4.887-0.754,6.924-2.186l7.18,7.466
		c0.3,0.312,0.703,0.483,1.137,0.483c0.409,0,0.798-0.156,1.094-0.439C29.596,28.948,29.613,27.95,29.012,27.322z M12.636,3.208
		c4.926,0,8.934,4.007,8.934,8.933c0,4.925-4.008,8.934-8.934,8.934s-8.934-4.009-8.934-8.934C3.702,7.215,7.709,3.208,12.636,3.208
		z"/>
</g>
</svg>
