<?xml version="1.0" encoding="utf-8"?>
<!-- Generator: Adobe Illustrator 16.0.0, SVG Export Plug-In . SVG Version: 6.00 Build 0)  -->
<!DOCTYPE svg PUBLIC "-//W3C//DTD SVG 1.1//EN" "http://www.w3.org/Graphics/SVG/1.1/DTD/svg11.dtd">
<svg version="1.1" id="Capa_1" xmlns="http://www.w3.org/2000/svg" xmlns:xlink="http://www.w3.org/1999/xlink" x="0px" y="0px"
	 width="595.279px" height="595.281px" viewBox="0 0 595.279 595.281" enable-background="new 0 0 595.279 595.281"
	 xml:space="preserve">
<g>
	<path fill="#009BEF" d="M554.152,41.161c-54.882-54.881-144.188-54.858-199.08,0l-99.54,99.54c-8.457,8.458-8.457,22.167,0,30.625
		c8.458,8.457,22.167,8.457,30.624,0l99.54-99.541c18.312-18.301,42.785-28.394,68.905-28.394c26.13,0,50.604,10.093,68.915,28.404
		c18.312,18.312,28.405,42.785,28.405,68.915c0,26.12-10.094,50.594-28.405,68.905L393.363,339.802
		c-38.01,37.987-99.832,37.987-137.842,0c-8.457-8.457-22.167-8.457-30.624,0c-8.458,8.458-8.458,22.178,0,30.625
		c27.439,27.439,63.49,41.161,99.539,41.161c36.05,0,72.1-13.722,99.541-41.161l130.175-130.177
		c26.498-26.486,41.096-61.844,41.096-99.54C595.247,103.006,580.65,67.66,554.152,41.161z"/>
	<path fill="#009BEF" d="M293.812,439.332l-84.229,84.229c-18.312,18.312-42.785,28.404-68.916,28.404
		c-26.119,0-50.604-10.094-68.915-28.404c-37.999-37.999-37.999-99.833,0-137.832l122.52-122.52
		c18.312-18.302,42.785-28.394,68.916-28.394c26.119,0,50.593,10.092,68.904,28.394c8.458,8.457,22.167,8.457,30.625,0
		c8.457-8.458,8.457-22.167,0-30.625c-54.871-54.87-144.179-54.881-199.08,0L41.117,355.115
		c-26.487,26.487-41.085,61.846-41.085,99.54c0,37.687,14.598,73.042,41.096,99.529c26.488,26.499,61.846,41.097,99.529,41.097
		c37.696,0,73.053-14.598,99.54-41.097l84.229-84.229c8.458-8.458,8.458-22.167,0-30.625
		C315.969,430.875,302.27,430.875,293.812,439.332z"/>
</g>
</svg>
