<?xml version="1.0" encoding="utf-8"?>
<!-- Generator: Adobe Illustrator 16.0.0, SVG Export Plug-In . SVG Version: 6.00 Build 0)  -->
<!DOCTYPE svg PUBLIC "-//W3C//DTD SVG 1.1//EN" "http://www.w3.org/Graphics/SVG/1.1/DTD/svg11.dtd">
<svg version="1.1" id="Layer_1" xmlns="http://www.w3.org/2000/svg" xmlns:xlink="http://www.w3.org/1999/xlink" x="0px" y="0px"
	 width="30px" height="30px" viewBox="0 0 30 30" enable-background="new 0 0 30 30" xml:space="preserve">
<g id="Layer_1_1_">
	<g id="Layer_2">
	</g>
</g>
<g id="Layer_2_1_">
	<g>
		<path fill="#FFFFFF" d="M18.721,0.088c-0.17,0.039-0.302,0.133-0.396,0.279l-1.981,3.091c-0.66-0.078-1.363-0.092-2.105-0.047
			c-0.205-0.352-0.487-0.867-0.842-1.546C13.04,1.187,12.775,0.7,12.602,0.407c-0.089-0.157-0.208-0.266-0.353-0.332
			C12.08,0,11.931-0.017,11.794,0.027c-0.808,0.16-2.278,0.7-4.407,1.619C7.202,1.736,7.075,1.86,7.005,2.017
			c-0.08,0.182-0.091,0.352-0.031,0.508L7.77,5.957C7.295,6.341,6.831,6.785,6.375,7.291L2.816,6.316
			C2.654,6.258,2.494,6.269,2.334,6.351c-0.16,0.083-0.276,0.207-0.351,0.376l-1.788,4.021c-0.156,0.351-0.083,0.644,0.217,0.878
			c0.534,0.425,1.579,1.099,3.137,2.022c-0.072,0.648-0.086,1.3-0.045,1.956l-3.049,1.639c-0.19,0.103-0.32,0.232-0.39,0.391
			c-0.119,0.268,0.06,1.026,0.534,2.287c0.474,1.26,0.859,2.141,1.154,2.65c0.108,0.177,0.223,0.293,0.344,0.347
			c0.146,0.063,0.317,0.069,0.516,0.015c1.337-0.375,2.458-0.65,3.36-0.828c0.423,0.549,0.873,1.03,1.354,1.447l-0.992,3.596
			c-0.034,0.142-0.006,0.291,0.083,0.447c0.089,0.155,0.207,0.266,0.353,0.329l4.021,1.789c0.158,0.071,0.322,0.084,0.491,0.044
			c0.17-0.042,0.302-0.134,0.397-0.279l1.96-3.099c0.668,0.095,1.375,0.113,2.124,0.056c0.207,0.352,0.487,0.866,0.844,1.545
			c0.354,0.679,0.621,1.168,0.793,1.459c0.091,0.156,0.207,0.268,0.354,0.33c0.156,0.069,0.314,0.092,0.475,0.06
			c0.859-0.183,2.316-0.728,4.371-1.636c0.19-0.074,0.324-0.196,0.399-0.366c0.08-0.181,0.093-0.354,0.039-0.523l-0.804-3.416
			c0.473-0.382,0.939-0.827,1.396-1.333l3.558,0.975c0.164,0.059,0.324,0.047,0.482-0.033c0.158-0.081,0.275-0.206,0.35-0.376
			l1.789-4.022c0.156-0.351,0.084-0.642-0.217-0.875c-0.533-0.426-1.578-1.102-3.137-2.025c0.07-0.646,0.087-1.297,0.044-1.953
			l3.067-1.629c0.186-0.122,0.309-0.256,0.373-0.399c0.119-0.266-0.06-1.024-0.528-2.274c-0.472-1.251-0.856-2.139-1.16-2.663
			c-0.073-0.162-0.188-0.279-0.347-0.348c-0.156-0.07-0.334-0.078-0.531-0.02c-1.449,0.396-2.568,0.672-3.359,0.825
			c-0.341-0.439-0.787-0.919-1.336-1.438l0.981-3.576c0.04-0.155,0.016-0.313-0.073-0.467c-0.091-0.156-0.206-0.266-0.354-0.331
			l-4.021-1.788C19.052,0.062,18.891,0.047,18.721,0.088z M20.008,19.93c-1.384,1.383-3.051,2.072-5.007,2.072
			s-3.625-0.689-5.006-2.072c-1.385-1.384-2.076-3.054-2.076-5.009c0-1.954,0.691-3.624,2.076-5.007
			c1.381-1.383,3.053-2.076,5.006-2.076c1.956,0,3.623,0.692,5.007,2.076c1.385,1.384,2.074,3.053,2.074,5.007
			C22.082,16.876,21.393,18.546,20.008,19.93z"/>
	</g>
</g>
</svg>
