<?xml version="1.0" encoding="utf-8"?>
<!-- Generator: Adobe Illustrator 16.0.0, SVG Export Plug-In . SVG Version: 6.00 Build 0)  -->
<!DOCTYPE svg PUBLIC "-//W3C//DTD SVG 1.1//EN" "http://www.w3.org/Graphics/SVG/1.1/DTD/svg11.dtd">
<svg version="1.1" id="Capa_1" xmlns="http://www.w3.org/2000/svg" xmlns:xlink="http://www.w3.org/1999/xlink" x="0px" y="0px"
	 width="595.279px" height="522.005px" viewBox="0 0 595.279 522.005" enable-background="new 0 0 595.279 522.005"
	 xml:space="preserve">
<g opacity="0.5">
	<g>
		<path fill="#2F3140" d="M175.27,4.418c-5.891-5.892-15.342-5.892-21.233,0L59.159,98.68L25.653,64.927
			c-5.892-5.892-15.343-5.892-21.234,0c-5.891,5.892-5.891,15.342,0,21.233l44.187,44.432c2.945,2.945,6.75,4.418,10.678,4.418
			c3.805,0,7.609-1.473,10.556-4.418L175.393,25.651C181.039,19.76,181.161,10.308,175.27,4.418z"/>
		<path fill="#2F3140" d="M89.844,193.434c-37.189,0-67.506,30.316-67.506,67.506s30.316,67.506,67.506,67.506
			c37.19,0,67.507-30.316,67.507-67.506C157.228,223.751,127.034,193.434,89.844,193.434z M89.844,298.376L89.844,298.376
			c-20.62,0-37.435-16.815-37.435-37.436s16.814-37.436,37.435-37.436s37.436,16.815,37.436,37.436S110.464,298.376,89.844,298.376z
			"/>
		<path fill="#2F3140" d="M89.844,386.993c-37.189,0-67.506,30.315-67.506,67.506c0,37.189,30.316,67.506,67.506,67.506
			c37.19,0,67.507-30.316,67.507-67.506C157.228,417.186,127.034,386.993,89.844,386.993z M89.844,491.811L89.844,491.811
			c-20.62,0-37.435-16.815-37.435-37.436s16.814-37.436,37.435-37.436s37.436,16.815,37.436,37.436
			C127.156,475.119,110.464,491.811,89.844,491.811z"/>
		<path fill="#2F3140" d="M580.061,217.123H231.975c-8.346,0-15.097,6.75-15.097,15.097c0,8.346,6.751,15.097,15.097,15.097h348.086
			c8.346,0,15.097-6.751,15.097-15.097C595.157,223.873,588.406,217.123,580.061,217.123z"/>
		<path fill="#2F3140" d="M580.061,274.687H231.975c-8.346,0-15.097,6.75-15.097,15.097c0,8.346,6.751,15.097,15.097,15.097h348.086
			c8.346,0,15.097-6.751,15.097-15.097C595.157,281.437,588.406,274.687,580.061,274.687z"/>
		<path fill="#2F3140" d="M231.975,440.629h348.086c8.346,0,15.097-6.75,15.097-15.097c0-8.346-6.751-15.097-15.097-15.097H231.975
			c-8.346,0-15.097,6.751-15.097,15.097C216.878,433.879,223.629,440.629,231.975,440.629z"/>
		<path fill="#2F3140" d="M580.061,498.316c8.346,0,15.097-6.751,15.097-15.097c0-8.347-6.751-15.097-15.097-15.097H231.975
			c-8.346,0-15.097,6.75-15.097,15.097c0,8.346,6.751,15.097,15.097,15.097H580.061z"/>
		<path fill="#2F3140" d="M217.001,38.661c0,8.347,6.751,15.097,15.097,15.097h348.085c8.347,0,15.097-6.75,15.097-15.097
			c0-8.346-6.75-15.097-15.097-15.097H231.975C223.629,23.564,217.001,30.315,217.001,38.661z"/>
		<path fill="#2F3140" d="M580.061,81.252H231.975c-8.346,0-15.097,6.75-15.097,15.097c0,8.346,6.751,15.097,15.097,15.097h348.086
			c8.346,0,15.097-6.751,15.097-15.097C595.157,88.002,588.406,81.252,580.061,81.252z"/>
	</g>
</g>
</svg>
