<?xml version="1.0" encoding="utf-8"?>
<!-- Generator: Adobe Illustrator 16.0.0, SVG Export Plug-In . SVG Version: 6.00 Build 0)  -->
<!DOCTYPE svg PUBLIC "-//W3C//DTD SVG 1.1//EN" "http://www.w3.org/Graphics/SVG/1.1/DTD/svg11.dtd">
<svg version="1.1" id="Layer_1" xmlns="http://www.w3.org/2000/svg" xmlns:xlink="http://www.w3.org/1999/xlink" x="0px" y="0px"
	 width="569.701px" height="569.701px" viewBox="0 0 569.701 569.701" enable-background="new 0 0 569.701 569.701"
	 xml:space="preserve">
<g>
	<path fill="#FFBF47" d="M444.367,110.337c10.812-11.627,17.558-27.438,17.558-44.879C461.925,29.066,432.857,0,397.63,0
		c-26.74,0-88.361,39.996-113.012,75.922c-25.462-35.926-86.85-74.759-112.545-74.759c-35.112,0-64.295,29.065-64.295,65.458
		c0,16.857,6.278,32.089,16.394,43.601H0v156.377h33.949v303.104h178.235h145.448h178.233V266.714H569.7V110.337H444.367z
		 M397.63,24.3c21.856,0,39.994,18.139,39.994,42.438c0,20.463-14.301,38.02-32.785,41.739h-98.361
		c-6.278-1.859-8.255-4.068-8.255-5.35C298.221,82.432,370.887,24.3,397.63,24.3L397.63,24.3z M172.073,24.3
		c25.462,0,99.407,58.134,99.407,78.828c0,1.859-4.302,3.953-7.441,5.35H164.98c-18.485-3.722-32.786-21.276-32.786-41.739
		C132.078,43.599,150.331,24.3,172.073,24.3L172.073,24.3z M212.069,545.403H58.133V266.714H212.07L212.069,545.403L212.069,545.403
		z M212.069,243.693H24.3V134.635h187.887v109.058H212.069z M333.219,545.403h-96.967V134.519h96.967V545.403z M511.452,545.403
		H357.517V266.714h153.936L511.452,545.403L511.452,545.403z M545.285,243.693H357.517V134.635h187.886v109.058H545.285z"/>
</g>
</svg>
