<?xml version="1.0" encoding="utf-8"?>
<!-- Generator: Adobe Illustrator 16.0.0, SVG Export Plug-In . SVG Version: 6.00 Build 0)  -->
<!DOCTYPE svg PUBLIC "-//W3C//DTD SVG 1.1//EN" "http://www.w3.org/Graphics/SVG/1.1/DTD/svg11.dtd">
<svg version="1.1" id="Capa_1" xmlns="http://www.w3.org/2000/svg" xmlns:xlink="http://www.w3.org/1999/xlink" x="0px" y="0px"
	 width="595.279px" height="595.281px" viewBox="0 0 595.279 595.281" enable-background="new 0 0 595.279 595.281"
	 xml:space="preserve">
<g>
	<path fill="#FC2B27" d="M328.421,0c-10.459,0-20.814,0.78-31.048,2.146C286.925,0.76,276.652,0,266.839,0
		C196.668,0,130.787,31.14,81.318,87.671c-2.196,2.516-4.29,5.102-6.396,7.678c-0.051,0.041-0.082,0.103-0.123,0.144
		c-27.373,33.582-47.272,73.138-58.604,116.039c-0.01,0.01,0,0.03-0.01,0.041c-7.277,27.567-11.055,56.49-11.055,86.069
		c0,45.188,8.939,88.028,24.857,126.436c0.144,0.432,0.288,0.831,0.493,1.231c9.523,22.724,21.521,43.854,35.573,62.977
		c0.38,0.523,0.688,1.078,1.158,1.52c14.257,19.132,30.605,36.169,48.629,50.702c0.523,0.585,1.159,1.016,1.807,1.468
		c42.356,33.562,93.776,53.309,149.2,53.309c9.832,0,20.146-0.76,30.626-2.155c10.161,1.376,20.476,2.155,30.954,2.155
		c144.313,0,261.719-133.518,261.719-297.641C590.138,133.517,472.735,0,328.421,0z M116.593,472.119H79.778
		c-9.052-12.788-17.089-26.53-24.067-41.054h38.878c1.611,3.634,3.265,7.235,4.998,10.787c0.749,1.529,1.529,3.027,2.3,4.536
		c2.104,4.126,4.289,8.189,6.559,12.192c0.842,1.488,1.652,2.997,2.515,4.466C112.785,466.125,114.684,469.122,116.593,472.119z
		 M50.733,174.478h39.34c-4.014,10.026-7.503,20.302-10.5,30.791H39.35C42.583,194.739,46.401,184.475,50.733,174.478z
		 M87.137,112.898h36.105c-9.073,12.982-17.119,26.716-24.088,41.054H60.544C68.211,139.47,77.11,125.738,87.137,112.898z
		 M25.658,297.64c0-6.888,0.287-13.724,0.719-20.527h41.002c0,0.072,0,0.154-0.01,0.236c-0.39,6.723-0.657,13.485-0.657,20.291
		c0,3.438,0.123,6.846,0.227,10.264H26.059C25.946,304.475,25.658,301.099,25.658,297.64z M68.109,328.43
		c0.39,4.32,0.893,8.601,1.446,12.869c0.042,0.318,0.062,0.638,0.104,0.955c0.759,5.718,1.683,11.361,2.72,16.966H31.899
		c-2.001-10.078-3.582-20.331-4.599-30.79H68.109L68.109,328.43z M74.349,225.796c-0.421,1.931-0.761,3.892-1.15,5.841
		c0,0.011-0.01,0.03-0.01,0.041c-1.622,8.211-2.978,16.515-3.982,24.909H28.276c1.334-10.428,3.243-20.69,5.583-30.791H74.349z
		 M76.925,379.748c0.317,1.252,0.615,2.524,0.943,3.768c0.124,0.45,0.228,0.924,0.35,1.375c1.693,6.251,3.593,12.397,5.624,18.475
		c0.433,1.283,0.884,2.546,1.324,3.809c0.38,1.129,0.76,2.258,1.159,3.366H46.781c-3.89-9.966-7.235-20.251-10.089-30.791
		L76.925,379.748L76.925,379.748z M195.621,41.053h-19.839c15.21-7.134,31.016-12.572,47.304-15.979
		C213.675,29.774,204.499,35.091,195.621,41.053z M140.446,61.581h28.583c-9.113,7.995-17.868,16.657-26.131,26.09
		c-1.344,1.539-2.606,3.142-3.91,4.7h-33.9C116.161,80.825,127.945,70.459,140.446,61.581z M95.697,492.646h35.224
		c1.16,1.519,2.311,3.038,3.5,4.536c3.101,3.89,6.281,7.688,9.557,11.382c1.848,2.094,3.756,4.105,5.665,6.138
		c1.971,2.104,3.973,4.167,5.994,6.199c0.83,0.831,1.61,1.714,2.452,2.535h-30.873C115.947,514.211,105.406,503.905,95.697,492.646z
		 M223.261,570.219c-23.534-4.958-45.775-14.051-66.396-26.254h24.827c1.304,1.006,2.647,1.948,3.962,2.935
		c2.146,1.591,4.28,3.192,6.466,4.722c4.023,2.803,8.118,5.491,12.275,8.047c1.856,1.14,3.756,2.196,5.645,3.295
		c3.274,1.897,6.59,3.716,9.937,5.46C221.085,568.985,222.142,569.663,223.261,570.219z M328.43,574.755
		c-8.148,0-16.206-0.482-24.149-1.396l-4.085-0.575c-0.503-0.071-1.006-0.153-1.509-0.216c-3.562-0.503-7.104-1.098-10.622-1.774
		c-0.269-0.052-0.534-0.112-0.812-0.164c-3.417-0.679-6.805-1.428-10.171-2.259c-0.472-0.112-0.934-0.257-1.406-0.37
		c-3.141-0.8-6.271-1.661-9.359-2.605c-0.902-0.277-1.785-0.596-2.688-0.883c-2.647-0.842-5.296-1.704-7.902-2.647
		c-2.054-0.75-4.085-1.569-6.117-2.382c-1.438-0.564-2.895-1.098-4.32-1.703c-55.197-23.359-100.972-69.277-128.815-127.976
		c-0.217-0.441-0.4-0.903-0.616-1.345c-1.539-3.284-3.027-6.609-4.454-9.977c-0.523-1.23-1.006-2.494-1.509-3.735
		c-1.067-2.616-2.114-5.233-3.11-7.894c-0.604-1.621-1.18-3.264-1.755-4.896c-0.831-2.328-1.642-4.658-2.412-7.021
		c-0.604-1.848-1.18-3.715-1.755-5.583c-0.677-2.207-1.334-4.413-1.96-6.642c-0.555-1.979-1.088-3.972-1.611-5.973
		c-0.563-2.177-1.107-4.373-1.632-6.569c-0.482-2.053-0.955-4.114-1.396-6.179c-0.474-2.196-0.914-4.413-1.335-6.63
		c-0.4-2.083-0.802-4.167-1.159-6.271c-0.392-2.288-0.739-4.599-1.078-6.918c-0.309-2.053-0.615-4.104-0.883-6.168
		c-0.318-2.474-0.564-4.968-0.831-7.462c-0.205-1.93-0.421-3.858-0.597-5.799c-0.246-2.854-0.409-5.737-0.573-8.621
		c-0.094-1.61-0.227-3.213-0.299-4.834c-0.153-4.525-0.267-9.073-0.267-13.649c0-4.485,0.104-8.95,0.287-13.404
		c0.093-2.229,0.267-4.424,0.4-6.63c0.134-2.135,0.235-4.28,0.409-6.404c0.258-3.151,0.605-6.281,0.955-9.401
		c0.123-1.107,0.215-2.217,0.359-3.314c0.462-3.757,1.006-7.482,1.601-11.188c0.062-0.399,0.113-0.8,0.186-1.189
		c8.099-49.233,27.589-94.115,55.36-130.664c0.504-0.656,0.985-1.324,1.498-1.98c1.644-2.125,3.336-4.197,5.04-6.261
		c0.995-1.201,1.98-2.412,2.997-3.593c1.539-1.796,3.101-3.571,4.681-5.316c1.148-1.271,2.31-2.535,3.479-3.787
		c1.621-1.724,3.254-3.438,4.916-5.11c1.067-1.077,2.155-2.136,3.233-3.191c1.837-1.796,3.693-3.593,5.604-5.337
		c0.771-0.708,1.562-1.396,2.34-2.094c2.27-2.032,4.547-4.044,6.888-5.975c0.112-0.092,0.227-0.175,0.329-0.267
		c31.949-26.397,69.853-44.103,111.256-49.881l5.84-0.812c7.769-0.872,15.62-1.312,23.523-1.312
		c132.992,0,241.19,124.311,241.2,277.113C569.621,450.443,461.425,574.755,328.43,574.755z"/>
	<path fill="#FC2B27" d="M328.43,86.993c6.199,0,12.479,0.359,18.648,1.078c0.399,0.051,0.801,0.071,1.19,0.071
		c5.142,0,9.586-3.85,10.181-9.083c0.647-5.636-3.376-10.727-9.011-11.372c-6.948-0.812-14.021-1.222-21.01-1.222h-0.451
		c-5.676,0-10.038,4.599-10.038,10.264C317.941,82.395,322.755,86.993,328.43,86.993z"/>
	<path fill="#FC2B27" d="M504.284,239.046c1.159,4.66,5.348,7.771,9.945,7.771c0.831,0,1.662-0.104,2.504-0.309
		c5.501-1.375,8.837-6.947,7.462-12.448c-1.714-6.825-3.735-13.671-6.024-20.344c-1.848-5.356-7.625-8.23-13.045-6.372
		c-5.348,1.837-8.211,7.677-6.373,13.045C500.846,226.494,502.703,232.775,504.284,239.046z"/>
	<path fill="#FC2B27" d="M249.679,106.094c1.569,0,3.172-0.359,4.658-1.119c5.707-2.915,11.608-5.521,17.53-7.729
		c5.307-1.979,7.995-7.901,6.015-13.209c-1.979-5.315-7.852-8.016-13.209-6.014c-6.641,2.482-13.271,5.408-19.675,8.672
		c-5.04,2.576-7.041,8.755-4.465,13.805C242.341,104.061,245.943,106.094,249.679,106.094z"/>
	<path fill="#FC2B27" d="M462.081,441.524c-4.096,5.039-8.437,9.883-12.911,14.399c-3.992,4.032-3.951,10.529,0.082,14.521
		c2.002,1.971,4.607,2.966,7.216,2.966c2.646,0,5.296-1.016,7.297-3.048c4.927-4.988,9.72-10.335,14.234-15.878
		c3.582-4.402,2.915-10.868-1.487-14.439S465.653,437.132,462.081,441.524z"/>
	<path fill="#FC2B27" d="M521.722,287.038c-5.676,0-10.265,4.927-10.265,10.604c0,6.332-0.235,12.675-0.719,18.863
		c-0.439,5.655,3.788,10.593,9.442,11.022c0.268,0.021,0.544,0.031,0.801,0.031c5.316,0,9.802-4.085,10.223-9.475
		c0.523-6.702,0.78-13.589,0.78-20.443v-0.667C531.986,291.298,527.398,287.038,521.722,287.038z"/>
	<path fill="#FC2B27" d="M429.588,96.979c-6.016-3.921-12.267-7.523-18.599-10.705c-5.08-2.565-11.237-0.513-13.784,4.547
		c-2.556,5.061-0.522,11.238,4.537,13.784c5.655,2.843,11.248,6.064,16.626,9.576c1.735,1.129,3.664,1.662,5.595,1.662
		c3.355,0,6.641-1.643,8.61-4.659C435.683,106.432,434.34,100.069,429.588,96.979z"/>
	<path fill="#FC2B27" d="M402.882,490.121c-5.687,2.915-11.577,5.532-17.51,7.771c-5.307,1.991-7.984,7.913-5.983,13.22
		c1.54,4.115,5.45,6.65,9.605,6.65c1.201,0,2.423-0.216,3.623-0.667c6.661-2.516,13.281-5.45,19.655-8.725
		c5.039-2.587,7.03-8.774,4.443-13.813C414.11,489.515,407.942,487.514,402.882,490.121z"/>
	<path fill="#FC2B27" d="M145.392,297.64c0-6.396,0.257-12.882,0.76-19.285c0.44-5.655-3.777-10.592-9.433-11.044
		c-5.553-0.38-10.593,3.776-11.033,9.422c-0.544,6.938-0.82,13.969-0.82,20.896v0.227c0,5.666,4.588,10.15,10.263,10.15
		C140.804,308.007,145.392,303.305,145.392,297.64z"/>
	<path fill="#FC2B27" d="M512.167,367.237c-5.357-1.807-11.197,1.088-13.005,6.445c-2.072,6.137-4.434,12.243-7.01,18.166
		c-2.268,5.192,0.123,11.249,5.316,13.507c1.335,0.585,2.729,0.852,4.085,0.852c3.973,0,7.739-2.309,9.422-6.168
		c2.802-6.456,5.368-13.117,7.626-19.809C520.429,374.873,517.545,369.053,512.167,367.237z"/>
	<path fill="#FC2B27" d="M489.865,156.785c-3.973-5.86-8.263-11.598-12.748-17.059c-3.611-4.372-10.058-5.008-14.45-1.405
		c-4.372,3.602-4.998,10.068-1.405,14.45c4.085,4.968,7.995,10.191,11.606,15.528c1.981,2.936,5.226,4.506,8.51,4.506
		c1.979,0,3.981-0.574,5.746-1.766C491.814,167.859,493.047,161.475,489.865,156.785z"/>
	<path fill="#FC2B27" d="M328.43,508.288c-6.373,0-12.798-0.38-19.06-1.129c-5.799-0.575-10.746,3.355-11.413,8.98
		c-0.667,5.624,3.347,10.734,8.971,11.412c7.082,0.842,14.328,1.272,21.513,1.272h0.872c5.676,0,9.822-4.599,9.822-10.264
		S334.106,508.288,328.43,508.288z"/>
	<path fill="#FC2B27" d="M152.453,355.824c-1.375-5.502-6.948-8.868-12.438-7.482c-5.501,1.365-8.848,6.938-7.482,12.439
		c1.704,6.835,3.727,13.681,6.005,20.353c1.457,4.271,5.439,6.948,9.709,6.948c1.099,0,2.217-0.185,3.315-0.555
		c5.356-1.837,8.229-7.666,6.394-13.034C155.871,368.386,154.024,362.094,152.453,355.824z"/>
	<path fill="#FC2B27" d="M254.718,490.502c-5.664-2.874-11.259-6.117-16.604-9.628c-4.752-3.108-11.096-1.766-14.216,2.967
		c-3.1,4.741-1.775,11.104,2.967,14.205c5.983,3.921,12.224,7.532,18.577,10.756c1.487,0.76,3.067,1.107,4.628,1.107
		c3.746,0,7.359-2.053,9.166-5.613C261.8,499.246,259.788,493.067,254.718,490.502z"/>
	<path fill="#FC2B27" d="M159.586,189.525c-5.224-2.299-11.237,0.082-13.517,5.274c-2.812,6.426-5.398,13.087-7.677,19.799
		c-1.817,5.367,1.066,11.196,6.425,13.023c1.088,0.369,2.206,0.544,3.294,0.544c4.28,0,8.271-2.699,9.72-6.969
		c2.084-6.158,4.454-12.265,7.041-18.146C167.14,197.848,164.78,191.803,159.586,189.525z"/>
	<path fill="#FC2B27" d="M193.405,124.608c-4.947,4.988-9.75,10.325-14.267,15.848c-3.593,4.394-2.936,10.858,1.458,14.44
		c1.908,1.56,4.208,2.318,6.485,2.318c2.978,0,5.934-1.282,7.954-3.767c4.095-5.019,8.447-9.853,12.942-14.379
		c3.992-4.023,3.972-10.521-0.062-14.513C203.894,120.565,197.397,120.575,193.405,124.608z"/>
	<path fill="#FC2B27" d="M183.716,426.633c-3.182-4.701-9.545-5.922-14.256-2.762c-4.689,3.183-5.922,9.556-2.751,14.257
		c4.023,5.941,8.293,11.688,12.706,17.077c2.032,2.475,4.968,3.758,7.944,3.758c2.288,0,4.588-0.761,6.496-2.33
		c4.394-3.604,5.02-10.06,1.438-14.451C191.29,437.285,187.39,432.052,183.716,426.633z"/>
	<path fill="#FC2B27" d="M411.339,336.252c-6.158,0-10.131,3.981-10.131,10.13c0,10.008-2.996,17.858-9.164,24.037
		c-6.168,6.168-13.486,9.165-22.364,9.165h-76.411c7.688-10.633,11.566-25.095,11.566-43.188l0.051-49.851h39.803
		c6.158,0,10.13-3.981,10.13-10.13c0-6.147-3.972-10.131-10.13-10.131l-39.854-0.051v-46.463c0-15.59,3.254-27.444,9.657-35.244
		c6.25-7.596,14.379-11.29,24.858-11.29c10.674,0,19.079,3.212,25.647,9.771c6.426,6.62,9.546,15.364,9.546,26.747
		c0,6.157,3.98,10.131,10.13,10.131c6.146,0,10.13-3.982,10.13-10.131c0-16.627-5.132-30.38-15.272-40.89
		c-10.181-10.541-23.698-15.889-40.181-15.889c-16.606,0-30.146,5.983-40.265,17.838c-9.638,11.547-14.521,28.01-14.521,48.947
		l-0.052,46.514h-23.145c-6.158,0-10.131,3.981-10.131,10.13s3.981,10.13,10.131,10.13l23.195,0.052v49.81
		c0,14.461-3.069,25.453-9.135,32.688c-5.923,7.062-13.25,10.5-22.396,10.5c-6.158,0-10.13,3.973-10.13,10.119
		c0,6.148,3.972,10.132,10.13,10.132H369.69c14.707,0,27.156-5.123,36.999-15.212c9.812-10.048,14.79-22.918,14.79-38.241
		C421.479,340.233,417.496,336.252,411.339,336.252z"/>
</g>
</svg>
