<?xml version="1.0" encoding="utf-8"?>
<!-- Generator: Adobe Illustrator 16.0.0, SVG Export Plug-In . SVG Version: 6.00 Build 0)  -->
<!DOCTYPE svg PUBLIC "-//W3C//DTD SVG 1.1//EN" "http://www.w3.org/Graphics/SVG/1.1/DTD/svg11.dtd">
<svg version="1.1" id="Layer_1" xmlns="http://www.w3.org/2000/svg" xmlns:xlink="http://www.w3.org/1999/xlink" x="0px" y="0px"
	 width="595.279px" height="594px" viewBox="0 0 595.279 594" enable-background="new 0 0 595.279 594" xml:space="preserve">
<g id="Capa_1">
	<g>
		<path fill="#009BEF" d="M297,0C132.961,0,0,132.963,0,297c0,164.041,132.961,297,297,297c164.039,0,297-132.978,297-297
			C594,132.984,461.036,0,297,0z M419.732,329.148h-90.586v90.586c0,17.747-14.399,32.148-32.146,32.148
			c-17.75,0-32.148-14.401-32.148-32.148v-90.586h-90.584c-17.749,0-32.148-14.396-32.148-32.148
			c0-17.747,14.399-32.144,32.148-32.144h90.584V174.27c0-17.747,14.399-32.148,32.148-32.148c17.747,0,32.146,14.401,32.146,32.148
			v90.586h90.586c17.747,0,32.148,14.397,32.148,32.144C451.881,314.75,437.479,329.148,419.732,329.148z"/>
	</g>
</g>
<g id="Layer_2">
</g>
</svg>
