<?xml version="1.0" encoding="utf-8"?>
<!-- Generator: Adobe Illustrator 16.0.0, SVG Export Plug-In . SVG Version: 6.00 Build 0)  -->
<!DOCTYPE svg PUBLIC "-//W3C//DTD SVG 1.1//EN" "http://www.w3.org/Graphics/SVG/1.1/DTD/svg11.dtd">
<svg version="1.1" id="Capa_1" xmlns="http://www.w3.org/2000/svg" xmlns:xlink="http://www.w3.org/1999/xlink" x="0px" y="0px"
	 width="205.887px" height="256.609px" viewBox="0 0 205.887 256.609" enable-background="new 0 0 205.887 256.609"
	 xml:space="preserve">
<g>
	<g id="_x38_7_36_">
		<g>
			<path fill="#009BEF" d="M35.497,127.533c-6.854,0-6.854,10.646,0,10.646c27.294,0,54.583,0,81.875,0
				c6.864,0,6.864-10.646,0-10.646C90.08,127.533,62.791,127.533,35.497,127.533z"/>
			<path fill="#009BEF" d="M117.372,161.018c-27.292,0-54.581,0-81.875,0c-6.854,0-6.854,10.633,0,10.633
				c27.294,0,54.583,0,81.875,0C124.239,171.65,124.239,161.018,117.372,161.018z"/>
			<path fill="#009BEF" d="M115.809,194.934c-27.302,0-54.602,0-81.891,0c-6.849,0-6.849,10.633,0,10.633
				c27.289,0,54.589,0,81.891,0C122.654,205.566,122.654,194.934,115.809,194.934z"/>
			<path fill="#009BEF" d="M0,58.087V256.61h152.877V85.63l-28.405-27.543H0z M139.664,243.393H13.224V71.305h104.442v20.97h21.987
				v151.118H139.664z"/>
			<polygon fill="#009BEF" points="25.843,27.667 25.843,50.645 39.066,50.645 39.066,40.88 143.514,40.88 143.514,61.85 
				165.507,61.85 165.507,212.971 159.698,212.971 159.698,226.188 178.725,226.188 178.725,55.205 150.319,27.667 			"/>
			<polygon fill="#009BEF" points="177.476,0 53.001,0 53.001,22.983 66.22,22.983 66.22,13.218 170.67,13.218 170.67,34.188 
				192.663,34.188 192.663,185.306 186.86,185.306 186.86,198.523 205.887,198.523 205.887,27.543 			"/>
		</g>
	</g>
</g>
</svg>
