<?xml version="1.0" encoding="utf-8"?>
<!-- Generator: Adobe Illustrator 16.0.0, SVG Export Plug-In . SVG Version: 6.00 Build 0)  -->
<!DOCTYPE svg PUBLIC "-//W3C//DTD SVG 1.1//EN" "http://www.w3.org/Graphics/SVG/1.1/DTD/svg11.dtd">
<svg version="1.1" id="Capa_1" xmlns="http://www.w3.org/2000/svg" xmlns:xlink="http://www.w3.org/1999/xlink" x="0px" y="0px"
	 width="205.887px" height="256.609px" viewBox="0 0 205.887 256.609" enable-background="new 0 0 205.887 256.609"
	 xml:space="preserve">
<g>
	<g id="_x38_7_36_">
		<g>
			<path fill="#FFFFFF" d="M35.497,127.761c-6.854,0-6.854,10.647,0,10.647c27.294,0,54.583,0,81.875,0
				c6.864,0,6.864-10.647,0-10.647C90.08,127.761,62.791,127.761,35.497,127.761z"/>
			<path fill="#FFFFFF" d="M117.372,161.246c-27.292,0-54.581,0-81.875,0c-6.854,0-6.854,10.633,0,10.633
				c27.294,0,54.583,0,81.875,0C124.239,171.879,124.239,161.246,117.372,161.246z"/>
			<path fill="#FFFFFF" d="M115.809,195.162c-27.302,0-54.602,0-81.891,0c-6.849,0-6.849,10.633,0,10.633
				c27.289,0,54.589,0,81.891,0C122.654,205.795,122.654,195.162,115.809,195.162z"/>
			<path fill="#FFFFFF" d="M0,58.315v198.523h152.877V85.858l-28.405-27.543H0z M139.664,243.621H13.224V71.533h104.442v20.97
				h21.987v151.118H139.664z"/>
			<polygon fill="#FFFFFF" points="25.843,27.895 25.843,50.873 39.066,50.873 39.066,41.108 143.514,41.108 143.514,62.078 
				165.507,62.078 165.507,213.199 159.698,213.199 159.698,226.416 178.725,226.416 178.725,55.433 150.319,27.895 			"/>
			<polygon fill="#FFFFFF" points="177.476,0.228 53.001,0.228 53.001,23.211 66.22,23.211 66.22,13.446 170.67,13.446 
				170.67,34.416 192.663,34.416 192.663,185.535 186.86,185.535 186.86,198.752 205.887,198.752 205.887,27.771 			"/>
		</g>
	</g>
</g>
</svg>
