<?xml version="1.0" encoding="utf-8"?>
<!-- Generator: Adobe Illustrator 16.0.0, SVG Export Plug-In . SVG Version: 6.00 Build 0)  -->
<!DOCTYPE svg PUBLIC "-//W3C//DTD SVG 1.1//EN" "http://www.w3.org/Graphics/SVG/1.1/DTD/svg11.dtd">
<svg version="1.1" id="Layer_1" xmlns="http://www.w3.org/2000/svg" xmlns:xlink="http://www.w3.org/1999/xlink" x="0px" y="0px"
	 width="595.279px" height="595.281px" viewBox="0 0 595.279 595.281" enable-background="new 0 0 595.279 595.281"
	 xml:space="preserve">
<g transform="translate(1 1)">
	<g>
		<g>
			<path fill="#FFFFFF" d="M584.358,534.752h-29.764V8.921c0-5.952-3.968-9.921-9.92-9.921H48.607c-5.953,0-9.921,3.969-9.921,9.921
				v525.83H8.921c-5.953,0-9.921,3.969-9.921,9.921v39.686c0,5.953,3.968,9.921,9.921,9.921h575.437
				c5.953,0,9.921-3.968,9.921-9.921v-39.686C594.28,538.72,590.311,534.752,584.358,534.752z M58.529,18.843h476.223v515.909
				h-148.82V425.617c0-5.952-3.968-9.92-9.921-9.92h-79.37h-79.371c-5.953,0-9.921,3.968-9.921,9.92v109.135H58.529V18.843z
				 M227.191,534.752V435.54h59.528v99.212H227.191z M306.562,435.538h59.528v99.213h-59.528V435.538z M574.438,574.437H18.843
				v-19.842h29.764H217.27h79.371h79.371h168.663h29.764L574.438,574.437L574.438,574.437z"/>
			<path fill="#FFFFFF" d="M187.505,48.606h-79.37c-5.953,0-9.921,3.969-9.921,9.921v59.528c0,5.953,3.968,9.921,9.921,9.921h79.371
				c5.952,0,9.921-3.968,9.921-9.921V58.528C197.427,52.576,193.457,48.606,187.505,48.606z M177.584,108.135h-59.528V68.449h59.528
				V108.135z"/>
			<path fill="#FFFFFF" d="M187.505,157.741h-79.37c-5.953,0-9.921,3.969-9.921,9.921v59.528c0,5.953,3.968,9.921,9.921,9.921
				h79.371c5.952,0,9.921-3.968,9.921-9.921v-59.528C197.427,161.71,193.457,157.741,187.505,157.741z M177.584,217.269h-59.528
				v-39.686h59.528V217.269z"/>
			<path fill="#FFFFFF" d="M256.954,237.112h79.37c5.953,0,9.921-3.968,9.921-9.921v-59.528c0-5.952-3.968-9.921-9.921-9.921h-79.37
				c-5.953,0-9.921,3.969-9.921,9.921v59.528C247.033,233.143,251.001,237.112,256.954,237.112z M266.876,177.584h59.528v39.686
				h-59.528V177.584z"/>
			<path fill="#FFFFFF" d="M405.774,237.112h79.372c5.952,0,9.92-3.968,9.92-9.921v-59.528c0-5.952-3.968-9.921-9.92-9.921h-79.372
				c-5.952,0-9.92,3.969-9.92,9.921v59.528C395.854,233.143,399.822,237.112,405.774,237.112z M415.697,177.584h59.528v39.686
				h-59.528V177.584z"/>
			<path fill="#FFFFFF" d="M256.954,346.247h79.37c5.953,0,9.921-3.968,9.921-9.921v-59.528c0-5.952-3.968-9.921-9.921-9.921h-79.37
				c-5.953,0-9.921,3.969-9.921,9.921v59.528C247.033,342.278,251.001,346.247,256.954,346.247z M266.876,286.719h59.528v39.686
				h-59.528V286.719z"/>
			<path fill="#FFFFFF" d="M405.774,346.247h79.372c5.952,0,9.92-3.968,9.92-9.921v-59.528c0-5.952-3.968-9.921-9.92-9.921h-79.372
				c-5.952,0-9.92,3.969-9.92,9.921v59.528C395.854,342.278,399.822,346.247,405.774,346.247z M415.697,286.719h59.528v39.686
				h-59.528V286.719z"/>
			<path fill="#FFFFFF" d="M187.505,266.876h-79.37c-5.953,0-9.921,3.969-9.921,9.921v59.528c0,5.953,3.968,9.921,9.921,9.921
				h79.371c5.952,0,9.921-3.968,9.921-9.921v-59.528C197.427,270.844,193.457,266.876,187.505,266.876z M177.584,326.404h-59.528
				v-39.686h59.528V326.404z"/>
			<path fill="#FFFFFF" d="M256.954,127.977h79.37c5.953,0,9.921-3.968,9.921-9.921V58.528c0-5.952-3.968-9.921-9.921-9.921h-79.37
				c-5.953,0-9.921,3.969-9.921,9.921v59.528C247.033,124.009,251.001,127.977,256.954,127.977z M266.876,68.449h59.528v39.686
				h-59.528V68.449z"/>
			<path fill="#FFFFFF" d="M405.774,127.977h79.372c5.952,0,9.92-3.968,9.92-9.921V58.528c0-5.952-3.968-9.921-9.92-9.921h-79.372
				c-5.952,0-9.92,3.969-9.92,9.921v59.528C395.854,124.009,399.822,127.977,405.774,127.977z M415.697,68.449h59.528v39.686
				h-59.528V68.449z"/>
			<path fill="#FFFFFF" d="M237.113,395.853h119.055c5.953,0,9.921-3.968,9.921-9.921c0-5.952-3.968-9.921-9.921-9.921H237.113
				c-5.953,0-9.921,3.969-9.921,9.921C227.191,391.885,231.159,395.853,237.113,395.853z"/>
		</g>
	</g>
</g>
</svg>
