<?xml version="1.0" encoding="utf-8"?>
<!-- Generator: Adobe Illustrator 16.0.0, SVG Export Plug-In . SVG Version: 6.00 Build 0)  -->
<!DOCTYPE svg PUBLIC "-//W3C//DTD SVG 1.1//EN" "http://www.w3.org/Graphics/SVG/1.1/DTD/svg11.dtd">
<svg version="1.1" id="Layer_1" xmlns="http://www.w3.org/2000/svg" xmlns:xlink="http://www.w3.org/1999/xlink" x="0px" y="0px"
	 width="25.632px" height="30px" viewBox="0 0 25.632 30" enable-background="new 0 0 25.632 30" xml:space="preserve">
<g id="Layer_2">
</g>
<g>
	<path fill="#4383CD" d="M25.624,23.694c-0.035-1.233-0.117-4.12-2.822-5.044c-0.022-0.008-0.047-0.017-0.064-0.021
		c-2.813-0.714-5.153-2.336-5.181-2.357c-0.378-0.271-0.902-0.177-1.171,0.205c-0.27,0.379-0.175,0.905,0.205,1.175
		c0.108,0.074,2.586,1.801,5.694,2.598c1.453,0.523,1.615,2.074,1.654,3.497c0,0.055,0,0.105,0.008,0.154
		c0.009,0.564-0.029,1.427-0.13,1.928c-1.011,0.577-4.969,2.561-10.999,2.561c-6.001,0-9.988-1.99-11.005-2.565
		c-0.1-0.5-0.144-1.366-0.13-1.928c0-0.048,0.005-0.102,0.005-0.156c0.044-1.424,0.206-2.979,1.66-3.497
		c3.106-0.793,5.587-2.532,5.694-2.599c0.38-0.269,0.472-0.792,0.205-1.174c-0.268-0.379-0.791-0.472-1.172-0.204
		c-0.024,0.019-2.353,1.64-5.178,2.357c-0.025,0.006-0.044,0.014-0.062,0.021c-2.709,0.929-2.789,3.815-2.828,5.045
		c0,0.054,0,0.104-0.005,0.154c0,0.004,0,0.012,0,0.02c-0.007,0.324-0.013,1.986,0.317,2.823c0.063,0.162,0.175,0.303,0.325,0.394
		c0.186,0.126,4.671,2.982,12.177,2.982c7.508,0,11.992-2.863,12.183-2.982c0.139-0.091,0.26-0.231,0.321-0.394
		c0.313-0.829,0.306-2.494,0.306-2.82c0-0.003,0-0.011,0-0.019C25.632,23.805,25.624,23.75,25.624,23.694z"/>
	<path fill="#4383CD" d="M12.704,16.168c0.033,0,0.062,0,0.102,0c0.01,0,0.023,0,0.037,0c0.018,0,0.043,0,0.061,0
		c1.827-0.03,3.308-0.67,4.4-1.901c2.402-2.709,2.002-7.349,1.958-7.792c-0.155-3.325-1.728-4.917-3.025-5.659
		c-0.967-0.553-2.095-0.855-3.354-0.879h-0.043c-0.009,0-0.021,0-0.027,0h-0.037c-0.694,0-2.053,0.113-3.357,0.855
		C8.108,1.534,6.511,3.125,6.356,6.475c-0.044,0.444-0.442,5.085,1.957,7.792C9.397,15.495,10.876,16.135,12.704,16.168z
		 M8.025,6.631c0-0.018,0.006-0.039,0.006-0.049c0.205-4.474,3.38-4.954,4.741-4.954h0.025c0.012,0,0.031,0,0.048,0
		c1.686,0.037,4.55,0.724,4.742,4.954c0,0.019,0,0.037,0.005,0.049c0.007,0.045,0.443,4.286-1.541,6.52
		c-0.786,0.885-1.834,1.322-3.212,1.335c-0.014,0-0.021,0-0.032,0c-0.014,0-0.021,0-0.032,0c-1.374-0.013-2.428-0.45-3.203-1.335
		C7.595,10.93,8.019,6.668,8.025,6.631z"/>
</g>
</svg>
