<?xml version="1.0" encoding="utf-8"?>
<!-- Generator: Adobe Illustrator 16.0.0, SVG Export Plug-In . SVG Version: 6.00 Build 0)  -->
<!DOCTYPE svg PUBLIC "-//W3C//DTD SVG 1.1//EN" "http://www.w3.org/Graphics/SVG/1.1/DTD/svg11.dtd">
<svg version="1.1" id="Capa_1" xmlns="http://www.w3.org/2000/svg" xmlns:xlink="http://www.w3.org/1999/xlink" x="0px" y="0px"
	 width="595.279px" height="423.195px" viewBox="0 0 595.279 423.195" enable-background="new 0 0 595.279 423.195"
	 xml:space="preserve">
<g>
	<g>
		<path fill="#28A197" d="M481.971,326.855c-2.361,0-4.723-0.864-6.564-2.611l-110.45-103.615c-3.857-3.607-4.05-9.692-0.422-13.552
			c3.628-3.896,9.675-4.069,13.57-0.422l110.45,103.615c3.857,3.607,4.05,9.692,0.422,13.552
			C487.077,325.838,484.544,326.855,481.971,326.855z"/>
		<path fill="#28A197" d="M113.29,326.855c-2.554,0-5.105-1.019-7.007-3.033c-3.628-3.858-3.436-9.943,0.423-13.552l110.487-103.615
			c3.877-3.609,9.962-3.455,13.57,0.422c3.628,3.858,3.437,9.943-0.423,13.552L119.855,324.244
			C118.012,325.991,115.651,326.855,113.29,326.855z"/>
	</g>
	<path fill="#28A197" d="M547.292,423.195H47.988C21.537,423.195,0,401.677,0,375.208V47.987C0,21.517,21.537,0,47.988,0h499.306
		c26.45,0,47.986,21.519,47.986,47.987v327.221C595.28,401.677,573.743,423.195,547.292,423.195z M47.988,19.195
		c-15.874,0-28.792,12.918-28.792,28.792v327.221c0,15.874,12.918,28.794,28.792,28.794h499.306
		c15.873,0,28.793-12.92,28.793-28.794V47.987c0-15.874-12.92-28.792-28.793-28.792H47.988z"/>
	<path fill="#28A197" d="M297.64,259.825c-12.766,0-25.529-4.242-35.242-12.707L15.932,32.113c-3.992-3.475-4.415-9.54-0.94-13.552
		c3.513-3.992,9.561-4.357,13.552-0.922L275.01,232.625c12.266,10.691,32.996,10.691,45.243,0L566.41,17.985
		c3.975-3.474,10.021-3.09,13.553,0.922c3.475,4.012,3.07,10.058-0.922,13.552L332.883,247.099
		C323.151,255.583,310.405,259.825,297.64,259.825z"/>
</g>
</svg>
