<?xml version="1.0" encoding="iso-8859-1"?>
<!-- Generator: Adobe Illustrator 16.0.0, SVG Export Plug-In . SVG Version: 6.00 Build 0)  -->
<!DOCTYPE svg PUBLIC "-//W3C//DTD SVG 1.1//EN" "http://www.w3.org/Graphics/SVG/1.1/DTD/svg11.dtd">
<svg version="1.1" id="Capa_1" xmlns="http://www.w3.org/2000/svg" xmlns:xlink="http://www.w3.org/1999/xlink" x="0px" y="0px"
	 width="66px" height="66px" viewBox="0 0 66 66" style="enable-background:new 0 0 66 66;" xml:space="preserve">
<g>
	<g>
		<g>
			<path d="M10.881,17c-1.104,0-2-0.896-2-2V2c0-1.104,0.896-2,2-2s2,0.896,2,2v13C12.881,16.104,11.985,17,10.881,17z"/>
		</g>
		<g>
			<path d="M10.881,66c-1.104,0-2-0.896-2-2V33c0-1.104,0.896-2,2-2s2,0.896,2,2v31C12.881,65.104,11.985,66,10.881,66z"/>
		</g>
		<g>
			<g>
				<path d="M10.5,34.907c-5.664,0-10.271-4.607-10.271-10.271c0-5.664,4.607-10.271,10.271-10.271s10.271,4.607,10.271,10.271
					C20.771,30.299,16.164,34.907,10.5,34.907z M10.5,18.364c-3.458,0-6.271,2.812-6.271,6.271s2.813,6.271,6.271,6.271
					s6.271-2.813,6.271-6.271S13.958,18.364,10.5,18.364z"/>
			</g>
			<g>
				<path d="M12.36,22.29c-0.063,0-0.129-0.006-0.193-0.019l-0.278-0.055c-0.542-0.106-0.896-0.633-0.789-1.174
					c0.106-0.542,0.631-0.896,1.174-0.789l0.278,0.055c0.542,0.106,0.896,0.633,0.789,1.174C13.247,21.96,12.829,22.29,12.36,22.29z
					"/>
			</g>
			<g>
				<path d="M7.071,26.636c-0.553,0-1-0.447-1-1c0-1.938,1.047-3.746,2.731-4.713c0.479-0.274,1.091-0.11,1.365,0.369
					c0.275,0.479,0.109,1.091-0.369,1.365C8.733,23.268,8.07,24.41,8.07,25.636C8.071,26.188,7.624,26.636,7.071,26.636z"/>
			</g>
		</g>
		<g>
			<path d="M32.881,35c-1.104,0-2-0.896-2-2V2c0-1.104,0.896-2,2-2s2,0.896,2,2v31C34.881,34.104,33.985,35,32.881,35z"/>
		</g>
		<g>
			<path d="M32.881,66c-1.104,0-2-0.896-2-2V51c0-1.104,0.896-2,2-2s2,0.896,2,2v13C34.881,65.104,33.985,66,32.881,66z"/>
		</g>
		<g>
			<g>
				<path d="M32.5,52.907c-5.664,0-10.271-4.607-10.271-10.271c0-5.663,4.607-10.271,10.271-10.271
					c5.665,0,10.271,4.606,10.271,10.271S38.165,52.907,32.5,52.907z M32.5,36.364c-3.458,0-6.271,2.812-6.271,6.271
					s2.813,6.271,6.271,6.271c3.458,0,6.271-2.813,6.271-6.271S35.958,36.364,32.5,36.364z"/>
			</g>
			<g>
				<path d="M34.36,40.29c-0.062,0-0.129-0.006-0.193-0.019l-0.277-0.056c-0.542-0.106-0.896-0.633-0.789-1.174
					c0.106-0.543,0.632-0.897,1.174-0.789l0.277,0.056c0.543,0.105,0.896,0.633,0.789,1.174C35.247,39.96,34.829,40.29,34.36,40.29z
					"/>
			</g>
			<g>
				<path d="M29.071,44.636c-0.553,0-1-0.446-1-1c0-1.938,1.047-3.745,2.731-4.713c0.48-0.274,1.091-0.11,1.365,0.369
					c0.275,0.479,0.109,1.091-0.369,1.365c-1.065,0.61-1.728,1.753-1.728,2.979C30.071,44.188,29.624,44.636,29.071,44.636z"/>
			</g>
		</g>
		<g>
			<path d="M55.881,10c-1.104,0-2-0.896-2-2V2c0-1.104,0.896-2,2-2c1.104,0,2,0.896,2,2v6C57.881,9.104,56.985,10,55.881,10z"/>
		</g>
		<g>
			<path d="M55.881,66c-1.104,0-2-0.896-2-2V26c0-1.104,0.896-2,2-2c1.104,0,2,0.896,2,2v38C57.881,65.104,56.985,66,55.881,66z"/>
		</g>
		<g>
			<g>
				<path d="M55.5,27.907c-5.664,0-10.271-4.607-10.271-10.271c0-5.664,4.607-10.271,10.271-10.271s10.271,4.607,10.271,10.271
					C65.771,23.299,61.165,27.907,55.5,27.907z M55.5,11.364c-3.459,0-6.271,2.812-6.271,6.271s2.812,6.271,6.271,6.271
					c3.457,0,6.271-2.813,6.271-6.271S58.958,11.364,55.5,11.364z"/>
			</g>
			<g>
				<path d="M57.36,15.29c-0.062,0-0.129-0.006-0.193-0.019l-0.277-0.055c-0.542-0.106-0.896-0.633-0.789-1.174
					c0.105-0.542,0.632-0.896,1.174-0.789l0.277,0.055c0.543,0.106,0.896,0.633,0.789,1.174C58.247,14.96,57.829,15.29,57.36,15.29z
					"/>
			</g>
			<g>
				<path d="M52.071,19.636c-0.553,0-1-0.447-1-1c0-1.938,1.047-3.746,2.73-4.713c0.479-0.273,1.091-0.109,1.365,0.369
					c0.275,0.479,0.109,1.091-0.369,1.365c-1.064,0.611-1.728,1.753-1.728,2.979C53.071,19.188,52.624,19.636,52.071,19.636z"/>
			</g>
		</g>
	</g>
</g>
<g>
</g>
<g>
</g>
<g>
</g>
<g>
</g>
<g>
</g>
<g>
</g>
<g>
</g>
<g>
</g>
<g>
</g>
<g>
</g>
<g>
</g>
<g>
</g>
<g>
</g>
<g>
</g>
<g>
</g>
</svg>
