<?xml version="1.0" encoding="utf-8"?>
<!-- Generator: Adobe Illustrator 16.0.0, SVG Export Plug-In . SVG Version: 6.00 Build 0)  -->
<!DOCTYPE svg PUBLIC "-//W3C//DTD SVG 1.1//EN" "http://www.w3.org/Graphics/SVG/1.1/DTD/svg11.dtd">
<svg version="1.1" id="Layer_1" xmlns="http://www.w3.org/2000/svg" xmlns:xlink="http://www.w3.org/1999/xlink" x="0px" y="0px"
	 width="534.367px" height="534.367px" viewBox="0 0 534.367 534.367" enable-background="new 0 0 534.367 534.367"
	 xml:space="preserve">
<g>
	<g>
		<path fill="#98B3C9" d="M268.113,0.317C120.715,0.317,0.79,120.234,0.79,267.642c0,147.406,119.923,267.323,267.323,267.323
			s267.325-119.917,267.325-267.323C535.438,120.234,415.512,0.317,268.113,0.317z M268.113,496.062
			c-125.952,0-228.422-102.47-228.422-228.422c0-125.954,102.47-228.423,228.422-228.423c125.954,0,228.423,102.47,228.423,228.423
			C496.536,393.593,394.067,496.062,268.113,496.062z"/>
		<circle fill="#98B3C9" cx="268.113" cy="161.048" r="27.514"/>
		<path fill="#98B3C9" d="M268.113,233.439c-9.081,0-16.451,7.37-16.451,16.449v139.833c0,9.081,7.37,16.449,16.451,16.449
			c9.082,0,16.452-7.369,16.452-16.449V249.89C284.565,240.802,277.195,233.439,268.113,233.439z"/>
	</g>
</g>
</svg>
