<?xml version="1.0" encoding="utf-8"?>
<!-- Generator: Adobe Illustrator 16.0.0, SVG Export Plug-In . SVG Version: 6.00 Build 0)  -->
<!DOCTYPE svg PUBLIC "-//W3C//DTD SVG 1.1//EN" "http://www.w3.org/Graphics/SVG/1.1/DTD/svg11.dtd">
<svg version="1.1" id="Capa_1" xmlns="http://www.w3.org/2000/svg" xmlns:xlink="http://www.w3.org/1999/xlink" x="0px" y="0px"
	 width="595.279px" height="595.281px" viewBox="0 0 595.279 595.281" enable-background="new 0 0 595.279 595.281"
	 xml:space="preserve">
<g>
	<path fill="#757575" d="M0,4.961V590.32H595.28V4.961H0z M575.438,570.477H19.843V24.803h555.595V570.477z"/>
	<path fill="#757575" d="M128.978,114.095h347.246c5.486,0,9.922-4.435,9.922-9.921c0-5.487-4.436-9.922-9.922-9.922H128.978
		c-5.487,0-9.922,4.435-9.922,9.922C119.056,109.661,123.49,114.095,128.978,114.095z"/>
	<path fill="#757575" d="M128.978,183.545h347.246c5.486,0,9.922-4.435,9.922-9.921c0-5.487-4.436-9.922-9.922-9.922H128.978
		c-5.487,0-9.922,4.435-9.922,9.922C119.056,179.11,123.49,183.545,128.978,183.545z"/>
	<path fill="#757575" d="M128.978,272.837H297.64c5.486,0,9.921-4.435,9.921-9.921s-4.435-9.922-9.921-9.922H128.978
		c-5.487,0-9.922,4.436-9.922,9.922S123.49,272.837,128.978,272.837z"/>
	<path fill="#757575" d="M128.978,342.286H297.64c5.486,0,9.921-4.435,9.921-9.921s-4.435-9.922-9.921-9.922H128.978
		c-5.487,0-9.922,4.436-9.922,9.922S123.49,342.286,128.978,342.286z"/>
	<path fill="#757575" d="M128.978,431.579h347.246c5.486,0,9.922-4.436,9.922-9.922s-4.436-9.921-9.922-9.921H128.978
		c-5.487,0-9.922,4.435-9.922,9.921S123.49,431.579,128.978,431.579z"/>
	<path fill="#757575" d="M128.978,501.028h347.246c5.486,0,9.922-4.436,9.922-9.922s-4.436-9.921-9.922-9.921H128.978
		c-5.487,0-9.922,4.435-9.922,9.921S123.49,501.028,128.978,501.028z"/>
	<path fill="#757575" d="M446.46,221.504L351.85,302.6l94.61,81.098v-41.412h79.37v-79.37h-79.37V221.504z M505.988,282.759v39.685
		h-79.37v18.117l-44.289-37.96l44.289-37.959v18.117H505.988z"/>
</g>
</svg>
