<?xml version="1.0" encoding="utf-8"?>
<!-- Generator: Adobe Illustrator 16.0.0, SVG Export Plug-In . SVG Version: 6.00 Build 0)  -->
<!DOCTYPE svg PUBLIC "-//W3C//DTD SVG 1.1//EN" "http://www.w3.org/Graphics/SVG/1.1/DTD/svg11.dtd">
<svg version="1.1" id="Capa_1" xmlns="http://www.w3.org/2000/svg" xmlns:xlink="http://www.w3.org/1999/xlink" x="0px" y="0px"
	 width="595.279px" height="595.281px" viewBox="0 0 595.279 595.281" enable-background="new 0 0 595.279 595.281"
	 xml:space="preserve">
<g>
	<path fill="#009BEF" d="M422.599,0H172.681c-24.089,0-43.703,19.615-43.703,43.704v507.863c0,24.099,19.614,43.714,43.703,43.714
		h249.908c24.099,0,43.714-19.615,43.714-43.704V43.704C466.303,19.615,446.688,0,422.599,0z M148.82,79.371H446.46v377.011H148.82
		V79.371z M172.681,19.843h249.908c13.166,0,23.871,10.705,23.871,23.861v15.824H148.82V43.704
		C148.82,30.548,159.526,19.843,172.681,19.843z M422.599,575.438H172.681c-13.155,0-23.861-10.705-23.861-23.861v-75.353H446.46
		v75.353C446.46,564.733,435.755,575.438,422.599,575.438z"/>
	<path fill="#009BEF" d="M297.64,486.146c-21.887,0-39.686,17.799-39.686,39.685c0,21.887,17.799,39.686,39.686,39.686
		s39.686-17.799,39.686-39.686C337.325,503.945,319.527,486.146,297.64,486.146z M297.64,545.674
		c-10.943,0-19.843-8.899-19.843-19.843c0-10.942,8.899-19.843,19.843-19.843s19.843,8.9,19.843,19.843
		C317.483,536.774,308.583,545.674,297.64,545.674z"/>
	<path fill="#009BEF" d="M257.954,49.607h39.686c5.486,0,9.921-4.436,9.921-9.922s-4.435-9.921-9.921-9.921h-39.686
		c-5.486,0-9.921,4.435-9.921,9.921S252.468,49.607,257.954,49.607z"/>
	<path fill="#009BEF" d="M327.404,49.607h9.922c5.486,0,9.921-4.436,9.921-9.922s-4.435-9.921-9.921-9.921h-9.922
		c-5.486,0-9.921,4.435-9.921,9.921S321.917,49.607,327.404,49.607z"/>
	<path fill="#009BEF" d="M561.666,45.331c-3.879-3.88-10.149-3.88-14.028,0c-3.88,3.879-3.88,10.149,0,14.028
		c37.065,37.066,37.065,97.378,0,134.454c-3.88,3.879-3.88,10.149,0,14.029c1.935,1.935,4.475,2.906,7.015,2.906
		c2.539,0,5.079-0.972,7.014-2.906C606.471,163.048,606.471,90.135,561.666,45.331z"/>
	<path fill="#009BEF" d="M519.888,67.912c-3.88-3.88-10.149-3.88-14.029,0c-3.879,3.879-3.879,10.149,0,14.028
		c12.273,12.272,19.029,28.623,19.029,46.025s-6.756,33.742-19.029,46.015c-3.879,3.88-3.879,10.15,0,14.029
		c1.935,1.935,4.475,2.907,7.015,2.907s5.08-0.973,7.015-2.907c16.022-16.013,24.843-37.344,24.843-60.044
		S535.92,83.925,519.888,67.912z"/>
	<path fill="#009BEF" d="M47.642,59.359c3.88-3.879,3.88-10.149,0-14.028c-3.879-3.88-10.149-3.88-14.028,0
		c-44.805,44.805-44.805,117.707,0,162.512c1.935,1.935,4.475,2.906,7.015,2.906s5.079-0.972,7.014-2.906
		c3.88-3.88,3.88-10.15,0-14.029C10.567,156.747,10.567,96.435,47.642,59.359z"/>
	<path fill="#009BEF" d="M89.421,65.174c-3.879-3.88-10.149-3.88-14.029,0c-16.022,16.013-24.843,37.344-24.843,60.044
		s8.82,44.03,24.843,60.054c1.935,1.935,4.475,2.907,7.015,2.907s5.08-0.973,7.015-2.907c3.879-3.879,3.879-10.149,0-14.029
		c-12.272-12.272-19.029-28.623-19.029-46.024c0-17.402,6.746-33.743,19.029-46.016C93.29,75.333,93.29,69.052,89.421,65.174z"/>
</g>
</svg>
