<?xml version="1.0" encoding="utf-8"?>
<!-- Generator: Adobe Illustrator 16.0.0, SVG Export Plug-In . SVG Version: 6.00 Build 0)  -->
<!DOCTYPE svg PUBLIC "-//W3C//DTD SVG 1.1//EN" "http://www.w3.org/Graphics/SVG/1.1/DTD/svg11.dtd">
<svg version="1.1" id="Layer_1" xmlns="http://www.w3.org/2000/svg" xmlns:xlink="http://www.w3.org/1999/xlink" x="0px" y="0px"
	 width="542.393px" height="524.314px" viewBox="0 0 542.393 524.314" enable-background="new 0 0 542.393 524.314"
	 xml:space="preserve">
<g id="Capa_1">
	<path fill="#FFFFFF" d="M400.648,64.784c19.498,1.676,47.487,11.884,49.529,56.532c0,0.214,0,0.429,0.072,0.572
		c0.071,0.501,5.078,49.138-17.667,74.743c-9.012,10.157-21.028,15.162-36.835,15.306c-0.143,0-0.215,0-0.357,0
		c-0.145,0-0.216,0-0.36,0c-1.633-0.016-3.211-0.095-4.765-0.215c-2.824,6.423-5.988,12.499-9.506,18.209
		c4.293,0.782,8.785,1.236,13.486,1.316c0.358,0,0.714,0,1.146,0c0.141,0,0.284,0,0.429,0c0.214,0,0.501,0,0.717,0
		c20.955-0.359,37.906-7.725,50.423-21.814c27.536-31.042,22.96-84.257,22.458-89.334c-1.787-38.123-19.813-56.361-34.688-64.872
		c-11.089-6.367-24.033-9.799-38.482-10.085h-0.5c-0.073,0-0.215,0-0.285,0h-0.431c-0.343,0-0.719,0.006-1.087,0.01
		C396.596,51.4,398.84,57.944,400.648,64.784z"/>
	<g>
		<path fill="#FFFFFF" d="M438.734,248.205c1.216,0.855,29.686,20.668,65.306,29.824c16.665,5.938,18.524,23.746,19.023,40.052
			c0,0.644,0,1.217,0.072,1.79c0.071,6.434-0.359,16.377-1.502,22.099c-1.447,0.823-3.432,1.899-5.918,3.153
			c4.261,4.918,8.119,10.195,11.529,15.775c4.813-2.536,7.521-4.26,7.979-4.552c1.645-1.073,3.004-2.646,3.72-4.505
			c3.572-9.516,3.5-28.613,3.429-32.332c0-0.072,0-0.144,0-0.214c0-0.573-0.071-1.144-0.071-1.789
			c-0.429-14.163-1.357-47.276-32.399-57.863c-0.215-0.071-0.502-0.143-0.716-0.213c-32.258-8.224-59.079-26.822-59.365-27.036
			c-4.364-3.076-10.371-2.001-13.446,2.361C433.3,239.12,434.371,245.128,438.734,248.205z"/>
	</g>
	<path fill="#FFFFFF" d="M153.472,211.589c-2.04,0.207-4.146,0.329-6.327,0.348c-0.143,0-0.215,0-0.359,0c-0.142,0-0.214,0-0.358,0
		c-15.736-0.144-27.822-5.149-36.762-15.306c-22.675-25.462-17.812-74.314-17.738-74.743c0-0.214,0.07-0.43,0.07-0.572
		c2.216-48.068,34.336-55.919,51.197-56.715c1.795-6.753,4.009-13.215,6.627-19.385c-0.724-0.031-1.446-0.058-2.177-0.073h-0.501
		c-0.07,0-0.215,0-0.286,0h-0.43c-7.938,0-23.53,1.288-38.479,9.798c-15.02,8.511-33.331,26.75-35.118,65.16
		c-0.5,5.077-5.079,58.292,22.458,89.334c12.445,14.09,29.397,21.457,50.354,21.814c0.359,0,0.716,0,1.145,0
		c0.143,0,0.287,0,0.432,0c0.211,0,0.5,0,0.715,0c5.233-0.091,10.217-0.619,14.941-1.575
		C159.4,223.999,156.267,217.965,153.472,211.589z"/>
	<g>
		<g>
			<g>
				<path fill="#FFFFFF" d="M38.891,350.623c-8.66-3.625-14.792-6.842-18.13-8.727c-1.145-5.722-1.644-15.664-1.499-22.099
					c0-0.57,0.071-1.145,0.071-1.788c0.501-16.307,2.362-34.119,19.025-40.054c35.618-9.156,64.087-29.041,65.303-29.826
					c4.363-3.075,5.436-9.085,2.36-13.449c-3.075-4.363-9.086-5.436-13.448-2.36c-0.285,0.215-26.962,18.81-59.367,27.037
					c-0.284,0.07-0.5,0.142-0.712,0.213C1.45,270.231,0.521,303.344,0.091,317.436c0,0.642,0,1.216-0.072,1.79
					c0,0.068,0,0.14,0,0.21c-0.07,3.721-0.142,22.819,3.648,32.402c0.717,1.861,2.003,3.432,3.72,4.504
					c0.938,0.628,11.277,7.23,29.796,14.466C37.393,365.315,37.8,358.36,38.891,350.623z"/>
			</g>
		</g>
	</g>
</g>
<g id="Layer_2">
	<path fill="#FFFFFF" d="M269.467,257.224c0.493,0,0.986,0,1.582,0c0.197,0,0.395,0,0.59,0c0.297,0,0.694,0,0.992,0
		c28.963-0.493,52.395-10.677,69.692-30.148c38.062-42.907,31.733-116.455,31.042-123.473
		c-2.472-52.691-27.385-77.901-47.945-89.665c-15.324-8.797-33.214-13.543-53.186-13.938h-0.691c-0.1,0-0.297,0-0.398,0h-0.59
		c-10.974,0-32.524,1.779-53.186,13.543c-20.762,11.763-46.068,36.972-48.541,90.059c-0.691,7.018-7.02,80.568,31.044,123.473
		C217.072,246.547,240.502,256.732,269.467,257.224z M195.224,106.071c0-0.295,0.1-0.592,0.1-0.79
		c3.262-70.881,53.58-78.493,75.131-78.493h0.397c0.198,0,0.494,0,0.791,0c26.689,0.593,72.064,11.467,75.131,78.493
		c0,0.296,0,0.592,0.101,0.79c0.097,0.693,7.019,67.916-24.418,103.306c-12.455,14.039-29.063,20.96-50.912,21.156
		c-0.197,0-0.297,0-0.494,0l0,0c-0.197,0-0.297,0-0.493,0c-21.749-0.198-38.456-7.118-50.815-21.156
		C188.403,174.185,195.127,106.664,195.224,106.071z"/>
	<g>
		<path fill="#FFFFFF" d="M330.955,280.655c1.279,0.903,24.31,16.93,56.896,30.128c12.094-4.183,25.076-6.46,38.593-6.46
			c7.229,0,14.304,0.652,21.173,1.896c-5.054-3.945-11.085-7.288-18.297-9.747c-0.297-0.098-0.692-0.198-0.989-0.295
			c-44.584-11.371-81.655-37.074-82.051-37.37c-6.03-4.251-14.335-2.766-18.585,3.264
			C323.442,268.1,324.925,276.403,330.955,280.655z"/>
		<path fill="#FFFFFF" d="M311.375,448.902c-12.635,1.199-26.021,1.89-40.129,1.89c-95.102,0-158.271-31.54-174.385-40.632
			c-1.579-7.91-2.272-21.65-2.074-30.549c0-0.79,0.097-1.58,0.097-2.472c0.691-22.539,3.263-47.153,26.297-55.362
			c49.229-12.651,88.575-40.135,90.259-41.224c6.027-4.249,7.512-12.553,3.262-18.583c-4.254-6.029-12.555-7.513-18.586-3.263
			c-0.397,0.296-37.271,26.001-82.052,37.369c-0.397,0.1-0.692,0.198-0.988,0.297c-42.905,14.73-44.189,60.498-44.786,79.977
			c0,0.89,0,1.681-0.096,2.47c0,0.098,0,0.2,0,0.296c-0.099,5.139-0.199,31.538,5.042,44.784c0.988,2.569,2.768,4.746,5.14,6.229
			c2.966,1.977,74.044,47.251,192.969,47.251c17.476,0,33.908-0.984,49.253-2.661C316.574,466.596,313.452,457.948,311.375,448.902z
			"/>
	</g>
</g>
<g id="Capa_1_1_">
	<g>
		<path fill="#FFFFFF" d="M426.443,320.545c-56.245,0-101.836,45.591-101.836,101.837s45.591,101.836,101.836,101.836
			c56.247,0,101.836-45.597,101.836-101.836S482.689,320.545,426.443,320.545z M468.527,433.405h-31.062v31.06
			c0,6.086-4.937,11.022-11.022,11.022s-11.021-4.937-11.021-11.022v-31.06h-31.061c-6.087,0-11.023-4.937-11.023-11.022
			c0-6.085,4.937-11.022,11.023-11.022h31.061v-31.061c0-6.086,4.936-11.021,11.021-11.021s11.022,4.936,11.022,11.021v31.061
			h31.062c6.085,0,11.021,4.938,11.021,11.022S474.612,433.405,468.527,433.405z"/>
	</g>
</g>
</svg>
