<?xml version="1.0" encoding="utf-8"?>
<!-- Generator: Adobe Illustrator 16.0.0, SVG Export Plug-In . SVG Version: 6.00 Build 0)  -->
<!DOCTYPE svg PUBLIC "-//W3C//DTD SVG 1.1//EN" "http://www.w3.org/Graphics/SVG/1.1/DTD/svg11.dtd">
<svg version="1.1" id="Layer_1" xmlns="http://www.w3.org/2000/svg" xmlns:xlink="http://www.w3.org/1999/xlink" x="0px" y="0px"
	 width="48px" height="48px" viewBox="0 0 48 48" enable-background="new 0 0 48 48" xml:space="preserve">
<g>
	<path fill="#FFBF47" d="M28.465,30.814h-1.333c-0.077,0-0.14,0.025-0.188,0.078s-0.072,0.113-0.072,0.187v1.487h-3.405V29.45h2.511
		c0.068,0,0.133-0.025,0.185-0.078c0.052-0.052,0.079-0.113,0.079-0.187v-1.076c0-0.078-0.026-0.141-0.079-0.188
		c-0.052-0.049-0.114-0.073-0.185-0.073h-2.511v-1.769c0-0.418,0.143-0.754,0.428-1.013c0.285-0.258,0.663-0.387,1.125-0.387
		c0.248,0,0.502,0.049,0.767,0.146c0.263,0.098,0.452,0.188,0.565,0.262c0.114,0.078,0.188,0.131,0.215,0.156
		c0.056,0.051,0.117,0.066,0.188,0.061c0.071-0.008,0.131-0.039,0.182-0.102l0.849-1.045c0.044-0.055,0.062-0.115,0.058-0.184
		c-0.004-0.069-0.031-0.125-0.082-0.17c-0.82-0.686-1.74-1.027-2.755-1.027c-1.047,0-1.91,0.305-2.587,0.912
		c-0.677,0.609-1.016,1.381-1.016,2.32v1.837h-0.781c-0.077,0-0.14,0.022-0.189,0.071c-0.049,0.049-0.074,0.11-0.074,0.188v1.076
		c0,0.071,0.024,0.133,0.074,0.188c0.05,0.053,0.113,0.078,0.189,0.078H21.4v3.148h-0.798c-0.071,0-0.133,0.024-0.185,0.077
		c-0.052,0.054-0.078,0.113-0.078,0.187v1.231c0,0.078,0.025,0.142,0.074,0.188c0.049,0.049,0.112,0.074,0.189,0.074h7.863
		c0.077,0,0.141-0.024,0.189-0.074c0.048-0.049,0.074-0.11,0.074-0.188v-3.019c0-0.069-0.024-0.131-0.074-0.184
		C28.605,30.842,28.542,30.814,28.465,30.814z"/>
	<path fill="#FFBF47" d="M24,0C10.745,0,0,10.745,0,24s10.745,24,24,24s24-10.745,24-24S37.255,0,24,0z M33.79,33.873
		c0,1.492-1.202,2.703-2.685,2.703h-4.291h-4.845h-4.291c-1.483,0-2.686-1.211-2.686-2.703v-6.361c0-0.195,0.078-0.382,0.215-0.521
		l8.667-8.721c0.285-0.287,0.749-0.287,1.035,0l8.667,8.721c0.137,0.138,0.214,0.325,0.214,0.521V33.873z M36.955,25.34
		c-0.291,0.293-0.673,0.439-1.055,0.439c-0.381,0-0.762-0.146-1.053-0.439l-9.854-9.918c-0.319-0.32-0.885-0.32-1.206,0
		l-9.853,9.918c-0.581,0.586-1.526,0.586-2.108,0s-0.582-1.535,0-2.121l9.854-9.918c1.447-1.459,3.968-1.461,5.419-0.002
		l2.936,2.953V14.67c0-0.828,0.667-1.5,1.488-1.5c0.826,0,1.492,0.672,1.492,1.5v4.582l3.938,3.967
		C37.538,23.805,37.538,24.754,36.955,25.34z"/>
</g>
</svg>
