<?xml version="1.0" encoding="utf-8"?>
<!-- Generator: Adobe Illustrator 16.0.0, SVG Export Plug-In . SVG Version: 6.00 Build 0)  -->
<!DOCTYPE svg PUBLIC "-//W3C//DTD SVG 1.1//EN" "http://www.w3.org/Graphics/SVG/1.1/DTD/svg11.dtd">
<svg version="1.1" id="Capa_1" xmlns="http://www.w3.org/2000/svg" xmlns:xlink="http://www.w3.org/1999/xlink" x="0px" y="0px"
	 width="595.279px" height="841.891px" viewBox="0 0 595.279 841.891" enable-background="new 0 0 595.279 841.891"
	 xml:space="preserve">
<g>
	<path fill="#009BEF" d="M585.745,200.266l-10.119-10.12L443.122,57.644l-10.118-10.12c-4.581-4.581-10.934-7.219-17.432-7.219
		H34.644c-15.567,0-32.329,12.023-32.329,38.406v473.491v217.057v6.077c0,10.985,11.053,21.695,24.125,25.068
		c0.657,0.171,1.287,0.421,1.97,0.552c2.047,0.407,4.134,0.63,6.234,0.63h525.992c2.1,0,4.188-0.223,6.234-0.63
		c0.683-0.131,1.312-0.381,1.969-0.552c13.073-3.373,24.125-14.083,24.125-25.068v-6.077V552.201V223.773
		C592.965,213.707,591.757,206.277,585.745,200.266z M546.173,197.811H435.458V87.097L546.173,197.811z M34.644,775.335
		c-0.933,0-1.772-0.343-2.6-0.644c-2.048-0.973-3.478-3.021-3.478-5.435V578.451h538.146v190.807c0,2.414-1.431,4.448-3.479,5.435
		c-0.827,0.301-1.666,0.644-2.599,0.644L34.644,775.335L34.644,775.335z M28.567,552.201V78.71c0-2.849,0.434-12.154,6.077-12.154
		h375.325c-0.435,1.654-0.764,3.36-0.764,5.132v152.374h152.375c1.771,0,3.466-0.328,5.119-0.761c0,0.197,0.013,0.275,0.013,0.473
		v328.428L28.567,552.201L28.567,552.201z"/>
	<path fill="#009BEF" d="M206.313,627.594c-4.371-3.584-9.307-6.288-14.807-8.072c-5.499-1.799-11.064-2.689-16.683-2.689h-38.038
		v132.252h21.539v-47.737H174.3c6.931,0,13.283-1.011,19.02-3.045c5.735-2.034,10.644-4.909,14.713-8.61
		c4.069-3.7,7.232-8.281,9.516-13.729c2.271-5.446,3.412-11.512,3.412-18.218c0-6.341-1.351-12.049-4.042-17.144
		C214.228,635.508,210.684,631.189,206.313,627.594z M198.149,671.289c-1.325,3.646-3.045,6.482-5.198,8.519
		c-2.152,2.034-4.515,3.505-7.087,4.396c-2.573,0.894-5.185,1.353-7.81,1.353h-19.741v-52.396h16.145
		c5.5,0,9.922,0.865,13.283,2.599c3.347,1.732,5.946,3.885,7.809,6.458c1.852,2.571,3.071,5.264,3.676,8.071
		c0.591,2.809,0.893,5.289,0.893,7.442C200.118,663.125,199.461,667.64,198.149,671.289z"/>
	<path fill="#009BEF" d="M336.413,636.203c-5.564-5.854-12.562-10.565-21.002-14.083c-8.438-3.52-18.217-5.289-29.335-5.289H246.24
		v132.252h50.061c1.667,0,4.24-0.21,7.719-0.63c3.466-0.421,7.298-1.364,11.485-2.874c4.187-1.497,8.519-3.741,13.007-6.734
		c4.487-2.992,8.519-7.088,12.113-12.298c3.598-5.212,6.552-11.668,8.888-19.387c2.336-7.718,3.505-17.023,3.505-27.905
		c0-7.901-1.379-15.593-4.121-23.062C346.126,648.738,341.978,642.071,336.413,636.203z M320.715,719.288
		c-6.458,9.332-16.983,13.991-31.58,13.991h-21.355V633.146h12.561c10.291,0,18.665,1.353,25.123,4.041
		c6.459,2.691,11.576,6.224,15.345,10.595c3.767,4.369,6.299,9.239,7.626,14.62c1.312,5.382,1.968,10.828,1.968,16.328
		C330.401,696.438,327.173,709.969,320.715,719.288z"/>
	<polygon fill="#009BEF" points="384.241,749.083 406.136,749.083 406.136,689.506 461.406,689.506 461.406,674.793 
		406.136,674.793 406.136,633.159 466.96,633.159 466.96,616.831 384.241,616.831 	"/>
	<path fill="#009BEF" d="M421.387,341.68c-12.062,0-26.867,1.576-44.075,4.699c-24.021-25.489-49.089-62.714-66.782-99.255
		c17.548-73.884,8.769-84.345,4.896-89.28c-4.121-5.25-9.937-13.769-16.552-13.769c-2.769,0-10.33,1.26-13.336,2.257
		c-7.56,2.521-11.628,8.348-14.884,15.948c-9.279,21.696,3.452,58.685,16.551,87.193c-11.196,44.535-29.978,97.838-49.719,141.099
		c-49.746,22.787-76.167,45.166-78.556,66.521c-0.867,7.771,0.972,19.176,14.634,29.429c3.742,2.795,8.125,4.278,12.691,4.278l0,0
		c11.485,0,23.089-8.795,36.516-27.655c9.792-13.757,20.306-32.513,31.277-55.797c35.15-15.37,78.636-29.257,115.873-37.041
		c20.737,19.912,39.311,29.992,55.271,29.992c11.761,0,21.841-5.408,29.139-15.632c7.601-10.645,9.332-20.174,5.118-28.352
		C454.398,346.484,441.942,341.68,421.387,341.68z M186.545,468.643c-6.142-4.712-5.787-7.888-5.655-9.082
		c0.812-7.298,12.244-20.253,40.295-36.017C199.921,462.815,188.501,468.026,186.545,468.643z M294.176,167.78
		c0.564-0.184,13.716,14.452,1.261,42.212C276.719,190.842,292.889,168.213,294.176,167.78z M267.045,378.13
		c13.322-31.751,25.713-66.809,35.098-99.282c14.739,26.487,32.446,52.188,50.166,72.768
		C324.298,358.192,294.476,367.472,267.045,378.13z M436.377,371.842c-4.044,5.658-12.811,5.789-15.883,5.789
		c-6.995,0-9.607-4.161-20.305-12.391c8.819-1.128,17.144-1.417,23.771-1.417c11.668,0,13.808,1.72,15.422,2.585
		C439.094,367.341,438.332,369.099,436.377,371.842z"/>
</g>
</svg>
