<?xml version="1.0" encoding="utf-8"?>
<!-- Generator: Adobe Illustrator 16.0.0, SVG Export Plug-In . SVG Version: 6.00 Build 0)  -->
<!DOCTYPE svg PUBLIC "-//W3C//DTD SVG 1.1//EN" "http://www.w3.org/Graphics/SVG/1.1/DTD/svg11.dtd">
<svg version="1.1" id="Capa_1" xmlns="http://www.w3.org/2000/svg" xmlns:xlink="http://www.w3.org/1999/xlink" x="0px" y="0px"
	 width="465.33px" height="511.627px" viewBox="0 0 465.33 511.627" enable-background="new 0 0 465.33 511.627"
	 xml:space="preserve">
<g>
	<g>
		<path fill="#009BEF" d="M192.084,401.99h-54.818V9.136c0-2.663-0.854-4.856-2.567-6.567c-1.714-1.71-3.9-2.568-6.567-2.568H73.312
			c-2.663,0-4.855,0.854-6.566,2.567c-1.709,1.716-2.568,3.905-2.568,6.567V401.99H9.358c-4.184,0-7.039,1.902-8.562,5.708
			c-1.525,3.621-0.856,6.95,1.997,9.996l91.361,91.365c2.096,1.707,4.28,2.562,6.566,2.562c2.474,0,4.664-0.854,6.567-2.562
			l91.076-91.078c1.905-2.279,2.855-4.571,2.855-6.844c0-2.676-0.854-4.859-2.568-6.584
			C196.937,402.847,194.752,401.99,192.084,401.99z"/>
		<path fill="#009BEF" d="M445.327,481.361l-65.664-189.01h-46.25l-65.661,189.013h-19.98v30.264h81.935v-30.267h-21.412
			l13.418-41.109h69.381l13.415,41.109h-21.405v30.267h82.228v-30.267H445.327L445.327,481.361z M331.13,408.846l20.841-62.242
			c0.761-2.283,1.479-5.045,2.144-8.277c0.66-3.234,0.996-4.948,0.996-5.138l0.854-5.715h1.144c0,0.768,0.19,2.669,0.562,5.715
			l3.434,13.415l20.554,62.242H331.13z"/>
		<path fill="#009BEF" d="M439.907,152.745H405.37v33.975h-70.808c-4.001,0-6.853,0.097-8.557,0.288l-4.004,0.854v-0.854
			l3.142-2.858c2.852-3.422,4.854-5.896,5.996-7.421L436.484,25.41V0H274.605v65.387h34.26V32.552h66.231
			c3.427,0,6.283-0.288,8.561-0.859c0.571,0,1.286-0.048,2.142-0.144c0.855-0.094,1.477-0.145,1.854-0.145v0.855l-3.142,2.568
			c-1.708,1.713-3.71,4.282-5.996,7.71l-105.344,151.03v25.697h166.735V152.745z"/>
	</g>
</g>
</svg>
