<?xml version="1.0" encoding="utf-8"?>
<!-- Generator: Adobe Illustrator 16.0.0, SVG Export Plug-In . SVG Version: 6.00 Build 0)  -->
<!DOCTYPE svg PUBLIC "-//W3C//DTD SVG 1.1//EN" "http://www.w3.org/Graphics/SVG/1.1/DTD/svg11.dtd">
<svg version="1.1" id="Capa_1" xmlns="http://www.w3.org/2000/svg" xmlns:xlink="http://www.w3.org/1999/xlink" x="0px" y="0px"
	 width="481.89px" height="935.433px" viewBox="-20.955 -46.771 481.89 935.433"
	 enable-background="new -20.955 -46.771 481.89 935.433" xml:space="preserve">
<g>
	
		<image overflow="visible" opacity="0.3" width="524" height="944" xlink:href="A251E0FCFC7E79F9.png"  transform="matrix(1 0 0 1 -10.1482 -51.5781)">
	</image>
	<g>
		<path fill="#FFFFFF" d="M40.955,420.195c0,231.947,188.031,419.978,419.979,419.978V0.216
			C228.987,0.216,40.955,188.247,40.955,420.195z M410.389,441.354L247.248,604.495c-12.267,12.266-30.666,12.266-42.932,0
			c-12.268-12.267-12.268-29.439,0-41.707L346.604,420.5L204.317,278.214c-12.267-12.267-12.267-29.439,0-41.706
			c6.133-6.133,13.493-9.813,20.853-9.813c7.36,0,15.945,3.68,22.079,9.813L410.39,399.649c6.133,6.132,8.586,12.265,8.586,20.851
			C418.975,427.862,416.522,435.222,410.389,441.354z"/>
	</g>
</g>
</svg>
