<?xml version="1.0" encoding="utf-8"?>
<!-- Generator: Adobe Illustrator 16.0.0, SVG Export Plug-In . SVG Version: 6.00 Build 0)  -->
<!DOCTYPE svg PUBLIC "-//W3C//DTD SVG 1.1//EN" "http://www.w3.org/Graphics/SVG/1.1/DTD/svg11.dtd">
<svg version="1.1" xmlns="http://www.w3.org/2000/svg" xmlns:xlink="http://www.w3.org/1999/xlink" x="0px" y="0px" width="30px"
	 height="30px" viewBox="0 0 30 30" enable-background="new 0 0 30 30" xml:space="preserve">
<g id="Layer_1">
	<g id="Layer_2">
	</g>
</g>
<g id="Layer_2_1_">
	<path d="M29.012,27.322l-7.125-7.41c1.832-2.178,2.836-4.918,2.836-7.771c0-6.665-5.422-12.086-12.087-12.086
		c-6.665,0-12.086,5.422-12.086,12.086s5.422,12.086,12.086,12.086c2.502,0,4.887-0.754,6.925-2.186l7.179,7.466
		c0.3,0.312,0.704,0.483,1.137,0.483c0.409,0,0.798-0.156,1.093-0.439C29.595,28.948,29.614,27.95,29.012,27.322z M12.636,3.208
		c4.926,0,8.935,4.007,8.935,8.933c0,4.926-4.009,8.934-8.935,8.934c-4.926,0-8.934-4.008-8.934-8.934
		C3.702,7.215,7.709,3.208,12.636,3.208z"/>
</g>
</svg>
