<?xml version="1.0" encoding="utf-8"?>
<!-- Generator: Adobe Illustrator 16.0.0, SVG Export Plug-In . SVG Version: 6.00 Build 0)  -->
<!DOCTYPE svg PUBLIC "-//W3C//DTD SVG 1.1//EN" "http://www.w3.org/Graphics/SVG/1.1/DTD/svg11.dtd">
<svg version="1.1" id="Capa_1" xmlns="http://www.w3.org/2000/svg" xmlns:xlink="http://www.w3.org/1999/xlink" x="0px" y="0px"
	 width="631.418px" height="841.891px" viewBox="0 0 631.418 841.891" enable-background="new 0 0 631.418 841.891"
	 xml:space="preserve">
<g>
	<g>
		<g>
			<path fill="#FFFFFF" d="M378.851,631.418H70.158c-7.749,0-14.032,6.282-14.032,14.031s6.283,14.031,14.032,14.031h308.692
				c7.749,0,14.031-6.282,14.031-14.031S386.6,631.418,378.851,631.418z"/>
			<path fill="#FFFFFF" d="M449.009,225.22V14.031C449.009,6.283,442.726,0,434.977,0H14.032C6.283,0,0,6.283,0,14.031v813.827
				c0,7.749,6.283,14.032,14.032,14.032h420.944c7.749,0,14.032-6.283,14.032-14.032V616.671
				c102.679-7.402,182.249-92.78,182.409-195.726C631.258,317.999,551.688,232.621,449.009,225.22z M28.064,813.827V28.063h392.882
				v196.932c-1.066,0.084-2.091,0.281-3.144,0.379c-2.975,0.252-5.893,0.66-8.825,1.052c-3.466,0.463-6.918,0.94-10.342,1.585
				c-2.904,0.547-5.753,1.207-8.615,1.88c-3.339,0.786-6.65,1.614-9.906,2.554c-2.806,0.828-5.612,1.74-8.334,2.68
				c-3.199,1.094-6.356,2.231-9.472,3.479c-2.708,1.081-5.374,2.231-8.026,3.438c-3.03,1.403-6.02,2.806-8.966,4.322
				c-2.582,1.333-5.121,2.722-7.647,4.209c-2.806,1.636-5.612,3.348-8.419,5.135c-2.455,1.572-4.854,3.157-7.226,4.841
				c-2.681,1.88-5.276,3.859-7.858,5.879c-2.287,1.782-4.546,3.592-6.749,5.472c-2.469,2.119-4.868,4.336-7.24,6.581
				c-2.091,1.992-4.209,3.971-6.201,6.062c-2.273,2.357-4.448,4.799-6.609,7.268c-1.895,2.161-3.803,4.308-5.612,6.567
				c-2.062,2.568-3.999,5.248-5.936,7.928c-1.67,2.329-3.367,4.616-4.953,7.016c-1.838,2.807-3.521,5.697-5.22,8.602
				c-1.403,2.441-2.919,4.854-4.209,7.366c-1.6,3.017-3.018,6.132-4.462,9.247c-1.18,2.54-2.428,5.023-3.494,7.619
				c-1.403,3.283-2.498,6.651-3.677,10.005c-0.897,2.567-1.894,5.079-2.68,7.703c-1.095,3.578-1.937,7.268-2.807,10.931
				c-0.617,2.511-1.403,4.967-1.852,7.507c-0.828,4.125-1.403,8.349-1.923,12.558c-0.295,2.189-0.729,4.322-0.954,6.524
				c-0.183,1.853-0.183,3.732-0.322,5.613H70.158c-7.749,0.01-14.023,6.302-14.013,14.051c0.011,7.734,6.277,14.001,14.013,14.012
				h169.051c0.141,1.866,0.141,3.747,0.323,5.613c0.225,2.202,0.659,4.335,0.954,6.524c0.562,4.209,1.095,8.419,1.922,12.628
				c0.505,2.54,1.235,4.995,1.853,7.507c0.884,3.662,1.726,7.353,2.807,10.931c0.785,2.624,1.781,5.136,2.68,7.703
				c1.179,3.354,2.315,6.722,3.676,10.005c1.066,2.596,2.315,5.079,3.494,7.619c1.403,3.115,2.807,6.229,4.462,9.247
				c1.333,2.511,2.807,4.925,4.21,7.366c1.697,2.904,3.381,5.795,5.22,8.602c1.585,2.385,3.283,4.672,4.953,7.016
				c1.936,2.68,3.872,5.359,5.935,7.928c1.811,2.259,3.719,4.405,5.613,6.566c2.16,2.47,4.336,4.911,6.608,7.269
				c2.007,2.091,4.111,4.069,6.202,6.062c2.371,2.245,4.771,4.462,7.24,6.581c2.203,1.88,4.462,3.689,6.749,5.472
				c2.582,2.021,5.178,3.999,7.857,5.88c2.372,1.684,4.771,3.269,7.227,4.841c2.807,1.776,5.612,3.488,8.419,5.135
				c2.525,1.403,5.065,2.807,7.647,4.21c2.946,1.516,5.935,2.946,8.966,4.321c2.652,1.207,5.318,2.357,8.026,3.438
				c3.114,1.248,6.271,2.385,9.471,3.479c2.807,0.94,5.515,1.852,8.335,2.68c3.255,0.94,6.566,1.769,9.906,2.554
				c2.807,0.674,5.711,1.333,8.615,1.881c3.424,0.645,6.875,1.122,10.341,1.585c2.933,0.393,5.852,0.8,8.826,1.053
				c1.053,0.098,2.077,0.294,3.144,0.379l0.056,196.693H28.064z M434.977,589.323c-92.992,0-168.378-75.386-168.378-168.378
				s75.386-168.378,168.378-168.378s168.378,75.386,168.378,168.378C603.255,513.896,527.929,589.223,434.977,589.323z"/>
			<path fill="#FFFFFF" d="M70.158,210.473h308.692c7.749,0,14.031-6.283,14.031-14.032c0-7.749-6.282-14.031-14.031-14.031H70.158
				c-7.749,0-14.032,6.283-14.032,14.031C56.126,204.19,62.409,210.473,70.158,210.473z"/>
			<path fill="#FFFFFF" d="M534.194,321.729c-5.479-5.478-14.361-5.478-19.841,0l-79.376,79.376l-79.376-79.376
				c-5.574-5.385-14.456-5.23-19.841,0.344c-5.251,5.438-5.251,14.058,0,19.497l79.376,79.376l-79.376,79.376
				c-5.573,5.385-5.729,14.267-0.344,19.841s14.267,5.729,19.841,0.344c0.115-0.112,0.231-0.227,0.344-0.344l79.376-79.377
				l79.376,79.377c5.574,5.385,14.456,5.229,19.841-0.344c5.253-5.438,5.253-14.06,0-19.497l-79.376-79.376l79.376-79.376
				C539.671,336.09,539.671,327.208,534.194,321.729z"/>
		</g>
	</g>
</g>
</svg>
