<?xml version="1.0" encoding="utf-8"?>
<!-- Generator: Adobe Illustrator 16.0.0, SVG Export Plug-In . SVG Version: 6.00 Build 0)  -->
<!DOCTYPE svg PUBLIC "-//W3C//DTD SVG 1.1//EN" "http://www.w3.org/Graphics/SVG/1.1/DTD/svg11.dtd">
<svg version="1.1" id="Capa_1" xmlns="http://www.w3.org/2000/svg" xmlns:xlink="http://www.w3.org/1999/xlink" x="0px" y="0px"
	 width="540.842px" height="595.281px" viewBox="0 0 540.842 595.281" enable-background="new 0 0 540.842 595.281"
	 xml:space="preserve">
<g>
	<g>
		<path fill="#4383CD" d="M70.672,76.531c-5.858-5.859-15.257-5.859-21.116-0.122c-5.979,5.858-5.979,15.257-0.122,21.116
			l35.643,35.885c2.808,2.809,6.591,4.396,10.618,4.396l0,0c3.905,0,7.689-1.587,10.497-4.396L214.701,25.51
			c5.858-5.859,5.858-15.259,0.121-21.116c-5.857-5.859-15.257-5.859-21.115,0l-32.834,32.59
			c-17.454-18.065-41.744-28.44-67.254-28.44C41.989,8.544,0,50.532,0,102.163s41.987,93.619,93.619,93.619
			c41.622,0,77.629-26.729,89.713-66.521c2.44-7.936-2.075-16.234-10.01-18.676c-7.934-2.318-16.232,2.074-18.675,10.01
			c-8.056,26.607-33.2,45.282-61.028,45.282c-35.153,0-63.716-28.562-63.716-63.715c0-35.151,28.562-63.714,63.716-63.714
			c17.453,0,34.055,7.323,46.016,19.773l-43.818,43.573L70.672,76.531z"/>
		<path fill="#4383CD" d="M93.619,208.232C41.989,208.232,0,250.22,0,301.851s41.987,93.619,93.619,93.619
			c51.631,0,93.618-41.988,93.618-93.619S145.25,208.232,93.619,208.232z M93.619,365.566c-35.153,0-63.716-28.562-63.716-63.715
			c0-35.153,28.562-63.715,63.716-63.715c35.152,0,63.715,28.562,63.715,63.715C157.334,337.004,128.773,365.566,93.619,365.566z"/>
		<path fill="#4383CD" d="M187.239,501.662c0-51.631-41.987-93.619-93.618-93.619C41.989,408.043,0,450.031,0,501.662
			s41.987,93.619,93.619,93.619C145.25,595.281,187.239,553.294,187.239,501.662z M93.619,565.498
			c-35.153,0-63.716-28.562-63.716-63.714s28.562-63.715,63.716-63.715c35.152,0,63.715,28.562,63.715,63.715
			S128.773,565.498,93.619,565.498z"/>
		<path fill="#4383CD" d="M525.828,286.838H234.963c-8.3,0-15.013,6.715-15.013,15.015s6.713,15.013,15.013,15.013h290.865
			c8.301,0,15.014-6.713,15.014-15.013S534.129,286.838,525.828,286.838z"/>
		<path fill="#4383CD" d="M525.828,87.272H234.963c-8.3,0-15.013,6.713-15.013,15.013c0,8.301,6.713,15.014,15.013,15.014h290.865
			c8.301,0,15.014-6.713,15.014-15.014C540.842,93.985,534.129,87.272,525.828,87.272z"/>
		<path fill="#4383CD" d="M525.828,486.77H234.963c-8.3,0-15.013,6.713-15.013,15.014c0,8.3,6.713,15.014,15.013,15.014h290.865
			c8.301,0,15.014-6.714,15.014-15.014C540.842,493.361,534.129,486.77,525.828,486.77z"/>
	</g>
</g>
</svg>
