<?xml version="1.0" encoding="utf-8"?>
<!-- Generator: Adobe Illustrator 16.0.0, SVG Export Plug-In . SVG Version: 6.00 Build 0)  -->
<!DOCTYPE svg PUBLIC "-//W3C//DTD SVG 1.1//EN" "http://www.w3.org/Graphics/SVG/1.1/DTD/svg11.dtd">
<svg version="1.1" id="Capa_1" xmlns="http://www.w3.org/2000/svg" xmlns:xlink="http://www.w3.org/1999/xlink" x="0px" y="0px"
	 width="347.823px" height="470.586px" viewBox="0 0 347.823 470.586" enable-background="new 0 0 347.823 470.586"
	 xml:space="preserve">
<g>
	<path fill="#FFFFFF" d="M265.699,0H28.853C12.95,0,0,12.959,0,28.859v412.863c0,15.924,12.95,28.863,28.853,28.863h290.116
		c15.917,0,28.854-12.939,28.854-28.863V89.234L265.699,0z M272.51,43.184l35.996,39.121H272.51V43.184z M323.591,441.723
		c0,2.542-2.081,4.629-4.635,4.629H28.853c-2.55,0-4.618-2.087-4.618-4.629V28.859c0-2.548,2.068-4.612,4.618-4.612h219.411v70.181
		c0,6.682,5.443,12.099,12.129,12.099h63.198V441.723z M66.983,128.89h205.786c5.013,0,9.079,4.066,9.079,9.079
		s-4.066,9.079-9.079,9.079H66.983c-5.012,0-9.078-4.066-9.078-9.079C57.905,132.957,61.971,128.89,66.983,128.89z M281.848,198.98
		c0,5.013-4.066,9.079-9.079,9.079H66.983c-5.012,0-9.078-4.065-9.078-9.079c0-5.013,4.066-9.079,9.078-9.079h205.786
		C277.781,189.901,281.848,193.968,281.848,198.98z M281.848,257.993c0,5.013-4.066,9.078-9.079,9.078H66.983
		c-5.012,0-9.078-4.065-9.078-9.078c0-5.014,4.066-9.079,9.078-9.079h205.786C277.781,248.914,281.848,252.98,281.848,257.993z
		 M281.848,318.011c0,5.013-4.066,9.079-9.079,9.079H66.983c-5.012,0-9.078-4.066-9.078-9.079s4.066-9.079,9.078-9.079h205.786
		C277.781,308.932,281.848,312.998,281.848,318.011z"/>
</g>
</svg>
