<?xml version="1.0" encoding="utf-8"?>
<!-- Generator: Adobe Illustrator 16.0.0, SVG Export Plug-In . SVG Version: 6.00 Build 0)  -->
<!DOCTYPE svg PUBLIC "-//W3C//DTD SVG 1.1//EN" "http://www.w3.org/Graphics/SVG/1.1/DTD/svg11.dtd">
<svg version="1.1" id="Layer_1" xmlns="http://www.w3.org/2000/svg" xmlns:xlink="http://www.w3.org/1999/xlink" x="0px" y="0px"
	 width="30px" height="30px" viewBox="0 0 30 30" enable-background="new 0 0 30 30" xml:space="preserve">
<g id="Layer_2">
</g>
<g id="Layer_1_1_">
	<g>
		<path fill="#FFFFFF" d="M14.891,16.18c0.033,0,0.062,0,0.101,0c0.011,0,0.023,0,0.037,0c0.018,0,0.044,0,0.062,0
			c1.817-0.031,3.291-0.668,4.377-1.892c2.39-2.696,1.992-7.314,1.948-7.755c-0.154-3.309-1.719-4.894-3.012-5.632
			C17.443,0.35,16.32,0.05,15.067,0.026h-0.044c-0.008,0-0.021,0-0.026,0H14.96c-0.691,0-2.043,0.113-3.34,0.851
			C10.315,1.616,8.725,3.2,8.571,6.534c-0.044,0.441-0.441,5.06,1.95,7.754C11.599,15.51,13.072,16.148,14.891,16.18z M10.231,6.69
			c0-0.017,0.006-0.038,0.006-0.049c0.204-4.452,3.365-4.93,4.719-4.93h0.024c0.012,0,0.03,0,0.049,0
			c1.677,0.036,4.528,0.72,4.719,4.93c0,0.019,0,0.037,0.006,0.049c0.005,0.045,0.441,4.266-1.533,6.489
			c-0.783,0.88-1.826,1.315-3.198,1.328c-0.014,0-0.021,0-0.032,0c-0.013,0-0.02,0-0.031,0c-1.367-0.013-2.416-0.448-3.188-1.328
			C9.803,10.968,10.226,6.727,10.231,6.69z"/>
		<path fill="#FFFFFF" d="M27.748,23.669c-0.037-1.228-0.118-4.103-2.811-5.021c-0.021-0.008-0.045-0.016-0.062-0.019
			c-2.803-0.715-5.129-2.329-5.156-2.351c-0.377-0.266-0.898-0.174-1.166,0.207c-0.266,0.377-0.173,0.9,0.206,1.166
			c0.104,0.074,2.575,1.795,5.667,2.589c1.446,0.517,1.608,2.062,1.649,3.478c0,0.055,0,0.104,0.007,0.154
			c0.008,0.561-0.032,1.422-0.131,1.919c-1.008,0.571-4.947,2.546-10.947,2.546c-5.972,0-9.939-1.98-10.952-2.552
			c-0.099-0.495-0.143-1.36-0.13-1.918c0-0.05,0.005-0.099,0.005-0.154c0.044-1.416,0.204-2.962,1.652-3.479
			c3.091-0.793,5.56-2.52,5.667-2.588c0.379-0.266,0.471-0.785,0.204-1.166c-0.267-0.377-0.788-0.471-1.167-0.205
			c-0.024,0.021-2.341,1.634-5.153,2.349c-0.025,0.007-0.044,0.015-0.062,0.021c-2.696,0.922-2.775,3.797-2.814,5.021
			c0,0.053,0,0.104-0.005,0.154c0,0.004,0,0.011,0,0.019c-0.007,0.323-0.013,1.978,0.316,2.81c0.063,0.164,0.175,0.303,0.324,0.393
			c0.186,0.126,4.649,2.969,12.119,2.969c7.471,0,11.936-2.851,12.123-2.969c0.139-0.09,0.258-0.23,0.319-0.393
			c0.312-0.824,0.305-2.48,0.305-2.808c0-0.003,0-0.011,0-0.019C27.755,23.775,27.748,23.725,27.748,23.669z"/>
	</g>
</g>
</svg>
