<?xml version="1.0" encoding="utf-8"?>
<!-- Generator: Adobe Illustrator 16.0.0, SVG Export Plug-In . SVG Version: 6.00 Build 0)  -->
<!DOCTYPE svg PUBLIC "-//W3C//DTD SVG 1.1//EN" "http://www.w3.org/Graphics/SVG/1.1/DTD/svg11.dtd">
<svg version="1.1" id="Capa_1" xmlns="http://www.w3.org/2000/svg" xmlns:xlink="http://www.w3.org/1999/xlink" x="0px" y="0px"
	 width="595.279px" height="523.221px" viewBox="0 0 595.279 523.221" enable-background="new 0 0 595.279 523.221"
	 xml:space="preserve">
<g>
	<g>
		<g>
			<path d="M201.769,0.627H60.155C27.571,0.627,0,28.198,0,60.781v105.271c0,32.584,27.57,60.155,60.154,60.155h141.614
				c32.584,0,60.153-27.571,60.153-60.155V60.781C261.923,28.198,234.353,0.627,201.769,0.627z M206.781,166.052
				c0,2.507-2.507,5.014-5.013,5.014H60.155c-2.507,0-5.013-2.507-5.013-5.014V60.781c0-2.506,2.506-5.013,5.013-5.013h141.614
				c2.506,0,5.013,2.507,5.013,5.013L206.781,166.052L206.781,166.052z"/>
			<path d="M535.126,0.627h-140.36c-32.584,0-60.155,27.57-60.155,60.153v105.271c0,32.584,27.571,60.155,60.155,60.155h140.36
				c32.584,0,60.153-27.571,60.153-60.155V60.781C595.28,28.198,567.71,0.627,535.126,0.627z M541.392,166.052
				c0,2.507-3.76,5.014-6.267,5.014h-140.36c-2.507,0-5.014-2.507-5.014-5.014V60.781c0-2.506,2.507-5.013,5.014-5.013h140.36
				c2.507,0,6.267,2.507,6.267,5.013V166.052z"/>
			<path d="M201.769,298.893H60.155C27.571,298.893,0,326.465,0,359.048v104.018c0,32.584,27.57,60.155,60.154,60.155h141.614
				c32.584,0,60.153-27.571,60.153-60.155V359.048C261.923,326.465,234.353,298.893,201.769,298.893z M206.781,463.065
				c0,2.507-2.507,6.267-5.013,6.267H60.155c-2.507,0-5.013-3.76-5.013-6.267V359.048c0-2.506,2.506-5.013,5.013-5.013h141.614
				c2.506,0,5.013,2.507,5.013,5.013L206.781,463.065L206.781,463.065z"/>
			<path d="M535.126,298.893h-140.36c-32.584,0-60.155,27.571-60.155,60.154v104.018c0,32.584,27.571,60.155,60.155,60.155h140.36
				c32.584,0,60.153-27.571,60.153-60.155V359.048C595.28,326.465,567.71,298.893,535.126,298.893z M541.392,463.065
				c0,2.507-3.76,6.267-6.267,6.267h-140.36c-2.507,0-5.014-3.76-5.014-6.267V359.048c0-2.506,2.507-5.013,5.014-5.013h140.36
				c2.507,0,6.267,2.507,6.267,5.013V463.065z"/>
		</g>
	</g>
</g>
</svg>
