<?xml version="1.0" encoding="utf-8"?>
<!-- Generator: Adobe Illustrator 16.0.0, SVG Export Plug-In . SVG Version: 6.00 Build 0)  -->
<!DOCTYPE svg PUBLIC "-//W3C//DTD SVG 1.1//EN" "http://www.w3.org/Graphics/SVG/1.1/DTD/svg11.dtd">
<svg version="1.1" id="Capa_1" xmlns="http://www.w3.org/2000/svg" xmlns:xlink="http://www.w3.org/1999/xlink" x="0px" y="0px"
	 width="557.969px" height="519.484px" viewBox="0 0 557.969 519.484" enable-background="new 0 0 557.969 519.484"
	 xml:space="preserve">
<g>
	<g>
		<g>
			<path d="M67.34,134.679h423.288c37.185,0,67.341-30.146,67.341-67.34s-30.156-67.34-67.341-67.34H67.34
				C30.157-0.001,0,30.144,0,67.339C0,104.531,30.157,134.679,67.34,134.679z M67.34,32.861c19.054,0,34.478,15.436,34.478,34.479
				s-15.426,34.479-34.478,34.479c-19.051,0-34.479-15.436-34.479-34.479C32.86,48.294,48.289,32.861,67.34,32.861z"/>
			<path d="M490.628,192.401H67.34C30.157,192.401,0,222.546,0,259.741c0,37.19,30.157,67.34,67.34,67.34h423.288
				c37.185,0,67.341-30.147,67.341-67.34C557.967,222.546,527.81,192.401,490.628,192.401z M67.34,294.217
				c-19.051,0-34.479-15.435-34.479-34.476c0-19.044,15.429-34.479,34.479-34.479c19.054,0,34.478,15.436,34.478,34.479
				C101.818,278.783,86.392,294.217,67.34,294.217z"/>
			<path d="M490.628,384.803H67.34C30.157,384.803,0,414.949,0,452.145c0,37.191,30.157,67.34,67.34,67.34h423.288
				c37.185,0,67.341-30.146,67.341-67.34C557.967,414.948,527.81,384.803,490.628,384.803z M67.34,486.619
				c-19.051,0-34.479-15.436-34.479-34.477c0-19.044,15.429-34.479,34.479-34.479c19.054,0,34.478,15.437,34.478,34.479
				S86.392,486.619,67.34,486.619z"/>
		</g>
	</g>
</g>
</svg>
