<?xml version="1.0" encoding="utf-8"?>
<!-- Generator: Adobe Illustrator 16.0.0, SVG Export Plug-In . SVG Version: 6.00 Build 0)  -->
<!DOCTYPE svg PUBLIC "-//W3C//DTD SVG 1.1//EN" "http://www.w3.org/Graphics/SVG/1.1/DTD/svg11.dtd">
<svg version="1.1" id="Capa_1" xmlns="http://www.w3.org/2000/svg" xmlns:xlink="http://www.w3.org/1999/xlink" x="0px" y="0px"
	 width="595.279px" height="595.281px" viewBox="0 0 595.279 595.281" enable-background="new 0 0 595.279 595.281"
	 xml:space="preserve">
<g>
	<g>
		<path fill="#779BB7" d="M297.64,595.281c164.114,0,297.64-133.519,297.64-297.64C595.28,133.517,461.759,0,297.64,0
			S0,133.518,0,297.641C0,461.764,133.526,595.281,297.64,595.281z M297.64,36.634c143.921,0,261.008,117.088,261.008,261.009
			c0,143.919-117.087,261.006-261.008,261.006c-143.92,0-261.011-117.086-261.011-261.006
			C36.633,153.72,153.72,36.634,297.64,36.634z"/>
		<circle fill="#779BB7" cx="299.242" cy="399.8" r="30.634"/>
		<path fill="#779BB7" d="M299.244,323.668c10.109,0,18.314-8.206,18.314-18.312v-155.69c0-10.11-8.205-18.315-18.314-18.315
			c-10.111,0-18.313,8.206-18.313,18.315v155.688C280.927,315.462,289.132,323.668,299.244,323.668z"/>
	</g>
</g>
</svg>
