<?xml version="1.0" encoding="utf-8"?>
<!-- Generator: Adobe Illustrator 16.0.0, SVG Export Plug-In . SVG Version: 6.00 Build 0)  -->
<!DOCTYPE svg PUBLIC "-//W3C//DTD SVG 1.1//EN" "http://www.w3.org/Graphics/SVG/1.1/DTD/svg11.dtd">
<svg version="1.1" id="Layer_1" xmlns="http://www.w3.org/2000/svg" xmlns:xlink="http://www.w3.org/1999/xlink" x="0px" y="0px"
	 width="178.338px" height="50.565px" viewBox="0 0 178.338 50.565" enable-background="new 0 0 178.338 50.565"
	 xml:space="preserve">
<g>
	<defs>
		<path id="SVGID_1_" d="M64.246,30.394c0,2.764,1.385,3.316,4.431,3.316c3.877,0,4.431-1.383,4.431-2.211
			c0-1.381-1.385-1.934-4.154-2.486l-3.323-0.553c-3.6-0.83-7.477-1.934-7.477-6.08c0-5.247,4.985-7.184,9.969-7.184
			c8.031,0,10.246,2.486,10.523,6.907h-6.092c-0.277-2.21-1.938-2.486-3.877-2.486c-2.769,0-3.877,0.832-3.877,2.213
			c0,1.382,1.938,1.932,4.431,2.484l3.046,0.553c3.877,0.829,7.2,2.209,7.2,6.356c0,6.078-6.092,7.186-11.077,7.186
			c-8.861,0-10.246-3.867-10.246-7.738L64.246,30.394z"/>
	</defs>
	<use xlink:href="#SVGID_1_"  overflow="visible" fill-rule="evenodd" clip-rule="evenodd" fill="#FFFFFF"/>
	<clipPath id="SVGID_2_">
		<use xlink:href="#SVGID_1_"  overflow="visible"/>
	</clipPath>
	<rect x="53.154" y="10.197" clip-path="url(#SVGID_2_)" fill="#FFFFFF" width="31.323" height="33.212"/>
</g>
<g>
	<defs>
		<rect id="SVGID_3_" x="82.523" y="15.474" width="6.369" height="21.829"/>
	</defs>
	<use xlink:href="#SVGID_3_"  overflow="visible" fill-rule="evenodd" clip-rule="evenodd" fill="#FFFFFF"/>
	<clipPath id="SVGID_4_">
		<use xlink:href="#SVGID_3_"  overflow="visible"/>
	</clipPath>
	<rect x="77.523" y="10.474" clip-path="url(#SVGID_4_)" fill="#FFFFFF" width="16.37" height="31.829"/>
</g>
<g>
	<defs>
		<path id="SVGID_5_" d="M99.692,24.868h4.981c3.049,0,3.877-0.829,3.877-2.487c0-2.21-1.661-2.483-4.705-2.483h-4.153V24.868z
			 M93.323,15.474h13.292c5.259,0,8.309,1.934,8.309,5.805c0,2.764-2.219,4.698-5.539,5.249c1.936,0,3.598,0.551,4.431,1.934
			c1.108,1.934,1.108,6.631,2.216,8.842h-6.646c-0.834-2.211-0.557-5.25-1.107-6.908c-0.277-1.105-1.385-1.381-3.877-1.381h-4.708
			v8.289h-6.369V15.474z"/>
	</defs>
	<use xlink:href="#SVGID_5_"  overflow="visible" fill-rule="evenodd" clip-rule="evenodd" fill="#FFFFFF"/>
	<clipPath id="SVGID_6_">
		<use xlink:href="#SVGID_5_"  overflow="visible"/>
	</clipPath>
	<rect x="88.323" y="10.474" clip-path="url(#SVGID_6_)" fill="#FFFFFF" width="32.708" height="31.829"/>
</g>
<g>
	<defs>
		<rect id="SVGID_7_" x="118.8" y="15.474" width="6.37" height="21.829"/>
	</defs>
	<use xlink:href="#SVGID_7_"  overflow="visible" fill-rule="evenodd" clip-rule="evenodd" fill="#FFFFFF"/>
	<clipPath id="SVGID_8_">
		<use xlink:href="#SVGID_7_"  overflow="visible"/>
	</clipPath>
	<rect x="113.8" y="10.474" clip-path="url(#SVGID_8_)" fill="#FFFFFF" width="16.37" height="31.829"/>
</g>
<g>
	<defs>
		<path id="SVGID_9_" d="M153.136,27.355c0,7.457-4.153,10.5-11.905,10.5c-7.756,0-11.91-2.764-11.91-9.672V15.474h6.372V27.63
			c0,3.869,1.936,5.803,5.538,5.803c4.154,0,5.539-2.762,5.539-6.355V15.474h6.366V27.355z"/>
	</defs>
	<use xlink:href="#SVGID_9_"  overflow="visible" fill-rule="evenodd" clip-rule="evenodd" fill="#FFFFFF"/>
	<clipPath id="SVGID_10_">
		<use xlink:href="#SVGID_9_"  overflow="visible"/>
	</clipPath>
	<rect x="124.32" y="10.474" clip-path="url(#SVGID_10_)" fill="#FFFFFF" width="33.815" height="32.381"/>
</g>
<g>
	<defs>
		<path id="SVGID_11_" d="M163.107,30.394c0,2.764,1.385,3.316,4.434,3.316c3.875,0,4.432-1.383,4.432-2.211
			c0-1.381-1.385-1.934-4.154-2.486l-3.326-0.553c-3.6-0.83-7.477-1.934-7.477-6.08c0-5.247,4.987-7.184,9.969-7.184
			c8.031,0,10.249,2.486,10.526,6.907h-6.093c-0.279-2.21-1.938-2.486-3.874-2.486c-2.769,0-3.877,0.832-3.877,2.213
			c0,1.382,1.937,1.932,4.431,2.484l3.047,0.553c3.871,0.829,7.193,2.209,7.193,6.356c0,6.078-6.092,7.186-11.076,7.186
			c-8.861,0-10.246-3.867-10.246-7.738L163.107,30.394z"/>
	</defs>
	<use xlink:href="#SVGID_11_"  overflow="visible" fill-rule="evenodd" clip-rule="evenodd" fill="#FFFFFF"/>
	<clipPath id="SVGID_12_">
		<use xlink:href="#SVGID_11_"  overflow="visible"/>
	</clipPath>
	<rect x="152.016" y="10.197" clip-path="url(#SVGID_12_)" fill="#FFFFFF" width="31.322" height="33.212"/>
</g>
<g>
	<defs>
		<polygon id="SVGID_13_" points="14.123,25.421 0,33.433 16.062,31.5 9.416,45.869 21.046,35.091 24.369,50.566 27.416,35.091 
			39.323,45.869 32.4,31.224 48.461,33.158 34.338,25.421 48.185,17.407 32.4,19.342 38.769,4.697 27.139,15.75 24.092,0 
			21.046,15.75 9.139,4.974 15.785,19.618 0,17.684 		"/>
	</defs>
	<use xlink:href="#SVGID_13_"  overflow="visible" fill-rule="evenodd" clip-rule="evenodd" fill="#FFFFFF"/>
	<clipPath id="SVGID_14_">
		<use xlink:href="#SVGID_13_"  overflow="visible"/>
	</clipPath>
	<rect x="-5" y="-5" clip-path="url(#SVGID_14_)" fill="#FFFFFF" width="58.461" height="60.566"/>
</g>
</svg>
