<?xml version="1.0" encoding="utf-8"?>
<!-- Generator: Adobe Illustrator 16.0.0, SVG Export Plug-In . SVG Version: 6.00 Build 0)  -->
<!DOCTYPE svg PUBLIC "-//W3C//DTD SVG 1.1//EN" "http://www.w3.org/Graphics/SVG/1.1/DTD/svg11.dtd">
<svg version="1.1" id="Capa_1" xmlns="http://www.w3.org/2000/svg" xmlns:xlink="http://www.w3.org/1999/xlink" x="0px" y="0px"
	 width="400px" height="400px" viewBox="0 0 400 400" enable-background="new 0 0 400 400" xml:space="preserve">
<g>
	<g>
		<path fill="#009BEF" d="M388.114,11.896c-14.719-14.717-38.562-14.717-53.28,0L200.008,146.714L65.169,11.896
			c-14.705-14.717-38.567-14.717-53.286,0c-14.719,14.71-14.719,38.574,0,53.285l134.82,134.817L11.877,334.816
			c-14.718,14.708-14.718,38.562,0,53.286c7.362,7.362,17.003,11.037,26.643,11.037c9.635,0,19.281-3.664,26.635-11.037
			l134.853-134.831l134.825,134.837c7.362,7.362,16.997,11.037,26.638,11.037c9.635,0,19.28-3.661,26.635-11.037
			c14.719-14.708,14.719-38.573,0-53.28L253.288,199.997L388.114,65.18C402.832,50.47,402.832,26.614,388.114,11.896z"/>
	</g>
</g>
</svg>
