<?xml version="1.0" encoding="utf-8"?>
<!-- Generator: Adobe Illustrator 16.0.0, SVG Export Plug-In . SVG Version: 6.00 Build 0)  -->
<!DOCTYPE svg PUBLIC "-//W3C//DTD SVG 1.1//EN" "http://www.w3.org/Graphics/SVG/1.1/DTD/svg11.dtd">
<svg version="1.1" id="Layer_1" xmlns="http://www.w3.org/2000/svg" xmlns:xlink="http://www.w3.org/1999/xlink" x="0px" y="0px"
	 width="178.338px" height="50.564px" viewBox="0 0 178.338 50.564" enable-background="new 0 0 178.338 50.564"
	 xml:space="preserve">
<rect x="81.165" y="15.884" fill="#2F3140" width="6.865" height="21.738"/>
<rect x="117.776" y="15.884" fill="#2F3140" width="6.865" height="21.738"/>
<path fill="#2F3140" d="M162.479,30.818c0,2.705,1.396,3.245,4.469,3.245c3.904,0,4.465-1.354,4.465-2.164
	c0-1.354-1.396-1.896-4.186-2.436l-3.352-0.54c-3.628-0.812-7.531-1.894-7.531-5.947c0-5.136,5.022-7.031,10.045-7.031
	c8.09,0,10.322,2.434,10.604,6.76h-6.141c-0.279-2.164-1.951-2.434-3.901-2.434c-2.789,0-3.906,0.812-3.906,2.167
	c0,1.351,1.952,1.889,4.463,2.43l3.072,0.541c3.897,0.812,7.246,2.164,7.246,6.219c0,5.948-6.138,7.033-11.159,7.033
	c-8.928,0-10.322-3.786-10.322-7.574L162.479,30.818z"/>
<path fill="#2F3140" d="M152.485,27.779c0,7.291-4.185,10.265-11.994,10.265c-7.812,0-11.998-2.699-11.998-9.454V16.164h6.42V28.05
	c0,3.781,1.949,5.674,5.578,5.674c4.186,0,5.58-2.701,5.58-6.212V16.164h6.414V27.779z"/>
<rect x="117.819" y="16.164" fill="#2F3140" width="6.453" height="21.238"/>
<rect x="81.165" y="15.884" fill="#2F3140" width="6.865" height="21.738"/>
<path fill="#2F3140" d="M92.167,16.164h13.467c5.329,0,8.42,1.882,8.42,5.648c0,2.688-2.25,4.568-5.611,5.104
	c1.961,0,3.646,0.538,4.488,1.882c1.123,1.885,1.123,6.452,2.244,8.604h-6.732c-0.846-2.151-0.562-5.107-1.121-6.721
	c-0.279-1.075-1.401-1.348-3.928-1.348h-4.771V37.4H92.17V16.164H92.167z M98.62,25.303h5.047c3.088,0,3.928-0.808,3.928-2.418
	c0-2.151-1.683-2.417-4.767-2.417H98.62V25.303z"/>
<rect x="81.309" y="16.164" display="none" fill="#FFFFFF" width="6.366" height="21.238"/>
<path fill="#2F3140" d="M62.811,30.818c0,2.705,1.401,3.245,4.481,3.245c3.92,0,4.481-1.354,4.481-2.164
	c0-1.354-1.401-1.896-4.202-2.436l-3.359-0.54c-3.641-0.812-7.562-1.894-7.562-5.947c0-5.136,5.042-7.031,10.081-7.031
	c8.122,0,10.361,2.434,10.642,6.76h-6.161c-0.28-2.164-1.959-2.434-3.92-2.434c-2.801,0-3.92,0.812-3.92,2.167
	c0,1.351,1.959,1.889,4.48,2.43l3.08,0.541c3.921,0.812,7.282,2.164,7.282,6.219c0,5.948-6.161,7.033-11.202,7.033
	c-8.96,0-10.361-3.786-10.361-7.574L62.811,30.818z"/>
<polygon fill="#2F3140" points="18.299,21.782 12.253,21.622 6.858,10.609 18.209,15.844 "/>
<polygon opacity="0.88" fill="#2F3140" enable-background="new    " points="12.253,29.794 0.412,25.708 12.253,21.622 
	16.691,25.635 "/>
<polygon opacity="0.77" fill="#2F3140" enable-background="new    " points="18.209,35.572 6.858,40.807 12.253,29.794 
	18.388,29.472 "/>
<polygon opacity="0.66" fill="#2F3140" enable-background="new    " points="26.631,35.572 22.42,47.061 18.209,35.572 
	22.343,31.018 "/>
<polygon opacity="0.55" fill="#2F3140" enable-background="new    " points="32.586,29.794 37.983,40.807 26.631,35.572 
	26.28,29.403 "/>
<polygon opacity="0.44" fill="#2F3140" enable-background="new    " points="32.586,21.622 44.429,25.708 32.586,29.794 
	27.895,25.546 "/>
<polygon opacity="0.33" fill="#2F3140" enable-background="new    " points="26.631,15.844 37.983,10.609 32.586,21.622 
	26.222,21.725 "/>
<polygon opacity="0.22" fill="#2F3140" enable-background="new    " points="26.631,15.844 22.251,20.169 18.209,15.844 
	22.42,4.355 "/>
</svg>
