<?xml version="1.0" encoding="utf-8"?>
<!-- Generator: Adobe Illustrator 16.0.0, SVG Export Plug-In . SVG Version: 6.00 Build 0)  -->
<!DOCTYPE svg PUBLIC "-//W3C//DTD SVG 1.1//EN" "http://www.w3.org/Graphics/SVG/1.1/DTD/svg11.dtd">
<svg version="1.1" id="Layer_1" xmlns="http://www.w3.org/2000/svg" xmlns:xlink="http://www.w3.org/1999/xlink" x="0px" y="0px"
	 width="48.461px" height="50.564px" viewBox="0 0 48.461 50.564" enable-background="new 0 0 48.461 50.564" xml:space="preserve">
<g>
	<g>
		<polygon id="SVGID_13_" fill="#FFFFFF" points="14.123,25.421 0,33.433 16.062,31.5 9.416,45.869 21.046,35.091 24.369,50.566 
			27.416,35.091 39.323,45.869 32.4,31.224 48.461,33.158 34.338,25.421 48.185,17.407 32.4,19.342 38.769,4.698 27.139,15.75 
			24.092,0 21.046,15.75 9.139,4.974 15.785,19.618 0,17.684 		"/>
	</g>
	<g>
		<defs>
			<polygon id="SVGID_1_" points="14.123,25.421 0,33.433 16.062,31.5 9.416,45.869 21.046,35.091 24.369,50.566 27.416,35.091 
				39.323,45.869 32.4,31.224 48.461,33.158 34.338,25.421 48.185,17.407 32.4,19.342 38.769,4.698 27.139,15.75 24.092,0 
				21.046,15.75 9.139,4.974 15.785,19.618 0,17.684 			"/>
		</defs>
		<clipPath id="SVGID_2_">
			<use xlink:href="#SVGID_1_"  overflow="visible"/>
		</clipPath>
		<rect x="-5" y="-5" clip-path="url(#SVGID_2_)" fill="#FFFFFF" width="58.461" height="60.565"/>
	</g>
</g>
</svg>
