<?xml version="1.0" encoding="utf-8"?>
<!-- Generator: Adobe Illustrator 16.0.0, SVG Export Plug-In . SVG Version: 6.00 Build 0)  -->
<!DOCTYPE svg PUBLIC "-//W3C//DTD SVG 1.1//EN" "http://www.w3.org/Graphics/SVG/1.1/DTD/svg11.dtd">
<svg version="1.1" id="Layer_1" xmlns="http://www.w3.org/2000/svg" xmlns:xlink="http://www.w3.org/1999/xlink" x="0px" y="0px"
	 width="446.365px" height="595.279px" viewBox="74.456 123.305 446.365 595.279"
	 enable-background="new 74.456 123.305 446.365 595.279" xml:space="preserve">
<g>
	<g>
		<path d="M520.792,243.79c-0.04-3.577-1.423-7.081-4.052-9.71L410.049,127.387c-0.005-0.005-0.008-0.006-0.013-0.009
			c-2.52-2.518-6.001-4.073-9.843-4.073H103.8c-16.181,0-29.344,13.162-29.344,29.342v536.595c0,16.18,13.161,29.342,29.342,29.342
			h387.681c16.18,0,29.343-13.161,29.343-29.342V243.934C520.823,243.883,520.797,243.84,520.792,243.79z M414.131,170.894
			l59.103,59.103h-57.635c-0.809,0-1.468-0.659-1.468-1.467V170.894L414.131,170.894z M492.947,689.243
			c0,0.808-0.658,1.466-1.466,1.466H103.8c-0.809,0-1.467-0.658-1.467-1.466V152.647c0-0.808,0.658-1.466,1.467-1.466h282.455
			v77.348c0,16.18,13.164,29.344,29.345,29.344h77.348L492.947,689.243L492.947,689.243z"/>
	</g>
</g>
<g>
	<g>
		<path d="M420.984,313.997H174.296c-7.696,0-13.938,6.24-13.938,13.938c0,7.697,6.241,13.938,13.938,13.938h246.687
			c7.697,0,13.938-6.241,13.938-13.938C434.922,320.237,428.68,313.997,420.984,313.997z"/>
	</g>
</g>
<g>
	<g>
		<path d="M420.984,398.103H174.296c-7.696,0-13.938,6.241-13.938,13.938c0,7.697,6.241,13.938,13.938,13.938h246.687
			c7.697,0,13.938-6.241,13.938-13.938C434.922,404.344,428.68,398.103,420.984,398.103z"/>
	</g>
</g>
<g>
	<g>
		<path d="M420.984,482.207H174.296c-7.696,0-13.938,6.241-13.938,13.938c0,7.698,6.241,13.938,13.938,13.938h246.687
			c7.697,0,13.938-6.239,13.938-13.938C434.922,488.449,428.68,482.207,420.984,482.207z"/>
	</g>
</g>
<g>
	<g>
		<path d="M297.64,566.313H174.296c-7.696,0-13.938,6.241-13.938,13.938c0,7.698,6.241,13.938,13.938,13.938H297.64
			c7.697,0,13.938-6.24,13.938-13.938S305.337,566.313,297.64,566.313z"/>
	</g>
</g>
</svg>
