<?xml version="1.0" encoding="utf-8"?>
<!-- Generator: Adobe Illustrator 16.0.0, SVG Export Plug-In . SVG Version: 6.00 Build 0)  -->
<!DOCTYPE svg PUBLIC "-//W3C//DTD SVG 1.1//EN" "http://www.w3.org/Graphics/SVG/1.1/DTD/svg11.dtd">
<svg version="1.1" id="Capa_1" xmlns="http://www.w3.org/2000/svg" xmlns:xlink="http://www.w3.org/1999/xlink" x="0px" y="0px"
	 width="595.279px" height="370.936px" viewBox="0 0 595.279 370.936" enable-background="new 0 0 595.279 370.936"
	 xml:space="preserve">
<g>
	<g>
		<path fill="#2F3140" d="M297.248,370.935c-161.113,0-288.506-167.356-293.501-174.852c-4.997-6.246-4.997-16.236,0-22.481
			C8.742,166.109,136.135,0,297.248,0c161.115,0,288.507,167.357,293.503,173.603c4.995,6.245,4.995,16.235,0,22.481
			C585.755,203.578,459.612,370.935,297.248,370.935z M42.465,184.844c31.225,36.22,134.887,148.625,254.784,148.625
			c119.899,0,224.811-111.157,254.786-147.375C520.809,149.872,417.147,38.717,297.248,38.717
			C177.35,37.469,73.687,148.624,42.465,184.844z"/>
		<path fill="#2F3140" d="M297.248,307.24c-67.44,0-122.396-54.952-122.396-122.396S229.806,62.448,297.248,62.448
			c67.442,0,122.397,54.953,122.397,122.396S364.691,307.24,297.248,307.24z M297.248,99.916c-46.21,0-84.927,37.467-84.927,84.929
			s37.467,84.93,84.927,84.93c46.212,0,84.93-38.718,84.93-84.93C382.177,138.632,344.71,99.916,297.248,99.916z"/>
	</g>
</g>
</svg>
