<?xml version="1.0" encoding="utf-8"?>
<!-- Generator: Adobe Illustrator 16.0.0, SVG Export Plug-In . SVG Version: 6.00 Build 0)  -->
<!DOCTYPE svg PUBLIC "-//W3C//DTD SVG 1.1//EN" "http://www.w3.org/Graphics/SVG/1.1/DTD/svg11.dtd">
<svg version="1.1" id="Layer_1" xmlns="http://www.w3.org/2000/svg" xmlns:xlink="http://www.w3.org/1999/xlink" x="0px" y="0px"
	 width="595.279px" height="530.645px" viewBox="0 0 595.279 530.645" enable-background="new 0 0 595.279 530.645"
	 xml:space="preserve">
<g>
	<g>
		<path fill="#009BEF" d="M588.949,209.588L306.778,2.988c-5.441-3.983-12.834-3.983-18.272,0L6.33,209.588
			c-6.892,5.047-8.39,14.725-3.343,21.617c5.048,6.893,14.727,8.388,21.618,3.343L297.64,34.636l273.035,199.911
			c2.753,2.017,5.952,2.988,9.124,2.988c4.763,0,9.462-2.192,12.492-6.331C597.339,224.314,595.842,214.635,588.949,209.588z"/>
	</g>
</g>
<g>
	<g>
		<path fill="#009BEF" d="M514.18,238.049c-8.541,0-15.467,6.925-15.467,15.467v246.191H374.981V365.32
			c0-42.646-34.695-77.339-77.34-77.339c-42.644,0-77.34,34.695-77.34,77.339v134.389H96.568V253.517
			c0-8.542-6.926-15.467-15.467-15.467s-15.467,6.925-15.467,15.467v261.659c0,8.543,6.926,15.469,15.467,15.469h154.667
			c8.135,0,14.79-6.285,15.406-14.264c0.038-0.361,0.061-0.756,0.061-1.205V365.322c0-25.59,20.817-46.406,46.406-46.406
			s46.406,20.818,46.406,46.406v149.855c0,0.445,0.023,0.832,0.061,1.189c0.609,7.984,7.268,14.277,15.406,14.277h154.667
			c8.542,0,15.467-6.926,15.467-15.469V253.517C529.647,244.974,522.722,238.049,514.18,238.049z"/>
	</g>
</g>
</svg>
