<?xml version="1.0" encoding="utf-8"?>
<!-- Generator: Adobe Illustrator 16.0.0, SVG Export Plug-In . SVG Version: 6.00 Build 0)  -->
<!DOCTYPE svg PUBLIC "-//W3C//DTD SVG 1.1//EN" "http://www.w3.org/Graphics/SVG/1.1/DTD/svg11.dtd">
<svg version="1.1" id="Capa_1" xmlns="http://www.w3.org/2000/svg" xmlns:xlink="http://www.w3.org/1999/xlink" x="0px" y="0px"
	 width="595.279px" height="595.281px" viewBox="0 123.305 595.279 595.281" enable-background="new 0 123.305 595.279 595.281"
	 xml:space="preserve">
<g>
	<g>
		<path d="M298.113,123.305c-164.114,0-297.64,133.517-297.64,297.641c0,164.123,133.524,297.64,297.64,297.64
			s297.641-133.517,297.641-297.64C595.754,256.822,462.228,123.305,298.113,123.305z M298.113,681.952
			c-143.92,0-261.007-117.087-261.007-261.007c0-143.921,117.087-261.008,261.007-261.008
			c143.921,0,261.008,117.087,261.008,261.008C559.121,564.865,442.034,681.952,298.113,681.952z"/>
		<circle cx="298.113" cy="302.264" r="30.634"/>
		<path d="M298.113,382.865c-10.11,0-18.316,8.206-18.316,18.315V556.87c0,10.111,8.206,18.315,18.316,18.315
			c10.111,0,18.317-8.205,18.317-18.315V401.182C316.43,391.062,308.224,382.865,298.113,382.865z"/>
	</g>
</g>
</svg>
