<?xml version="1.0" encoding="utf-8"?>
<!-- Generator: Adobe Illustrator 16.0.0, SVG Export Plug-In . SVG Version: 6.00 Build 0)  -->
<!DOCTYPE svg PUBLIC "-//W3C//DTD SVG 1.1//EN" "http://www.w3.org/Graphics/SVG/1.1/DTD/svg11.dtd">
<svg version="1.1" id="Capa_1" xmlns="http://www.w3.org/2000/svg" xmlns:xlink="http://www.w3.org/1999/xlink" x="0px" y="0px"
	 width="595.279px" height="158.042px" viewBox="0 0 595.279 158.042" enable-background="new 0 0 595.279 158.042"
	 xml:space="preserve">
<g>
	<path fill="#2F3140" d="M79.37-0.349C35.608-0.349,0,35.258,0,79.022c0,43.763,35.607,79.37,79.37,79.37
		c43.764,0,79.371-35.607,79.371-79.37C158.741,35.258,123.134-0.349,79.37-0.349z"/>
	<path fill="#2F3140" d="M515.909-0.349c-43.763,0-79.371,35.607-79.371,79.371c0,43.763,35.608,79.37,79.371,79.37
		c43.764,0,79.37-35.607,79.37-79.37C595.28,35.258,559.673-0.349,515.909-0.349z"/>
	<path fill="#2F3140" d="M297.64-0.349c-43.764,0-79.37,35.607-79.37,79.371c0,43.763,35.606,79.37,79.37,79.37
		c43.763,0,79.371-35.607,79.371-79.37C377.011,35.258,341.403-0.349,297.64-0.349z"/>
</g>
</svg>
