<?xml version="1.0" encoding="utf-8"?>
<!-- Generator: Adobe Illustrator 16.0.0, SVG Export Plug-In . SVG Version: 6.00 Build 0)  -->
<!DOCTYPE svg PUBLIC "-//W3C//DTD SVG 1.1//EN" "http://www.w3.org/Graphics/SVG/1.1/DTD/svg11.dtd">
<svg version="1.1" id="Capa_1" xmlns="http://www.w3.org/2000/svg" xmlns:xlink="http://www.w3.org/1999/xlink" x="0px" y="0px"
	 width="595.279px" height="841.891px" viewBox="0 0 595.279 841.891" enable-background="new 0 0 595.279 841.891"
	 xml:space="preserve">
<g>
	<path fill="#009BEF" d="M483.494,300.859l-55.698-56.106V179.95c0-11.713-9.421-21.214-21.104-21.214
		c-11.615,0-21.048,9.501-21.048,21.214v22.374l-41.518-41.765c-20.522-20.634-56.184-20.605-76.645,0.034l-139.36,140.265
		c-8.23,8.287-8.23,21.705,0,29.991c8.231,8.286,21.594,8.286,29.812,0L297.28,190.584c4.536-4.522,12.54-4.522,17.058,0
		L453.703,330.85c4.117,4.144,9.503,6.215,14.89,6.215c5.399,0,10.801-2.071,14.916-6.215
		C491.755,322.563,491.755,309.146,483.494,300.859z"/>
	<path fill="#009BEF" d="M313.148,230.865c-4.047-4.061-10.606-4.061-14.641,0l-122.571,123.34c-1.94,1.961-3.039,4.599-3.039,7.36
		v89.965c0,21.104,17.009,38.229,37.986,38.229h60.688h68.522h60.687c20.965,0,37.967-17.126,37.967-38.229v-89.965
		c0-2.762-1.091-5.414-3.024-7.36L313.148,230.865z M367.164,454.61c0,1.105-0.372,1.977-1.049,2.666
		c-0.691,0.704-1.59,1.049-2.68,1.049h-111.2c-1.091,0-1.982-0.356-2.672-1.049c-0.697-0.663-1.05-1.561-1.05-2.666v-17.415
		c0-1.035,0.374-1.878,1.104-2.638c0.739-0.746,1.609-1.092,2.617-1.092h11.284v-44.526h-11.016c-1.076,0-1.968-0.358-2.672-1.104
		c-0.711-0.774-1.05-1.645-1.05-2.652v-15.22c0-1.105,0.352-1.976,1.05-2.666c0.69-0.69,1.582-1.008,2.672-1.008h11.042V340.31
		c0-13.271,4.8-24.197,14.371-32.808c9.578-8.584,21.78-12.9,36.585-12.9c14.351,0,27.359,4.827,38.961,14.529
		c0.719,0.635,1.104,1.423,1.159,2.403c0.057,0.974-0.192,1.823-0.813,2.604l-12.002,14.778c-0.718,0.884-1.562,1.326-2.568,1.437
		c-0.995,0.083-1.864-0.138-2.651-0.855c-0.388-0.359-1.424-1.105-3.038-2.21c-1.604-1.051-4.282-2.32-7.997-3.701
		c-3.742-1.381-7.333-2.072-10.841-2.072c-6.547,0-11.886,1.823-15.919,5.469c-4.031,3.66-6.056,8.411-6.056,14.322v25.012h35.509
		c0.994,0,1.878,0.346,2.609,1.036c0.746,0.676,1.119,1.562,1.119,2.666v15.221c0,1.035-0.387,1.905-1.119,2.638
		c-0.73,0.746-1.644,1.104-2.609,1.104h-35.509v44.07h48.159v-21.034c0-1.036,0.331-1.892,1.022-2.638
		c0.689-0.746,1.573-1.105,2.665-1.105h18.853c1.09,0,1.987,0.387,2.68,1.05c0.703,0.746,1.049,1.616,1.049,2.597V454.61
		L367.164,454.61z"/>
</g>
<g>
	<path fill="#009BEF" d="M585.745,200.266l-10.119-10.12L443.122,57.644l-10.116-10.12c-4.581-4.581-10.936-7.219-17.434-7.219
		H34.644c-15.567,0-32.329,12.023-32.329,38.406V552.2v217.059v6.077c0,10.983,11.053,21.693,24.125,25.066
		c0.657,0.171,1.287,0.421,1.97,0.553c2.047,0.406,4.134,0.631,6.234,0.631h525.992c2.1,0,4.188-0.225,6.232-0.631
		c0.685-0.132,1.312-0.382,1.971-0.553c13.071-3.373,24.125-14.083,24.125-25.066v-6.077v-217.06V223.773
		C592.967,213.707,591.759,206.277,585.745,200.266z M546.175,197.811H435.458V87.097L546.175,197.811z M34.644,775.335
		c-0.935,0-1.772-0.345-2.602-0.646c-2.048-0.973-3.478-3.021-3.478-5.435V578.449h538.146v190.809c0,2.414-1.433,4.446-3.479,5.435
		c-0.827,0.301-1.666,0.646-2.599,0.646L34.644,775.335L34.644,775.335z M28.567,552.199V78.71c0-2.851,0.434-12.154,6.077-12.154
		h375.325c-0.437,1.654-0.766,3.36-0.766,5.132v152.374H561.58c1.771,0,3.468-0.328,5.119-0.761c0,0.197,0.015,0.275,0.015,0.473
		v328.428L28.567,552.199L28.567,552.199z"/>
	<path fill="#009BEF" d="M206.313,627.594c-4.371-3.584-9.309-6.288-14.809-8.072c-5.499-1.799-11.062-2.689-16.683-2.689h-38.038
		v132.253h21.539v-47.736H174.3c6.933,0,13.283-1.011,19.021-3.045c5.735-2.034,10.644-4.909,14.713-8.61
		c4.069-3.7,7.232-8.281,9.516-13.729c2.271-5.446,3.412-11.514,3.412-18.22c0-6.341-1.351-12.049-4.042-17.144
		C214.228,635.508,210.684,631.189,206.313,627.594z M198.149,671.287c-1.325,3.646-3.045,6.482-5.198,8.521
		c-2.152,2.034-4.515,3.505-7.087,4.396c-2.573,0.896-5.185,1.354-7.81,1.354h-19.741v-52.398h16.145
		c5.5,0,9.922,0.865,13.283,2.601c3.347,1.73,5.946,3.885,7.809,6.458c1.854,2.569,3.071,5.264,3.678,8.069
		c0.591,2.811,0.893,5.289,0.893,7.442C200.118,663.124,199.461,667.64,198.149,671.287z"/>
	<path fill="#009BEF" d="M336.413,636.201c-5.562-5.854-12.562-10.563-21.002-14.083c-8.438-3.52-18.217-5.289-29.335-5.289H246.24
		v132.254h50.061c1.667,0,4.24-0.212,7.721-0.632c3.466-0.421,7.298-1.362,11.485-2.874c4.187-1.497,8.519-3.739,13.007-6.732
		c4.485-2.992,8.519-7.088,12.111-12.298c3.6-5.212,6.554-11.668,8.89-19.389c2.336-7.718,3.505-17.021,3.505-27.903
		c0-7.901-1.379-15.595-4.121-23.062C346.128,648.738,341.978,642.071,336.413,636.201z M320.717,719.286
		c-6.458,9.332-16.983,13.991-31.58,13.991H267.78V633.146h12.561c10.291,0,18.665,1.354,25.123,4.041
		c6.461,2.691,11.576,6.224,15.347,10.595c3.767,4.369,6.299,9.239,7.626,14.62c1.312,5.382,1.968,10.828,1.968,16.328
		C330.401,696.438,327.175,709.969,320.717,719.286z"/>
	<polygon fill="#009BEF" points="384.241,749.083 406.136,749.083 406.136,689.506 461.406,689.506 461.406,674.793 
		406.136,674.793 406.136,633.157 466.962,633.157 466.962,616.829 384.241,616.829 	"/>
</g>
</svg>
