<?xml version="1.0" encoding="utf-8"?>
<!-- Generator: Adobe Illustrator 16.0.0, SVG Export Plug-In . SVG Version: 6.00 Build 0)  -->
<!DOCTYPE svg PUBLIC "-//W3C//DTD SVG 1.1//EN" "http://www.w3.org/Graphics/SVG/1.1/DTD/svg11.dtd">
<svg version="1.1" id="Capa_1" xmlns="http://www.w3.org/2000/svg" xmlns:xlink="http://www.w3.org/1999/xlink" x="0px" y="0px"
	 width="595.278px" height="595.281px" viewBox="0 0 595.278 595.281" enable-background="new 0 0 595.278 595.281"
	 xml:space="preserve">
<g>
	<path fill="#009BEF" d="M594.872,489.953c-1.893-14.305-10.15-26.638-22.653-33.837L425.36,371.561
		c-17.986-10.356-40.805-7.342-55.485,7.338l-28.927,28.927c-7.697,7.699-19.875,8.38-28.321,1.583
		c-22.804-18.35-45.257-38.544-66.733-60.022c-21.478-21.477-41.672-43.929-60.022-66.734c-6.797-8.446-6.117-20.623,1.583-28.322
		l28.925-28.926c14.681-14.679,17.699-37.494,7.34-55.485L139.164,23.061c-7.2-12.505-19.532-20.761-33.837-22.653
		C91.021-1.489,76.966,3.282,66.762,13.485L23.177,57.073c-30.421,30.421-30.909,86.068-1.376,156.691
		c28.398,67.907,81.394,142.661,149.223,210.493c67.831,67.829,142.585,120.825,210.493,149.223
		c34.764,14.537,65.895,21.802,92.18,21.801c27.112,0,49.064-7.731,64.513-23.178l43.585-43.587
		C591.996,518.313,596.763,504.258,594.872,489.953L594.872,489.953z M415.738,388.273l146.858,84.556
		c7.263,4.181,12.059,11.345,13.156,19.652c0.923,6.973-0.889,13.838-4.995,19.37L375.586,400.463l7.926-7.926
		C392.037,384.011,405.293,382.259,415.738,388.273L415.738,388.273z M102.798,19.527c8.309,1.099,15.472,5.895,19.652,13.157
		l84.556,146.858c6.017,10.448,4.263,23.701-4.263,32.225l-7.28,7.281L83.462,24.522c4.578-3.391,10.054-5.231,15.763-5.231
		C100.408,19.291,101.602,19.369,102.798,19.527L102.798,19.527z M524.57,558.467c-24.168,24.168-73.598,23.155-135.613-2.779
		c-65.646-27.452-138.199-78.972-204.296-145.067c-66.097-66.097-117.616-138.65-145.067-204.296
		c-25.937-62.017-26.948-111.446-2.78-135.615L69.171,38.35L181.34,233.172l-7.522,7.522c-14.677,14.678-15.954,37.912-2.972,54.05
		c18.782,23.343,39.444,46.315,61.409,68.28c21.967,21.966,44.939,42.628,68.281,61.41c16.135,12.983,39.369,11.706,54.05-2.973
		l6.862-6.862l195.443,111.544L524.57,558.467L524.57,558.467z"/>
</g>
</svg>
