<?xml version="1.0" encoding="utf-8"?>
<!-- Generator: Adobe Illustrator 16.0.0, SVG Export Plug-In . SVG Version: 6.00 Build 0)  -->
<!DOCTYPE svg PUBLIC "-//W3C//DTD SVG 1.1//EN" "http://www.w3.org/Graphics/SVG/1.1/DTD/svg11.dtd">
<svg version="1.1" xmlns="http://www.w3.org/2000/svg" xmlns:xlink="http://www.w3.org/1999/xlink" x="0px" y="0px" width="30px"
	 height="30px" viewBox="0 0 30 30" enable-background="new 0 0 30 30" xml:space="preserve">
<g id="Layer_1">
	<g id="Layer_2">
	</g>
</g>
<g id="Layer_2_1_">
	<g>
		<path d="M18.72,0.088c-0.169,0.039-0.301,0.133-0.395,0.279l-1.981,3.091c-0.661-0.078-1.363-0.092-2.105-0.047
			c-0.205-0.352-0.487-0.867-0.842-1.546C13.04,1.187,12.775,0.7,12.602,0.407c-0.089-0.157-0.208-0.266-0.353-0.332
			C12.08,0,11.931-0.017,11.794,0.027c-0.808,0.16-2.278,0.7-4.407,1.619C7.202,1.736,7.075,1.86,7.005,2.017
			c-0.08,0.182-0.091,0.352-0.031,0.508L7.77,5.957C7.295,6.341,6.831,6.785,6.375,7.291L2.816,6.316
			C2.654,6.258,2.494,6.269,2.334,6.351c-0.16,0.083-0.276,0.207-0.351,0.376l-1.788,4.021c-0.156,0.351-0.083,0.644,0.217,0.878
			c0.534,0.425,1.579,1.099,3.137,2.022c-0.072,0.648-0.086,1.3-0.045,1.956l-3.049,1.638c-0.19,0.103-0.32,0.232-0.39,0.391
			c-0.119,0.267,0.06,1.026,0.534,2.287c0.474,1.26,0.859,2.141,1.154,2.65c0.108,0.177,0.223,0.293,0.344,0.347
			c0.146,0.064,0.317,0.069,0.516,0.014c1.337-0.374,2.458-0.65,3.36-0.827c0.423,0.549,0.873,1.03,1.354,1.447l-0.992,3.595
			c-0.034,0.142-0.006,0.291,0.083,0.448c0.089,0.155,0.207,0.266,0.353,0.329l4.021,1.789c0.158,0.071,0.322,0.084,0.491,0.044
			c0.17-0.042,0.302-0.134,0.397-0.28l1.96-3.098c0.668,0.095,1.375,0.113,2.124,0.055c0.206,0.352,0.487,0.867,0.844,1.546
			c0.354,0.678,0.621,1.167,0.793,1.459c0.09,0.156,0.207,0.267,0.353,0.33c0.156,0.069,0.314,0.091,0.474,0.059
			c0.86-0.182,2.317-0.727,4.371-1.636c0.191-0.074,0.325-0.196,0.4-0.366c0.08-0.18,0.093-0.355,0.039-0.523l-0.804-3.416
			c0.473-0.382,0.94-0.827,1.396-1.333l3.557,0.975c0.164,0.058,0.324,0.046,0.483-0.034c0.158-0.081,0.275-0.206,0.35-0.376
			l1.789-4.022c0.156-0.351,0.083-0.642-0.217-0.876c-0.533-0.425-1.579-1.101-3.137-2.024c0.071-0.646,0.087-1.298,0.044-1.954
			l3.068-1.629c0.185-0.122,0.308-0.256,0.372-0.399c0.119-0.266-0.059-1.024-0.528-2.274c-0.471-1.251-0.857-2.139-1.16-2.663
			c-0.073-0.162-0.188-0.279-0.346-0.348c-0.157-0.07-0.334-0.078-0.532-0.02c-1.449,0.396-2.569,0.672-3.36,0.825
			c-0.34-0.439-0.786-0.919-1.335-1.438l0.981-3.576c0.04-0.155,0.016-0.313-0.073-0.467c-0.091-0.156-0.206-0.266-0.353-0.331
			l-4.021-1.788C19.052,0.062,18.89,0.047,18.72,0.088z M20.008,19.929c-1.384,1.383-3.051,2.073-5.007,2.073
			c-1.956,0-3.625-0.69-5.006-2.073c-1.385-1.383-2.076-3.053-2.076-5.008c0-1.954,0.691-3.624,2.076-5.007
			c1.381-1.383,3.053-2.076,5.006-2.076c1.956,0,3.623,0.692,5.007,2.076s2.074,3.053,2.074,5.007
			C22.082,16.876,21.392,18.546,20.008,19.929z"/>
	</g>
</g>
</svg>
