<?xml version="1.0" encoding="utf-8"?>
<!-- Generator: Adobe Illustrator 16.0.0, SVG Export Plug-In . SVG Version: 6.00 Build 0)  -->
<!DOCTYPE svg PUBLIC "-//W3C//DTD SVG 1.1//EN" "http://www.w3.org/Graphics/SVG/1.1/DTD/svg11.dtd">
<svg version="1.1" id="Capa_1" xmlns="http://www.w3.org/2000/svg" xmlns:xlink="http://www.w3.org/1999/xlink" x="0px" y="0px"
	 width="595.279px" height="595.281px" viewBox="0 0 595.279 595.281" enable-background="new 0 0 595.279 595.281"
	 xml:space="preserve">
<g>
	<g>
		<path fill="#FFFFFF" d="M595.28,139.519h-210.44v-34.88c0-38.466-31.294-69.76-69.76-69.76H34.88V0H0v595.281h34.88V383.677
			h175.561v34.88c0,38.466,31.294,69.76,69.76,69.76H595.28v-22.329l-68.091-152.069l68.091-152.07V139.519z M315.079,453.436H280.2
			c-19.232,0-34.88-15.646-34.88-34.88v-34.88h69.759c19.233,0,34.88,15.647,34.88,34.88
			C349.959,437.79,334.313,453.436,315.079,453.436z M349.959,358.182c-10.27-5.957-22.178-9.386-34.88-9.386H34.88V69.76h280.199
			c19.233,0,34.88,15.646,34.88,34.88V358.182z M488.973,313.918l62.469,139.519H375.454c5.956-10.27,9.385-22.178,9.385-34.88
			V174.398h166.604L488.973,313.918z"/>
	</g>
</g>
</svg>
