<?xml version="1.0" encoding="utf-8"?>
<!-- Generator: Adobe Illustrator 16.0.0, SVG Export Plug-In . SVG Version: 6.00 Build 0)  -->
<!DOCTYPE svg PUBLIC "-//W3C//DTD SVG 1.1//EN" "http://www.w3.org/Graphics/SVG/1.1/DTD/svg11.dtd">
<svg version="1.1" id="Capa_1" xmlns="http://www.w3.org/2000/svg" xmlns:xlink="http://www.w3.org/1999/xlink" x="0px" y="0px"
	 width="595.279px" height="446.469px" viewBox="0 0 595.279 446.469" enable-background="new 0 0 595.279 446.469"
	 xml:space="preserve">
<g>
	<g>
		<g>
			<path fill="#28A197" d="M484.566,223.178l-4.648,0.037c2.418-12.239,3.72-24.739,3.72-37.202C483.635,83.446,400.19,0,297.622,0
				C195.128,0,111.609,82.627,111.496,184.117l0.298,3.757C48.066,197.024,0,252.122,0,316.259
				c0,64.956,46.801,120.834,111.607,130.209h93.007c10.268,0,18.601-8.369,18.601-18.602c0-10.229-8.333-18.602-18.601-18.602
				l-90.291,0.187c-43.229-6.36-77.121-47.319-77.121-93.19c0-45.723,34.3-85.009,79.837-91.52l15.996-2.309
				c9.151-1.302,15.961-9.149,15.961-18.415l-0.298-19.792c0.111-81.103,66.891-147.023,148.922-147.023
				c82.069,0,148.812,66.74,148.812,148.811c0,10.082-1.005,20.239-3.051,30.097l-4.91,23.661
				c-1.229,5.915,0.521,12.019,4.613,16.443c4.055,4.39,9.971,6.659,16.069,5.729c0.446-0.036,12.056-1.562,25.446-1.562
				c40.551,0,73.475,33.371,73.475,74.443c0,41.07-33.333,74.403-74.403,74.403H353.464c-52.085,0-55.618-31.212-55.806-37.203
				V248.587l44.047,44.011c7.22,7.181,19.051,7.181,26.305,0c7.217-7.255,7.217-19.122,0-26.302l-74.891-74.854
				c-3.646-3.646-8.446-5.432-13.245-5.432l-0.816-0.148c-5.357,0-10.082,2.309-13.469,5.915l-74.927,74.854
				c-7.255,7.217-7.255,19.084,0,26.302s19.049,7.218,26.303,0l43.49-43.453v122.547c0,25.707,19.419,74.405,93.008,74.405h130.21
				c61.531,0,111.605-50.075,111.605-111.605C595.279,273.292,545.615,223.178,484.566,223.178z"/>
		</g>
	</g>
</g>
</svg>
