<?xml version="1.0" encoding="utf-8"?>
<!-- Generator: Adobe Illustrator 16.0.0, SVG Export Plug-In . SVG Version: 6.00 Build 0)  -->
<!DOCTYPE svg PUBLIC "-//W3C//DTD SVG 1.1//EN" "http://www.w3.org/Graphics/SVG/1.1/DTD/svg11.dtd">
<svg version="1.1" id="Layer_1" xmlns="http://www.w3.org/2000/svg" xmlns:xlink="http://www.w3.org/1999/xlink" x="0px" y="0px"
	 width="30px" height="30px" viewBox="0 0 30 30" enable-background="new 0 0 30 30" xml:space="preserve">
<g id="Layer_2">
</g>
<g id="Layer_1_1_">
	<g>
		<path fill="#009BEF" d="M14.979,14.74c0.006,0,0.01,0,0.017,0c0.006,0,0.01,0,0.017,0c0.747-0.007,1.314-0.244,1.74-0.723
			c1.075-1.21,0.838-3.507,0.835-3.531c-0.003-0.007-0.003-0.017-0.003-0.027c-0.104-2.291-1.655-2.663-2.568-2.683
			c-0.01,0-0.02,0-0.027,0h-0.013c-0.737,0-2.457,0.26-2.568,2.683c0,0.006-0.003,0.017-0.003,0.027
			c-0.003,0.02-0.233,2.328,0.838,3.531C13.664,14.496,14.235,14.733,14.979,14.74z"/>
		<path fill="#009BEF" d="M15,0.018c-8.284,0-15,6.716-15,15c0,8.285,6.716,15,15,15s15-6.717,15-15C30,6.734,23.284,0.018,15,0.018
			z M11.502,10.401c0.084-1.814,0.949-2.676,1.659-3.078c0.706-0.402,1.442-0.463,1.818-0.463h0.02c0.003,0,0.01,0,0.014,0h0.024
			c0.682,0.013,1.293,0.176,1.816,0.476c0.703,0.402,1.555,1.264,1.639,3.065c0.023,0.24,0.24,2.753-1.061,4.22
			c-0.591,0.666-1.393,1.013-2.382,1.029c-0.01,0-0.024,0-0.034,0c-0.007,0-0.014,0-0.02,0c-0.021,0-0.037,0-0.055,0
			c-0.99-0.017-1.791-0.364-2.378-1.029C11.262,13.155,11.478,10.641,11.502,10.401z M21.775,21.348
			c-0.033,0.088-0.098,0.164-0.174,0.213c-0.103,0.064-2.531,1.615-6.597,1.615c-4.065,0-6.494-1.547-6.595-1.615
			c-0.081-0.049-0.142-0.125-0.176-0.213c-0.179-0.453-0.176-1.354-0.172-1.529c0-0.004,0-0.008,0-0.01
			c0.003-0.027,0.003-0.055,0.003-0.084c0.021-0.666,0.064-2.23,1.531-2.733c0.01-0.003,0.02-0.007,0.034-0.011
			c1.53-0.389,2.791-1.267,2.804-1.277c0.206-0.145,0.49-0.094,0.635,0.111c0.145,0.207,0.095,0.49-0.111,0.635
			c-0.058,0.037-1.402,0.977-3.084,1.408c-0.788,0.281-0.875,1.123-0.899,1.894c0,0.03-0.003,0.058-0.003,0.084
			c-0.007,0.304,0.017,0.774,0.071,1.044c0.551,0.311,2.71,1.389,5.96,1.389c3.265,0,5.409-1.074,5.957-1.386
			c0.054-0.271,0.075-0.739,0.071-1.044c-0.004-0.027-0.004-0.054-0.004-0.084c-0.022-0.771-0.11-1.611-0.897-1.893
			c-1.683-0.432-3.026-1.368-3.084-1.408c-0.206-0.145-0.257-0.43-0.112-0.635c0.146-0.207,0.43-0.258,0.635-0.112
			c0.015,0.011,1.281,0.89,2.806,1.278c0.01,0.002,0.022,0.006,0.034,0.01c1.466,0.5,1.51,2.064,1.529,2.732
			c0,0.03,0.004,0.059,0.004,0.084c0,0.004,0,0.008,0,0.01C21.941,19.997,21.945,20.898,21.775,21.348z"/>
	</g>
</g>
</svg>
