<?xml version="1.0" encoding="utf-8"?>
<!-- Generator: Adobe Illustrator 16.0.0, SVG Export Plug-In . SVG Version: 6.00 Build 0)  -->
<!DOCTYPE svg PUBLIC "-//W3C//DTD SVG 1.1//EN" "http://www.w3.org/Graphics/SVG/1.1/DTD/svg11.dtd">
<svg version="1.1" id="Layer_1" xmlns="http://www.w3.org/2000/svg" xmlns:xlink="http://www.w3.org/1999/xlink" x="0px" y="0px"
	 width="595.279px" height="522.137px" viewBox="0 0 595.279 522.137" enable-background="new 0 0 595.279 522.137"
	 xml:space="preserve">
<g>
	<g>
		<path fill="#FFFFFF" d="M585.039,407.513c-0.063-0.111-0.129-0.221-0.195-0.332L363.06,36.928
			c-0.022-0.038-0.047-0.075-0.068-0.113c-10.585-17.452-27.334-29.737-47.159-34.592c-19.826-4.857-40.354-1.698-57.807,8.888
			c-10.468,6.351-19.356,15.238-25.704,25.705c-0.022,0.037-0.046,0.074-0.067,0.112L10.469,407.178
			c-0.066,0.112-0.132,0.223-0.195,0.334c-10.207,17.676-12.92,38.269-7.638,57.984c5.281,19.716,17.923,36.194,35.601,46.401
			c11.348,6.552,24.271,10.091,37.371,10.236c0.089,0.001,0.177,0.001,0.265,0.001h443.569c0.089,0,0.177,0,0.265,0.001
			c42.131-0.464,76.032-35.118,75.569-77.251C595.13,431.783,591.592,418.859,585.039,407.513z M519.288,474.046H76.025
			c-4.818-0.072-9.567-1.381-13.742-3.794c-6.552-3.782-11.237-9.891-13.195-17.197c-1.943-7.256-0.967-14.83,2.75-21.352
			L273.47,61.708c2.35-3.859,5.635-7.137,9.498-9.48c6.469-3.923,14.08-5.094,21.427-3.294c7.33,1.795,13.524,6.329,17.45,12.772
			l221.628,369.995c2.378,4.171,3.661,8.909,3.714,13.711C547.36,460.993,534.853,473.813,519.288,474.046z"/>
	</g>
</g>
<g>
	<g>
		<path fill="#FFFFFF" d="M297.656,159.829c-13.279,0-24.045,10.767-24.045,24.045v104.738c0,13.281,10.767,24.045,24.045,24.045
			c13.281,0,24.045-10.766,24.045-24.045V183.874C321.701,170.595,310.937,159.829,297.656,159.829z"/>
	</g>
</g>
<g>
	<g>
		<path fill="#FFFFFF" d="M314.656,376.347c-4.469-4.478-10.665-7.042-17.003-7.042c-6.326,0-12.525,2.565-17.003,7.042
			c-4.467,4.478-7.042,10.676-7.042,17.003c0,6.339,2.575,12.526,7.042,17.003c4.478,4.479,10.677,7.042,17.003,7.042
			c6.337,0,12.523-2.564,17.003-7.042c4.477-4.477,7.042-10.664,7.042-17.003C321.698,387.023,319.132,380.825,314.656,376.347z"/>
	</g>
</g>
</svg>
