<?xml version="1.0" encoding="utf-8"?>
<!-- Generator: Adobe Illustrator 16.0.0, SVG Export Plug-In . SVG Version: 6.00 Build 0)  -->
<!DOCTYPE svg PUBLIC "-//W3C//DTD SVG 1.1//EN" "http://www.w3.org/Graphics/SVG/1.1/DTD/svg11.dtd">
<svg version="1.1" id="Layer_1" xmlns="http://www.w3.org/2000/svg" xmlns:xlink="http://www.w3.org/1999/xlink" x="0px" y="0px"
	 width="573.812px" height="653.755px" viewBox="0 0 573.812 653.755" enable-background="new 0 0 573.812 653.755"
	 xml:space="preserve">
<g id="Capa_1">
	<g>
		<g>
			<path fill="#FFFFFF" d="M251.014,320.755c0.616,0,1.23,0,1.974,0c0.245,0,0.492,0,0.738,0c0.37,0,0.863,0,1.233,0
				c36.118-0.614,65.334-13.312,86.906-37.598c47.46-53.5,39.568-145.215,38.707-153.967c-3.082-65.704-34.146-97.14-59.787-111.809
				C301.679,6.41,279.367,0.493,254.467,0h-0.863c-0.123,0-0.369,0-0.492,0h-0.739c-13.685,0-40.558,2.219-66.318,16.889
				c-25.89,14.669-57.445,46.104-60.525,112.302c-0.863,8.752-8.754,100.466,38.707,153.967
				C185.68,307.441,214.896,320.138,251.014,320.755z M158.437,132.273c0-0.37,0.123-0.74,0.123-0.986
				c4.068-88.386,66.812-97.878,93.688-97.878h0.492c0.247,0,0.616,0,0.985,0c33.283,0.74,89.865,14.3,93.688,97.878
				c0,0.37,0,0.739,0.123,0.986c0.124,0.862,8.753,84.688-30.447,128.818c-15.533,17.504-36.242,26.133-63.485,26.38
				c-0.246,0-0.369,0-0.615,0l0,0c-0.247,0-0.37,0-0.616,0c-27.118-0.247-47.951-8.876-63.36-26.38
				C149.931,217.206,158.313,133.011,158.437,132.273z"/>
			<g>
				<path fill="#FFFFFF" d="M303.51,559.742c-15.823,1.509-32.597,2.378-50.276,2.378c-118.587,0-197.356-39.323-217.45-50.664
					c-1.974-9.86-2.835-26.997-2.589-38.092c0-0.985,0.122-1.973,0.122-3.081c0.863-28.104,4.068-58.802,32.791-69.033
					c61.39-15.776,110.451-50.048,112.548-51.402c7.521-5.303,9.367-15.655,4.067-23.177c-5.301-7.521-15.656-9.366-23.176-4.066
					c-0.493,0.37-46.476,32.421-102.315,46.599c-0.492,0.123-0.862,0.246-1.231,0.369C2.5,387.94,0.896,445.014,0.157,469.301
					c0,1.108,0,2.097-0.123,3.08c0,0.124,0,0.247,0,0.37c-0.123,6.41-0.246,39.324,6.287,55.845c1.231,3.205,3.45,5.917,6.409,7.766
					c3.698,2.467,92.33,58.925,240.627,58.925c21.868,0,42.43-1.237,61.621-3.344C309.91,581.712,306.061,570.92,303.51,559.742z"/>
				<path fill="#FFFFFF" d="M327.69,349.97c1.599,1.127,30.478,21.228,71.299,37.711c15.188-5.208,31.296-7.928,47.822-7.928
					c9.084,0,18.039,0.829,26.786,2.432c-6.39-5.068-14.054-9.354-23.252-12.491c-0.369-0.124-0.862-0.246-1.232-0.369
					c-55.597-14.178-101.82-46.229-102.313-46.598c-7.521-5.301-17.874-3.452-23.175,4.065
					C318.321,334.313,320.171,344.669,327.69,349.97z"/>
			</g>
		</g>
	</g>
	<g>
		<path fill="#FFFFFF" d="M446.811,399.755c-70.145,0-127,56.856-127,127c0,70.145,56.855,127,127,127s127-56.863,127-127
			C573.811,456.62,516.955,399.755,446.811,399.755z M499.293,540.502h-38.735v38.734c0,7.59-6.157,13.747-13.746,13.747
			c-7.59,0-13.747-6.157-13.747-13.747v-38.734H394.33c-7.59,0-13.747-6.157-13.747-13.747c0-7.589,6.157-13.746,13.747-13.746
			h38.734v-38.735c0-7.589,6.157-13.746,13.747-13.746c7.589,0,13.746,6.157,13.746,13.746v38.735h38.735
			c7.589,0,13.747,6.157,13.747,13.746S506.882,540.502,499.293,540.502z"/>
	</g>
</g>
<g id="Layer_2">
</g>
</svg>
