<?xml version="1.0" encoding="utf-8"?>
<!-- Generator: Adobe Illustrator 16.0.0, SVG Export Plug-In . SVG Version: 6.00 Build 0)  -->
<!DOCTYPE svg PUBLIC "-//W3C//DTD SVG 1.1//EN" "http://www.w3.org/Graphics/SVG/1.1/DTD/svg11.dtd">
<svg version="1.1" id="Capa_1" xmlns="http://www.w3.org/2000/svg" xmlns:xlink="http://www.w3.org/1999/xlink" x="0px" y="0px"
	 width="595.279px" height="535.978px" viewBox="0 152.956 595.279 535.978" enable-background="new 0 152.956 595.279 535.978"
	 xml:space="preserve">
<g>
	<g>
		<path fill="#FFFFFF" d="M296.64,607.613c-161.326,0-288.886-167.578-293.888-175.082c-5.003-6.254-5.003-16.258,0-22.511
			c5.002-7.504,132.562-173.832,293.888-173.832s288.886,167.579,293.888,173.832c5.003,6.253,5.003,16.257,0,22.511
			C585.526,440.035,459.217,607.613,296.64,607.613z M41.52,421.276c31.265,36.268,135.064,148.82,255.12,148.82
			c120.057,0,225.106-111.303,255.12-147.569c-31.265-36.268-135.063-147.57-255.12-147.57
			C176.584,273.707,72.784,385.009,41.52,421.276z"/>
		<path fill="#FFFFFF" d="M296.64,543.834c-67.531,0-122.558-55.026-122.558-122.558s55.026-122.558,122.558-122.558
			s122.558,55.026,122.558,122.558S364.171,543.834,296.64,543.834z M296.64,336.236c-46.271,0-85.04,37.517-85.04,85.041
			s37.517,85.041,85.04,85.041c46.271,0,85.04-38.769,85.04-85.041C381.68,375.003,344.162,336.236,296.64,336.236z"/>
	</g>
</g>
</svg>
