<?xml version="1.0" encoding="utf-8"?>
<!-- Generator: Adobe Illustrator 16.0.0, SVG Export Plug-In . SVG Version: 6.00 Build 0)  -->
<!DOCTYPE svg PUBLIC "-//W3C//DTD SVG 1.1//EN" "http://www.w3.org/Graphics/SVG/1.1/DTD/svg11.dtd">
<svg version="1.1" id="Layer_1" xmlns="http://www.w3.org/2000/svg" xmlns:xlink="http://www.w3.org/1999/xlink" x="0px" y="0px"
	 width="30px" height="30px" viewBox="0 0 30 30" enable-background="new 0 0 30 30" xml:space="preserve">
<g id="Layer_1_1_">
	<g id="Layer_2">
	</g>
</g>
<g id="Layer_2_1_">
	<g>
		<path fill="#FFFFFF" d="M28.823,1.176H1.176c-0.637,0-1.152,0.516-1.152,1.152c0,0.636,0.515,1.152,1.152,1.152h27.647
			c0.637,0,1.151-0.517,1.151-1.152C29.975,1.693,29.46,1.176,28.823,1.176z"/>
		<path fill="#FFFFFF" d="M28.823,13.849H1.176c-0.637,0-1.152,0.515-1.152,1.152c0,0.636,0.515,1.149,1.152,1.149h27.647
			c0.637,0,1.151-0.514,1.151-1.149C29.977,14.364,29.46,13.849,28.823,13.849z"/>
		<path fill="#FFFFFF" d="M28.823,26.52H1.176c-0.637,0-1.152,0.518-1.152,1.152c0,0.637,0.515,1.151,1.152,1.151h27.647
			c0.637,0,1.151-0.515,1.151-1.151C29.977,27.036,29.46,26.52,28.823,26.52z"/>
	</g>
</g>
</svg>
