<?xml version="1.0" encoding="utf-8"?>
<!-- Generator: Adobe Illustrator 16.0.0, SVG Export Plug-In . SVG Version: 6.00 Build 0)  -->
<!DOCTYPE svg PUBLIC "-//W3C//DTD SVG 1.1//EN" "http://www.w3.org/Graphics/SVG/1.1/DTD/svg11.dtd">
<svg version="1.1" id="Layer_1" xmlns="http://www.w3.org/2000/svg" xmlns:xlink="http://www.w3.org/1999/xlink" x="0px" y="0px"
	 width="56.693px" height="56.693px" viewBox="70.866 0 56.693 56.693" enable-background="new 70.866 0 56.693 56.693"
	 xml:space="preserve">
<rect x="70.866" y="0" fill="#009BEF" width="56.693" height="56.693"/>
<rect x="81.309" y="16.164" display="none" fill="#FFFFFF" width="6.366" height="21.238"/>
<g>
	<polygon fill="#FFFFFF" points="95.091,24.421 89.045,24.26 83.65,13.248 95,18.483 	"/>
	<polygon opacity="0.88" fill="#FFFFFF" enable-background="new    " points="89.045,32.432 77.204,28.346 89.045,24.26 
		93.483,28.274 	"/>
	<polygon opacity="0.77" fill="#FFFFFF" enable-background="new    " points="95,38.211 83.65,43.446 89.045,32.432 95.179,32.111 	
		"/>
	<polygon opacity="0.66" fill="#FFFFFF" enable-background="new    " points="103.423,38.211 99.212,49.7 95,38.211 99.134,33.657 	
		"/>
	<polygon opacity="0.55" fill="#FFFFFF" enable-background="new    " points="109.378,32.432 114.775,43.446 103.423,38.211 
		103.072,32.042 	"/>
	<polygon opacity="0.44" fill="#FFFFFF" enable-background="new    " points="109.378,24.26 121.22,28.346 109.378,32.432 
		104.687,28.184 	"/>
	<polygon opacity="0.33" fill="#FFFFFF" enable-background="new    " points="103.423,18.483 114.775,13.248 109.378,24.26 
		103.013,24.364 	"/>
	<polygon opacity="0.22" fill="#FFFFFF" enable-background="new    " points="103.423,18.483 99.042,22.807 95,18.483 99.212,6.994 
			"/>
</g>
</svg>
