<?xml version="1.0" encoding="utf-8"?>
<!-- Generator: Adobe Illustrator 16.0.0, SVG Export Plug-In . SVG Version: 6.00 Build 0)  -->
<!DOCTYPE svg PUBLIC "-//W3C//DTD SVG 1.1//EN" "http://www.w3.org/Graphics/SVG/1.1/DTD/svg11.dtd">
<svg version="1.1" id="Layer_1" xmlns="http://www.w3.org/2000/svg" xmlns:xlink="http://www.w3.org/1999/xlink" x="0px" y="0px"
	 width="595.275px" height="595.279px" viewBox="0 0 595.275 595.279" enable-background="new 0 0 595.275 595.279"
	 xml:space="preserve">
<rect x="118.7" y="47.455" transform="matrix(0.8322 -0.5545 0.5545 0.8322 -17.9927 95.4456)" fill="#DBE5EC" width="59.988" height="59.988"/>
<rect x="32.202" y="143.947" transform="matrix(0.4691 -0.8831 0.8831 0.4691 -120.5936 147.2666)" fill="#DBE5EC" width="59.982" height="59.982"/>
<rect x="0" y="271.443" transform="matrix(-2.278527e-04 -1 1 -2.278527e-04 -271.4365 331.4998)" fill="#DBE5EC" width="59.988" height="59.988"/>
<rect x="121.343" y="491.907" transform="matrix(0.8321 0.5546 -0.5546 0.8321 314.8636 3.6902)" fill="#DBE5EC" width="59.986" height="59.987"/>
<rect x="34.864" y="395.407" transform="matrix(0.4691 0.8831 -0.8831 0.4691 410.1174 168.5639)" fill="#DBE5EC" width="59.983" height="59.983"/>
<path fill="#EE342E" d="M297.639,0v60c32.106,0,63.224,6.274,92.48,18.649c28.291,11.966,53.712,29.108,75.558,50.953
	c21.845,21.844,38.985,47.265,50.953,75.556c12.376,29.258,18.648,60.372,18.648,92.479c0,32.106-6.272,63.224-18.648,92.481
	c-11.968,28.29-29.108,53.71-50.953,75.556c-21.846,21.844-47.267,38.985-75.558,50.952c-29.259,12.375-60.374,18.649-92.48,18.649
	v60c164.385,0,297.642-133.258,297.642-297.642C595.28,133.258,462.023,0,297.639,0z"/>
</svg>
