<?xml version="1.0" encoding="utf-8"?>
<!-- Generator: Adobe Illustrator 16.0.0, SVG Export Plug-In . SVG Version: 6.00 Build 0)  -->
<!DOCTYPE svg PUBLIC "-//W3C//DTD SVG 1.1//EN" "http://www.w3.org/Graphics/SVG/1.1/DTD/svg11.dtd">
<svg version="1.1" id="Layer_1" xmlns="http://www.w3.org/2000/svg" xmlns:xlink="http://www.w3.org/1999/xlink" x="0px" y="0px"
	 width="595.275px" height="595.279px" viewBox="0 0 595.275 595.279" enable-background="new 0 0 595.275 595.279"
	 xml:space="preserve">
<rect x="416.6" y="47.22" transform="matrix(0.8322 0.5545 -0.5545 0.8322 117.7591 -234.6768)" fill="#DBE5EC" width="59.991" height="59.99"/>
<rect x="503.083" y="143.747" transform="matrix(0.4691 0.8831 -0.8831 0.4691 436.4367 -378.5422)" fill="#DBE5EC" width="59.979" height="59.979"/>
<rect x="535.287" y="271.243" transform="matrix(-2.279719e-04 1 -1 -2.279719e-04 866.646 -263.9753)" fill="#DBE5EC" width="59.987" height="59.987"/>
<rect x="413.901" y="491.718" transform="matrix(0.8321 -0.5546 0.5546 0.8321 -214.8197 333.7717)" fill="#DBE5EC" width="59.985" height="59.987"/>
<rect x="500.429" y="395.234" transform="matrix(0.4691 -0.8831 0.8831 0.4691 -93.9386 694.1822)" fill="#DBE5EC" width="59.981" height="59.982"/>
<path fill="#EE342E" d="M297.637-0.201v60c-32.108,0-63.226,6.274-92.481,18.649c-28.291,11.968-53.713,29.109-75.557,50.953
	c-21.847,21.845-38.987,47.265-50.953,75.556c-12.376,29.258-18.649,60.373-18.649,92.479c0,32.105,6.273,63.226,18.649,92.48
	c11.966,28.292,29.106,53.713,50.953,75.557c21.844,21.844,47.266,38.988,75.557,50.953c29.259,12.375,60.373,18.647,92.481,18.647
	v60c-164.387,0-297.644-133.258-297.644-297.641C-0.005,133.057,133.252-0.201,297.637-0.201z"/>
</svg>
