<?xml version="1.0" encoding="utf-8"?>
<!-- Generator: Adobe Illustrator 16.0.0, SVG Export Plug-In . SVG Version: 6.00 Build 0)  -->
<!DOCTYPE svg PUBLIC "-//W3C//DTD SVG 1.1//EN" "http://www.w3.org/Graphics/SVG/1.1/DTD/svg11.dtd">
<svg version="1.1" id="Layer_1" xmlns="http://www.w3.org/2000/svg" xmlns:xlink="http://www.w3.org/1999/xlink" x="0px" y="0px"
	 width="595.279px" height="442.293px" viewBox="0 199.798 595.279 442.293" enable-background="new 0 199.798 595.279 442.293"
	 xml:space="preserve">
<g>
	<g>
		<path fill="#FFFFFF" d="M510.096,240.833c-26.458-26.463-61.644-41.035-99.062-41.035c-37.424,0-72.604,14.572-99.062,41.035
			l-11.123,11.124l-11.124-11.124c-26.463-26.463-61.647-41.035-99.067-41.035c-37.424,0-72.604,14.572-99.062,41.035
			c-54.628,54.618-54.628,143.497,0,198.12l198.814,198.814c2.883,2.883,6.656,4.324,10.435,4.324s7.551-1.441,10.444-4.319
			l198.809-198.814c26.463-26.458,41.035-61.643,41.035-99.062C551.131,302.472,536.559,267.292,510.096,240.833z M489.222,418.084
			l-188.374,188.38l-188.379-188.38c-43.116-43.116-43.116-113.265,0-156.381c20.884-20.884,48.65-32.386,78.188-32.386
			c29.533,0,57.305,11.502,78.193,32.386l21.559,21.558c5.766,5.766,15.104,5.766,20.869,0l21.558-21.558
			c20.889-20.884,48.655-32.386,78.193-32.386s57.31,11.502,78.193,32.386C532.338,304.819,532.338,374.968,489.222,418.084z"/>
	</g>
</g>
<g>
	<g>
		<path fill="#FFFFFF" d="M68.875,386.269H14.759C6.607,386.269,0,392.876,0,401.027c0,8.152,6.606,14.76,14.759,14.76h54.116
			c8.152,0,14.759-6.607,14.759-14.76C83.634,392.876,77.028,386.269,68.875,386.269z"/>
	</g>
</g>
<g>
	<g>
		<path fill="#FFFFFF" d="M531.315,386.746H390.061L368.079,338.4c-1.657-3.655-5.269-5.879-9.377-5.761
			c-4.009,0.172-7.512,2.755-8.85,6.538L304.926,465.78l-54.618-151.255c-1.348-3.734-4.816-6.297-8.791-6.484
			c-4.251-0.197-7.67,2.042-9.362,5.638l-36.701,77.987H73.79c-5.437,0-9.84,4.408-9.84,9.839c0,5.432,6.475,9.362,11.911,9.362
			h127.911c3.812,0,5.21-1.722,6.834-5.171l29.257-62.17l55.902,154.798c1.407,3.896,5.106,6.494,9.254,6.494c0.01,0,0.02,0,0.02,0
			c4.157-0.01,7.856-2.633,9.244-6.549l45.969-129.549l14.519,31.934c1.594,3.518,7.173,5.293,11.029,5.293h147.591
			c5.431,0,7.763-3.931,7.763-9.362C541.154,391.154,536.745,386.746,531.315,386.746z"/>
	</g>
</g>
<g>
	<g>
		<path fill="#FFFFFF" d="M580.521,381.349h-44.276c-8.152,0-14.76,6.607-14.76,14.759s6.607,14.759,14.76,14.759h44.276
			c8.152,0,14.759-6.607,14.759-14.759S588.673,381.349,580.521,381.349z"/>
	</g>
</g>
</svg>
