<?xml version="1.0" encoding="utf-8"?>
<!-- Generator: Adobe Illustrator 16.0.0, SVG Export Plug-In . SVG Version: 6.00 Build 0)  -->
<!DOCTYPE svg PUBLIC "-//W3C//DTD SVG 1.1//EN" "http://www.w3.org/Graphics/SVG/1.1/DTD/svg11.dtd">
<svg version="1.1" id="Capa_1" xmlns="http://www.w3.org/2000/svg" xmlns:xlink="http://www.w3.org/1999/xlink" x="0px" y="0px"
	 width="520.057px" height="653.755px" viewBox="0 0 520.057 653.755" enable-background="new 0 0 520.057 653.755"
	 xml:space="preserve">
<g id="Layer_2">
</g>
<g>
	<path fill="#009BEF" d="M254.279,575.437H19.842V19.842h287.72v138.899h138.897v230.978c6.838,2.662,13.467,5.845,19.844,9.521
		V144.713L321.589,0H0v595.28h262.932C259.554,588.885,256.665,582.256,254.279,575.437z M327.405,33.871L432.431,138.9H327.405
		V33.871z"/>
</g>
<g id="Capa_1_1_">
	<g>
		<path fill="#009BEF" d="M393.056,399.755c-70.145,0-127,56.855-127,127c0,70.146,56.855,127,127,127c70.146,0,127-56.862,127-127
			C520.056,456.62,463.201,399.755,393.056,399.755z M445.538,540.502h-38.735v38.735c0,7.589-6.157,13.746-13.746,13.746
			c-7.59,0-13.747-6.157-13.747-13.746v-38.735h-38.733c-7.59,0-13.747-6.156-13.747-13.747c0-7.589,6.157-13.745,13.747-13.745
			h38.733v-38.735c0-7.589,6.157-13.746,13.747-13.746c7.589,0,13.746,6.157,13.746,13.746v38.735h38.735
			c7.589,0,13.747,6.156,13.747,13.745C459.286,534.344,453.127,540.502,445.538,540.502z"/>
	</g>
</g>
<g>
	<path fill="#009BEF" d="M99.213,168.663h89.292c5.478,0,9.921-4.435,9.921-9.921c0-5.487-4.443-9.921-9.921-9.921H99.213
		c-5.478,0-9.922,4.435-9.922,9.921C89.292,164.229,93.737,168.663,99.213,168.663z"/>
	<path fill="#009BEF" d="M267.876,367.09H99.213c-5.478,0-9.922,4.436-9.922,9.922s4.444,9.922,9.922,9.922h168.662
		c5.478,0,9.922-4.436,9.922-9.922C277.797,371.524,273.352,367.09,267.876,367.09z"/>
	<path fill="#009BEF" d="M367.089,297.64h-69.449c-5.478,0-9.922,4.436-9.922,9.921s4.444,9.922,9.922,9.922h69.449
		c5.478,0,9.921-4.437,9.921-9.922S372.566,297.64,367.089,297.64z"/>
	<path fill="#009BEF" d="M99.213,248.033h49.605c5.478,0,9.921-4.437,9.921-9.921c0-5.485-4.443-9.921-9.921-9.921H99.213
		c-5.478,0-9.922,4.436-9.922,9.921C89.291,243.597,93.737,248.033,99.213,248.033z"/>
	<path fill="#009BEF" d="M248.033,248.033h69.449c5.478,0,9.923-4.437,9.923-9.921c0-5.485-4.445-9.921-9.923-9.921h-69.449
		c-5.477,0-9.921,4.436-9.921,9.921C238.112,243.597,242.556,248.033,248.033,248.033z"/>
	<path fill="#009BEF" d="M188.505,238.113c0,2.58,1.091,5.159,2.877,7.044c1.885,1.786,4.465,2.877,7.044,2.877
		c2.58,0,5.159-1.091,7.044-2.877c1.786-1.885,2.878-4.464,2.878-7.044c0-2.589-1.092-5.169-2.878-7.044
		c-3.671-3.671-10.316-3.671-14.088,0C189.595,232.944,188.505,235.524,188.505,238.113z"/>
	<path fill="#009BEF" d="M148.82,297.64c-5.478,0-9.922,4.436-9.922,9.921s4.444,9.922,9.922,9.922h99.213
		c5.478,0,9.923-4.437,9.923-9.922s-4.445-9.921-9.923-9.921H148.82z"/>
	<path fill="#009BEF" d="M99.213,317.483c2.579,0,5.159-1.092,7.044-2.878c1.786-1.885,2.877-4.464,2.877-7.044
		c0-2.589-1.091-5.169-2.877-7.044c-3.671-3.671-10.418-3.671-14.089,0c-1.785,1.875-2.877,4.354-2.877,7.044
		c0,2.58,1.092,5.159,2.877,7.044C94.053,316.391,96.633,317.483,99.213,317.483z"/>
	<path fill="#009BEF" d="M248.033,436.539H148.82c-5.478,0-9.922,4.436-9.922,9.922s4.444,9.922,9.922,9.922h99.213
		c5.478,0,9.923-4.436,9.923-9.922C257.955,440.973,253.509,436.539,248.033,436.539z"/>
	<path fill="#009BEF" d="M92.168,439.416c-1.785,1.786-2.877,4.354-2.877,7.045c0,2.68,0.991,5.158,2.877,7.044
		c1.886,1.785,4.465,2.878,7.045,2.878c2.679,0,5.159-1.093,7.044-2.878c1.786-1.886,2.877-4.465,2.877-7.044
		c0-2.688-1.091-5.17-2.877-6.944C102.586,435.745,95.939,435.745,92.168,439.416z"/>
	<path fill="#009BEF" d="M360.044,231.069c-1.785,1.875-2.877,4.455-2.877,7.044c0,2.58,1.092,5.159,2.877,7.044
		c1.887,1.786,4.465,2.877,7.045,2.877c2.579,0,5.158-1.091,7.044-2.877c1.886-1.885,2.877-4.464,2.877-7.044
		c0-2.589-0.991-5.169-2.877-7.044C370.364,227.398,363.815,227.398,360.044,231.069z"/>
	<path fill="#009BEF" d="M324.527,384.055c1.785-1.887,2.878-4.466,2.878-7.045c0-2.59-1.093-5.17-2.878-7.045
		c-3.771-3.671-10.418-3.671-14.089,0c-1.786,1.875-2.877,4.455-2.877,7.045c0,2.579,1.091,5.158,2.877,7.045
		c1.886,1.875,4.364,2.877,7.044,2.877S322.641,385.841,324.527,384.055z"/>
</g>
</svg>
