<?xml version="1.0" encoding="utf-8"?>
<!-- Generator: Adobe Illustrator 16.0.0, SVG Export Plug-In . SVG Version: 6.00 Build 0)  -->
<!DOCTYPE svg PUBLIC "-//W3C//DTD SVG 1.1//EN" "http://www.w3.org/Graphics/SVG/1.1/DTD/svg11.dtd">
<svg version="1.1" id="Layer_1" xmlns="http://www.w3.org/2000/svg" xmlns:xlink="http://www.w3.org/1999/xlink" x="0px" y="0px"
	 width="446.365px" height="595.279px" viewBox="0 0 446.365 595.279" enable-background="new 0 0 446.365 595.279"
	 xml:space="preserve">
<g>
	<g>
		<path fill="#009BEF" d="M446.334,120.485c-0.038-3.577-1.423-7.081-4.052-9.71L335.593,4.082c-0.005-0.006-0.009-0.007-0.015-0.01
			C333.059,1.555,329.577,0,325.736,0H29.343C13.162,0-0.001,13.161-0.001,29.342v536.594c0,16.182,13.161,29.342,29.342,29.342
			h387.682c16.18,0,29.343-13.16,29.343-29.342V120.629C446.365,120.577,446.341,120.534,446.334,120.485z M339.675,47.589
			l59.103,59.103h-57.635c-0.811,0-1.468-0.659-1.468-1.467V47.589L339.675,47.589z M418.49,565.938
			c0,0.809-0.658,1.465-1.466,1.465H29.343c-0.809,0-1.467-0.656-1.467-1.465V29.342c0-0.809,0.658-1.466,1.467-1.466h282.456
			v77.348c0,16.18,13.164,29.344,29.345,29.344h77.348L418.49,565.938L418.49,565.938z"/>
	</g>
</g>
<g>
	<g>
		<path fill="#009BEF" d="M346.527,190.692H99.839c-7.695,0-13.938,6.24-13.938,13.938c0,7.696,6.241,13.938,13.938,13.938h246.688
			c7.697,0,13.938-6.241,13.938-13.938C360.466,196.932,354.223,190.692,346.527,190.692z"/>
	</g>
</g>
<g>
	<g>
		<path fill="#009BEF" d="M346.527,274.798H99.839c-7.695,0-13.938,6.241-13.938,13.938c0,7.697,6.241,13.939,13.938,13.939h246.688
			c7.697,0,13.938-6.241,13.938-13.939C360.466,281.039,354.223,274.798,346.527,274.798z"/>
	</g>
</g>
<g>
	<g>
		<path fill="#009BEF" d="M346.527,358.901H99.839c-7.695,0-13.938,6.242-13.938,13.939s6.241,13.938,13.938,13.938h246.688
			c7.697,0,13.938-6.238,13.938-13.938C360.466,365.143,354.223,358.901,346.527,358.901z"/>
	</g>
</g>
<g>
	<g>
		<path fill="#009BEF" d="M223.183,443.007H99.839c-7.695,0-13.938,6.242-13.938,13.938c0,7.699,6.241,13.939,13.938,13.939h123.344
			c7.696,0,13.938-6.24,13.938-13.939C237.12,449.247,230.88,443.007,223.183,443.007z"/>
	</g>
</g>
</svg>
