<?xml version="1.0" encoding="utf-8"?>
<!-- Generator: Adobe Illustrator 16.0.0, SVG Export Plug-In . SVG Version: 6.00 Build 0)  -->
<!DOCTYPE svg PUBLIC "-//W3C//DTD SVG 1.1//EN" "http://www.w3.org/Graphics/SVG/1.1/DTD/svg11.dtd">
<svg version="1.1" id="Capa_1" xmlns="http://www.w3.org/2000/svg" xmlns:xlink="http://www.w3.org/1999/xlink" x="0px" y="0px"
	 width="595.279px" height="158.042px" viewBox="0 218.269 595.279 158.042" enable-background="new 0 218.269 595.279 158.042"
	 xml:space="preserve">
<g>
	<path fill="#FFFFFF" d="M79.37,218.269C35.608,218.269,0,253.877,0,297.64c0,43.763,35.607,79.37,79.37,79.37
		c43.764,0,79.371-35.607,79.371-79.37C158.741,253.877,123.134,218.269,79.37,218.269z"/>
	<path fill="#FFFFFF" d="M515.909,218.269c-43.763,0-79.371,35.607-79.371,79.371c0,43.763,35.608,79.37,79.371,79.37
		s79.37-35.607,79.37-79.37C595.28,253.877,559.672,218.269,515.909,218.269z"/>
	<path fill="#FFFFFF" d="M297.64,218.269c-43.763,0-79.37,35.607-79.37,79.371c0,43.763,35.607,79.37,79.37,79.37
		s79.371-35.607,79.371-79.37C377.011,253.877,341.403,218.269,297.64,218.269z"/>
</g>
</svg>
