<?xml version="1.0" encoding="utf-8"?>
<!-- Generator: Adobe Illustrator 16.0.0, SVG Export Plug-In . SVG Version: 6.00 Build 0)  -->
<!DOCTYPE svg PUBLIC "-//W3C//DTD SVG 1.1//EN" "http://www.w3.org/Graphics/SVG/1.1/DTD/svg11.dtd">
<svg version="1.1" id="Capa_1" xmlns="http://www.w3.org/2000/svg" xmlns:xlink="http://www.w3.org/1999/xlink" x="0px" y="0px"
	 width="485.539px" height="206.999px" viewBox="0 0 485.539 206.999" enable-background="new 0 0 485.539 206.999"
	 xml:space="preserve">
<g>
	<g>
		<path fill="#FFFFFF" d="M485.19,103.582c-0.097-2.09-0.193-4.164-0.406-5.474c-0.232-1.429-0.706-2.846-1.387-4.207
			c-7.54-14.996-21.241-23.597-37.603-23.597c-6.402,0-12.889,1.324-19.275,3.947c-1.533,0.627-2.95,1.435-4.21,2.396
			c-0.776,0.602-1.772,1.435-2.823,2.333c-1.396,1.181-2.909,2.471-4.184,3.393c-5.338,3.841-9.31,8.193-12.184,13.497
			c-0.064-0.005-0.132-0.01-0.202-0.015c-10.034-0.771-21.906-1.607-33.789-1.986c-1.96-0.058-4.666-1.565-5.678-3.163
			c-6.216-9.806-11.223-19.238-15.324-28.833c-1.204-2.823-3.637-4.997-6.847-6.114c-2.559-0.894-5.037-0.903-6.261-0.878
			c-0.352-0.043-0.706-0.073-1.082-0.073h-54.364c-1.949,0-3.787,0.353-5.443,1.051c-2.682,1.122-4.945,3.499-6.062,4.812
			c-0.513,0.609-0.995,1.285-1.432,2.05c-4.784,8.34-10.034,17.186-16.037,27.029c-0.086,0.135-0.162,0.239-0.203,0.322
			c-0.061-0.083-0.127-0.192-0.203-0.332c-14.824-29.163-26.682-55.521-36.254-80.578C211.774,3.511,206.625,0,200.496,0
			c-5.918,0-11.145,3.226-12.994,8.019c-0.625,1.606-0.938,3.626-1.239,5.581c-0.244,1.559-0.493,3.171-0.863,4.217
			c-15.987,45.39-28.287,91.604-36.554,137.396c-5.825-9.638-11.685-19.266-17.544-28.884
			c-12.002-19.702-24.407-40.075-36.271-60.301c-2.506-4.275-6.464-6.629-11.144-6.629c-3.593,0-7.244,1.449-9.899,3.882
			c-2.112,1.716-3.834,4.072-4.981,6.817c-2.849,6.797-5.771,13.562-8.688,20.326l-2.46,5.697c-0.686,1.607-2.906,3.064-4.648,3.064
			H13.327C4.575,99.19,0,106.08,0,112.884c0,6.805,4.575,13.69,13.327,13.69h49.924c0.29,0,0.556-0.021,0.716-0.03
			c0.277,0.021,0.667,0.04,1.15,0.04c1.841,0,3.542-0.31,5.05-0.902c3.628-1.442,6.613-4.581,8.396-8.847
			c2.044-4.865,4.118-9.71,6.221-14.549c7.403,12.34,14.886,24.628,22.368,36.922c11.118,18.271,22.615,37.15,33.654,55.878
			c0.378,0.641,0.77,1.417,1.191,2.255c1.267,2.51,2.709,5.354,4.715,6.946c2.188,1.747,5.139,2.712,8.305,2.712
			c6.655,0,13.979-4.396,15.089-12.786c6.068-45.569,16.963-93.09,32.391-141.297c9.808,22.333,20.981,45.286,34.137,70.114
			c0.858,1.625,1.935,2.986,3.204,4.062c2.312,1.972,6.932,3.57,10.303,3.57c4.642-0.006,8.633-2.26,11.253-6.338
			c7.693-12.029,15.479-24.803,23.78-39.047c0.938-1.609,3.482-3.072,5.342-3.072h33.54c1.768,0,4.104,1.483,4.905,3.105
			c4.691,9.482,10.258,18.904,16.545,27.989c0.375,0.538,0.771,1.025,1.462,1.798c0.894,1.076,2.747,3.301,5.342,4.579
			c1.798,0.896,3.819,1.353,6.018,1.361c13.614,0.071,27.37,0.96,39.034,1.823c1.646,0.116,3.545,1.711,4.14,3.474
			c1.631,4.788,4.048,9.703,7.186,14.629c0.833,1.301,1.818,2.434,2.925,3.353c1.331,1.106,2.732,1.787,3.688,2.244l0.214,0.173
			c8.397,6.316,18.169,9.658,28.229,9.658c6.235,0,12.427-1.274,18.393-3.788c0.498-0.203,0.979-0.438,1.446-0.69
			c0.215-0.111,0.544-0.249,0.936-0.416c0.863-0.376,1.945-0.843,2.854-1.371c0.954-0.549,1.839-1.219,2.65-1.984
			c11.283-10.623,16.584-24.857,15.346-41.152C485.291,105.944,485.24,104.759,485.19,103.582z M428.236,119.953
			c-1.839-3.961-2.306-7.271-1.463-10.409c1.579-5.873,11.725-9.311,17.438-11.237c0.359-0.119,0.689-0.268,0.771-0.322
			c0.121-0.033,0.762-0.147,1.762-0.147c0.885,0,1.763,0.095,2.544,0.272c2.474,0.565,4.597,1.797,6.49,3.76
			c1.452,1.495,2.203,3.694,2.244,4.263c0.015,0.772,0.081,1.55,0.208,2.326c0.878,5.596-0.3,10.826-3.509,15.549
			c-1.179,1.736-4.296,3.813-6.408,4.267c-5.235,1.137-9.709,0.432-14.549-2.285C431.83,124.909,429.2,122.035,428.236,119.953z"/>
	</g>
</g>
</svg>
