<?xml version="1.0" encoding="utf-8"?>
<!-- Generator: Adobe Illustrator 16.0.0, SVG Export Plug-In . SVG Version: 6.00 Build 0)  -->
<!DOCTYPE svg PUBLIC "-//W3C//DTD SVG 1.1//EN" "http://www.w3.org/Graphics/SVG/1.1/DTD/svg11.dtd">
<svg version="1.1" id="Capa_1" xmlns="http://www.w3.org/2000/svg" xmlns:xlink="http://www.w3.org/1999/xlink" x="0px" y="0px"
	 width="486.342px" height="595.281px" viewBox="0 0 486.342 595.281" enable-background="new 0 0 486.342 595.281"
	 xml:space="preserve">
<circle fill="#668FAF" cx="228.19" cy="29.814" r="29.814"/>
<circle fill="#668FAF" cx="386.15" cy="29.814" r="29.814"/>
<path fill="#668FAF" d="M474.979,56.93c-15.148-26.235-42.277-41.897-72.572-41.897V44.6c19.606,0,37.161,10.137,46.966,27.113
	c9.806,16.981,9.806,37.253,0.004,54.234l-94.979,164.506c-9.802,16.979-27.359,27.114-46.966,27.117
	c-19.606,0-37.164-10.136-46.971-27.117l-94.976-164.509c-9.802-16.979-9.802-37.253,0-54.231
	c9.802-16.978,27.362-27.116,46.97-27.116V15.03c-30.296,0-57.428,15.662-72.576,41.9c-15.146,26.238-15.146,57.562,0,83.8
	l94.978,164.506c12.632,21.878,33.606,36.366,57.791,40.589v79.338c0,77.501-45.751,140.554-101.986,140.554
	c-56.236,0-101.984-63.053-101.984-140.554v-94.465c33.68-6.866,59.103-36.719,59.103-72.401c0-40.741-33.146-73.888-73.889-73.888
	C33.147,184.409,0,217.554,0,258.297c0,35.681,25.423,65.532,59.104,72.4v94.466c0,93.806,59.016,170.121,131.556,170.121
	c72.536,0,131.553-76.315,131.553-170.121v-79.338c24.181-4.223,45.158-18.711,57.788-40.589l94.979-164.506
	C490.13,114.494,490.13,83.167,474.979,56.93z"/>
</svg>
