<?xml version="1.0" encoding="utf-8"?>
<!-- Generator: Adobe Illustrator 16.0.0, SVG Export Plug-In . SVG Version: 6.00 Build 0)  -->
<!DOCTYPE svg PUBLIC "-//W3C//DTD SVG 1.1//EN" "http://www.w3.org/Graphics/SVG/1.1/DTD/svg11.dtd">
<svg version="1.1" id="Capa_1" xmlns="http://www.w3.org/2000/svg" xmlns:xlink="http://www.w3.org/1999/xlink" x="0px" y="0px"
	 width="486.342px" height="595.281px" viewBox="0 0 486.342 595.281" enable-background="new 0 0 486.342 595.281"
	 xml:space="preserve">
<circle fill="#FFBF47" cx="228.19" cy="29.814" r="29.814"/>
<circle fill="#FFBF47" cx="386.15" cy="29.814" r="29.814"/>
<path fill="#FFBF47" d="M474.979,56.93c-15.148-26.235-42.277-41.897-72.572-41.897V44.6c19.606,0,37.161,10.137,46.966,27.112
	c9.807,16.981,9.807,37.253,0.005,54.234l-94.979,164.506c-9.802,16.979-27.359,27.114-46.966,27.117
	c-19.605,0-37.164-10.136-46.971-27.117l-94.977-164.509c-9.802-16.979-9.802-37.253,0-54.231
	c9.803-16.978,27.362-27.115,46.971-27.115V15.03c-30.296,0-57.429,15.662-72.576,41.9c-15.146,26.237-15.146,57.562,0,83.8
	l94.978,164.506c12.632,21.878,33.606,36.366,57.791,40.589v79.338c0,77.501-45.751,140.555-101.985,140.555
	c-56.236,0-101.984-63.054-101.984-140.555v-94.465c33.68-6.866,59.104-36.719,59.104-72.401c0-40.74-33.146-73.888-73.89-73.888
	C33.147,184.409,0,217.554,0,258.297c0,35.682,25.423,65.532,59.104,72.4v94.466c0,93.807,59.017,170.121,131.557,170.121
	c72.535,0,131.553-76.314,131.553-170.121v-79.338c24.181-4.223,45.157-18.711,57.788-40.589L474.98,140.73
	C490.13,114.494,490.13,83.167,474.979,56.93z"/>
</svg>
